<svg width="60" height="60" viewBox="0 0 60 60" fill="none" xmlns="http://www.w3.org/2000/svg">
<path d="M33.7569 9.375H26.2431C19.1589 9.375 15.6168 9.375 13.4161 11.5717C11.7687 13.2161 11.3544 15.6107 11.2503 19.6771C11.237 20.1984 11.6648 20.615 12.1702 20.7472C13.7826 21.1689 14.9723 22.6333 14.9723 24.375C14.9723 26.1167 13.7826 27.5811 12.1702 28.0028C11.6648 28.135 11.237 28.5516 11.2503 29.0729C11.3544 33.1393 11.7687 35.5339 13.4161 37.1783C15.6168 39.375 19.1589 39.375 26.2431 39.375H33.7569C40.8411 39.375 44.3831 39.375 46.5839 37.1783C48.2313 35.5339 48.6456 33.1393 48.7497 29.0729C48.763 28.5516 48.3352 28.135 47.8298 28.0028C46.2174 27.5811 45.0277 26.1167 45.0277 24.375C45.0277 22.6333 46.2174 21.1689 47.8298 20.7472C48.3352 20.615 48.763 20.1984 48.7497 19.6771C48.6456 15.6107 48.2313 13.2161 46.5839 11.5717C44.3831 9.375 40.8411 9.375 33.7569 9.375Z" fill="#115264"/>
<path d="M33.7569 7.5H26.2431C19.1589 7.5 15.6168 7.5 13.4161 9.6967C11.7687 11.3411 11.3544 13.7357 11.2503 17.8021C11.237 18.3234 11.6648 18.74 12.1702 18.8722C13.7826 19.2939 14.9723 20.7583 14.9723 22.5C14.9723 24.2417 13.7826 25.7061 12.1702 26.1278C11.6648 26.26 11.237 26.6766 11.2503 27.1979C11.3544 31.2643 11.7687 33.6589 13.4161 35.3033C15.6168 37.5 19.1589 37.5 26.2431 37.5H33.7569C40.8411 37.5 44.3831 37.5 46.5839 35.3033C48.2313 33.6589 48.6456 31.2643 48.7497 27.1979C48.763 26.6766 48.3352 26.26 47.8298 26.1278C46.2174 25.7061 45.0277 24.2417 45.0277 22.5C45.0277 20.7583 46.2174 19.2939 47.8298 18.8722C48.3352 18.74 48.763 18.3234 48.7497 17.8021C48.6456 13.7357 48.2313 11.3411 46.5839 9.6967C44.3831 7.5 40.8411 7.5 33.7569 7.5Z" fill="url(#paint0_radial_301_1460)"/>
<path d="M31.7891 19.1229L31.6045 18.7922C30.8906 17.5141 30.5337 16.875 30.0001 16.875C29.4666 16.875 29.1097 17.5141 28.3958 18.7922L28.3958 18.7922L28.2112 19.1229C28.0083 19.4861 27.9069 19.6677 27.7488 19.7875C27.5906 19.9073 27.3937 19.9518 26.9998 20.0408L26.6412 20.1218C25.2551 20.4348 24.562 20.5913 24.3971 21.1206C24.2322 21.6499 24.7047 22.2014 25.6497 23.3043L25.8941 23.5897C26.1627 23.9031 26.2969 24.0598 26.3573 24.2537C26.4177 24.4476 26.3975 24.6567 26.3569 25.0749L26.3199 25.4556C26.177 26.9272 26.1056 27.663 26.5373 27.9901C26.969 28.3172 27.6179 28.019 28.9157 27.4225L28.9157 27.4225L29.2515 27.2682C29.6203 27.0987 29.8047 27.014 30.0001 27.014C30.1956 27.014 30.38 27.0987 30.7488 27.2682L31.0846 27.4225L31.0846 27.4225C32.3824 28.019 33.0313 28.3172 33.463 27.9901C33.8947 27.663 33.8233 26.9272 33.6804 25.4556L33.6434 25.0749V25.0749C33.6028 24.6567 33.5825 24.4476 33.643 24.2537C33.7034 24.0598 33.8376 23.9031 34.1061 23.5897L34.3506 23.3043C35.2956 22.2014 35.7681 21.6499 35.6032 21.1206C35.4383 20.5913 34.7452 20.4348 33.3591 20.1218L33.0005 20.0408C32.6066 19.9518 32.4097 19.9073 32.2515 19.7875C32.0934 19.6677 31.992 19.4861 31.7891 19.1229Z" fill="#115264"/>
<path d="M31.7891 18.1854L31.6045 17.8547C30.8906 16.5766 30.5337 15.9375 30.0001 15.9375C29.4666 15.9375 29.1097 16.5766 28.3958 17.8547L28.3958 17.8547L28.2112 18.1854C28.0083 18.5486 27.9069 18.7302 27.7488 18.85C27.5906 18.9698 27.3937 19.0143 26.9998 19.1033L26.6412 19.1843C25.2551 19.4973 24.562 19.6538 24.3971 20.1831C24.2322 20.7124 24.7047 21.2639 25.6497 22.3668L25.8941 22.6522C26.1627 22.9656 26.2969 23.1223 26.3573 23.3162C26.4177 23.5101 26.3975 23.7192 26.3569 24.1374L26.3199 24.5181C26.177 25.9897 26.1056 26.7255 26.5373 27.0526C26.969 27.3797 27.6179 27.0815 28.9157 26.485L28.9157 26.485L29.2515 26.3307C29.6203 26.1612 29.8047 26.0765 30.0001 26.0765C30.1956 26.0765 30.38 26.1612 30.7488 26.3307L31.0846 26.485L31.0846 26.485C32.3824 27.0815 33.0313 27.3797 33.463 27.0526C33.8947 26.7255 33.8233 25.9897 33.6804 24.5181L33.6434 24.1374V24.1374C33.6028 23.7192 33.5825 23.5101 33.643 23.3162C33.7034 23.1223 33.8376 22.9656 34.1061 22.6522L34.3506 22.3668C35.2956 21.2639 35.7681 20.7124 35.6032 20.1831C35.4383 19.6538 34.7452 19.4973 33.3591 19.1843L33.0005 19.1033C32.6066 19.0143 32.4097 18.9698 32.2515 18.85C32.0934 18.7302 31.992 18.5486 31.7891 18.1854Z" fill="white"/>
<ellipse opacity="0.2" cx="30" cy="53.4375" rx="16.875" ry="2.8125" fill="#1D2723"/>
<defs>
<radialGradient id="paint0_radial_301_1460" cx="0" cy="0" r="1" gradientUnits="userSpaceOnUse" gradientTransform="translate(30 35.8532) rotate(-90) scale(28.3532 31.563)">
<stop offset="0.741078" stop-color="#4CD2D5"/>
<stop offset="1" stop-color="#5CF0F3"/>
</radialGradient>
</defs>
</svg>
