<svg width="60" height="60" viewBox="0 0 60 60" fill="none" xmlns="http://www.w3.org/2000/svg">
<ellipse opacity="0.2" cx="30" cy="53.4375" rx="16.875" ry="2.8125" fill="#1D2723"/>
<path d="M44.4684 40.0545C47.1432 38.596 48.75 36.7262 48.75 34.6875C48.75 32.5265 46.9447 30.5553 43.9757 29.0625C40.5424 27.3363 35.5531 26.25 30 26.25C24.4469 26.25 19.4576 27.3363 16.0243 29.0625C13.0553 30.5553 11.25 32.5265 11.25 34.6875C11.25 36.8485 13.0553 38.8197 16.0243 40.3125C19.4576 42.0387 24.4469 43.125 30 43.125C35.8249 43.125 41.0294 41.9297 44.4684 40.0545Z" fill="#115264"/>
<path d="M44.4684 38.1795C47.1432 36.721 48.75 34.8512 48.75 32.8125C48.75 30.6515 46.9447 28.6803 43.9757 27.1875C40.5424 25.4613 35.5531 24.375 30 24.375C24.4469 24.375 19.4576 25.4613 16.0243 27.1875C13.0553 28.6803 11.25 30.6515 11.25 32.8125C11.25 34.9735 13.0553 36.9447 16.0243 38.4375C19.4576 40.1637 24.4469 41.25 30 41.25C35.8249 41.25 41.0294 40.0547 44.4684 38.1795Z" fill="#08B0B8"/>
<path fill-rule="evenodd" clip-rule="evenodd" d="M16.875 17.8399C16.875 11.0938 22.7513 5.625 30 5.625C37.2487 5.625 43.125 11.0938 43.125 17.8399C43.125 24.5332 38.936 32.3436 32.4001 35.1367C30.8765 35.7878 29.1235 35.7878 27.5999 35.1367C21.064 32.3436 16.875 24.5332 16.875 17.8399Z" fill="#115264"/>
<path fill-rule="evenodd" clip-rule="evenodd" d="M16.875 15.9649C16.875 9.21882 22.7513 3.75 30 3.75C37.2487 3.75 43.125 9.21882 43.125 15.9649C43.125 22.6582 38.936 30.4686 32.4001 33.2617C30.8765 33.9128 29.1235 33.9128 27.5999 33.2617C21.064 30.4686 16.875 22.6582 16.875 15.9649Z" fill="url(#paint0_radial_301_1164)"/>
<path fill-rule="evenodd" clip-rule="evenodd" d="M30 21.5625C32.0711 21.5625 33.75 19.8836 33.75 17.8125C33.75 15.7414 32.0711 14.0625 30 14.0625C27.9289 14.0625 26.25 15.7414 26.25 17.8125C26.25 19.8836 27.9289 21.5625 30 21.5625Z" fill="#115264"/>
<path fill-rule="evenodd" clip-rule="evenodd" d="M30 20.625C32.0711 20.625 33.75 18.9461 33.75 16.875C33.75 14.8039 32.0711 13.125 30 13.125C27.9289 13.125 26.25 14.8039 26.25 16.875C26.25 18.9461 27.9289 20.625 30 20.625Z" fill="white"/>
<defs>
<radialGradient id="paint0_radial_301_1164" cx="0" cy="0" r="1" gradientUnits="userSpaceOnUse" gradientTransform="translate(30 32.1032) rotate(-90) scale(28.3532 22.0941)">
<stop offset="0.741078" stop-color="#4CD2D5"/>
<stop offset="1" stop-color="#5CF0F3"/>
</radialGradient>
</defs>
</svg>
