<svg width="60" height="60" viewBox="0 0 60 60" fill="none" xmlns="http://www.w3.org/2000/svg">
<path d="M21.0811 34.7715C22.3016 38.5311 25.8333 41.2492 29.9998 41.2492C34.1663 41.2492 37.698 38.5311 38.9185 34.7715C33.0208 35.8782 26.9788 35.8782 21.0811 34.7715Z" fill="#17A2A5"/>
<path d="M42.6546 18.75V20.0702C42.6546 21.6545 43.1068 23.2035 43.9541 24.5217L46.0306 27.7522C47.9272 30.7029 46.4793 34.7136 43.1806 35.6467C34.5511 38.0876 25.4489 38.0876 16.8194 35.6467C13.5207 34.7136 12.0728 30.7029 13.9694 27.7522L16.0459 24.5217C16.8932 23.2035 17.3454 21.6545 17.3454 20.0702V18.75C17.3454 11.5013 23.011 5.625 30 5.625C36.989 5.625 42.6546 11.5013 42.6546 18.75Z" fill="#115264"/>
<path d="M42.6546 16.875V18.1952C42.6546 19.7795 43.1068 21.3285 43.9541 22.6467L46.0306 25.8772C47.9272 28.8279 46.4793 32.8386 43.1806 33.7717C34.5511 36.2126 25.4489 36.2126 16.8194 33.7717C13.5207 32.8386 12.0728 28.8279 13.9694 25.8772L16.0459 22.6467C16.8932 21.3285 17.3454 19.7795 17.3454 18.1952V16.875C17.3454 9.62626 23.011 3.75 30 3.75C36.989 3.75 42.6546 9.62626 42.6546 16.875Z" fill="url(#paint0_radial_301_1951)"/>
<path d="M31.4062 12.6562C31.4062 11.8796 30.7767 11.25 30 11.25C29.2233 11.25 28.5938 11.8796 28.5938 12.6562V20.1562C28.5938 20.9329 29.2233 21.5625 30 21.5625C30.7767 21.5625 31.4062 20.9329 31.4062 20.1562V12.6562Z" fill="#115264"/>
<path d="M31.4062 11.25C31.4062 10.4733 30.7767 9.84375 30 9.84375C29.2233 9.84375 28.5938 10.4733 28.5938 11.25V18.75C28.5938 19.5267 29.2233 20.1562 30 20.1562C30.7767 20.1562 31.4062 19.5267 31.4062 18.75V11.25Z" fill="white"/>
<ellipse opacity="0.2" cx="30" cy="53.4375" rx="16.875" ry="2.8125" fill="#1D2723"/>
<defs>
<radialGradient id="paint0_radial_301_1951" cx="0" cy="0" r="1" gradientUnits="userSpaceOnUse" gradientTransform="translate(30 33.8539) rotate(-90) scale(30.1039 28.4067)">
<stop offset="0.741078" stop-color="#4CD2D5"/>
<stop offset="1" stop-color="#5CF0F3"/>
</radialGradient>
</defs>
</svg>
