<svg width="60" height="60" viewBox="0 0 60 60" fill="none" xmlns="http://www.w3.org/2000/svg">
<path d="M33.75 9.375H26.25C19.1789 9.375 15.6434 9.375 13.4467 11.5717C11.25 13.7684 11.25 17.3039 11.25 24.375C11.25 31.4461 11.25 34.9816 13.4467 37.1783C15.6434 39.375 19.1789 39.375 26.25 39.375H33.75C40.8211 39.375 44.3566 39.375 46.5533 37.1783C48.75 34.9816 48.75 31.4461 48.75 24.375C48.75 17.3039 48.75 13.7684 46.5533 11.5717C44.3566 9.375 40.8211 9.375 33.75 9.375Z" fill="#115264"/>
<path d="M33.75 7.5H26.25C19.1789 7.5 15.6434 7.5 13.4467 9.6967C11.25 11.8934 11.25 15.4289 11.25 22.5C11.25 29.5711 11.25 33.1066 13.4467 35.3033C15.6434 37.5 19.1789 37.5 26.25 37.5H33.75C40.8211 37.5 44.3566 37.5 46.5533 35.3033C48.75 33.1066 48.75 29.5711 48.75 22.5C48.75 15.4289 48.75 11.8934 46.5533 9.6967C44.3566 7.5 40.8211 7.5 33.75 7.5Z" fill="url(#paint0_radial_301_1476)"/>
<path d="M32.3438 17.8125C32.3438 17.0358 32.9733 16.4062 33.75 16.4062H43.125C43.9017 16.4062 44.5312 17.0358 44.5312 17.8125C44.5312 18.5892 43.9017 19.2188 43.125 19.2188H33.75C32.9733 19.2188 32.3438 18.5892 32.3438 17.8125Z" fill="#115264"/>
<path d="M34.2188 23.4375C34.2188 22.6608 34.8484 22.0312 35.625 22.0312H43.125C43.9017 22.0312 44.5312 22.6608 44.5312 23.4375C44.5312 24.2142 43.9017 24.8438 43.125 24.8438H35.625C34.8484 24.8438 34.2188 24.2142 34.2188 23.4375Z" fill="#115264"/>
<path d="M36.0938 29.0625C36.0938 28.2858 36.7234 27.6562 37.5 27.6562H43.125C43.9017 27.6562 44.5312 28.2858 44.5312 29.0625C44.5312 29.8392 43.9017 30.4688 43.125 30.4688H37.5C36.7234 30.4688 36.0938 29.8392 36.0938 29.0625Z" fill="#115264"/>
<path d="M24.375 21.5625C26.4461 21.5625 28.125 19.8836 28.125 17.8125C28.125 15.7414 26.4461 14.0625 24.375 14.0625C22.3039 14.0625 20.625 15.7414 20.625 17.8125C20.625 19.8836 22.3039 21.5625 24.375 21.5625Z" fill="#115264"/>
<path d="M24.375 32.8125C31.875 32.8125 31.875 31.1336 31.875 29.0625C31.875 26.9914 28.5171 25.3125 24.375 25.3125C20.2329 25.3125 16.875 26.9914 16.875 29.0625C16.875 31.1336 16.875 32.8125 24.375 32.8125Z" fill="#115264"/>
<path d="M32.3438 16.875C32.3438 16.0983 32.9733 15.4688 33.75 15.4688H43.125C43.9017 15.4688 44.5312 16.0983 44.5312 16.875C44.5312 17.6517 43.9017 18.2812 43.125 18.2812H33.75C32.9733 18.2812 32.3438 17.6517 32.3438 16.875Z" fill="white"/>
<path d="M34.2188 22.5C34.2188 21.7233 34.8484 21.0938 35.625 21.0938H43.125C43.9017 21.0938 44.5312 21.7233 44.5312 22.5C44.5312 23.2767 43.9017 23.9062 43.125 23.9062H35.625C34.8484 23.9062 34.2188 23.2767 34.2188 22.5Z" fill="white"/>
<path d="M36.0938 28.125C36.0938 27.3483 36.7234 26.7188 37.5 26.7188H43.125C43.9017 26.7188 44.5312 27.3483 44.5312 28.125C44.5312 28.9017 43.9017 29.5312 43.125 29.5312H37.5C36.7234 29.5312 36.0938 28.9017 36.0938 28.125Z" fill="white"/>
<path d="M24.375 20.625C26.4461 20.625 28.125 18.9461 28.125 16.875C28.125 14.8039 26.4461 13.125 24.375 13.125C22.3039 13.125 20.625 14.8039 20.625 16.875C20.625 18.9461 22.3039 20.625 24.375 20.625Z" fill="white"/>
<path d="M24.375 31.875C31.875 31.875 31.875 30.1961 31.875 28.125C31.875 26.0539 28.5171 24.375 24.375 24.375C20.2329 24.375 16.875 26.0539 16.875 28.125C16.875 30.1961 16.875 31.875 24.375 31.875Z" fill="white"/>
<ellipse opacity="0.2" cx="30" cy="53.4375" rx="16.875" ry="2.8125" fill="#1D2723"/>
<defs>
<radialGradient id="paint0_radial_301_1476" cx="0" cy="0" r="1" gradientUnits="userSpaceOnUse" gradientTransform="translate(30 35.8532) rotate(-90) scale(28.3532 31.563)">
<stop offset="0.741078" stop-color="#4CD2D5"/>
<stop offset="1" stop-color="#5CF0F3"/>
</radialGradient>
</defs>
</svg>
