<svg width="111" height="113" viewBox="0 0 111 113" fill="none" xmlns="http://www.w3.org/2000/svg">
<ellipse opacity="0.2" cx="55.5" cy="71.25" rx="22.5" ry="3.75" fill="#1D2723"/>
<path d="M33.9438 15.206C33 16.5507 33 20.5477 33 28.5416V32.4784C33 46.5736 43.5974 53.4137 50.2464 56.3182C52.05 57.1061 52.9519 57.5 55.5 57.5C58.0481 57.5 58.95 57.1061 60.7536 56.3182C67.4026 53.4137 78 46.5736 78 32.4784V28.5416C78 20.5477 78 16.5507 77.0562 15.206C76.1124 13.8613 72.3542 12.5749 64.8377 10.002L63.4057 9.51179C59.4875 8.1706 57.5285 7.5 55.5 7.5C53.4715 7.5 51.5125 8.1706 47.5943 9.51179L46.1623 10.002C38.6458 12.5749 34.8876 13.8613 33.9438 15.206Z" fill="#4C6769"/>
<path d="M33.9438 12.706C33 14.0507 33 18.0477 33 26.0416V29.9784C33 44.0736 43.5974 50.9137 50.2464 53.8182C52.05 54.6061 52.9519 55 55.5 55C58.0481 55 58.95 54.6061 60.7536 53.8182C67.4026 50.9137 78 44.0736 78 29.9784V26.0416C78 18.0477 78 14.0507 77.0562 12.706C76.1124 11.3613 72.3542 10.0749 64.8377 7.50198L63.4057 7.01179C59.4875 5.6706 57.5285 5 55.5 5C53.4715 5 51.5125 5.6706 47.5943 7.01179L46.1623 7.50198C38.6458 10.0749 34.8876 11.3613 33.9438 12.706Z" fill="url(#paint0_radial_39_1379)"/>
<path d="M63.1487 28.1238C63.8383 27.3514 63.7712 26.1661 62.9988 25.4764C62.2264 24.7867 61.0411 24.8538 60.3514 25.6262L52.8214 34.0598L50.6487 31.6262C49.959 30.8538 48.7737 30.7867 48.0012 31.4764C47.2288 32.1661 47.1617 33.3514 47.8514 34.1238L51.4228 38.1238C51.7786 38.5222 52.2873 38.75 52.8214 38.75C53.3556 38.75 53.8643 38.5222 54.2201 38.1238L63.1487 28.1238Z" fill="#4C6769"/>
<path d="M63.1487 26.2488C63.8383 25.4764 63.7712 24.2911 62.9988 23.6014C62.2264 22.9117 61.0411 22.9788 60.3514 23.7512L52.8214 32.1848L50.6487 29.7512C49.959 28.9788 48.7737 28.9117 48.0012 29.6014C47.2288 30.2911 47.1617 31.4764 47.8514 32.2488L51.4228 36.2488C51.7786 36.6472 52.2873 36.875 52.8214 36.875C53.3556 36.875 53.8643 36.6472 54.2201 36.2488L63.1487 26.2488Z" fill="white"/>
<path d="M31.3356 105.016H27.1436L26.4716 107H23.6076L27.6716 95.768H30.8396L34.9036 107H32.0076L31.3356 105.016ZM29.2396 98.792L27.8636 102.904H30.6316L29.2396 98.792ZM42.3004 102.152C42.3004 101.544 42.1458 101.08 41.8364 100.76C41.5271 100.429 41.1111 100.264 40.5884 100.264C40.0658 100.264 39.6498 100.429 39.3404 100.76C39.0311 101.08 38.8764 101.544 38.8764 102.152V107H36.1404V98.072H38.8764V99.256C39.1538 98.8827 39.5218 98.5787 39.9804 98.344C40.4391 98.0987 40.9724 97.976 41.5804 97.976C42.0924 97.976 42.5618 98.0613 42.9884 98.232C43.4151 98.4027 43.7778 98.6533 44.0764 98.984C44.3751 99.304 44.6044 99.704 44.7644 100.184C44.9351 100.653 45.0204 101.187 45.0204 101.784V107H42.3004V102.152ZM50.7443 100.344H49.6563V98.072H50.7443V95.896H53.4803V98.072H55.2723V100.344H53.4803V103.928C53.4803 104.195 53.539 104.387 53.6563 104.504C53.7843 104.621 54.003 104.68 54.3123 104.68H55.2883V107H53.8963C53.427 107 53.0003 106.947 52.6163 106.84C52.2323 106.733 51.9016 106.563 51.6243 106.328C51.347 106.083 51.1283 105.763 50.9683 105.368C50.819 104.963 50.7443 104.472 50.7443 103.896V100.344ZM65.5483 102.536C65.5483 103.24 65.4256 103.88 65.1803 104.456C64.9456 105.021 64.615 105.501 64.1883 105.896C63.7723 106.291 63.2763 106.595 62.7003 106.808C62.135 107.021 61.527 107.128 60.8763 107.128C60.215 107.128 59.6016 107.021 59.0363 106.808C58.4816 106.595 57.9963 106.291 57.5803 105.896C57.175 105.501 56.855 105.021 56.6203 104.456C56.3856 103.88 56.2683 103.24 56.2683 102.536C56.2683 101.832 56.3856 101.197 56.6203 100.632C56.8656 100.056 57.1963 99.5707 57.6123 99.176C58.0283 98.7813 58.519 98.4773 59.0843 98.264C59.6496 98.0507 60.2576 97.944 60.9083 97.944C61.559 97.944 62.167 98.0507 62.7323 98.264C63.2976 98.4773 63.7883 98.7813 64.2043 99.176C64.6203 99.5707 64.9456 100.056 65.1803 100.632C65.4256 101.197 65.5483 101.832 65.5483 102.536ZM59.0523 102.536C59.0523 102.909 59.1003 103.24 59.1963 103.528C59.2923 103.805 59.4203 104.035 59.5803 104.216C59.751 104.397 59.9483 104.536 60.1723 104.632C60.3963 104.717 60.631 104.76 60.8763 104.76C61.1216 104.76 61.3563 104.717 61.5803 104.632C61.8043 104.536 62.0016 104.397 62.1723 104.216C62.3536 104.035 62.4976 103.805 62.6043 103.528C62.711 103.24 62.7643 102.909 62.7643 102.536C62.7643 102.152 62.711 101.821 62.6043 101.544C62.5083 101.267 62.3696 101.037 62.1883 100.856C62.0176 100.675 61.8203 100.541 61.5963 100.456C61.3723 100.36 61.143 100.312 60.9083 100.312C60.663 100.312 60.4283 100.36 60.2043 100.456C59.9803 100.541 59.783 100.675 59.6123 100.856C59.4416 101.037 59.303 101.267 59.1963 101.544C59.1003 101.821 59.0523 102.152 59.0523 102.536ZM66.4558 102.52C66.4558 101.816 66.5571 101.181 66.7598 100.616C66.9625 100.051 67.2398 99.5707 67.5918 99.176C67.9545 98.7813 68.3758 98.4773 68.8558 98.264C69.3358 98.0507 69.8478 97.944 70.3918 97.944C71.0638 97.944 71.6291 98.0773 72.0878 98.344C72.5465 98.6107 72.8985 98.9413 73.1438 99.336V98.072H75.8798V107H73.1438V105.736C72.8985 106.131 72.5411 106.461 72.0718 106.728C71.6131 106.995 71.0478 107.128 70.3758 107.128C69.8318 107.128 69.3198 107.021 68.8398 106.808C68.3705 106.595 67.9545 106.291 67.5918 105.896C67.2398 105.491 66.9625 105.005 66.7598 104.44C66.5571 103.864 66.4558 103.224 66.4558 102.52ZM73.1438 102.536C73.1438 102.184 73.0905 101.869 72.9838 101.592C72.8771 101.315 72.7331 101.085 72.5518 100.904C72.3811 100.712 72.1731 100.568 71.9278 100.472C71.6931 100.376 71.4478 100.328 71.1918 100.328C70.9358 100.328 70.6905 100.376 70.4558 100.472C70.2211 100.568 70.0131 100.707 69.8318 100.888C69.6505 101.069 69.5065 101.299 69.3998 101.576C69.2931 101.853 69.2398 102.168 69.2398 102.52C69.2398 102.872 69.2931 103.187 69.3998 103.464C69.5065 103.741 69.6505 103.976 69.8318 104.168C70.0131 104.36 70.2211 104.504 70.4558 104.6C70.6905 104.696 70.9358 104.744 71.1918 104.744C71.4478 104.744 71.6931 104.696 71.9278 104.6C72.1731 104.504 72.3811 104.365 72.5518 104.184C72.7331 103.992 72.8771 103.757 72.9838 103.48C73.0905 103.203 73.1438 102.888 73.1438 102.536ZM70.1038 94.104L72.8558 95.784L71.9758 97.128L69.2238 95.496L70.1038 94.104ZM84.0192 102.152C84.0192 101.544 83.8645 101.08 83.5552 100.76C83.2459 100.429 82.8299 100.264 82.3072 100.264C81.7845 100.264 81.3685 100.429 81.0592 100.76C80.7499 101.08 80.5952 101.544 80.5952 102.152V107H77.8592V98.072H80.5952V99.256C80.8725 98.8827 81.2405 98.5787 81.6992 98.344C82.1579 98.0987 82.6912 97.976 83.2992 97.976C83.8112 97.976 84.2805 98.0613 84.7072 98.232C85.1339 98.4027 85.4965 98.6533 85.7952 98.984C86.0939 99.304 86.3232 99.704 86.4832 100.184C86.6539 100.653 86.7392 101.187 86.7392 101.784V107H84.0192V102.152Z" fill="#115264"/>
<defs>
<radialGradient id="paint0_radial_39_1379" cx="0" cy="0" r="1" gradientUnits="userSpaceOnUse" gradientTransform="translate(55.5 52.2553) rotate(-90) scale(47.2553 37.8756)">
<stop offset="0.741078" stop-color="#4CD2D5"/>
<stop offset="1" stop-color="#5CF0F3"/>
</radialGradient>
</defs>
</svg>
