<svg width="111" height="113" viewBox="0 0 111 113" fill="none" xmlns="http://www.w3.org/2000/svg">
<ellipse opacity="0.2" cx="55.5" cy="71.25" rx="22.5" ry="3.75" fill="#1D2723"/>
<path d="M55.5 57.5C67.9264 57.5 78 47.4264 78 35C78 22.5736 67.9264 12.5 55.5 12.5C43.0736 12.5 33 22.5736 33 35C33 47.4264 43.0736 57.5 55.5 57.5Z" fill="#4C6769"/>
<path d="M55.5 55C67.9264 55 78 44.9264 78 32.5C78 20.0736 67.9264 10 55.5 10C43.0736 10 33 20.0736 33 32.5C33 44.9264 43.0736 55 55.5 55Z" fill="url(#paint0_radial_39_1358)"/>
<path fill-rule="evenodd" clip-rule="evenodd" d="M46.1012 5.84964C46.6352 6.69603 46.3755 7.81099 45.5211 8.33998L35.7914 14.3641C34.937 14.893 33.8115 14.6357 33.2775 13.7894C32.7435 12.943 33.0033 11.828 33.8577 11.299L43.5874 5.27494C44.4417 4.74595 45.5673 5.00325 46.1012 5.84964Z" fill="#4C6769"/>
<path fill-rule="evenodd" clip-rule="evenodd" d="M64.8988 5.84964C65.4328 5.00325 66.5583 4.74595 67.4127 5.27494L77.1423 11.299C77.9967 11.828 78.2565 12.943 77.7225 13.7894C77.1885 14.6357 76.063 14.893 75.2086 14.364L65.4789 8.33998C64.6246 7.81099 64.3648 6.69602 64.8988 5.84964Z" fill="#4C6769"/>
<path fill-rule="evenodd" clip-rule="evenodd" d="M33.1128 12.2069C33.2476 11.8435 33.5008 11.5201 33.8579 11.299L43.5876 5.27494C44.442 4.74595 45.5675 5.00325 46.1015 5.84964C46.169 5.95673 46.2239 6.06812 46.2664 6.18208C46.1316 6.54548 45.8784 6.86891 45.5213 7.08998L35.7917 13.1141C34.9373 13.643 33.8118 13.3857 33.2778 12.5394C33.2102 12.4323 33.1553 12.3209 33.1128 12.2069ZM77.8876 12.207C77.8451 12.3209 77.7902 12.4323 77.7227 12.5394C77.1887 13.3857 76.0632 13.643 75.2088 13.114L65.4792 7.08998C65.1221 6.86889 64.8689 6.54545 64.7341 6.18204C64.7766 6.0681 64.8315 5.95672 64.899 5.84964C65.433 5.00325 66.5585 4.74595 67.4129 5.27494L77.1425 11.299C77.4996 11.5201 77.7528 11.8435 77.8876 12.207Z" fill="#4CD2D5"/>
<path d="M58.936 23.6422C59.6859 24.3564 59.7148 25.5432 59.0007 26.2931L54.875 30.625H60.5C61.2501 30.625 61.928 31.072 62.2234 31.7614C62.5189 32.4508 62.3751 33.25 61.8578 33.7931L54.7149 41.2931C54.0008 42.043 52.814 42.0719 52.0641 41.3578C51.3142 40.6436 51.2853 39.4568 51.9994 38.7069L56.125 34.375H50.5C49.75 34.375 49.0721 33.928 48.7766 33.2386C48.4812 32.5492 48.625 31.75 49.1423 31.2069L56.2851 23.7069C56.9993 22.957 58.1861 22.9281 58.936 23.6422Z" fill="#4C6769"/>
<path d="M58.936 21.7672C59.6859 22.4814 59.7148 23.6682 59.0007 24.4181L54.875 28.75H60.5C61.2501 28.75 61.928 29.197 62.2234 29.8864C62.5189 30.5758 62.3751 31.375 61.8578 31.9181L54.7149 39.4181C54.0008 40.168 52.814 40.1969 52.0641 39.4828C51.3142 38.7686 51.2853 37.5818 51.9994 36.8319L56.125 32.5H50.5C49.75 32.5 49.0721 32.053 48.7766 31.3636C48.4812 30.6742 48.625 29.875 49.1423 29.3319L56.2851 21.8319C56.9993 21.082 58.1861 21.0531 58.936 21.7672Z" fill="white"/>
<path d="M11.0791 95.768V107H8.34306L3.76706 100.072V107H1.03106V95.768H3.76706L8.34306 102.728V95.768H11.0791ZM13.0623 95.16H15.7983V99.272C16.0756 98.888 16.449 98.5787 16.9183 98.344C17.3876 98.0987 17.9316 97.976 18.5503 97.976C19.0623 97.976 19.5263 98.0613 19.9423 98.232C20.3583 98.4027 20.7103 98.6533 20.9983 98.984C21.297 99.304 21.5263 99.704 21.6863 100.184C21.857 100.653 21.9423 101.187 21.9423 101.784V107H19.2223V102.152C19.2223 101.544 19.0676 101.08 18.7583 100.76C18.449 100.429 18.033 100.264 17.5103 100.264C16.9876 100.264 16.5716 100.429 16.2623 100.76C15.953 101.08 15.7983 101.544 15.7983 102.152V107H13.0623V95.16ZM23.2996 102.52C23.2996 101.816 23.4009 101.181 23.6036 100.616C23.8062 100.051 24.0836 99.5707 24.4356 99.176C24.7982 98.7813 25.2196 98.4773 25.6996 98.264C26.1796 98.0507 26.6916 97.944 27.2356 97.944C27.9076 97.944 28.4729 98.0773 28.9316 98.344C29.3902 98.6107 29.7422 98.9413 29.9876 99.336V98.072H32.7236V107H29.9876V105.736C29.7422 106.131 29.3849 106.461 28.9156 106.728C28.4569 106.995 27.8916 107.128 27.2196 107.128C26.6756 107.128 26.1636 107.021 25.6836 106.808C25.2142 106.595 24.7982 106.291 24.4356 105.896C24.0836 105.491 23.8062 105.005 23.6036 104.44C23.4009 103.864 23.2996 103.224 23.2996 102.52ZM29.9876 102.536C29.9876 102.184 29.9342 101.869 29.8276 101.592C29.7209 101.315 29.5769 101.085 29.3956 100.904C29.2249 100.712 29.0169 100.568 28.7716 100.472C28.5369 100.376 28.2916 100.328 28.0356 100.328C27.7796 100.328 27.5342 100.376 27.2996 100.472C27.0649 100.568 26.8569 100.707 26.6756 100.888C26.4942 101.069 26.3502 101.299 26.2436 101.576C26.1369 101.853 26.0836 102.168 26.0836 102.52C26.0836 102.872 26.1369 103.187 26.2436 103.464C26.3502 103.741 26.4942 103.976 26.6756 104.168C26.8569 104.36 27.0649 104.504 27.2996 104.6C27.5342 104.696 27.7796 104.744 28.0356 104.744C28.2916 104.744 28.5369 104.696 28.7716 104.6C29.0169 104.504 29.2249 104.365 29.3956 104.184C29.5769 103.992 29.7209 103.757 29.8276 103.48C29.9342 103.203 29.9876 102.888 29.9876 102.536ZM40.8629 102.152C40.8629 101.544 40.7083 101.08 40.3989 100.76C40.0896 100.429 39.6736 100.264 39.1509 100.264C38.6283 100.264 38.2123 100.429 37.9029 100.76C37.5936 101.08 37.4389 101.544 37.4389 102.152V107H34.7029V98.072H37.4389V99.256C37.7163 98.8827 38.0843 98.5787 38.5429 98.344C39.0016 98.0987 39.5349 97.976 40.1429 97.976C40.6549 97.976 41.1243 98.0613 41.5509 98.232C41.9776 98.4027 42.3403 98.6533 42.6389 98.984C42.9376 99.304 43.1669 99.704 43.3269 100.184C43.4976 100.653 43.5829 101.187 43.5829 101.784V107H40.8629V102.152ZM45.4842 95.16H48.2202V99.272C48.4975 98.888 48.8709 98.5787 49.3402 98.344C49.8095 98.0987 50.3535 97.976 50.9722 97.976C51.4842 97.976 51.9482 98.0613 52.3642 98.232C52.7802 98.4027 53.1322 98.6533 53.4202 98.984C53.7189 99.304 53.9482 99.704 54.1082 100.184C54.2789 100.653 54.3642 101.187 54.3642 101.784V107H51.6442V102.152C51.6442 101.544 51.4895 101.08 51.1802 100.76C50.8709 100.429 50.4549 100.264 49.9322 100.264C49.4095 100.264 48.9935 100.429 48.6842 100.76C48.3749 101.08 48.2202 101.544 48.2202 102.152V107H45.4842V95.16ZM59.1121 102.536C59.1121 101.832 59.2187 101.197 59.4321 100.632C59.6561 100.067 59.9654 99.5867 60.3601 99.192C60.7654 98.7867 61.2401 98.4773 61.7841 98.264C62.3281 98.0507 62.9307 97.944 63.5921 97.944C64.7227 97.944 65.6614 98.2373 66.4081 98.824C67.1547 99.4107 67.6454 100.237 67.8801 101.304H64.9681C64.8507 100.995 64.6747 100.749 64.4401 100.568C64.2161 100.376 63.9174 100.28 63.5441 100.28C63.0534 100.28 62.6534 100.472 62.3441 100.856C62.0454 101.229 61.8961 101.789 61.8961 102.536C61.8961 103.283 62.0454 103.848 62.3441 104.232C62.6534 104.605 63.0534 104.792 63.5441 104.792C63.9174 104.792 64.2161 104.707 64.4401 104.536C64.6747 104.355 64.8507 104.099 64.9681 103.768H67.8801C67.6454 104.803 67.1547 105.624 66.4081 106.232C65.6614 106.829 64.7227 107.128 63.5921 107.128C62.9307 107.128 62.3281 107.021 61.7841 106.808C61.2401 106.595 60.7654 106.291 60.3601 105.896C59.9654 105.501 59.6561 105.021 59.4321 104.456C59.2187 103.88 59.1121 103.24 59.1121 102.536ZM69.3436 95.16H72.0796V99.272C72.3569 98.888 72.7302 98.5787 73.1996 98.344C73.6689 98.0987 74.2129 97.976 74.8316 97.976C75.3436 97.976 75.8076 98.0613 76.2236 98.232C76.6396 98.4027 76.9916 98.6533 77.2796 98.984C77.5782 99.304 77.8076 99.704 77.9676 100.184C78.1382 100.653 78.2236 101.187 78.2236 101.784V107H75.5036V102.152C75.5036 101.544 75.3489 101.08 75.0396 100.76C74.7302 100.429 74.3142 100.264 73.7916 100.264C73.2689 100.264 72.8529 100.429 72.5436 100.76C72.2342 101.08 72.0796 101.544 72.0796 102.152V107H69.3436V95.16ZM88.8608 102.536C88.8608 103.24 88.7381 103.88 88.4928 104.456C88.2581 105.021 87.9275 105.501 87.5008 105.896C87.0848 106.291 86.5888 106.595 86.0128 106.808C85.4475 107.021 84.8395 107.128 84.1888 107.128C83.5275 107.128 82.9141 107.021 82.3488 106.808C81.7941 106.595 81.3088 106.291 80.8928 105.896C80.4875 105.501 80.1675 105.021 79.9328 104.456C79.6981 103.88 79.5808 103.24 79.5808 102.536C79.5808 101.832 79.6981 101.197 79.9328 100.632C80.1781 100.056 80.5088 99.5707 80.9248 99.176C81.3408 98.7813 81.8315 98.4773 82.3968 98.264C82.9621 98.0507 83.5701 97.944 84.2208 97.944C84.8715 97.944 85.4795 98.0507 86.0448 98.264C86.6101 98.4773 87.1008 98.7813 87.5168 99.176C87.9328 99.5707 88.2581 100.056 88.4928 100.632C88.7381 101.197 88.8608 101.832 88.8608 102.536ZM82.3648 102.536C82.3648 102.909 82.4128 103.24 82.5088 103.528C82.6048 103.805 82.7328 104.035 82.8928 104.216C83.0635 104.397 83.2608 104.536 83.4848 104.632C83.7088 104.717 83.9435 104.76 84.1888 104.76C84.4341 104.76 84.6688 104.717 84.8928 104.632C85.1168 104.536 85.3141 104.397 85.4848 104.216C85.6661 104.035 85.8101 103.805 85.9168 103.528C86.0235 103.24 86.0768 102.909 86.0768 102.536C86.0768 102.152 86.0235 101.821 85.9168 101.544C85.8208 101.267 85.6821 101.037 85.5008 100.856C85.3301 100.675 85.1328 100.541 84.9088 100.456C84.6848 100.36 84.4555 100.312 84.2208 100.312C83.9755 100.312 83.7408 100.36 83.5168 100.456C83.2928 100.541 83.0955 100.675 82.9248 100.856C82.7541 101.037 82.6155 101.267 82.5088 101.544C82.4128 101.821 82.3648 102.152 82.3648 102.536ZM86.8128 95.496L84.0608 97.128L83.1808 95.784L85.9328 94.104L86.8128 95.496ZM96.4723 102.152C96.4723 101.544 96.3176 101.08 96.0083 100.76C95.699 100.429 95.283 100.264 94.7603 100.264C94.2376 100.264 93.8216 100.429 93.5123 100.76C93.203 101.08 93.0483 101.544 93.0483 102.152V107H90.3123V98.072H93.0483V99.256C93.3256 98.8827 93.6936 98.5787 94.1523 98.344C94.611 98.0987 95.1443 97.976 95.7523 97.976C96.2643 97.976 96.7336 98.0613 97.1603 98.232C97.587 98.4027 97.9496 98.6533 98.2483 98.984C98.547 99.304 98.7763 99.704 98.9363 100.184C99.107 100.653 99.1923 101.187 99.1923 101.784V107H96.4723V102.152ZM100.55 102.52C100.55 101.816 100.651 101.181 100.854 100.616C101.056 100.051 101.334 99.5707 101.686 99.176C102.048 98.7813 102.47 98.4773 102.95 98.264C103.43 98.0507 103.942 97.944 104.486 97.944C105.147 97.944 105.707 98.0773 106.166 98.344C106.635 98.6 106.992 98.9307 107.238 99.336V98.072H109.974V106.984C109.974 107.581 109.883 108.147 109.702 108.68C109.531 109.213 109.264 109.683 108.902 110.088C108.539 110.493 108.075 110.813 107.51 111.048C106.944 111.283 106.278 111.4 105.51 111.4C104.848 111.4 104.246 111.32 103.702 111.16C103.158 111 102.688 110.765 102.294 110.456C101.899 110.157 101.579 109.795 101.334 109.368C101.099 108.941 100.95 108.461 100.886 107.928H103.59C103.675 108.269 103.872 108.536 104.182 108.728C104.502 108.931 104.902 109.032 105.382 109.032C105.638 109.032 105.878 108.995 106.102 108.92C106.336 108.845 106.534 108.728 106.694 108.568C106.864 108.408 106.998 108.195 107.094 107.928C107.19 107.672 107.238 107.357 107.238 106.984V105.72C106.992 106.115 106.635 106.451 106.166 106.728C105.707 106.995 105.147 107.128 104.486 107.128C103.942 107.128 103.43 107.021 102.95 106.808C102.47 106.595 102.048 106.291 101.686 105.896C101.334 105.491 101.056 105.005 100.854 104.44C100.651 103.864 100.55 103.224 100.55 102.52ZM107.238 102.536C107.238 102.184 107.184 101.869 107.078 101.592C106.971 101.315 106.827 101.085 106.646 100.904C106.475 100.712 106.267 100.568 106.022 100.472C105.787 100.376 105.542 100.328 105.286 100.328C105.03 100.328 104.784 100.376 104.55 100.472C104.315 100.568 104.107 100.707 103.926 100.888C103.744 101.069 103.6 101.299 103.494 101.576C103.387 101.853 103.334 102.168 103.334 102.52C103.334 102.872 103.387 103.187 103.494 103.464C103.6 103.741 103.744 103.976 103.926 104.168C104.107 104.36 104.315 104.504 104.55 104.6C104.784 104.696 105.03 104.744 105.286 104.744C105.542 104.744 105.787 104.696 106.022 104.6C106.267 104.504 106.475 104.365 106.646 104.184C106.827 103.992 106.971 103.757 107.078 103.48C107.184 103.203 107.238 102.888 107.238 102.536Z" fill="#115264"/>
<defs>
<radialGradient id="paint0_radial_39_1358" cx="0" cy="0" r="1" gradientUnits="userSpaceOnUse" gradientTransform="translate(55.5 52.5298) rotate(-90) scale(42.5298 37.8756)">
<stop offset="0.741078" stop-color="#4CD2D5"/>
<stop offset="1" stop-color="#5CF0F3"/>
</radialGradient>
</defs>
</svg>
