<svg width="375" height="700" viewBox="0 0 375 700" fill="none" xmlns="http://www.w3.org/2000/svg">
<g clip-path="url(#clip0_168_5215)">
<rect width="375" height="700" fill="white"/>
<path fill-rule="evenodd" clip-rule="evenodd" d="M309.158 657.67C258.223 637.887 180.824 646.828 158.891 596.782C132.126 535.709 198.656 469.385 197.426 402.717C196.738 365.455 166.275 336.247 153.435 301.261C136.222 254.357 102.122 209.6 108.361 160.029C114.534 110.984 155.193 74.0946 186.809 36.0957C221.482 -5.5779 254.598 -51.2791 303.553 -74.5686C353.994 -98.5654 412.067 -102.565 467.698 -97.534C523.682 -92.4711 584.554 -83.2224 626.134 -45.3954C667.737 -7.54813 670.735 55.8595 693.058 107.482C711.397 149.888 734.032 189.198 746.786 233.604C760.136 280.086 778.62 327.643 769.953 375.222C761.243 423.032 730.216 463.739 698.201 500.3C667.485 535.376 621.534 551.437 587.623 583.435C543.748 624.835 526.792 701.499 468.503 717.038C413.129 731.8 362.578 678.419 309.158 657.67Z" fill="#E1F9FA"/>
</g>
<defs>
<clipPath id="clip0_168_5215">
<rect width="375" height="700" fill="white"/>
</clipPath>
</defs>
</svg>
