<svg width="1883" height="761" viewBox="0 0 1883 761" fill="none" xmlns="http://www.w3.org/2000/svg">
<g clip-path="url(#clip0_164_2131)">
<rect width="1920" height="800" transform="translate(-37 -39)" fill="white"/>
<path fill-rule="evenodd" clip-rule="evenodd" d="M180.385 263.851C143.872 308.884 155.451 377.059 120.69 423.459C66.8966 495.263 15.5213 615.988 -73.1423 602.262C-162.293 588.461 -146.95 440.958 -206.125 372.865C-252.872 319.073 -363.105 322.033 -377.351 252.204C-391.966 180.563 -295.821 134.714 -268.548 66.8738C-245.155 8.68547 -278.989 -73.8716 -230.347 -113.457C-181.403 -153.288 -105.72 -98.4007 -44.8806 -115.149C30.1697 -135.809 98.2997 -270.081 158.253 -220.432C227.553 -163.044 105.401 -35.9614 147.053 43.7945C182.358 111.399 336.642 67.6162 348.064 143.024C358.595 212.547 224.67 209.231 180.385 263.851Z" fill="#E1F9FA"/>
<path fill-rule="evenodd" clip-rule="evenodd" d="M1112.55 654.208C1061.61 634.424 984.212 643.366 962.279 593.319C935.515 532.247 1002.04 465.923 1000.81 399.254C1000.13 361.993 969.663 332.785 956.823 297.798C939.61 250.894 905.51 206.138 911.749 156.567C917.922 107.522 958.581 70.6322 990.197 32.6333C1024.87 -9.0403 1057.99 -54.7415 1106.94 -78.031C1157.38 -102.028 1215.46 -106.028 1271.09 -100.996C1327.07 -95.9335 1387.94 -86.6848 1429.52 -48.8578C1471.13 -11.0105 1474.12 52.3971 1496.45 104.02C1514.78 146.425 1537.42 185.735 1550.17 230.141C1563.52 276.624 1582.01 324.18 1573.34 371.759C1564.63 419.569 1533.6 460.277 1501.59 496.837C1470.87 531.913 1424.92 547.975 1391.01 579.972C1347.14 621.372 1330.18 698.036 1271.89 713.575C1216.52 728.337 1165.97 674.957 1112.55 654.208Z" fill="#E1F9FA"/>
<path d="M775.018 -575.89C778.89 -558.639 782.75 -541.443 787.3 -524.758C793.429 -502.292 792.379 -477.571 791.342 -453.157C789.795 -416.732 788.277 -380.989 810.673 -354.433C848.723 -309.314 907.977 -282.215 966.062 -255.651C966.29 -255.547 966.519 -255.442 966.747 -255.338C1000.98 -269.747 1040.82 -279.129 1081.21 -288.641C1138.23 -302.072 1196.35 -315.761 1241.35 -344.223C1280.76 -369.145 1312.33 -404.829 1343.57 -440.131C1387.21 -489.454 1430.2 -538.032 1492.95 -555.471C1605.48 -586.746 1725.34 -553.903 1833.02 -508.652C1943.38 -462.273 2062.79 -403.921 2112.65 -295.039C2143.92 -226.756 2126.74 -152.969 2109.27 -77.9484C2099.49 -35.9526 2089.62 6.43005 2088.11 48.4504C2086.62 89.9451 2091.17 131.325 2095.68 172.382C2103.36 242.276 2110.94 311.236 2088.45 378.245C2046.68 502.717 1991.3 645.289 1870.54 696.698C1783.48 733.765 1690.46 700.534 1597.58 667.352C1561.65 654.517 1525.75 641.691 1490.21 632.941C1460.38 625.597 1429.33 620.361 1398.26 615.125C1310.03 600.253 1221.77 585.377 1161.62 522.137C1114.27 472.356 1107.19 403.682 1099.97 333.725C1094.99 285.418 1089.94 236.499 1071.53 192.766C1063.23 173.06 1051.79 154.111 1038.51 135.669C1011.87 98.6721 962.037 90.7211 917.847 101.892L-nan -nanL917.847 101.892C861.921 116.029 807.511 92.0634 752.57 67.8629C704.082 46.5054 655.181 24.9654 604.457 29.2717C568.762 32.302 543.402 59.2418 517.635 86.6143C496.556 109.006 475.205 131.687 447.702 141.806C374.268 168.824 294.984 184.535 217.832 171.521C130.496 156.788 44.9049 121.993 -20.9604 62.7476C-24.0779 59.9434 -27.2496 57.1011 -30.4628 54.2216C-100.052 -8.13879 -189.117 -87.9528 -169.15 -176.567C-152.209 -251.751 -81.905 -293.518 -11.3436 -335.438C21.8603 -355.164 55.1212 -374.924 82.9053 -398.216C99.7748 -412.358 119.306 -423.607 138.713 -434.784C171.845 -453.866 204.612 -472.737 223.149 -505.436C241.63 -538.035 243.146 -577.35 244.647 -616.296C246.388 -661.441 248.11 -706.09 276.215 -739.206C326.42 -798.363 413.396 -821.434 490.959 -820.994C569.033 -820.551 651.152 -791.979 706.384 -736.766C748.32 -694.845 761.74 -635.051 775.018 -575.89Z" fill="#4CD2D5"/>
</g>
<defs>
<clipPath id="clip0_164_2131">
<rect width="1920" height="800" fill="white" transform="translate(-37 -39)"/>
</clipPath>
</defs>
</svg>
