<svg width="111" height="113" viewBox="0 0 111 113" fill="none" xmlns="http://www.w3.org/2000/svg">
<ellipse opacity="0.2" cx="55.5" cy="71.25" rx="22.5" ry="3.75" fill="#1D2723"/>
<path d="M55.5 57.7778C69.3071 57.7778 80.5 46.5849 80.5 32.7778C80.5 18.9707 69.3071 7.77783 55.5 7.77783C41.6929 7.77783 30.5 18.9707 30.5 32.7778C30.5 46.5849 41.6929 57.7778 55.5 57.7778Z" fill="#4C6769"/>
<path d="M55.5 55C69.3071 55 80.5 43.8071 80.5 30C80.5 16.1929 69.3071 5 55.5 5C41.6929 5 30.5 16.1929 30.5 30C30.5 43.8071 41.6929 55 55.5 55Z" fill="url(#paint0_radial_39_1359)"/>
<path d="M77.4212 1.68376C77.5904 1.10541 78.4096 1.10541 78.5788 1.68376L79.1201 3.53474C79.6974 5.50886 81.2411 7.05258 83.2153 7.62991L85.0662 8.17122C85.6446 8.34036 85.6446 9.15964 85.0662 9.32878L83.2153 9.87009C81.2411 10.4474 79.6974 11.9911 79.1201 13.9653L78.5788 15.8162C78.4096 16.3946 77.5904 16.3946 77.4212 15.8162L76.8799 13.9653C76.3026 11.9911 74.7589 10.4474 72.7847 9.87009L70.9338 9.32878C70.3554 9.15964 70.3554 8.34036 70.9338 8.17122L72.7847 7.62991C74.7589 7.05258 76.3026 5.50886 76.8799 3.53474L77.4212 1.68376Z" fill="#4C6769"/>
<path d="M77.4212 0.433759C77.5904 -0.144587 78.4096 -0.144586 78.5788 0.43376L79.1201 2.28474C79.6974 4.25886 81.2411 5.80258 83.2153 6.37991L85.0662 6.92122C85.6446 7.09036 85.6446 7.90964 85.0662 8.07878L83.2153 8.62009C81.2411 9.19742 79.6974 10.7411 79.1201 12.7153L78.5788 14.5662C78.4096 15.1446 77.5904 15.1446 77.4212 14.5662L76.8799 12.7153C76.3026 10.7411 74.7589 9.19742 72.7847 8.62009L70.9338 8.07878C70.3554 7.90964 70.3554 7.09036 70.9338 6.92122L72.7847 6.37991C74.7589 5.80258 76.3026 4.25886 76.8799 2.28474L77.4212 0.433759Z" fill="url(#paint1_radial_39_1359)"/>
<path d="M45.5 33.75H65.5C65.5 36.4022 64.4464 38.9457 62.5711 40.8211C60.6957 42.6964 58.1522 43.75 55.5 43.75C52.8478 43.75 50.3043 42.6964 48.4289 40.8211C46.5536 38.9457 45.5 36.4022 45.5 33.75ZM45.5 28.75C44.5054 28.75 43.5516 28.3549 42.8483 27.6517C42.1451 26.9484 41.75 25.9946 41.75 25C41.75 24.0054 42.1451 23.0516 42.8483 22.3483C43.5516 21.6451 44.5054 21.25 45.5 21.25C46.4946 21.25 47.4484 21.6451 48.1517 22.3483C48.8549 23.0516 49.25 24.0054 49.25 25C49.25 25.9946 48.8549 26.9484 48.1517 27.6517C47.4484 28.3549 46.4946 28.75 45.5 28.75ZM65.5 28.75C64.5054 28.75 63.5516 28.3549 62.8483 27.6517C62.1451 26.9484 61.75 25.9946 61.75 25C61.75 24.0054 62.1451 23.0516 62.8483 22.3483C63.5516 21.6451 64.5054 21.25 65.5 21.25C66.4946 21.25 67.4484 21.6451 68.1516 22.3483C68.8549 23.0516 69.25 24.0054 69.25 25C69.25 25.9946 68.8549 26.9484 68.1516 27.6517C67.4484 28.3549 66.4946 28.75 65.5 28.75Z" fill="#4C6769"/>
<path d="M45.5 31.25H65.5C65.5 33.9022 64.4464 36.4457 62.5711 38.3211C60.6957 40.1964 58.1522 41.25 55.5 41.25C52.8478 41.25 50.3043 40.1964 48.4289 38.3211C46.5536 36.4457 45.5 33.9022 45.5 31.25ZM45.5 26.25C44.5054 26.25 43.5516 25.8549 42.8483 25.1517C42.1451 24.4484 41.75 23.4946 41.75 22.5C41.75 21.5054 42.1451 20.5516 42.8483 19.8483C43.5516 19.1451 44.5054 18.75 45.5 18.75C46.4946 18.75 47.4484 19.1451 48.1517 19.8483C48.8549 20.5516 49.25 21.5054 49.25 22.5C49.25 23.4946 48.8549 24.4484 48.1517 25.1517C47.4484 25.8549 46.4946 26.25 45.5 26.25ZM65.5 26.25C64.5054 26.25 63.5516 25.8549 62.8483 25.1517C62.1451 24.4484 61.75 23.4946 61.75 22.5C61.75 21.5054 62.1451 20.5516 62.8483 19.8483C63.5516 19.1451 64.5054 18.75 65.5 18.75C66.4946 18.75 67.4484 19.1451 68.1516 19.8483C68.8549 20.5516 69.25 21.5054 69.25 22.5C69.25 23.4946 68.8549 24.4484 68.1516 25.1517C67.4484 25.8549 66.4946 26.25 65.5 26.25Z" fill="white"/>
<path d="M26.9699 95.768H35.6579V97.96H32.6819V107H29.9459V97.96H26.9699V95.768ZM37.0311 98.072H39.7671V107H37.0311V98.072ZM38.4071 97.064C38.0017 97.064 37.6657 96.9413 37.3991 96.696C37.1431 96.4507 37.0151 96.1467 37.0151 95.784C37.0151 95.4213 37.1431 95.1227 37.3991 94.888C37.6657 94.6427 38.0017 94.52 38.4071 94.52C38.8231 94.52 39.1644 94.6427 39.4311 94.888C39.6977 95.1227 39.8311 95.4213 39.8311 95.784C39.8311 96.1467 39.6977 96.4507 39.4311 96.696C39.1644 96.9413 38.8231 97.064 38.4071 97.064ZM45.6218 110.776C45.2378 110.776 44.9178 110.653 44.6618 110.408C44.4165 110.163 44.2938 109.864 44.2938 109.512C44.2938 109.171 44.4165 108.877 44.6618 108.632C44.9178 108.397 45.2378 108.28 45.6218 108.28C46.0165 108.28 46.3365 108.397 46.5818 108.632C46.8378 108.877 46.9658 109.171 46.9658 109.512C46.9658 109.864 46.8378 110.163 46.5818 110.408C46.3365 110.653 46.0165 110.776 45.6218 110.776ZM45.6858 100.136C45.2378 100.136 44.8538 100.269 44.5338 100.536C44.2245 100.792 44.0271 101.171 43.9418 101.672H47.3658C47.3658 101.181 47.2005 100.803 46.8698 100.536C46.5391 100.269 46.1445 100.136 45.6858 100.136ZM49.9578 104.04C49.8511 104.477 49.6751 104.883 49.4298 105.256C49.1845 105.629 48.8751 105.955 48.5018 106.232C48.1391 106.509 47.7231 106.728 47.2538 106.888C46.7845 107.048 46.2725 107.128 45.7178 107.128C45.0565 107.128 44.4485 107.021 43.8938 106.808C43.3498 106.595 42.8751 106.291 42.4698 105.896C42.0751 105.501 41.7658 105.021 41.5418 104.456C41.3178 103.88 41.2058 103.24 41.2058 102.536C41.2058 101.832 41.3125 101.197 41.5258 100.632C41.7498 100.056 42.0591 99.5707 42.4538 99.176C42.8591 98.7813 43.3391 98.4773 43.8938 98.264C44.4485 98.0507 45.0565 97.944 45.7178 97.944C46.3685 97.944 46.9658 98.0507 47.5098 98.264C48.0538 98.4667 48.5231 98.76 48.9178 99.144C49.3125 99.528 49.6165 99.9973 49.8298 100.552C50.0538 101.096 50.1658 101.709 50.1658 102.392C50.1658 102.659 50.1498 102.925 50.1178 103.192H43.9258C43.9791 103.779 44.1605 104.211 44.4698 104.488C44.7898 104.765 45.1738 104.904 45.6218 104.904C46.0058 104.904 46.3098 104.824 46.5338 104.664C46.7578 104.493 46.9285 104.285 47.0458 104.04H49.9578ZM48.1818 96.12L47.3338 97.288L45.7018 96.312L44.0698 97.288L43.2218 96.12L45.7018 94.52L48.1818 96.12ZM57.7692 102.152C57.7692 101.544 57.6145 101.08 57.3052 100.76C56.9959 100.429 56.5799 100.264 56.0572 100.264C55.5345 100.264 55.1185 100.429 54.8092 100.76C54.4999 101.08 54.3452 101.544 54.3452 102.152V107H51.6092V98.072H54.3452V99.256C54.6225 98.8827 54.9905 98.5787 55.4492 98.344C55.9079 98.0987 56.4412 97.976 57.0492 97.976C57.5612 97.976 58.0305 98.0613 58.4572 98.232C58.8839 98.4027 59.2465 98.6533 59.5452 98.984C59.8439 99.304 60.0732 99.704 60.2332 100.184C60.4039 100.653 60.4892 101.187 60.4892 101.784V107H57.7692V102.152ZM65.7811 95.16H68.5171V107H65.7811V95.16ZM74.6118 110.776C74.2278 110.776 73.9078 110.653 73.6518 110.408C73.4065 110.163 73.2838 109.864 73.2838 109.512C73.2838 109.171 73.4065 108.877 73.6518 108.632C73.9078 108.397 74.2278 108.28 74.6118 108.28C75.0065 108.28 75.3265 108.397 75.5718 108.632C75.8278 108.877 75.9558 109.171 75.9558 109.512C75.9558 109.864 75.8278 110.163 75.5718 110.408C75.3265 110.653 75.0065 110.776 74.6118 110.776ZM79.2358 102.536C79.2358 103.24 79.1131 103.88 78.8678 104.456C78.6331 105.021 78.3025 105.501 77.8758 105.896C77.4598 106.291 76.9638 106.595 76.3878 106.808C75.8225 107.021 75.2145 107.128 74.5638 107.128C73.9025 107.128 73.2891 107.021 72.7238 106.808C72.1691 106.595 71.6838 106.291 71.2678 105.896C70.8625 105.501 70.5425 105.021 70.3078 104.456C70.0731 103.88 69.9558 103.24 69.9558 102.536C69.9558 101.832 70.0731 101.197 70.3078 100.632C70.5531 100.056 70.8838 99.5707 71.2998 99.176C71.7158 98.7813 72.2065 98.4773 72.7718 98.264C73.3371 98.0507 73.9451 97.944 74.5958 97.944C74.8198 97.944 75.0331 97.96 75.2358 97.992C75.4491 98.0133 75.6571 98.0507 75.8598 98.104C75.9665 98.1147 76.0518 98.1253 76.1158 98.136C76.1905 98.136 76.2331 98.136 76.2438 98.136C76.5638 98.1253 76.8198 98.0827 77.0118 98.008C77.2145 97.9333 77.3691 97.832 77.4758 97.704C77.5931 97.5653 77.6678 97.4053 77.6998 97.224C77.7425 97.0427 77.7691 96.8453 77.7798 96.632H79.6198C79.5985 97.3253 79.4598 97.896 79.2038 98.344C78.9585 98.7813 78.5638 99.1013 78.0198 99.304C78.3931 99.6987 78.6865 100.168 78.8998 100.712C79.1238 101.256 79.2358 101.864 79.2358 102.536ZM72.7398 102.536C72.7398 102.909 72.7878 103.24 72.8838 103.528C72.9798 103.805 73.1078 104.035 73.2678 104.216C73.4385 104.397 73.6358 104.536 73.8598 104.632C74.0838 104.717 74.3185 104.76 74.5638 104.76C74.8091 104.76 75.0438 104.717 75.2678 104.632C75.4918 104.536 75.6891 104.397 75.8598 104.216C76.0411 104.035 76.1851 103.805 76.2918 103.528C76.3985 103.24 76.4518 102.909 76.4518 102.536C76.4518 102.152 76.3985 101.821 76.2918 101.544C76.1958 101.267 76.0571 101.037 75.8758 100.856C75.7051 100.675 75.5078 100.541 75.2838 100.456C75.0598 100.36 74.8305 100.312 74.5958 100.312C74.3505 100.312 74.1158 100.36 73.8918 100.456C73.6678 100.541 73.4705 100.675 73.2998 100.856C73.1291 101.037 72.9905 101.267 72.8838 101.544C72.7878 101.821 72.7398 102.152 72.7398 102.536ZM80.6873 98.072H83.4233V107H80.6873V98.072ZM82.0633 97.064C81.658 97.064 81.322 96.9413 81.0553 96.696C80.7993 96.4507 80.6713 96.1467 80.6713 95.784C80.6713 95.4213 80.7993 95.1227 81.0553 94.888C81.322 94.6427 81.658 94.52 82.0633 94.52C82.4793 94.52 82.8206 94.6427 83.0873 94.888C83.354 95.1227 83.4873 95.4213 83.4873 95.784C83.4873 96.1467 83.354 96.4507 83.0873 96.696C82.8206 96.9413 82.4793 97.064 82.0633 97.064Z" fill="#115264"/>
<defs>
<radialGradient id="paint0_radial_39_1359" cx="0" cy="0" r="1" gradientUnits="userSpaceOnUse" gradientTransform="translate(55.5 52.2553) rotate(-90) scale(47.2553 42.0839)">
<stop offset="0.741078" stop-color="#4CD2D5"/>
<stop offset="1" stop-color="#5CF0F3"/>
</radialGradient>
<radialGradient id="paint1_radial_39_1359" cx="0" cy="0" r="1" gradientUnits="userSpaceOnUse" gradientTransform="translate(78 14.1766) rotate(-90) scale(14.1766 12.6252)">
<stop offset="0.461129" stop-color="#4CD2D5"/>
<stop offset="1" stop-color="#5CF0F3"/>
</radialGradient>
</defs>
</svg>
