<svg width="162" height="155" viewBox="0 0 162 155" fill="none" xmlns="http://www.w3.org/2000/svg">
<path fill-rule="evenodd" clip-rule="evenodd" d="M93.625 11.4375C94.557 11.4375 95.3125 12.193 95.3125 13.125V18.1875H100.375C101.307 18.1875 102.062 18.943 102.062 19.875C102.062 20.807 101.307 21.5625 100.375 21.5625H95.3125V26.625C95.3125 27.557 94.557 28.3125 93.625 28.3125C92.693 28.3125 91.9375 27.557 91.9375 26.625V21.5625H86.875C85.943 21.5625 85.1875 20.807 85.1875 19.875C85.1875 18.943 85.943 18.1875 86.875 18.1875H91.9375V13.125C91.9375 12.193 92.693 11.4375 93.625 11.4375Z" fill="#115264"/>
<path fill-rule="evenodd" clip-rule="evenodd" d="M93.625 9.1875C94.557 9.1875 95.3125 9.94302 95.3125 10.875V15.9375H100.375C101.307 15.9375 102.062 16.693 102.062 17.625C102.062 18.557 101.307 19.3125 100.375 19.3125H95.3125V24.375C95.3125 25.307 94.557 26.0625 93.625 26.0625C92.693 26.0625 91.9375 25.307 91.9375 24.375V19.3125H86.875C85.943 19.3125 85.1875 18.557 85.1875 17.625C85.1875 16.693 85.943 15.9375 86.875 15.9375H91.9375V10.875C91.9375 9.94302 92.693 9.1875 93.625 9.1875Z" fill="url(#paint0_radial_188_4441)"/>
<path d="M58.75 19.875C58.75 15.102 58.75 12.7155 60.2328 11.2328C61.7155 9.75 64.102 9.75 68.875 9.75C73.648 9.75 76.0345 9.75 77.5172 11.2328C79 12.7155 79 15.102 79 19.875C79 24.648 79 27.0345 77.5172 28.5172C76.0345 30 73.648 30 68.875 30C64.102 30 61.7155 30 60.2328 28.5172C58.75 27.0345 58.75 24.648 58.75 19.875Z" fill="#115264"/>
<path d="M58.75 17.625C58.75 12.852 58.75 10.4655 60.2328 8.98277C61.7155 7.5 64.102 7.5 68.875 7.5C73.648 7.5 76.0345 7.5 77.5172 8.98277C79 10.4655 79 12.852 79 17.625C79 22.398 79 24.7845 77.5172 26.2672C76.0345 27.75 73.648 27.75 68.875 27.75C64.102 27.75 61.7155 27.75 60.2328 26.2672C58.75 24.7845 58.75 22.398 58.75 17.625Z" fill="url(#paint1_radial_188_4441)"/>
<path d="M83.5 46.125C83.5 41.352 83.5 38.9655 84.9828 37.4828C86.4655 36 88.852 36 93.625 36C98.398 36 100.784 36 102.267 37.4828C103.75 38.9655 103.75 41.352 103.75 46.125C103.75 50.898 103.75 53.2845 102.267 54.7672C100.784 56.25 98.398 56.25 93.625 56.25C88.852 56.25 86.4655 56.25 84.9828 54.7672C83.5 53.2845 83.5 50.898 83.5 46.125Z" fill="#115264"/>
<path d="M83.5 43.875C83.5 39.102 83.5 36.7155 84.9828 35.2328C86.4655 33.75 88.852 33.75 93.625 33.75C98.398 33.75 100.784 33.75 102.267 35.2328C103.75 36.7155 103.75 39.102 103.75 43.875C103.75 48.648 103.75 51.0345 102.267 52.5172C100.784 54 98.398 54 93.625 54C88.852 54 86.4655 54 84.9828 52.5172C83.5 51.0345 83.5 48.648 83.5 43.875Z" fill="url(#paint2_radial_188_4441)"/>
<path d="M58.75 46.125C58.75 41.352 58.75 38.9655 60.2328 37.4828C61.7155 36 64.102 36 68.875 36C73.648 36 76.0345 36 77.5172 37.4828C79 38.9655 79 41.352 79 46.125C79 50.898 79 53.2845 77.5172 54.7672C76.0345 56.25 73.648 56.25 68.875 56.25C64.102 56.25 61.7155 56.25 60.2328 54.7672C58.75 53.2845 58.75 50.898 58.75 46.125Z" fill="#115264"/>
<path d="M58.75 43.875C58.75 39.102 58.75 36.7155 60.2328 35.2328C61.7155 33.75 64.102 33.75 68.875 33.75C73.648 33.75 76.0345 33.75 77.5172 35.2328C79 36.7155 79 39.102 79 43.875C79 48.648 79 51.0345 77.5172 52.5172C76.0345 54 73.648 54 68.875 54C64.102 54 61.7155 54 60.2328 52.5172C58.75 51.0345 58.75 48.648 58.75 43.875Z" fill="url(#paint3_radial_188_4441)"/>
<ellipse opacity="0.2" cx="81.25" cy="71.25" rx="22.5" ry="3.75" fill="#1D2723"/>
<path d="M48.7733 95.768H52.0052L55.1573 103.544L58.2773 95.768H61.4933V107H58.7573V100.264L56.2453 107H54.0373L51.5093 100.248V107H48.7733V95.768ZM66.1168 95.4C66.1061 94.9733 66.2448 94.616 66.5328 94.328C66.8314 94.04 67.2848 93.896 67.8928 93.896C68.3941 93.896 68.7994 94.024 69.1088 94.28C69.4181 94.536 69.5728 94.8987 69.5728 95.368C69.5728 95.592 69.5354 95.7947 69.4608 95.976C69.3861 96.1467 69.2901 96.2907 69.1728 96.408C69.0661 96.5147 68.9381 96.6 68.7888 96.664C68.6501 96.728 68.5168 96.76 68.3888 96.76V97.112H67.1888V95.976C67.5514 95.976 67.8234 95.9387 68.0048 95.864C68.1968 95.7787 68.2928 95.6293 68.2928 95.416C68.2928 95.2987 68.2448 95.2027 68.1488 95.128C68.0634 95.0427 67.9568 95 67.8288 95C67.6901 95 67.5674 95.0373 67.4608 95.112C67.3648 95.176 67.3168 95.272 67.3168 95.4H66.1168ZM72.1968 102.536C72.1968 103.24 72.0741 103.88 71.8288 104.456C71.5941 105.021 71.2634 105.501 70.8368 105.896C70.4208 106.291 69.9248 106.595 69.3488 106.808C68.7834 107.021 68.1754 107.128 67.5248 107.128C66.8634 107.128 66.2501 107.021 65.6848 106.808C65.1301 106.595 64.6448 106.291 64.2288 105.896C63.8234 105.501 63.5034 105.021 63.2688 104.456C63.0341 103.88 62.9168 103.24 62.9168 102.536C62.9168 101.832 63.0341 101.197 63.2688 100.632C63.5141 100.056 63.8448 99.5707 64.2608 99.176C64.6768 98.7813 65.1674 98.4773 65.7328 98.264C66.2981 98.0507 66.9061 97.944 67.5568 97.944C67.7808 97.944 67.9941 97.96 68.1968 97.992C68.4101 98.0133 68.6181 98.0507 68.8208 98.104C68.9274 98.1147 69.0128 98.1253 69.0768 98.136C69.1514 98.136 69.1941 98.136 69.2048 98.136C69.5248 98.1253 69.7808 98.0827 69.9728 98.008C70.1754 97.9333 70.3301 97.832 70.4368 97.704C70.5541 97.5653 70.6288 97.4053 70.6608 97.224C70.7034 97.0427 70.7301 96.8453 70.7408 96.632H72.5808C72.5594 97.3253 72.4208 97.896 72.1648 98.344C71.9194 98.7813 71.5248 99.1013 70.9808 99.304C71.3541 99.6987 71.6474 100.168 71.8608 100.712C72.0848 101.256 72.1968 101.864 72.1968 102.536ZM65.7008 102.536C65.7008 102.909 65.7488 103.24 65.8448 103.528C65.9408 103.805 66.0688 104.035 66.2288 104.216C66.3994 104.397 66.5968 104.536 66.8208 104.632C67.0448 104.717 67.2794 104.76 67.5248 104.76C67.7701 104.76 68.0048 104.717 68.2288 104.632C68.4528 104.536 68.6501 104.397 68.8208 104.216C69.0021 104.035 69.1461 103.805 69.2528 103.528C69.3594 103.24 69.4128 102.909 69.4128 102.536C69.4128 102.152 69.3594 101.821 69.2528 101.544C69.1568 101.267 69.0181 101.037 68.8368 100.856C68.6661 100.675 68.4688 100.541 68.2448 100.456C68.0208 100.36 67.7914 100.312 67.5568 100.312C67.3114 100.312 67.0768 100.36 66.8528 100.456C66.6288 100.541 66.4314 100.675 66.2608 100.856C66.0901 101.037 65.9514 101.267 65.8448 101.544C65.7488 101.821 65.7008 102.152 65.7008 102.536ZM79.7749 107H77.0389V98.072H79.7749V99.56C80.0842 99.08 80.4735 98.696 80.9429 98.408C81.4229 98.12 81.9669 97.976 82.5749 97.976V100.872H81.8229C81.1722 100.872 80.6655 101.011 80.3029 101.288C79.9509 101.565 79.7749 102.088 79.7749 102.856V107ZM87.9946 110.776C87.6106 110.776 87.2906 110.653 87.0346 110.408C86.7893 110.163 86.6666 109.864 86.6666 109.512C86.6666 109.171 86.7893 108.877 87.0346 108.632C87.2906 108.397 87.6106 108.28 87.9946 108.28C88.3893 108.28 88.7093 108.397 88.9546 108.632C89.2106 108.877 89.3386 109.171 89.3386 109.512C89.3386 109.864 89.2106 110.163 88.9546 110.408C88.7093 110.653 88.3893 110.776 87.9946 110.776ZM92.6186 102.536C92.6186 103.24 92.496 103.88 92.2506 104.456C92.016 105.021 91.6853 105.501 91.2586 105.896C90.8426 106.291 90.3466 106.595 89.7706 106.808C89.2053 107.021 88.5973 107.128 87.9466 107.128C87.2853 107.128 86.672 107.021 86.1066 106.808C85.552 106.595 85.0666 106.291 84.6506 105.896C84.2453 105.501 83.9253 105.021 83.6906 104.456C83.456 103.88 83.3386 103.24 83.3386 102.536C83.3386 101.832 83.456 101.197 83.6906 100.632C83.936 100.056 84.2666 99.5707 84.6826 99.176C85.0986 98.7813 85.5893 98.4773 86.1546 98.264C86.72 98.0507 87.328 97.944 87.9786 97.944C88.6293 97.944 89.2373 98.0507 89.8026 98.264C90.368 98.4773 90.8586 98.7813 91.2746 99.176C91.6906 99.5707 92.016 100.056 92.2506 100.632C92.496 101.197 92.6186 101.832 92.6186 102.536ZM86.1226 102.536C86.1226 102.909 86.1706 103.24 86.2666 103.528C86.3626 103.805 86.4906 104.035 86.6506 104.216C86.8213 104.397 87.0186 104.536 87.2426 104.632C87.4666 104.717 87.7013 104.76 87.9466 104.76C88.192 104.76 88.4266 104.717 88.6506 104.632C88.8746 104.536 89.072 104.397 89.2426 104.216C89.424 104.035 89.568 103.805 89.6746 103.528C89.7813 103.24 89.8346 102.909 89.8346 102.536C89.8346 102.152 89.7813 101.821 89.6746 101.544C89.5786 101.267 89.44 101.037 89.2586 100.856C89.088 100.675 88.8906 100.541 88.6666 100.456C88.4426 100.36 88.2133 100.312 87.9786 100.312C87.7333 100.312 87.4986 100.36 87.2746 100.456C87.0506 100.541 86.8533 100.675 86.6826 100.856C86.512 101.037 86.3733 101.267 86.2666 101.544C86.1706 101.821 86.1226 102.152 86.1226 102.536ZM90.4586 96.12L89.6106 97.288L87.9786 96.312L86.3466 97.288L85.4986 96.12L87.9786 94.52L90.4586 96.12ZM100.23 102.152C100.23 101.544 100.075 101.08 99.7661 100.76C99.4568 100.429 99.0408 100.264 98.5181 100.264C97.9955 100.264 97.5795 100.429 97.2701 100.76C96.9608 101.08 96.8061 101.544 96.8061 102.152V107H94.0701V98.072H96.8061V99.256C97.0835 98.8827 97.4515 98.5787 97.9101 98.344C98.3688 98.0987 98.9021 97.976 99.5101 97.976C100.022 97.976 100.491 98.0613 100.918 98.232C101.345 98.4027 101.707 98.6533 102.006 98.984C102.305 99.304 102.534 99.704 102.694 100.184C102.865 100.653 102.95 101.187 102.95 101.784V107H100.23V102.152ZM104.307 102.52C104.307 101.816 104.409 101.181 104.611 100.616C104.814 100.051 105.091 99.5707 105.443 99.176C105.806 98.7813 106.227 98.4773 106.707 98.264C107.187 98.0507 107.699 97.944 108.243 97.944C108.905 97.944 109.465 98.0773 109.923 98.344C110.393 98.6 110.75 98.9307 110.995 99.336V98.072H113.731V106.984C113.731 107.581 113.641 108.147 113.459 108.68C113.289 109.213 113.022 109.683 112.659 110.088C112.297 110.493 111.833 110.813 111.267 111.048C110.702 111.283 110.035 111.4 109.267 111.4C108.606 111.4 108.003 111.32 107.459 111.16C106.915 111 106.446 110.765 106.051 110.456C105.657 110.157 105.337 109.795 105.091 109.368C104.857 108.941 104.707 108.461 104.643 107.928H107.347C107.433 108.269 107.63 108.536 107.939 108.728C108.259 108.931 108.659 109.032 109.139 109.032C109.395 109.032 109.635 108.995 109.859 108.92C110.094 108.845 110.291 108.728 110.451 108.568C110.622 108.408 110.755 108.195 110.851 107.928C110.947 107.672 110.995 107.357 110.995 106.984V105.72C110.75 106.115 110.393 106.451 109.923 106.728C109.465 106.995 108.905 107.128 108.243 107.128C107.699 107.128 107.187 107.021 106.707 106.808C106.227 106.595 105.806 106.291 105.443 105.896C105.091 105.491 104.814 105.005 104.611 104.44C104.409 103.864 104.307 103.224 104.307 102.52ZM110.995 102.536C110.995 102.184 110.942 101.869 110.835 101.592C110.729 101.315 110.585 101.085 110.403 100.904C110.233 100.712 110.025 100.568 109.779 100.472C109.545 100.376 109.299 100.328 109.043 100.328C108.787 100.328 108.542 100.376 108.307 100.472C108.073 100.568 107.865 100.707 107.683 100.888C107.502 101.069 107.358 101.299 107.251 101.576C107.145 101.853 107.091 102.168 107.091 102.52C107.091 102.872 107.145 103.187 107.251 103.464C107.358 103.741 107.502 103.976 107.683 104.168C107.865 104.36 108.073 104.504 108.307 104.6C108.542 104.696 108.787 104.744 109.043 104.744C109.299 104.744 109.545 104.696 109.779 104.6C110.025 104.504 110.233 104.365 110.403 104.184C110.585 103.992 110.729 103.757 110.835 103.48C110.942 103.203 110.995 102.888 110.995 102.536ZM5.46306 121.344H4.37506V119.072H5.46306V116.896H8.19906V119.072H9.99106V121.344H8.19906V124.928C8.19906 125.195 8.25773 125.387 8.37506 125.504C8.50306 125.621 8.72173 125.68 9.03106 125.68H10.0071V128H8.61506C8.14573 128 7.71906 127.947 7.33506 127.84C6.95106 127.733 6.6204 127.563 6.34306 127.328C6.06573 127.083 5.84706 126.763 5.68706 126.368C5.53773 125.963 5.46306 125.472 5.46306 124.896V121.344ZM11.7391 119.072H14.4751V128H11.7391V119.072ZM15.1631 116.496L12.4111 118.128L11.5311 116.784L14.2831 115.104L15.1631 116.496ZM22.8317 123.152C22.8317 122.544 22.677 122.08 22.3677 121.76C22.0584 121.429 21.6424 121.264 21.1197 121.264C20.597 121.264 20.181 121.429 19.8717 121.76C19.5624 122.08 19.4077 122.544 19.4077 123.152V128H16.6717V119.072H19.4077V120.256C19.685 119.883 20.053 119.579 20.5117 119.344C20.9704 119.099 21.5037 118.976 22.1117 118.976C22.6237 118.976 23.093 119.061 23.5197 119.232C23.9464 119.403 24.309 119.653 24.6077 119.984C24.9064 120.304 25.1357 120.704 25.2957 121.184C25.4664 121.653 25.5517 122.187 25.5517 122.784V128H22.8317V123.152ZM27.4529 116.16H30.1889V120.272C30.4663 119.888 30.8396 119.579 31.3089 119.344C31.7783 119.099 32.3223 118.976 32.9409 118.976C33.4529 118.976 33.9169 119.061 34.3329 119.232C34.7489 119.403 35.1009 119.653 35.3889 119.984C35.6876 120.304 35.9169 120.704 36.0769 121.184C36.2476 121.653 36.3329 122.187 36.3329 122.784V128H33.6129V123.152C33.6129 122.544 33.4583 122.08 33.1489 121.76C32.8396 121.429 32.4236 121.264 31.9009 121.264C31.3783 121.264 30.9623 121.429 30.6529 121.76C30.3436 122.08 30.1889 122.544 30.1889 123.152V128H27.4529V116.16ZM47.7848 123.152C47.7848 122.544 47.6301 122.08 47.3208 121.76C47.0115 121.429 46.5955 121.264 46.0728 121.264C45.5501 121.264 45.1341 121.429 44.8248 121.76C44.5155 122.08 44.3608 122.544 44.3608 123.152V128H41.6248V119.072H44.3608V120.256C44.6381 119.883 45.0061 119.579 45.4648 119.344C45.9235 119.099 46.4568 118.976 47.0648 118.976C47.5768 118.976 48.0461 119.061 48.4728 119.232C48.8995 119.403 49.2621 119.653 49.5608 119.984C49.8595 120.304 50.0888 120.704 50.2488 121.184C50.4195 121.653 50.5048 122.187 50.5048 122.784V128H47.7848V123.152ZM51.8621 123.52C51.8621 122.816 51.9634 122.181 52.1661 121.616C52.3687 121.051 52.6461 120.571 52.9981 120.176C53.3607 119.781 53.7821 119.477 54.2621 119.264C54.7421 119.051 55.2541 118.944 55.7981 118.944C56.4701 118.944 57.0354 119.077 57.4941 119.344C57.9527 119.611 58.3047 119.941 58.5501 120.336V119.072H61.2861V128H58.5501V126.736C58.3047 127.131 57.9474 127.461 57.4781 127.728C57.0194 127.995 56.4541 128.128 55.7821 128.128C55.2381 128.128 54.7261 128.021 54.2461 127.808C53.7767 127.595 53.3607 127.291 52.9981 126.896C52.6461 126.491 52.3687 126.005 52.1661 125.44C51.9634 124.864 51.8621 124.224 51.8621 123.52ZM58.5501 123.536C58.5501 123.184 58.4967 122.869 58.3901 122.592C58.2834 122.315 58.1394 122.085 57.9581 121.904C57.7874 121.712 57.5794 121.568 57.3341 121.472C57.0994 121.376 56.8541 121.328 56.5981 121.328C56.3421 121.328 56.0967 121.376 55.8621 121.472C55.6274 121.568 55.4194 121.707 55.2381 121.888C55.0567 122.069 54.9127 122.299 54.8061 122.576C54.6994 122.853 54.6461 123.168 54.6461 123.52C54.6461 123.872 54.6994 124.187 54.8061 124.464C54.9127 124.741 55.0567 124.976 55.2381 125.168C55.4194 125.36 55.6274 125.504 55.8621 125.6C56.0967 125.696 56.3421 125.744 56.5981 125.744C56.8541 125.744 57.0994 125.696 57.3341 125.6C57.5794 125.504 57.7874 125.365 57.9581 125.184C58.1394 124.992 58.2834 124.757 58.3901 124.48C58.4967 124.203 58.5501 123.888 58.5501 123.536ZM56.0861 116.048C56.0861 116.293 56.1501 116.485 56.2781 116.624C56.4061 116.752 56.6247 116.816 56.9341 116.816C57.2541 116.816 57.4781 116.752 57.6061 116.624C57.7341 116.485 57.7981 116.293 57.7981 116.048H59.3181C59.3181 116.688 59.1207 117.211 58.7261 117.616C58.3421 118.011 57.7447 118.208 56.9341 118.208C56.1341 118.208 55.5367 118.011 55.1421 117.616C54.7581 117.211 54.5661 116.688 54.5661 116.048H56.0861ZM69.4254 123.152C69.4254 122.544 69.2708 122.08 68.9614 121.76C68.6521 121.429 68.2361 121.264 67.7134 121.264C67.1908 121.264 66.7748 121.429 66.4654 121.76C66.1561 122.08 66.0014 122.544 66.0014 123.152V128H63.2654V119.072H66.0014V120.256C66.2788 119.883 66.6468 119.579 67.1054 119.344C67.5641 119.099 68.0974 118.976 68.7054 118.976C69.2174 118.976 69.6868 119.061 70.1134 119.232C70.5401 119.403 70.9028 119.653 71.2014 119.984C71.5001 120.304 71.7294 120.704 71.8894 121.184C72.0601 121.653 72.1454 122.187 72.1454 122.784V128H69.4254V123.152ZM73.5027 123.52C73.5027 122.816 73.604 122.181 73.8067 121.616C74.0094 121.051 74.2867 120.571 74.6387 120.176C75.0014 119.781 75.4227 119.477 75.9027 119.264C76.3827 119.051 76.8947 118.944 77.4387 118.944C78.1 118.944 78.66 119.077 79.1187 119.344C79.588 119.6 79.9454 119.931 80.1907 120.336V119.072H82.9267V127.984C82.9267 128.581 82.836 129.147 82.6547 129.68C82.484 130.213 82.2174 130.683 81.8547 131.088C81.492 131.493 81.028 131.813 80.4627 132.048C79.8974 132.283 79.2307 132.4 78.4627 132.4C77.8014 132.4 77.1987 132.32 76.6547 132.16C76.1107 132 75.6414 131.765 75.2467 131.456C74.852 131.157 74.532 130.795 74.2867 130.368C74.052 129.941 73.9027 129.461 73.8387 128.928H76.5427C76.628 129.269 76.8254 129.536 77.1347 129.728C77.4547 129.931 77.8547 130.032 78.3347 130.032C78.5907 130.032 78.8307 129.995 79.0547 129.92C79.2894 129.845 79.4867 129.728 79.6467 129.568C79.8174 129.408 79.9507 129.195 80.0467 128.928C80.1427 128.672 80.1907 128.357 80.1907 127.984V126.72C79.9454 127.115 79.588 127.451 79.1187 127.728C78.66 127.995 78.1 128.128 77.4387 128.128C76.8947 128.128 76.3827 128.021 75.9027 127.808C75.4227 127.595 75.0014 127.291 74.6387 126.896C74.2867 126.491 74.0094 126.005 73.8067 125.44C73.604 124.864 73.5027 124.224 73.5027 123.52ZM80.1907 123.536C80.1907 123.184 80.1374 122.869 80.0307 122.592C79.924 122.315 79.78 122.085 79.5987 121.904C79.428 121.712 79.22 121.568 78.9747 121.472C78.74 121.376 78.4947 121.328 78.2387 121.328C77.9827 121.328 77.7374 121.376 77.5027 121.472C77.268 121.568 77.06 121.707 76.8787 121.888C76.6974 122.069 76.5534 122.299 76.4467 122.576C76.34 122.853 76.2867 123.168 76.2867 123.52C76.2867 123.872 76.34 124.187 76.4467 124.464C76.5534 124.741 76.6974 124.976 76.8787 125.168C77.06 125.36 77.268 125.504 77.5027 125.6C77.7374 125.696 77.9827 125.744 78.2387 125.744C78.4947 125.744 78.74 125.696 78.9747 125.6C79.22 125.504 79.428 125.365 79.5987 125.184C79.78 124.992 79.924 124.757 80.0307 124.48C80.1374 124.203 80.1907 123.888 80.1907 123.536ZM88.7287 121.344H87.6407V119.072H88.7287V116.896H91.4647V119.072H93.2567V121.344H91.4647V124.928C91.4647 125.195 91.5234 125.387 91.6407 125.504C91.7687 125.621 91.9874 125.68 92.2967 125.68H93.2727V128H91.8807C91.4114 128 90.9847 127.947 90.6007 127.84C90.2167 127.733 89.886 127.563 89.6087 127.328C89.3314 127.083 89.1127 126.763 88.9527 126.368C88.8034 125.963 88.7287 125.472 88.7287 124.896V121.344ZM94.7967 116.16H97.5327V120.272C97.81 119.888 98.1834 119.579 98.6527 119.344C99.122 119.099 99.666 118.976 100.285 118.976C100.797 118.976 101.261 119.061 101.677 119.232C102.093 119.403 102.445 119.653 102.733 119.984C103.031 120.304 103.261 120.704 103.421 121.184C103.591 121.653 103.677 122.187 103.677 122.784V128H100.957V123.152C100.957 122.544 100.802 122.08 100.493 121.76C100.183 121.429 99.7674 121.264 99.2447 121.264C98.722 121.264 98.306 121.429 97.9967 121.76C97.6874 122.08 97.5327 122.544 97.5327 123.152V128H94.7967V116.16ZM109.514 121.136C109.066 121.136 108.682 121.269 108.362 121.536C108.053 121.792 107.855 122.171 107.77 122.672H111.194C111.194 122.181 111.029 121.803 110.698 121.536C110.367 121.269 109.973 121.136 109.514 121.136ZM113.786 125.04C113.679 125.477 113.503 125.883 113.258 126.256C113.013 126.629 112.703 126.955 112.33 127.232C111.967 127.509 111.551 127.728 111.082 127.888C110.613 128.048 110.101 128.128 109.546 128.128C108.885 128.128 108.277 128.021 107.722 127.808C107.178 127.595 106.703 127.291 106.298 126.896C105.903 126.501 105.594 126.021 105.37 125.456C105.146 124.88 105.034 124.24 105.034 123.536C105.034 122.832 105.141 122.197 105.354 121.632C105.578 121.056 105.887 120.571 106.282 120.176C106.687 119.781 107.167 119.477 107.722 119.264C108.277 119.051 108.885 118.944 109.546 118.944C110.197 118.944 110.794 119.051 111.338 119.264C111.882 119.467 112.351 119.76 112.746 120.144C113.141 120.528 113.445 120.997 113.658 121.552C113.882 122.096 113.994 122.709 113.994 123.392C113.994 123.659 113.978 123.925 113.946 124.192H107.754C107.807 124.779 107.989 125.211 108.298 125.488C108.618 125.765 109.002 125.904 109.45 125.904C109.834 125.904 110.138 125.824 110.362 125.664C110.586 125.493 110.757 125.285 110.874 125.04H113.786ZM124.173 123.536C124.173 124.24 124.051 124.88 123.805 125.456C123.571 126.021 123.24 126.501 122.813 126.896C122.397 127.291 121.901 127.595 121.325 127.808C120.76 128.021 120.152 128.128 119.501 128.128C118.84 128.128 118.227 128.021 117.661 127.808C117.107 127.595 116.621 127.291 116.205 126.896C115.8 126.501 115.48 126.021 115.245 125.456C115.011 124.88 114.893 124.24 114.893 123.536C114.893 122.832 115.011 122.197 115.245 121.632C115.491 121.056 115.821 120.571 116.237 120.176C116.653 119.781 117.144 119.477 117.709 119.264C118.275 119.051 118.883 118.944 119.533 118.944C120.184 118.944 120.792 119.051 121.357 119.264C121.923 119.477 122.413 119.781 122.829 120.176C123.245 120.571 123.571 121.056 123.805 121.632C124.051 122.197 124.173 122.832 124.173 123.536ZM117.677 123.536C117.677 123.909 117.725 124.24 117.821 124.528C117.917 124.805 118.045 125.035 118.205 125.216C118.376 125.397 118.573 125.536 118.797 125.632C119.021 125.717 119.256 125.76 119.501 125.76C119.747 125.76 119.981 125.717 120.205 125.632C120.429 125.536 120.627 125.397 120.797 125.216C120.979 125.035 121.123 124.805 121.229 124.528C121.336 124.24 121.389 123.909 121.389 123.536C121.389 123.152 121.336 122.821 121.229 122.544C121.133 122.267 120.995 122.037 120.813 121.856C120.643 121.675 120.445 121.541 120.221 121.456C119.997 121.36 119.768 121.312 119.533 121.312C119.288 121.312 119.053 121.36 118.829 121.456C118.605 121.541 118.408 121.675 118.237 121.856C118.067 122.037 117.928 122.267 117.821 122.544C117.725 122.821 117.677 123.152 117.677 123.536ZM135.175 119.072H138.135L132.535 132.24H129.591L131.639 127.696L128.007 119.072H131.063L133.127 124.656L135.175 119.072ZM142.748 121.136C142.3 121.136 141.916 121.269 141.596 121.536C141.287 121.792 141.09 122.171 141.004 122.672H144.428C144.428 122.181 144.263 121.803 143.932 121.536C143.602 121.269 143.207 121.136 142.748 121.136ZM147.02 125.04C146.914 125.477 146.738 125.883 146.492 126.256C146.247 126.629 145.938 126.955 145.564 127.232C145.202 127.509 144.786 127.728 144.316 127.888C143.847 128.048 143.335 128.128 142.78 128.128C142.119 128.128 141.511 128.021 140.956 127.808C140.412 127.595 139.938 127.291 139.532 126.896C139.138 126.501 138.828 126.021 138.604 125.456C138.38 124.88 138.268 124.24 138.268 123.536C138.268 122.832 138.375 122.197 138.588 121.632C138.812 121.056 139.122 120.571 139.516 120.176C139.922 119.781 140.402 119.477 140.956 119.264C141.511 119.051 142.119 118.944 142.78 118.944C143.431 118.944 144.028 119.051 144.572 119.264C145.116 119.467 145.586 119.76 145.98 120.144C146.375 120.528 146.679 120.997 146.892 121.552C147.116 122.096 147.228 122.709 147.228 123.392C147.228 123.659 147.212 123.925 147.18 124.192H140.988C141.042 124.779 141.223 125.211 141.532 125.488C141.852 125.765 142.236 125.904 142.684 125.904C143.068 125.904 143.372 125.824 143.596 125.664C143.82 125.493 143.991 125.285 144.108 125.04H147.02ZM145.244 117.12L144.396 118.288L142.764 117.312L141.132 118.288L140.284 117.12L142.764 115.52L145.244 117.12ZM157.488 128H154.752V126.784C154.474 127.168 154.106 127.483 153.648 127.728C153.189 127.973 152.656 128.096 152.048 128.096C151.536 128.096 151.066 128.011 150.64 127.84C150.213 127.669 149.845 127.419 149.536 127.088C149.237 126.757 149.002 126.357 148.832 125.888C148.672 125.419 148.592 124.885 148.592 124.288V119.072H151.312V123.92C151.312 124.528 151.466 124.997 151.776 125.328C152.096 125.648 152.512 125.808 153.024 125.808C153.557 125.808 153.978 125.648 154.288 125.328C154.597 124.997 154.752 124.528 154.752 123.92V119.072H157.488V128ZM66.0339 144.536C66.0339 143.832 66.1406 143.197 66.3539 142.632C66.5779 142.067 66.8873 141.587 67.2819 141.192C67.6873 140.787 68.1619 140.477 68.7059 140.264C69.2499 140.051 69.8526 139.944 70.5139 139.944C71.6446 139.944 72.5833 140.237 73.3299 140.824C74.0766 141.411 74.5673 142.237 74.8019 143.304H71.8899C71.7726 142.995 71.5966 142.749 71.3619 142.568C71.1379 142.376 70.8393 142.28 70.4659 142.28C69.9753 142.28 69.5753 142.472 69.2659 142.856C68.9673 143.229 68.8179 143.789 68.8179 144.536C68.8179 145.283 68.9673 145.848 69.2659 146.232C69.5753 146.605 69.9753 146.792 70.4659 146.792C70.8393 146.792 71.1379 146.707 71.3619 146.536C71.5966 146.355 71.7726 146.099 71.8899 145.768H74.8019C74.5673 146.803 74.0766 147.624 73.3299 148.232C72.5833 148.829 71.6446 149.128 70.5139 149.128C69.8526 149.128 69.2499 149.021 68.7059 148.808C68.1619 148.595 67.6873 148.291 67.2819 147.896C66.8873 147.501 66.5779 147.021 66.3539 146.456C66.1406 145.88 66.0339 145.24 66.0339 144.536ZM82.2974 134.616L83.9454 136.52L82.8574 137.352L81.0494 135.672L82.2974 134.616ZM75.7214 144.52C75.7214 143.816 75.8228 143.181 76.0254 142.616C76.2281 142.051 76.5054 141.571 76.8574 141.176C77.2201 140.781 77.6414 140.477 78.1214 140.264C78.6014 140.051 79.1134 139.944 79.6574 139.944C80.3294 139.944 80.8948 140.077 81.3534 140.344C81.8121 140.611 82.1641 140.941 82.4094 141.336V140.072H85.1454V149H82.4094V147.736C82.1641 148.131 81.8068 148.461 81.3374 148.728C80.8788 148.995 80.3134 149.128 79.6414 149.128C79.0974 149.128 78.5854 149.021 78.1054 148.808C77.6361 148.595 77.2201 148.291 76.8574 147.896C76.5054 147.491 76.2281 147.005 76.0254 146.44C75.8228 145.864 75.7214 145.224 75.7214 144.52ZM82.4094 144.536C82.4094 144.184 82.3561 143.869 82.2494 143.592C82.1428 143.315 81.9988 143.085 81.8174 142.904C81.6468 142.712 81.4388 142.568 81.1934 142.472C80.9588 142.376 80.7134 142.328 80.4574 142.328C80.2014 142.328 79.9561 142.376 79.7214 142.472C79.4868 142.568 79.2788 142.707 79.0974 142.888C78.9161 143.069 78.7721 143.299 78.6654 143.576C78.5588 143.853 78.5054 144.168 78.5054 144.52C78.5054 144.872 78.5588 145.187 78.6654 145.464C78.7721 145.741 78.9161 145.976 79.0974 146.168C79.2788 146.36 79.4868 146.504 79.7214 146.6C79.9561 146.696 80.2014 146.744 80.4574 146.744C80.7134 146.744 80.9588 146.696 81.1934 146.6C81.4388 146.504 81.6468 146.365 81.8174 146.184C81.9988 145.992 82.1428 145.757 82.2494 145.48C82.3561 145.203 82.4094 144.888 82.4094 144.536ZM83.1614 138.12L82.3134 139.288L80.6814 138.312L79.0494 139.288L78.2014 138.12L80.6814 136.52L83.1614 138.12ZM95.9408 149H93.2048V147.784C92.9275 148.168 92.5595 148.483 92.1008 148.728C91.6421 148.973 91.1088 149.096 90.5008 149.096C89.9888 149.096 89.5195 149.011 89.0928 148.84C88.6661 148.669 88.2981 148.419 87.9888 148.088C87.6901 147.757 87.4555 147.357 87.2848 146.888C87.1248 146.419 87.0448 145.885 87.0448 145.288V140.072H89.7648V144.92C89.7648 145.528 89.9195 145.997 90.2288 146.328C90.5488 146.648 90.9648 146.808 91.4768 146.808C92.0101 146.808 92.4315 146.648 92.7408 146.328C93.0501 145.997 93.2048 145.528 93.2048 144.92V140.072H95.9408V149Z" fill="#115264"/>
<defs>
<radialGradient id="paint0_radial_188_4441" cx="0" cy="0" r="1" gradientUnits="userSpaceOnUse" gradientTransform="translate(93.625 25.1362) rotate(-90) scale(15.9487 14.2033)">
<stop offset="0.741078" stop-color="#4CD2D5"/>
<stop offset="1" stop-color="#5CF0F3"/>
</radialGradient>
<radialGradient id="paint1_radial_188_4441" cx="0" cy="0" r="1" gradientUnits="userSpaceOnUse" gradientTransform="translate(68.875 26.6384) rotate(-90) scale(19.1384 17.044)">
<stop offset="0.741078" stop-color="#4CD2D5"/>
<stop offset="1" stop-color="#5CF0F3"/>
</radialGradient>
<radialGradient id="paint2_radial_188_4441" cx="0" cy="0" r="1" gradientUnits="userSpaceOnUse" gradientTransform="translate(93.625 52.8884) rotate(-90) scale(19.1384 17.044)">
<stop offset="0.741078" stop-color="#4CD2D5"/>
<stop offset="1" stop-color="#5CF0F3"/>
</radialGradient>
<radialGradient id="paint3_radial_188_4441" cx="0" cy="0" r="1" gradientUnits="userSpaceOnUse" gradientTransform="translate(68.875 52.8884) rotate(-90) scale(19.1384 17.044)">
<stop offset="0.741078" stop-color="#4CD2D5"/>
<stop offset="1" stop-color="#5CF0F3"/>
</radialGradient>
</defs>
</svg>
