<svg width="226" height="134" viewBox="0 0 226 134" fill="none" xmlns="http://www.w3.org/2000/svg">
<path fill-rule="evenodd" clip-rule="evenodd" d="M125.375 11.4375C126.307 11.4375 127.062 12.193 127.062 13.125V18.1875H132.125C133.057 18.1875 133.812 18.943 133.812 19.875C133.812 20.807 133.057 21.5625 132.125 21.5625H127.062V26.625C127.062 27.557 126.307 28.3125 125.375 28.3125C124.443 28.3125 123.688 27.557 123.688 26.625V21.5625H118.625C117.693 21.5625 116.938 20.807 116.938 19.875C116.938 18.943 117.693 18.1875 118.625 18.1875H123.688V13.125C123.688 12.193 124.443 11.4375 125.375 11.4375Z" fill="#115264"/>
<path fill-rule="evenodd" clip-rule="evenodd" d="M125.375 9.1875C126.307 9.1875 127.062 9.94302 127.062 10.875V15.9375H132.125C133.057 15.9375 133.812 16.693 133.812 17.625C133.812 18.557 133.057 19.3125 132.125 19.3125H127.062V24.375C127.062 25.307 126.307 26.0625 125.375 26.0625C124.443 26.0625 123.688 25.307 123.688 24.375V19.3125H118.625C117.693 19.3125 116.938 18.557 116.938 17.625C116.938 16.693 117.693 15.9375 118.625 15.9375H123.688V10.875C123.688 9.94302 124.443 9.1875 125.375 9.1875Z" fill="url(#paint0_radial_83_1747)"/>
<path d="M90.5 19.875C90.5 15.102 90.5 12.7155 91.9828 11.2328C93.4655 9.75 95.852 9.75 100.625 9.75C105.398 9.75 107.784 9.75 109.267 11.2328C110.75 12.7155 110.75 15.102 110.75 19.875C110.75 24.648 110.75 27.0345 109.267 28.5172C107.784 30 105.398 30 100.625 30C95.852 30 93.4655 30 91.9828 28.5172C90.5 27.0345 90.5 24.648 90.5 19.875Z" fill="#115264"/>
<path d="M90.5 17.625C90.5 12.852 90.5 10.4655 91.9828 8.98277C93.4655 7.5 95.852 7.5 100.625 7.5C105.398 7.5 107.784 7.5 109.267 8.98277C110.75 10.4655 110.75 12.852 110.75 17.625C110.75 22.398 110.75 24.7845 109.267 26.2672C107.784 27.75 105.398 27.75 100.625 27.75C95.852 27.75 93.4655 27.75 91.9828 26.2672C90.5 24.7845 90.5 22.398 90.5 17.625Z" fill="url(#paint1_radial_83_1747)"/>
<path d="M115.25 46.125C115.25 41.352 115.25 38.9655 116.733 37.4828C118.216 36 120.602 36 125.375 36C130.148 36 132.534 36 134.017 37.4828C135.5 38.9655 135.5 41.352 135.5 46.125C135.5 50.898 135.5 53.2845 134.017 54.7672C132.534 56.25 130.148 56.25 125.375 56.25C120.602 56.25 118.216 56.25 116.733 54.7672C115.25 53.2845 115.25 50.898 115.25 46.125Z" fill="#115264"/>
<path d="M115.25 43.875C115.25 39.102 115.25 36.7155 116.733 35.2328C118.216 33.75 120.602 33.75 125.375 33.75C130.148 33.75 132.534 33.75 134.017 35.2328C135.5 36.7155 135.5 39.102 135.5 43.875C135.5 48.648 135.5 51.0345 134.017 52.5172C132.534 54 130.148 54 125.375 54C120.602 54 118.216 54 116.733 52.5172C115.25 51.0345 115.25 48.648 115.25 43.875Z" fill="url(#paint2_radial_83_1747)"/>
<path d="M90.5 46.125C90.5 41.352 90.5 38.9655 91.9828 37.4828C93.4655 36 95.852 36 100.625 36C105.398 36 107.784 36 109.267 37.4828C110.75 38.9655 110.75 41.352 110.75 46.125C110.75 50.898 110.75 53.2845 109.267 54.7672C107.784 56.25 105.398 56.25 100.625 56.25C95.852 56.25 93.4655 56.25 91.9828 54.7672C90.5 53.2845 90.5 50.898 90.5 46.125Z" fill="#115264"/>
<path d="M90.5 43.875C90.5 39.102 90.5 36.7155 91.9828 35.2328C93.4655 33.75 95.852 33.75 100.625 33.75C105.398 33.75 107.784 33.75 109.267 35.2328C110.75 36.7155 110.75 39.102 110.75 43.875C110.75 48.648 110.75 51.0345 109.267 52.5172C107.784 54 105.398 54 100.625 54C95.852 54 93.4655 54 91.9828 52.5172C90.5 51.0345 90.5 48.648 90.5 43.875Z" fill="url(#paint3_radial_83_1747)"/>
<ellipse opacity="0.2" cx="113" cy="71.25" rx="22.5" ry="3.75" fill="#1D2723"/>
<path d="M80.5233 95.768H83.7552L86.9073 103.544L90.0273 95.768H93.2433V107H90.5073V100.264L87.9953 107H85.7873L83.2593 100.248V107H80.5233V95.768ZM97.8668 95.4C97.8561 94.9733 97.9948 94.616 98.2828 94.328C98.5814 94.04 99.0348 93.896 99.6428 93.896C100.144 93.896 100.549 94.024 100.859 94.28C101.168 94.536 101.323 94.8987 101.323 95.368C101.323 95.592 101.285 95.7947 101.211 95.976C101.136 96.1467 101.04 96.2907 100.923 96.408C100.816 96.5147 100.688 96.6 100.539 96.664C100.4 96.728 100.267 96.76 100.139 96.76V97.112H98.9388V95.976C99.3014 95.976 99.5734 95.9387 99.7548 95.864C99.9468 95.7787 100.043 95.6293 100.043 95.416C100.043 95.2987 99.9948 95.2027 99.8988 95.128C99.8134 95.0427 99.7068 95 99.5788 95C99.4401 95 99.3174 95.0373 99.2108 95.112C99.1148 95.176 99.0668 95.272 99.0668 95.4H97.8668ZM103.947 102.536C103.947 103.24 103.824 103.88 103.579 104.456C103.344 105.021 103.013 105.501 102.587 105.896C102.171 106.291 101.675 106.595 101.099 106.808C100.533 107.021 99.9254 107.128 99.2748 107.128C98.6134 107.128 98.0001 107.021 97.4348 106.808C96.8801 106.595 96.3948 106.291 95.9788 105.896C95.5734 105.501 95.2534 105.021 95.0188 104.456C94.7841 103.88 94.6668 103.24 94.6668 102.536C94.6668 101.832 94.7841 101.197 95.0188 100.632C95.2641 100.056 95.5948 99.5707 96.0108 99.176C96.4268 98.7813 96.9174 98.4773 97.4828 98.264C98.0481 98.0507 98.6561 97.944 99.3068 97.944C99.5308 97.944 99.7441 97.96 99.9468 97.992C100.16 98.0133 100.368 98.0507 100.571 98.104C100.677 98.1147 100.763 98.1253 100.827 98.136C100.901 98.136 100.944 98.136 100.955 98.136C101.275 98.1253 101.531 98.0827 101.723 98.008C101.925 97.9333 102.08 97.832 102.187 97.704C102.304 97.5653 102.379 97.4053 102.411 97.224C102.453 97.0427 102.48 96.8453 102.491 96.632H104.331C104.309 97.3253 104.171 97.896 103.915 98.344C103.669 98.7813 103.275 99.1013 102.731 99.304C103.104 99.6987 103.397 100.168 103.611 100.712C103.835 101.256 103.947 101.864 103.947 102.536ZM97.4508 102.536C97.4508 102.909 97.4988 103.24 97.5948 103.528C97.6908 103.805 97.8188 104.035 97.9788 104.216C98.1494 104.397 98.3468 104.536 98.5708 104.632C98.7948 104.717 99.0294 104.76 99.2748 104.76C99.5201 104.76 99.7548 104.717 99.9788 104.632C100.203 104.536 100.4 104.397 100.571 104.216C100.752 104.035 100.896 103.805 101.003 103.528C101.109 103.24 101.163 102.909 101.163 102.536C101.163 102.152 101.109 101.821 101.003 101.544C100.907 101.267 100.768 101.037 100.587 100.856C100.416 100.675 100.219 100.541 99.9948 100.456C99.7708 100.36 99.5414 100.312 99.3068 100.312C99.0614 100.312 98.8268 100.36 98.6028 100.456C98.3788 100.541 98.1814 100.675 98.0108 100.856C97.8401 101.037 97.7014 101.267 97.5948 101.544C97.4988 101.821 97.4508 102.152 97.4508 102.536ZM111.525 107H108.789V98.072H111.525V99.56C111.834 99.08 112.224 98.696 112.693 98.408C113.173 98.12 113.717 97.976 114.325 97.976V100.872H113.573C112.922 100.872 112.416 101.011 112.053 101.288C111.701 101.565 111.525 102.088 111.525 102.856V107ZM119.745 110.776C119.361 110.776 119.041 110.653 118.785 110.408C118.539 110.163 118.417 109.864 118.417 109.512C118.417 109.171 118.539 108.877 118.785 108.632C119.041 108.397 119.361 108.28 119.745 108.28C120.139 108.28 120.459 108.397 120.705 108.632C120.961 108.877 121.089 109.171 121.089 109.512C121.089 109.864 120.961 110.163 120.705 110.408C120.459 110.653 120.139 110.776 119.745 110.776ZM124.369 102.536C124.369 103.24 124.246 103.88 124.001 104.456C123.766 105.021 123.435 105.501 123.009 105.896C122.593 106.291 122.097 106.595 121.521 106.808C120.955 107.021 120.347 107.128 119.697 107.128C119.035 107.128 118.422 107.021 117.857 106.808C117.302 106.595 116.817 106.291 116.401 105.896C115.995 105.501 115.675 105.021 115.441 104.456C115.206 103.88 115.089 103.24 115.089 102.536C115.089 101.832 115.206 101.197 115.441 100.632C115.686 100.056 116.017 99.5707 116.433 99.176C116.849 98.7813 117.339 98.4773 117.905 98.264C118.47 98.0507 119.078 97.944 119.729 97.944C120.379 97.944 120.987 98.0507 121.553 98.264C122.118 98.4773 122.609 98.7813 123.025 99.176C123.441 99.5707 123.766 100.056 124.001 100.632C124.246 101.197 124.369 101.832 124.369 102.536ZM117.873 102.536C117.873 102.909 117.921 103.24 118.017 103.528C118.113 103.805 118.241 104.035 118.401 104.216C118.571 104.397 118.769 104.536 118.993 104.632C119.217 104.717 119.451 104.76 119.697 104.76C119.942 104.76 120.177 104.717 120.401 104.632C120.625 104.536 120.822 104.397 120.993 104.216C121.174 104.035 121.318 103.805 121.425 103.528C121.531 103.24 121.585 102.909 121.585 102.536C121.585 102.152 121.531 101.821 121.425 101.544C121.329 101.267 121.19 101.037 121.009 100.856C120.838 100.675 120.641 100.541 120.417 100.456C120.193 100.36 119.963 100.312 119.729 100.312C119.483 100.312 119.249 100.36 119.025 100.456C118.801 100.541 118.603 100.675 118.433 100.856C118.262 101.037 118.123 101.267 118.017 101.544C117.921 101.821 117.873 102.152 117.873 102.536ZM122.209 96.12L121.361 97.288L119.729 96.312L118.097 97.288L117.249 96.12L119.729 94.52L122.209 96.12ZM131.98 102.152C131.98 101.544 131.825 101.08 131.516 100.76C131.207 100.429 130.791 100.264 130.268 100.264C129.745 100.264 129.329 100.429 129.02 100.76C128.711 101.08 128.556 101.544 128.556 102.152V107H125.82V98.072H128.556V99.256C128.833 98.8827 129.201 98.5787 129.66 98.344C130.119 98.0987 130.652 97.976 131.26 97.976C131.772 97.976 132.241 98.0613 132.668 98.232C133.095 98.4027 133.457 98.6533 133.756 98.984C134.055 99.304 134.284 99.704 134.444 100.184C134.615 100.653 134.7 101.187 134.7 101.784V107H131.98V102.152ZM136.057 102.52C136.057 101.816 136.159 101.181 136.361 100.616C136.564 100.051 136.841 99.5707 137.193 99.176C137.556 98.7813 137.977 98.4773 138.457 98.264C138.937 98.0507 139.449 97.944 139.993 97.944C140.655 97.944 141.215 98.0773 141.673 98.344C142.143 98.6 142.5 98.9307 142.745 99.336V98.072H145.481V106.984C145.481 107.581 145.391 108.147 145.209 108.68C145.039 109.213 144.772 109.683 144.409 110.088C144.047 110.493 143.583 110.813 143.017 111.048C142.452 111.283 141.785 111.4 141.017 111.4C140.356 111.4 139.753 111.32 139.209 111.16C138.665 111 138.196 110.765 137.801 110.456C137.407 110.157 137.087 109.795 136.841 109.368C136.607 108.941 136.457 108.461 136.393 107.928H139.097C139.183 108.269 139.38 108.536 139.689 108.728C140.009 108.931 140.409 109.032 140.889 109.032C141.145 109.032 141.385 108.995 141.609 108.92C141.844 108.845 142.041 108.728 142.201 108.568C142.372 108.408 142.505 108.195 142.601 107.928C142.697 107.672 142.745 107.357 142.745 106.984V105.72C142.5 106.115 142.143 106.451 141.673 106.728C141.215 106.995 140.655 107.128 139.993 107.128C139.449 107.128 138.937 107.021 138.457 106.808C137.977 106.595 137.556 106.291 137.193 105.896C136.841 105.491 136.564 105.005 136.361 104.44C136.159 103.864 136.057 103.224 136.057 102.52ZM142.745 102.536C142.745 102.184 142.692 101.869 142.585 101.592C142.479 101.315 142.335 101.085 142.153 100.904C141.983 100.712 141.775 100.568 141.529 100.472C141.295 100.376 141.049 100.328 140.793 100.328C140.537 100.328 140.292 100.376 140.057 100.472C139.823 100.568 139.615 100.707 139.433 100.888C139.252 101.069 139.108 101.299 139.001 101.576C138.895 101.853 138.841 102.168 138.841 102.52C138.841 102.872 138.895 103.187 139.001 103.464C139.108 103.741 139.252 103.976 139.433 104.168C139.615 104.36 139.823 104.504 140.057 104.6C140.292 104.696 140.537 104.744 140.793 104.744C141.049 104.744 141.295 104.696 141.529 104.6C141.775 104.504 141.983 104.365 142.153 104.184C142.335 103.992 142.479 103.757 142.585 103.48C142.692 103.203 142.745 102.888 142.745 102.536ZM19.8537 121.344H18.7657V119.072H19.8537V116.896H22.5897V119.072H24.3817V121.344H22.5897V124.928C22.5897 125.195 22.6484 125.387 22.7657 125.504C22.8937 125.621 23.1124 125.68 23.4217 125.68H24.3977V128H23.0057C22.5364 128 22.1097 127.947 21.7257 127.84C21.3417 127.733 21.011 127.563 20.7337 127.328C20.4564 127.083 20.2377 126.763 20.0777 126.368C19.9284 125.963 19.8537 125.472 19.8537 124.896V121.344ZM26.1297 119.072H28.8657V128H26.1297V119.072ZM29.5537 116.496L26.8017 118.128L25.9217 116.784L28.6737 115.104L29.5537 116.496ZM37.2223 123.152C37.2223 122.544 37.0676 122.08 36.7583 121.76C36.449 121.429 36.033 121.264 35.5103 121.264C34.9876 121.264 34.5716 121.429 34.2623 121.76C33.953 122.08 33.7983 122.544 33.7983 123.152V128H31.0623V119.072H33.7983V120.256C34.0756 119.883 34.4436 119.579 34.9023 119.344C35.361 119.099 35.8943 118.976 36.5023 118.976C37.0143 118.976 37.4836 119.061 37.9103 119.232C38.337 119.403 38.6996 119.653 38.9983 119.984C39.297 120.304 39.5263 120.704 39.6863 121.184C39.857 121.653 39.9423 122.187 39.9423 122.784V128H37.2223V123.152ZM41.8436 116.16H44.5796V120.272C44.8569 119.888 45.2302 119.579 45.6996 119.344C46.1689 119.099 46.7129 118.976 47.3316 118.976C47.8436 118.976 48.3076 119.061 48.7236 119.232C49.1396 119.403 49.4916 119.653 49.7796 119.984C50.0782 120.304 50.3076 120.704 50.4676 121.184C50.6382 121.653 50.7236 122.187 50.7236 122.784V128H48.0036V123.152C48.0036 122.544 47.8489 122.08 47.5396 121.76C47.2302 121.429 46.8142 121.264 46.2916 121.264C45.7689 121.264 45.3529 121.429 45.0436 121.76C44.7342 122.08 44.5796 122.544 44.5796 123.152V128H41.8436V116.16ZM62.1754 123.152C62.1754 122.544 62.0208 122.08 61.7114 121.76C61.4021 121.429 60.9861 121.264 60.4634 121.264C59.9408 121.264 59.5248 121.429 59.2154 121.76C58.9061 122.08 58.7514 122.544 58.7514 123.152V128H56.0154V119.072H58.7514V120.256C59.0288 119.883 59.3968 119.579 59.8554 119.344C60.3141 119.099 60.8474 118.976 61.4554 118.976C61.9674 118.976 62.4368 119.061 62.8634 119.232C63.2901 119.403 63.6528 119.653 63.9514 119.984C64.2501 120.304 64.4794 120.704 64.6394 121.184C64.8101 121.653 64.8954 122.187 64.8954 122.784V128H62.1754V123.152ZM66.2527 123.52C66.2527 122.816 66.354 122.181 66.5567 121.616C66.7594 121.051 67.0367 120.571 67.3887 120.176C67.7514 119.781 68.1727 119.477 68.6527 119.264C69.1327 119.051 69.6447 118.944 70.1887 118.944C70.8607 118.944 71.426 119.077 71.8847 119.344C72.3434 119.611 72.6954 119.941 72.9407 120.336V119.072H75.6767V128H72.9407V126.736C72.6954 127.131 72.338 127.461 71.8687 127.728C71.41 127.995 70.8447 128.128 70.1727 128.128C69.6287 128.128 69.1167 128.021 68.6367 127.808C68.1674 127.595 67.7514 127.291 67.3887 126.896C67.0367 126.491 66.7594 126.005 66.5567 125.44C66.354 124.864 66.2527 124.224 66.2527 123.52ZM72.9407 123.536C72.9407 123.184 72.8874 122.869 72.7807 122.592C72.674 122.315 72.53 122.085 72.3487 121.904C72.178 121.712 71.97 121.568 71.7247 121.472C71.49 121.376 71.2447 121.328 70.9887 121.328C70.7327 121.328 70.4874 121.376 70.2527 121.472C70.018 121.568 69.81 121.707 69.6287 121.888C69.4474 122.069 69.3034 122.299 69.1967 122.576C69.09 122.853 69.0367 123.168 69.0367 123.52C69.0367 123.872 69.09 124.187 69.1967 124.464C69.3034 124.741 69.4474 124.976 69.6287 125.168C69.81 125.36 70.018 125.504 70.2527 125.6C70.4874 125.696 70.7327 125.744 70.9887 125.744C71.2447 125.744 71.49 125.696 71.7247 125.6C71.97 125.504 72.178 125.365 72.3487 125.184C72.53 124.992 72.674 124.757 72.7807 124.48C72.8874 124.203 72.9407 123.888 72.9407 123.536ZM70.4767 116.048C70.4767 116.293 70.5407 116.485 70.6687 116.624C70.7967 116.752 71.0154 116.816 71.3247 116.816C71.6447 116.816 71.8687 116.752 71.9967 116.624C72.1247 116.485 72.1887 116.293 72.1887 116.048H73.7087C73.7087 116.688 73.5114 117.211 73.1167 117.616C72.7327 118.011 72.1354 118.208 71.3247 118.208C70.5247 118.208 69.9274 118.011 69.5327 117.616C69.1487 117.211 68.9567 116.688 68.9567 116.048H70.4767ZM83.8161 123.152C83.8161 122.544 83.6614 122.08 83.3521 121.76C83.0427 121.429 82.6267 121.264 82.1041 121.264C81.5814 121.264 81.1654 121.429 80.8561 121.76C80.5467 122.08 80.3921 122.544 80.3921 123.152V128H77.6561V119.072H80.3921V120.256C80.6694 119.883 81.0374 119.579 81.4961 119.344C81.9547 119.099 82.4881 118.976 83.0961 118.976C83.6081 118.976 84.0774 119.061 84.5041 119.232C84.9307 119.403 85.2934 119.653 85.5921 119.984C85.8907 120.304 86.1201 120.704 86.2801 121.184C86.4507 121.653 86.5361 122.187 86.5361 122.784V128H83.8161V123.152ZM87.8933 123.52C87.8933 122.816 87.9946 122.181 88.1973 121.616C88.4 121.051 88.6773 120.571 89.0293 120.176C89.392 119.781 89.8133 119.477 90.2933 119.264C90.7733 119.051 91.2853 118.944 91.8293 118.944C92.4906 118.944 93.0506 119.077 93.5093 119.344C93.9786 119.6 94.336 119.931 94.5813 120.336V119.072H97.3173V127.984C97.3173 128.581 97.2266 129.147 97.0453 129.68C96.8746 130.213 96.608 130.683 96.2453 131.088C95.8826 131.493 95.4186 131.813 94.8533 132.048C94.288 132.283 93.6213 132.4 92.8533 132.4C92.192 132.4 91.5893 132.32 91.0453 132.16C90.5013 132 90.032 131.765 89.6373 131.456C89.2426 131.157 88.9226 130.795 88.6773 130.368C88.4426 129.941 88.2933 129.461 88.2293 128.928H90.9333C91.0186 129.269 91.216 129.536 91.5253 129.728C91.8453 129.931 92.2453 130.032 92.7253 130.032C92.9813 130.032 93.2213 129.995 93.4453 129.92C93.68 129.845 93.8773 129.728 94.0373 129.568C94.208 129.408 94.3413 129.195 94.4373 128.928C94.5333 128.672 94.5813 128.357 94.5813 127.984V126.72C94.336 127.115 93.9786 127.451 93.5093 127.728C93.0506 127.995 92.4906 128.128 91.8293 128.128C91.2853 128.128 90.7733 128.021 90.2933 127.808C89.8133 127.595 89.392 127.291 89.0293 126.896C88.6773 126.491 88.4 126.005 88.1973 125.44C87.9946 124.864 87.8933 124.224 87.8933 123.52ZM94.5813 123.536C94.5813 123.184 94.528 122.869 94.4213 122.592C94.3146 122.315 94.1706 122.085 93.9893 121.904C93.8186 121.712 93.6106 121.568 93.3653 121.472C93.1306 121.376 92.8853 121.328 92.6293 121.328C92.3733 121.328 92.128 121.376 91.8933 121.472C91.6586 121.568 91.4506 121.707 91.2693 121.888C91.088 122.069 90.944 122.299 90.8373 122.576C90.7306 122.853 90.6773 123.168 90.6773 123.52C90.6773 123.872 90.7306 124.187 90.8373 124.464C90.944 124.741 91.088 124.976 91.2693 125.168C91.4506 125.36 91.6586 125.504 91.8933 125.6C92.128 125.696 92.3733 125.744 92.6293 125.744C92.8853 125.744 93.1306 125.696 93.3653 125.6C93.6106 125.504 93.8186 125.365 93.9893 125.184C94.1706 124.992 94.3146 124.757 94.4213 124.48C94.528 124.203 94.5813 123.888 94.5813 123.536ZM103.119 121.344H102.031V119.072H103.119V116.896H105.855V119.072H107.647V121.344H105.855V124.928C105.855 125.195 105.914 125.387 106.031 125.504C106.159 125.621 106.378 125.68 106.687 125.68H107.663V128H106.271C105.802 128 105.375 127.947 104.991 127.84C104.607 127.733 104.277 127.563 103.999 127.328C103.722 127.083 103.503 126.763 103.343 126.368C103.194 125.963 103.119 125.472 103.119 124.896V121.344ZM109.187 116.16H111.923V120.272C112.201 119.888 112.574 119.579 113.043 119.344C113.513 119.099 114.057 118.976 114.675 118.976C115.187 118.976 115.651 119.061 116.067 119.232C116.483 119.403 116.835 119.653 117.123 119.984C117.422 120.304 117.651 120.704 117.811 121.184C117.982 121.653 118.067 122.187 118.067 122.784V128H115.347V123.152C115.347 122.544 115.193 122.08 114.883 121.76C114.574 121.429 114.158 121.264 113.635 121.264C113.113 121.264 112.697 121.429 112.387 121.76C112.078 122.08 111.923 122.544 111.923 123.152V128H109.187V116.16ZM123.905 121.136C123.457 121.136 123.073 121.269 122.753 121.536C122.443 121.792 122.246 122.171 122.161 122.672H125.585C125.585 122.181 125.419 121.803 125.089 121.536C124.758 121.269 124.363 121.136 123.905 121.136ZM128.177 125.04C128.07 125.477 127.894 125.883 127.649 126.256C127.403 126.629 127.094 126.955 126.721 127.232C126.358 127.509 125.942 127.728 125.473 127.888C125.003 128.048 124.491 128.128 123.937 128.128C123.275 128.128 122.667 128.021 122.113 127.808C121.569 127.595 121.094 127.291 120.689 126.896C120.294 126.501 119.985 126.021 119.761 125.456C119.537 124.88 119.425 124.24 119.425 123.536C119.425 122.832 119.531 122.197 119.745 121.632C119.969 121.056 120.278 120.571 120.673 120.176C121.078 119.781 121.558 119.477 122.113 119.264C122.667 119.051 123.275 118.944 123.937 118.944C124.587 118.944 125.185 119.051 125.729 119.264C126.273 119.467 126.742 119.76 127.137 120.144C127.531 120.528 127.835 120.997 128.049 121.552C128.273 122.096 128.385 122.709 128.385 123.392C128.385 123.659 128.369 123.925 128.337 124.192H122.145C122.198 124.779 122.379 125.211 122.689 125.488C123.009 125.765 123.393 125.904 123.841 125.904C124.225 125.904 124.529 125.824 124.753 125.664C124.977 125.493 125.147 125.285 125.265 125.04H128.177ZM138.564 123.536C138.564 124.24 138.441 124.88 138.196 125.456C137.961 126.021 137.631 126.501 137.204 126.896C136.788 127.291 136.292 127.595 135.716 127.808C135.151 128.021 134.543 128.128 133.892 128.128C133.231 128.128 132.617 128.021 132.052 127.808C131.497 127.595 131.012 127.291 130.596 126.896C130.191 126.501 129.871 126.021 129.636 125.456C129.401 124.88 129.284 124.24 129.284 123.536C129.284 122.832 129.401 122.197 129.636 121.632C129.881 121.056 130.212 120.571 130.628 120.176C131.044 119.781 131.535 119.477 132.1 119.264C132.665 119.051 133.273 118.944 133.924 118.944C134.575 118.944 135.183 119.051 135.748 119.264C136.313 119.477 136.804 119.781 137.22 120.176C137.636 120.571 137.961 121.056 138.196 121.632C138.441 122.197 138.564 122.832 138.564 123.536ZM132.068 123.536C132.068 123.909 132.116 124.24 132.212 124.528C132.308 124.805 132.436 125.035 132.596 125.216C132.767 125.397 132.964 125.536 133.188 125.632C133.412 125.717 133.647 125.76 133.892 125.76C134.137 125.76 134.372 125.717 134.596 125.632C134.82 125.536 135.017 125.397 135.188 125.216C135.369 125.035 135.513 124.805 135.62 124.528C135.727 124.24 135.78 123.909 135.78 123.536C135.78 123.152 135.727 122.821 135.62 122.544C135.524 122.267 135.385 122.037 135.204 121.856C135.033 121.675 134.836 121.541 134.612 121.456C134.388 121.36 134.159 121.312 133.924 121.312C133.679 121.312 133.444 121.36 133.22 121.456C132.996 121.541 132.799 121.675 132.628 121.856C132.457 122.037 132.319 122.267 132.212 122.544C132.116 122.821 132.068 123.152 132.068 123.536ZM149.566 119.072H152.526L146.926 132.24H143.982L146.03 127.696L142.398 119.072H145.454L147.518 124.656L149.566 119.072ZM157.139 121.136C156.691 121.136 156.307 121.269 155.987 121.536C155.678 121.792 155.48 122.171 155.395 122.672H158.819C158.819 122.181 158.654 121.803 158.323 121.536C157.992 121.269 157.598 121.136 157.139 121.136ZM161.411 125.04C161.304 125.477 161.128 125.883 160.883 126.256C160.638 126.629 160.328 126.955 159.955 127.232C159.592 127.509 159.176 127.728 158.707 127.888C158.238 128.048 157.726 128.128 157.171 128.128C156.51 128.128 155.902 128.021 155.347 127.808C154.803 127.595 154.328 127.291 153.923 126.896C153.528 126.501 153.219 126.021 152.995 125.456C152.771 124.88 152.659 124.24 152.659 123.536C152.659 122.832 152.766 122.197 152.979 121.632C153.203 121.056 153.512 120.571 153.907 120.176C154.312 119.781 154.792 119.477 155.347 119.264C155.902 119.051 156.51 118.944 157.171 118.944C157.822 118.944 158.419 119.051 158.963 119.264C159.507 119.467 159.976 119.76 160.371 120.144C160.766 120.528 161.07 120.997 161.283 121.552C161.507 122.096 161.619 122.709 161.619 123.392C161.619 123.659 161.603 123.925 161.571 124.192H155.379C155.432 124.779 155.614 125.211 155.923 125.488C156.243 125.765 156.627 125.904 157.075 125.904C157.459 125.904 157.763 125.824 157.987 125.664C158.211 125.493 158.382 125.285 158.499 125.04H161.411ZM159.635 117.12L158.787 118.288L157.155 117.312L155.523 118.288L154.675 117.12L157.155 115.52L159.635 117.12ZM171.878 128H169.142V126.784C168.865 127.168 168.497 127.483 168.038 127.728C167.58 127.973 167.046 128.096 166.438 128.096C165.926 128.096 165.457 128.011 165.03 127.84C164.604 127.669 164.236 127.419 163.926 127.088C163.628 126.757 163.393 126.357 163.222 125.888C163.062 125.419 162.982 124.885 162.982 124.288V119.072H165.702V123.92C165.702 124.528 165.857 124.997 166.166 125.328C166.486 125.648 166.902 125.808 167.414 125.808C167.948 125.808 168.369 125.648 168.678 125.328C168.988 124.997 169.142 124.528 169.142 123.92V119.072H171.878V128ZM176.69 123.536C176.69 122.832 176.797 122.197 177.01 121.632C177.234 121.067 177.544 120.587 177.938 120.192C178.344 119.787 178.818 119.477 179.362 119.264C179.906 119.051 180.509 118.944 181.17 118.944C182.301 118.944 183.24 119.237 183.986 119.824C184.733 120.411 185.224 121.237 185.458 122.304H182.546C182.429 121.995 182.253 121.749 182.018 121.568C181.794 121.376 181.496 121.28 181.122 121.28C180.632 121.28 180.232 121.472 179.922 121.856C179.624 122.229 179.474 122.789 179.474 123.536C179.474 124.283 179.624 124.848 179.922 125.232C180.232 125.605 180.632 125.792 181.122 125.792C181.496 125.792 181.794 125.707 182.018 125.536C182.253 125.355 182.429 125.099 182.546 124.768H185.458C185.224 125.803 184.733 126.624 183.986 127.232C183.24 127.829 182.301 128.128 181.17 128.128C180.509 128.128 179.906 128.021 179.362 127.808C178.818 127.595 178.344 127.291 177.938 126.896C177.544 126.501 177.234 126.021 177.01 125.456C176.797 124.88 176.69 124.24 176.69 123.536ZM192.954 113.616L194.602 115.52L193.514 116.352L191.706 114.672L192.954 113.616ZM186.378 123.52C186.378 122.816 186.479 122.181 186.682 121.616C186.884 121.051 187.162 120.571 187.514 120.176C187.876 119.781 188.298 119.477 188.778 119.264C189.258 119.051 189.77 118.944 190.314 118.944C190.986 118.944 191.551 119.077 192.01 119.344C192.468 119.611 192.82 119.941 193.066 120.336V119.072H195.802V128H193.066V126.736C192.82 127.131 192.463 127.461 191.994 127.728C191.535 127.995 190.97 128.128 190.298 128.128C189.754 128.128 189.242 128.021 188.762 127.808C188.292 127.595 187.876 127.291 187.514 126.896C187.162 126.491 186.884 126.005 186.682 125.44C186.479 124.864 186.378 124.224 186.378 123.52ZM193.066 123.536C193.066 123.184 193.012 122.869 192.906 122.592C192.799 122.315 192.655 122.085 192.474 121.904C192.303 121.712 192.095 121.568 191.85 121.472C191.615 121.376 191.37 121.328 191.114 121.328C190.858 121.328 190.612 121.376 190.378 121.472C190.143 121.568 189.935 121.707 189.754 121.888C189.572 122.069 189.428 122.299 189.322 122.576C189.215 122.853 189.162 123.168 189.162 123.52C189.162 123.872 189.215 124.187 189.322 124.464C189.428 124.741 189.572 124.976 189.754 125.168C189.935 125.36 190.143 125.504 190.378 125.6C190.612 125.696 190.858 125.744 191.114 125.744C191.37 125.744 191.615 125.696 191.85 125.6C192.095 125.504 192.303 125.365 192.474 125.184C192.655 124.992 192.799 124.757 192.906 124.48C193.012 124.203 193.066 123.888 193.066 123.536ZM193.818 117.12L192.97 118.288L191.338 117.312L189.706 118.288L188.858 117.12L191.338 115.52L193.818 117.12ZM206.597 128H203.861V126.784C203.584 127.168 203.216 127.483 202.757 127.728C202.298 127.973 201.765 128.096 201.157 128.096C200.645 128.096 200.176 128.011 199.749 127.84C199.322 127.669 198.954 127.419 198.645 127.088C198.346 126.757 198.112 126.357 197.941 125.888C197.781 125.419 197.701 124.885 197.701 124.288V119.072H200.421V123.92C200.421 124.528 200.576 124.997 200.885 125.328C201.205 125.648 201.621 125.808 202.133 125.808C202.666 125.808 203.088 125.648 203.397 125.328C203.706 124.997 203.861 124.528 203.861 123.92V119.072H206.597V128Z" fill="#115264"/>
<defs>
<radialGradient id="paint0_radial_83_1747" cx="0" cy="0" r="1" gradientUnits="userSpaceOnUse" gradientTransform="translate(125.375 25.1362) rotate(-90) scale(15.9487 14.2033)">
<stop offset="0.741078" stop-color="#4CD2D5"/>
<stop offset="1" stop-color="#5CF0F3"/>
</radialGradient>
<radialGradient id="paint1_radial_83_1747" cx="0" cy="0" r="1" gradientUnits="userSpaceOnUse" gradientTransform="translate(100.625 26.6384) rotate(-90) scale(19.1384 17.044)">
<stop offset="0.741078" stop-color="#4CD2D5"/>
<stop offset="1" stop-color="#5CF0F3"/>
</radialGradient>
<radialGradient id="paint2_radial_83_1747" cx="0" cy="0" r="1" gradientUnits="userSpaceOnUse" gradientTransform="translate(125.375 52.8884) rotate(-90) scale(19.1384 17.044)">
<stop offset="0.741078" stop-color="#4CD2D5"/>
<stop offset="1" stop-color="#5CF0F3"/>
</radialGradient>
<radialGradient id="paint3_radial_83_1747" cx="0" cy="0" r="1" gradientUnits="userSpaceOnUse" gradientTransform="translate(100.625 52.8884) rotate(-90) scale(19.1384 17.044)">
<stop offset="0.741078" stop-color="#4CD2D5"/>
<stop offset="1" stop-color="#5CF0F3"/>
</radialGradient>
</defs>
</svg>
