<svg width="81" height="80" viewBox="0 0 81 80" fill="none" xmlns="http://www.w3.org/2000/svg">
<path fill-rule="evenodd" clip-rule="evenodd" d="M52.625 11.4375C53.557 11.4375 54.3125 12.193 54.3125 13.125V18.1875H59.375C60.307 18.1875 61.0625 18.943 61.0625 19.875C61.0625 20.807 60.307 21.5625 59.375 21.5625H54.3125V26.625C54.3125 27.557 53.557 28.3125 52.625 28.3125C51.693 28.3125 50.9375 27.557 50.9375 26.625V21.5625H45.875C44.943 21.5625 44.1875 20.807 44.1875 19.875C44.1875 18.943 44.943 18.1875 45.875 18.1875H50.9375V13.125C50.9375 12.193 51.693 11.4375 52.625 11.4375Z" fill="#115264"/>
<path fill-rule="evenodd" clip-rule="evenodd" d="M52.625 9.1875C53.557 9.1875 54.3125 9.94302 54.3125 10.875V15.9375H59.375C60.307 15.9375 61.0625 16.693 61.0625 17.625C61.0625 18.557 60.307 19.3125 59.375 19.3125H54.3125V24.375C54.3125 25.307 53.557 26.0625 52.625 26.0625C51.693 26.0625 50.9375 25.307 50.9375 24.375V19.3125H45.875C44.943 19.3125 44.1875 18.557 44.1875 17.625C44.1875 16.693 44.943 15.9375 45.875 15.9375H50.9375V10.875C50.9375 9.94302 51.693 9.1875 52.625 9.1875Z" fill="url(#paint0_radial_188_4442)"/>
<path d="M17.75 19.875C17.75 15.102 17.75 12.7155 19.2328 11.2328C20.7155 9.75 23.102 9.75 27.875 9.75C32.648 9.75 35.0345 9.75 36.5172 11.2328C38 12.7155 38 15.102 38 19.875C38 24.648 38 27.0345 36.5172 28.5172C35.0345 30 32.648 30 27.875 30C23.102 30 20.7155 30 19.2328 28.5172C17.75 27.0345 17.75 24.648 17.75 19.875Z" fill="#115264"/>
<path d="M17.75 17.625C17.75 12.852 17.75 10.4655 19.2328 8.98277C20.7155 7.5 23.102 7.5 27.875 7.5C32.648 7.5 35.0345 7.5 36.5172 8.98277C38 10.4655 38 12.852 38 17.625C38 22.398 38 24.7845 36.5172 26.2672C35.0345 27.75 32.648 27.75 27.875 27.75C23.102 27.75 20.7155 27.75 19.2328 26.2672C17.75 24.7845 17.75 22.398 17.75 17.625Z" fill="url(#paint1_radial_188_4442)"/>
<path d="M42.5 46.125C42.5 41.352 42.5 38.9655 43.9828 37.4828C45.4655 36 47.852 36 52.625 36C57.398 36 59.7845 36 61.2672 37.4828C62.75 38.9655 62.75 41.352 62.75 46.125C62.75 50.898 62.75 53.2845 61.2672 54.7672C59.7845 56.25 57.398 56.25 52.625 56.25C47.852 56.25 45.4655 56.25 43.9828 54.7672C42.5 53.2845 42.5 50.898 42.5 46.125Z" fill="#115264"/>
<path d="M42.5 43.875C42.5 39.102 42.5 36.7155 43.9828 35.2328C45.4655 33.75 47.852 33.75 52.625 33.75C57.398 33.75 59.7845 33.75 61.2672 35.2328C62.75 36.7155 62.75 39.102 62.75 43.875C62.75 48.648 62.75 51.0345 61.2672 52.5172C59.7845 54 57.398 54 52.625 54C47.852 54 45.4655 54 43.9828 52.5172C42.5 51.0345 42.5 48.648 42.5 43.875Z" fill="url(#paint2_radial_188_4442)"/>
<path d="M17.75 46.125C17.75 41.352 17.75 38.9655 19.2328 37.4828C20.7155 36 23.102 36 27.875 36C32.648 36 35.0345 36 36.5172 37.4828C38 38.9655 38 41.352 38 46.125C38 50.898 38 53.2845 36.5172 54.7672C35.0345 56.25 32.648 56.25 27.875 56.25C23.102 56.25 20.7155 56.25 19.2328 54.7672C17.75 53.2845 17.75 50.898 17.75 46.125Z" fill="#115264"/>
<path d="M17.75 43.875C17.75 39.102 17.75 36.7155 19.2328 35.2328C20.7155 33.75 23.102 33.75 27.875 33.75C32.648 33.75 35.0345 33.75 36.5172 35.2328C38 36.7155 38 39.102 38 43.875C38 48.648 38 51.0345 36.5172 52.5172C35.0345 54 32.648 54 27.875 54C23.102 54 20.7155 54 19.2328 52.5172C17.75 51.0345 17.75 48.648 17.75 43.875Z" fill="url(#paint3_radial_188_4442)"/>
<ellipse opacity="0.2" cx="40.25" cy="71.25" rx="22.5" ry="3.75" fill="#1D2723"/>
<defs>
<radialGradient id="paint0_radial_188_4442" cx="0" cy="0" r="1" gradientUnits="userSpaceOnUse" gradientTransform="translate(52.625 25.1362) rotate(-90) scale(15.9487 14.2033)">
<stop offset="0.741078" stop-color="#4CD2D5"/>
<stop offset="1" stop-color="#5CF0F3"/>
</radialGradient>
<radialGradient id="paint1_radial_188_4442" cx="0" cy="0" r="1" gradientUnits="userSpaceOnUse" gradientTransform="translate(27.875 26.6384) rotate(-90) scale(19.1384 17.044)">
<stop offset="0.741078" stop-color="#4CD2D5"/>
<stop offset="1" stop-color="#5CF0F3"/>
</radialGradient>
<radialGradient id="paint2_radial_188_4442" cx="0" cy="0" r="1" gradientUnits="userSpaceOnUse" gradientTransform="translate(52.625 52.8884) rotate(-90) scale(19.1384 17.044)">
<stop offset="0.741078" stop-color="#4CD2D5"/>
<stop offset="1" stop-color="#5CF0F3"/>
</radialGradient>
<radialGradient id="paint3_radial_188_4442" cx="0" cy="0" r="1" gradientUnits="userSpaceOnUse" gradientTransform="translate(27.875 52.8884) rotate(-90) scale(19.1384 17.044)">
<stop offset="0.741078" stop-color="#4CD2D5"/>
<stop offset="1" stop-color="#5CF0F3"/>
</radialGradient>
</defs>
</svg>
