<svg width="162" height="134" viewBox="0 0 162 134" fill="none" xmlns="http://www.w3.org/2000/svg">
<ellipse opacity="0.2" cx="81.25" cy="71.25" rx="22.5" ry="3.75" fill="#1D2723"/>
<path d="M67.6657 55.8092C72.0573 55.8092 75.6175 52.2491 75.6175 47.8574H59.7139C59.7139 52.2491 63.274 55.8092 67.6657 55.8092Z" fill="#115264"/>
<path d="M100.332 33.2731L98.1473 34.6043L93.7935 25.3271H97.7215C99.3581 25.3271 100.176 25.3271 100.787 25.6761C101.199 25.911 101.54 26.2519 101.774 26.6632C102.123 27.2742 102.123 28.0925 102.123 29.7291C102.123 30.5945 102.123 31.0272 101.998 31.4206C101.912 31.6884 101.785 31.9409 101.62 32.1686C101.377 32.5032 101.029 32.7598 100.332 33.2731L100.332 33.2731Z" fill="#115264"/>
<path d="M100.332 30.6227L98.1473 31.9539L93.7935 22.6768H97.7215C99.3581 22.6768 100.176 22.6768 100.787 23.0257C101.199 23.2606 101.54 23.6015 101.774 24.0128C102.123 24.6238 102.123 25.4421 102.123 27.0787C102.123 27.9441 102.123 28.3768 101.998 28.7702C101.912 29.038 101.785 29.2905 101.62 29.5182C101.377 29.8528 101.029 30.1094 100.332 30.6227L100.332 30.6227Z" fill="#69FAFD"/>
<path d="M87.1855 20.7772C86.354 20.6913 85.278 20.6888 83.6431 20.6888H82.244C81.1461 20.6888 80.256 19.7988 80.256 18.7008C80.256 17.6029 81.1461 16.7129 82.244 16.7129H83.7409C85.2516 16.7128 86.5344 16.7128 87.5944 16.8224C88.7231 16.9391 89.7662 17.1925 90.7516 17.8015C91.737 18.4106 92.4301 19.2302 93.0393 20.1875C93.6114 21.0866 94.185 22.2339 94.8606 23.5852L103.206 40.2769C106.421 41.2971 108.75 44.3053 108.75 47.8575C108.75 52.2491 105.19 55.8093 100.798 55.8093C97.093 55.8093 93.9796 53.2751 93.0969 49.8454L58.5482 49.8455C58.3724 49.8455 58.1923 49.8443 58.0247 49.8311C55.75 49.6521 53.9434 47.8455 53.7643 45.5708C53.7498 45.3859 53.7499 45.1857 53.75 44.9928L53.75 44.8409C53.75 43.9528 53.75 43.3881 53.7889 42.8937C54.2748 36.7197 59.1786 31.8159 65.3526 31.33C65.417 31.325 65.4827 31.3205 65.5501 31.3167C65.935 31.2948 66.3772 31.2917 66.9812 31.2913L69.1288 31.2912C71.5103 31.2911 73.4962 31.2911 75.0728 31.503C76.7368 31.7268 78.2392 32.2189 79.4464 33.4262C80.6537 34.6334 81.1458 36.1358 81.3696 37.7998C81.5815 39.3763 81.5814 41.3622 81.5814 43.7437L81.5814 45.8695H93.0969C93.8078 43.1075 95.9653 40.9263 98.7136 40.1817L91.3481 25.4508C90.617 23.9885 90.1336 23.0272 89.6848 22.3219C89.2608 21.6555 88.957 21.3663 88.6613 21.1836C88.3657 21.0009 87.9712 20.8585 87.1855 20.7772Z" fill="#115264"/>
<path d="M87.1855 18.1268C86.354 18.0409 85.278 18.0384 83.6431 18.0384H82.244C81.1461 18.0384 80.256 17.1484 80.256 16.0505C80.256 14.9525 81.1461 14.0625 82.244 14.0625H83.7409C85.2516 14.0625 86.5344 14.0624 87.5944 14.172C88.7231 14.2887 89.7662 14.5421 90.7516 15.1511C91.737 15.7602 92.4301 16.5798 93.0393 17.5371C93.6114 18.4362 94.185 19.5835 94.8606 20.9349L103.206 37.6265C106.421 38.6467 108.75 41.6549 108.75 45.2071C108.75 49.5987 105.19 53.1589 100.798 53.1589C97.093 53.1589 93.9796 50.6247 93.0969 47.195L58.5482 47.1951C58.3724 47.1951 58.1923 47.1939 58.0247 47.1807C55.75 47.0017 53.9434 45.1951 53.7643 42.9204C53.7498 42.7355 53.7499 42.5353 53.75 42.3425L53.75 42.1905C53.75 41.3024 53.75 40.7377 53.7889 40.2434C54.2748 34.0693 59.1786 29.1655 65.3526 28.6796C65.417 28.6746 65.4827 28.6702 65.5501 28.6663C65.935 28.6444 66.3772 28.6413 66.9812 28.6409L69.1288 28.6408C71.5103 28.6407 73.4962 28.6407 75.0728 28.8526C76.7368 29.0764 78.2392 29.5685 79.4464 30.7758C80.6537 31.983 81.1458 33.4854 81.3696 35.1494C81.5815 36.7259 81.5814 38.7118 81.5814 41.0933L81.5814 43.2191H93.0969C93.8078 40.4571 95.9653 38.2759 98.7136 37.5313L91.3481 22.8004C90.617 21.3381 90.1336 20.3768 89.6848 19.6715C89.2608 19.0051 88.957 18.7159 88.6613 18.5332C88.3657 18.3505 87.9712 18.2081 87.1855 18.1268Z" fill="url(#paint0_radial_188_4434)"/>
<path d="M40.2199 95.768H48.9079V97.96H45.9319V107H43.1959V97.96H40.2199V95.768ZM50.4891 98.072H53.2251V107H50.4891V98.072ZM53.9131 95.496L51.1611 97.128L50.2811 95.784L53.0331 94.104L53.9131 95.496ZM61.5817 102.152C61.5817 101.544 61.427 101.08 61.1177 100.76C60.8084 100.429 60.3924 100.264 59.8697 100.264C59.347 100.264 58.931 100.429 58.6217 100.76C58.3124 101.08 58.1577 101.544 58.1577 102.152V107H55.4217V98.072H58.1577V99.256C58.435 98.8827 58.803 98.5787 59.2617 98.344C59.7204 98.0987 60.2537 97.976 60.8617 97.976C61.3737 97.976 61.843 98.0613 62.2697 98.232C62.6964 98.4027 63.059 98.6533 63.3577 98.984C63.6564 99.304 63.8857 99.704 64.0457 100.184C64.2164 100.653 64.3017 101.187 64.3017 101.784V107H61.5817V102.152ZM66.2029 95.16H68.9389V99.272C69.2163 98.888 69.5896 98.5787 70.0589 98.344C70.5283 98.0987 71.0723 97.976 71.6909 97.976C72.2029 97.976 72.6669 98.0613 73.0829 98.232C73.4989 98.4027 73.8509 98.6533 74.1389 98.984C74.4376 99.304 74.6669 99.704 74.8269 100.184C74.9976 100.653 75.0829 101.187 75.0829 101.784V107H72.3629V102.152C72.3629 101.544 72.2083 101.08 71.8989 100.76C71.5896 100.429 71.1736 100.264 70.6509 100.264C70.1283 100.264 69.7123 100.429 69.4029 100.76C69.0936 101.08 68.9389 101.544 68.9389 102.152V107H66.2029V95.16ZM86.5348 102.152C86.5348 101.544 86.3801 101.08 86.0708 100.76C85.7615 100.429 85.3455 100.264 84.8228 100.264C84.3001 100.264 83.8841 100.429 83.5748 100.76C83.2655 101.08 83.1108 101.544 83.1108 102.152V107H80.3748V98.072H83.1108V99.256C83.3881 98.8827 83.7561 98.5787 84.2148 98.344C84.6735 98.0987 85.2068 97.976 85.8148 97.976C86.3268 97.976 86.7961 98.0613 87.2228 98.232C87.6495 98.4027 88.0121 98.6533 88.3108 98.984C88.6095 99.304 88.8388 99.704 88.9988 100.184C89.1695 100.653 89.2548 101.187 89.2548 101.784V107H86.5348V102.152ZM90.6121 102.52C90.6121 101.816 90.7134 101.181 90.9161 100.616C91.1187 100.051 91.3961 99.5707 91.7481 99.176C92.1107 98.7813 92.5321 98.4773 93.0121 98.264C93.4921 98.0507 94.0041 97.944 94.5481 97.944C95.2201 97.944 95.7854 98.0773 96.2441 98.344C96.7027 98.6107 97.0547 98.9413 97.3001 99.336V98.072H100.036V107H97.3001V105.736C97.0547 106.131 96.6974 106.461 96.2281 106.728C95.7694 106.995 95.2041 107.128 94.5321 107.128C93.9881 107.128 93.4761 107.021 92.9961 106.808C92.5267 106.595 92.1107 106.291 91.7481 105.896C91.3961 105.491 91.1187 105.005 90.9161 104.44C90.7134 103.864 90.6121 103.224 90.6121 102.52ZM97.3001 102.536C97.3001 102.184 97.2467 101.869 97.1401 101.592C97.0334 101.315 96.8894 101.085 96.7081 100.904C96.5374 100.712 96.3294 100.568 96.0841 100.472C95.8494 100.376 95.6041 100.328 95.3481 100.328C95.0921 100.328 94.8467 100.376 94.6121 100.472C94.3774 100.568 94.1694 100.707 93.9881 100.888C93.8067 101.069 93.6627 101.299 93.5561 101.576C93.4494 101.853 93.3961 102.168 93.3961 102.52C93.3961 102.872 93.4494 103.187 93.5561 103.464C93.6627 103.741 93.8067 103.976 93.9881 104.168C94.1694 104.36 94.3774 104.504 94.6121 104.6C94.8467 104.696 95.0921 104.744 95.3481 104.744C95.6041 104.744 95.8494 104.696 96.0841 104.6C96.3294 104.504 96.5374 104.365 96.7081 104.184C96.8894 103.992 97.0334 103.757 97.1401 103.48C97.2467 103.203 97.3001 102.888 97.3001 102.536ZM94.8361 95.048C94.8361 95.2933 94.9001 95.4853 95.0281 95.624C95.1561 95.752 95.3747 95.816 95.6841 95.816C96.0041 95.816 96.2281 95.752 96.3561 95.624C96.4841 95.4853 96.5481 95.2933 96.5481 95.048H98.0681C98.0681 95.688 97.8707 96.2107 97.4761 96.616C97.0921 97.0107 96.4947 97.208 95.6841 97.208C94.8841 97.208 94.2867 97.0107 93.8921 96.616C93.5081 96.2107 93.3161 95.688 93.3161 95.048H94.8361ZM108.175 102.152C108.175 101.544 108.021 101.08 107.711 100.76C107.402 100.429 106.986 100.264 106.463 100.264C105.941 100.264 105.525 100.429 105.215 100.76C104.906 101.08 104.751 101.544 104.751 102.152V107H102.015V98.072H104.751V99.256C105.029 98.8827 105.397 98.5787 105.855 98.344C106.314 98.0987 106.847 97.976 107.455 97.976C107.967 97.976 108.437 98.0613 108.863 98.232C109.29 98.4027 109.653 98.6533 109.951 98.984C110.25 99.304 110.479 99.704 110.639 100.184C110.81 100.653 110.895 101.187 110.895 101.784V107H108.175V102.152ZM112.253 102.52C112.253 101.816 112.354 101.181 112.557 100.616C112.759 100.051 113.037 99.5707 113.389 99.176C113.751 98.7813 114.173 98.4773 114.653 98.264C115.133 98.0507 115.645 97.944 116.189 97.944C116.85 97.944 117.41 98.0773 117.869 98.344C118.338 98.6 118.695 98.9307 118.941 99.336V98.072H121.677V106.984C121.677 107.581 121.586 108.147 121.405 108.68C121.234 109.213 120.967 109.683 120.605 110.088C120.242 110.493 119.778 110.813 119.213 111.048C118.647 111.283 117.981 111.4 117.213 111.4C116.551 111.4 115.949 111.32 115.405 111.16C114.861 111 114.391 110.765 113.997 110.456C113.602 110.157 113.282 109.795 113.037 109.368C112.802 108.941 112.653 108.461 112.589 107.928H115.293C115.378 108.269 115.575 108.536 115.885 108.728C116.205 108.931 116.605 109.032 117.085 109.032C117.341 109.032 117.581 108.995 117.805 108.92C118.039 108.845 118.237 108.728 118.397 108.568C118.567 108.408 118.701 108.195 118.797 107.928C118.893 107.672 118.941 107.357 118.941 106.984V105.72C118.695 106.115 118.338 106.451 117.869 106.728C117.41 106.995 116.85 107.128 116.189 107.128C115.645 107.128 115.133 107.021 114.653 106.808C114.173 106.595 113.751 106.291 113.389 105.896C113.037 105.491 112.759 105.005 112.557 104.44C112.354 103.864 112.253 103.224 112.253 102.52ZM118.941 102.536C118.941 102.184 118.887 101.869 118.781 101.592C118.674 101.315 118.53 101.085 118.349 100.904C118.178 100.712 117.97 100.568 117.725 100.472C117.49 100.376 117.245 100.328 116.989 100.328C116.733 100.328 116.487 100.376 116.253 100.472C116.018 100.568 115.81 100.707 115.629 100.888C115.447 101.069 115.303 101.299 115.197 101.576C115.09 101.853 115.037 102.168 115.037 102.52C115.037 102.872 115.09 103.187 115.197 103.464C115.303 103.741 115.447 103.976 115.629 104.168C115.81 104.36 116.018 104.504 116.253 104.6C116.487 104.696 116.733 104.744 116.989 104.744C117.245 104.744 117.49 104.696 117.725 104.6C117.97 104.504 118.178 104.365 118.349 104.184C118.53 103.992 118.674 103.757 118.781 103.48C118.887 103.203 118.941 102.888 118.941 102.536ZM17.4041 116.64C18.7587 116.64 19.8947 116.965 20.8121 117.616C21.7294 118.256 22.3374 119.157 22.6361 120.32H19.6121C19.1854 119.552 18.4494 119.168 17.4041 119.168C16.9667 119.168 16.5667 119.243 16.2041 119.392C15.8414 119.541 15.5321 119.755 15.2761 120.032C15.0201 120.309 14.8227 120.645 14.6841 121.04C14.5454 121.435 14.4761 121.877 14.4761 122.368C14.4761 123.413 14.7534 124.224 15.3081 124.8C15.8627 125.376 16.6361 125.664 17.6281 125.664C18.3107 125.664 18.8814 125.493 19.3401 125.152C19.7987 124.811 20.1347 124.32 20.3481 123.68H16.8761V121.664H22.8281V124.208C22.6787 124.688 22.4547 125.163 22.1561 125.632C21.8574 126.091 21.4787 126.501 21.0201 126.864C20.5614 127.227 20.0281 127.52 19.4201 127.744C18.8227 127.968 18.1561 128.08 17.4201 128.08C16.5774 128.08 15.8041 127.941 15.1001 127.664C14.4067 127.387 13.8041 126.997 13.2921 126.496C12.7907 125.984 12.3961 125.381 12.1081 124.688C11.8307 123.984 11.6921 123.211 11.6921 122.368C11.6921 121.525 11.8307 120.757 12.1081 120.064C12.3854 119.36 12.7747 118.757 13.2761 118.256C13.7881 117.744 14.3907 117.349 15.0841 117.072C15.7881 116.784 16.5614 116.64 17.4041 116.64ZM28.4556 131.776C28.0716 131.776 27.7516 131.653 27.4956 131.408C27.2502 131.163 27.1276 130.864 27.1276 130.512C27.1276 130.171 27.2502 129.877 27.4956 129.632C27.7516 129.397 28.0716 129.28 28.4556 129.28C28.8502 129.28 29.1702 129.397 29.4156 129.632C29.6716 129.877 29.7996 130.171 29.7996 130.512C29.7996 130.864 29.6716 131.163 29.4156 131.408C29.1702 131.653 28.8502 131.776 28.4556 131.776ZM33.0796 123.536C33.0796 124.24 32.9569 124.88 32.7116 125.456C32.4769 126.021 32.1462 126.501 31.7196 126.896C31.3036 127.291 30.8076 127.595 30.2316 127.808C29.6662 128.021 29.0582 128.128 28.4076 128.128C27.7462 128.128 27.1329 128.021 26.5676 127.808C26.0129 127.595 25.5276 127.291 25.1116 126.896C24.7062 126.501 24.3862 126.021 24.1516 125.456C23.9169 124.88 23.7996 124.24 23.7996 123.536C23.7996 122.832 23.9169 122.197 24.1516 121.632C24.3969 121.056 24.7276 120.571 25.1436 120.176C25.5596 119.781 26.0502 119.477 26.6156 119.264C27.1809 119.051 27.7889 118.944 28.4396 118.944C29.0902 118.944 29.6982 119.051 30.2636 119.264C30.8289 119.477 31.3196 119.781 31.7356 120.176C32.1516 120.571 32.4769 121.056 32.7116 121.632C32.9569 122.197 33.0796 122.832 33.0796 123.536ZM26.5836 123.536C26.5836 123.909 26.6316 124.24 26.7276 124.528C26.8236 124.805 26.9516 125.035 27.1116 125.216C27.2822 125.397 27.4796 125.536 27.7036 125.632C27.9276 125.717 28.1622 125.76 28.4076 125.76C28.6529 125.76 28.8876 125.717 29.1116 125.632C29.3356 125.536 29.5329 125.397 29.7036 125.216C29.8849 125.035 30.0289 124.805 30.1356 124.528C30.2422 124.24 30.2956 123.909 30.2956 123.536C30.2956 123.152 30.2422 122.821 30.1356 122.544C30.0396 122.267 29.9009 122.037 29.7196 121.856C29.5489 121.675 29.3516 121.541 29.1276 121.456C28.9036 121.36 28.6742 121.312 28.4396 121.312C28.1942 121.312 27.9596 121.36 27.7356 121.456C27.5116 121.541 27.3142 121.675 27.1436 121.856C26.9729 122.037 26.8342 122.267 26.7276 122.544C26.6316 122.821 26.5836 123.152 26.5836 123.536ZM34.5311 119.072H37.2671V128H34.5311V119.072ZM35.9071 118.064C35.5017 118.064 35.1657 117.941 34.8991 117.696C34.6431 117.451 34.5151 117.147 34.5151 116.784C34.5151 116.421 34.6431 116.123 34.8991 115.888C35.1657 115.643 35.5017 115.52 35.9071 115.52C36.3231 115.52 36.6644 115.643 36.9311 115.888C37.1977 116.123 37.3311 116.421 37.3311 116.784C37.3311 117.147 37.1977 117.451 36.9311 117.696C36.6644 117.941 36.3231 118.064 35.9071 118.064ZM46.2084 125.52L44.7684 128H41.8084L44.7524 123.44L41.7284 119.072H44.8004L46.5124 121.536L47.9524 119.072H50.9124L47.9204 123.568L50.9924 128H47.9204L46.2084 125.52ZM55.8264 121.136C55.3784 121.136 54.9944 121.269 54.6744 121.536C54.3651 121.792 54.1678 122.171 54.0824 122.672H57.5064C57.5064 122.181 57.3411 121.803 57.0104 121.536C56.6798 121.269 56.2851 121.136 55.8264 121.136ZM60.0984 125.04C59.9918 125.477 59.8158 125.883 59.5704 126.256C59.3251 126.629 59.0158 126.955 58.6424 127.232C58.2798 127.509 57.8638 127.728 57.3944 127.888C56.9251 128.048 56.4131 128.128 55.8584 128.128C55.1971 128.128 54.5891 128.021 54.0344 127.808C53.4904 127.595 53.0158 127.291 52.6104 126.896C52.2158 126.501 51.9064 126.021 51.6824 125.456C51.4584 124.88 51.3464 124.24 51.3464 123.536C51.3464 122.832 51.4531 122.197 51.6664 121.632C51.8904 121.056 52.1998 120.571 52.5944 120.176C52.9998 119.781 53.4798 119.477 54.0344 119.264C54.5891 119.051 55.1971 118.944 55.8584 118.944C56.5091 118.944 57.1064 119.051 57.6504 119.264C58.1944 119.467 58.6638 119.76 59.0584 120.144C59.4531 120.528 59.7571 120.997 59.9704 121.552C60.1944 122.096 60.3064 122.709 60.3064 123.392C60.3064 123.659 60.2904 123.925 60.2584 124.192H54.0664C54.1198 124.779 54.3011 125.211 54.6104 125.488C54.9304 125.765 55.3144 125.904 55.7624 125.904C56.1464 125.904 56.4504 125.824 56.6744 125.664C56.8984 125.493 57.0691 125.285 57.1864 125.04H60.0984ZM64.5964 123.536C64.5964 122.832 64.7031 122.197 64.9164 121.632C65.1404 121.067 65.4498 120.587 65.8444 120.192C66.2498 119.787 66.7244 119.477 67.2684 119.264C67.8124 119.051 68.4151 118.944 69.0764 118.944C70.2071 118.944 71.1458 119.237 71.8924 119.824C72.6391 120.411 73.1298 121.237 73.3644 122.304H70.4524C70.3351 121.995 70.1591 121.749 69.9244 121.568C69.7004 121.376 69.4018 121.28 69.0284 121.28C68.5378 121.28 68.1378 121.472 67.8284 121.856C67.5298 122.229 67.3804 122.789 67.3804 123.536C67.3804 124.283 67.5298 124.848 67.8284 125.232C68.1378 125.605 68.5378 125.792 69.0284 125.792C69.4018 125.792 69.7004 125.707 69.9244 125.536C70.1591 125.355 70.3351 125.099 70.4524 124.768H73.3644C73.1298 125.803 72.6391 126.624 71.8924 127.232C71.1458 127.829 70.2071 128.128 69.0764 128.128C68.4151 128.128 67.8124 128.021 67.2684 127.808C66.7244 127.595 66.2498 127.291 65.8444 126.896C65.4498 126.501 65.1404 126.021 64.9164 125.456C64.7031 124.88 64.5964 124.24 64.5964 123.536ZM83.5639 123.536C83.5639 124.24 83.4413 124.88 83.1959 125.456C82.9613 126.021 82.6306 126.501 82.2039 126.896C81.7879 127.291 81.2919 127.595 80.7159 127.808C80.1506 128.021 79.5426 128.128 78.8919 128.128C78.2306 128.128 77.6173 128.021 77.0519 127.808C76.4973 127.595 76.0119 127.291 75.5959 126.896C75.1906 126.501 74.8706 126.021 74.6359 125.456C74.4013 124.88 74.2839 124.24 74.2839 123.536C74.2839 122.832 74.4013 122.197 74.6359 121.632C74.8813 121.056 75.2119 120.571 75.6279 120.176C76.0439 119.781 76.5346 119.477 77.0999 119.264C77.6653 119.051 78.2733 118.944 78.9239 118.944C79.5746 118.944 80.1826 119.051 80.7479 119.264C81.3133 119.477 81.8039 119.781 82.2199 120.176C82.6359 120.571 82.9613 121.056 83.1959 121.632C83.4413 122.197 83.5639 122.832 83.5639 123.536ZM77.0679 123.536C77.0679 123.909 77.1159 124.24 77.2119 124.528C77.3079 124.805 77.4359 125.035 77.5959 125.216C77.7666 125.397 77.9639 125.536 78.1879 125.632C78.4119 125.717 78.6466 125.76 78.8919 125.76C79.1373 125.76 79.3719 125.717 79.5959 125.632C79.8199 125.536 80.0173 125.397 80.1879 125.216C80.3693 125.035 80.5133 124.805 80.6199 124.528C80.7266 124.24 80.7799 123.909 80.7799 123.536C80.7799 123.152 80.7266 122.821 80.6199 122.544C80.5239 122.267 80.3853 122.037 80.2039 121.856C80.0333 121.675 79.8359 121.541 79.6119 121.456C79.3879 121.36 79.1586 121.312 78.9239 121.312C78.6786 121.312 78.4439 121.36 78.2199 121.456C77.9959 121.541 77.7986 121.675 77.6279 121.856C77.4573 122.037 77.3186 122.267 77.2119 122.544C77.1159 122.821 77.0679 123.152 77.0679 123.536ZM81.4039 117.12L80.5559 118.288L78.9239 117.312L77.2919 118.288L76.4439 117.12L78.9239 115.52L81.4039 117.12ZM91.1754 123.152C91.1754 122.544 91.0208 122.08 90.7114 121.76C90.4021 121.429 89.9861 121.264 89.4634 121.264C88.9408 121.264 88.5248 121.429 88.2154 121.76C87.9061 122.08 87.7514 122.544 87.7514 123.152V128H85.0154V119.072H87.7514V120.256C88.0288 119.883 88.3968 119.579 88.8554 119.344C89.3141 119.099 89.8474 118.976 90.4554 118.976C90.9674 118.976 91.4368 119.061 91.8634 119.232C92.2901 119.403 92.6528 119.653 92.9514 119.984C93.2501 120.304 93.4794 120.704 93.6394 121.184C93.8101 121.653 93.8954 122.187 93.8954 122.784V128H91.1754V123.152ZM95.2527 123.52C95.2527 122.816 95.354 122.181 95.5567 121.616C95.7594 121.051 96.0367 120.571 96.3887 120.176C96.7514 119.781 97.1727 119.477 97.6527 119.264C98.1327 119.051 98.6447 118.944 99.1887 118.944C99.85 118.944 100.41 119.077 100.869 119.344C101.338 119.6 101.695 119.931 101.941 120.336V119.072H104.677V127.984C104.677 128.581 104.586 129.147 104.405 129.68C104.234 130.213 103.967 130.683 103.605 131.088C103.242 131.493 102.778 131.813 102.213 132.048C101.647 132.283 100.981 132.4 100.213 132.4C99.5514 132.4 98.9487 132.32 98.4047 132.16C97.8607 132 97.3914 131.765 96.9967 131.456C96.602 131.157 96.282 130.795 96.0367 130.368C95.802 129.941 95.6527 129.461 95.5887 128.928H98.2927C98.378 129.269 98.5754 129.536 98.8847 129.728C99.2047 129.931 99.6047 130.032 100.085 130.032C100.341 130.032 100.581 129.995 100.805 129.92C101.039 129.845 101.237 129.728 101.397 129.568C101.567 129.408 101.701 129.195 101.797 128.928C101.893 128.672 101.941 128.357 101.941 127.984V126.72C101.695 127.115 101.338 127.451 100.869 127.728C100.41 127.995 99.85 128.128 99.1887 128.128C98.6447 128.128 98.1327 128.021 97.6527 127.808C97.1727 127.595 96.7514 127.291 96.3887 126.896C96.0367 126.491 95.7594 126.005 95.5567 125.44C95.354 124.864 95.2527 124.224 95.2527 123.52ZM101.941 123.536C101.941 123.184 101.887 122.869 101.781 122.592C101.674 122.315 101.53 122.085 101.349 121.904C101.178 121.712 100.97 121.568 100.725 121.472C100.49 121.376 100.245 121.328 99.9887 121.328C99.7327 121.328 99.4874 121.376 99.2527 121.472C99.018 121.568 98.81 121.707 98.6287 121.888C98.4474 122.069 98.3034 122.299 98.1967 122.576C98.09 122.853 98.0367 123.168 98.0367 123.52C98.0367 123.872 98.09 124.187 98.1967 124.464C98.3034 124.741 98.4474 124.976 98.6287 125.168C98.81 125.36 99.018 125.504 99.2527 125.6C99.4874 125.696 99.7327 125.744 99.9887 125.744C100.245 125.744 100.49 125.696 100.725 125.6C100.97 125.504 101.178 125.365 101.349 125.184C101.53 124.992 101.674 124.757 101.781 124.48C101.887 124.203 101.941 123.888 101.941 123.536ZM116.207 123.152C116.207 122.544 116.052 122.08 115.743 121.76C115.433 121.429 115.017 121.264 114.495 121.264C113.972 121.264 113.556 121.429 113.247 121.76C112.937 122.08 112.783 122.544 112.783 123.152V128H110.047V119.072H112.783V120.256C113.06 119.883 113.428 119.579 113.887 119.344C114.345 119.099 114.879 118.976 115.487 118.976C115.999 118.976 116.468 119.061 116.895 119.232C117.321 119.403 117.684 119.653 117.983 119.984C118.281 120.304 118.511 120.704 118.671 121.184C118.841 121.653 118.927 122.187 118.927 122.784V128H116.207V123.152ZM120.284 123.52C120.284 122.816 120.385 122.181 120.588 121.616C120.791 121.051 121.068 120.571 121.42 120.176C121.783 119.781 122.204 119.477 122.684 119.264C123.164 119.051 123.676 118.944 124.22 118.944C124.881 118.944 125.441 119.077 125.9 119.344C126.369 119.6 126.727 119.931 126.972 120.336V119.072H129.708V127.984C129.708 128.581 129.617 129.147 129.436 129.68C129.265 130.213 128.999 130.683 128.636 131.088C128.273 131.493 127.809 131.813 127.244 132.048C126.679 132.283 126.012 132.4 125.244 132.4C124.583 132.4 123.98 132.32 123.436 132.16C122.892 132 122.423 131.765 122.028 131.456C121.633 131.157 121.313 130.795 121.068 130.368C120.833 129.941 120.684 129.461 120.62 128.928H123.324C123.409 129.269 123.607 129.536 123.916 129.728C124.236 129.931 124.636 130.032 125.116 130.032C125.372 130.032 125.612 129.995 125.836 129.92C126.071 129.845 126.268 129.728 126.428 129.568C126.599 129.408 126.732 129.195 126.828 128.928C126.924 128.672 126.972 128.357 126.972 127.984V126.72C126.727 127.115 126.369 127.451 125.9 127.728C125.441 127.995 124.881 128.128 124.22 128.128C123.676 128.128 123.164 128.021 122.684 127.808C122.204 127.595 121.783 127.291 121.42 126.896C121.068 126.491 120.791 126.005 120.588 125.44C120.385 124.864 120.284 124.224 120.284 123.52ZM126.972 123.536C126.972 123.184 126.919 122.869 126.812 122.592C126.705 122.315 126.561 122.085 126.38 121.904C126.209 121.712 126.001 121.568 125.756 121.472C125.521 121.376 125.276 121.328 125.02 121.328C124.764 121.328 124.519 121.376 124.284 121.472C124.049 121.568 123.841 121.707 123.66 121.888C123.479 122.069 123.335 122.299 123.228 122.576C123.121 122.853 123.068 123.168 123.068 123.52C123.068 123.872 123.121 124.187 123.228 124.464C123.335 124.741 123.479 124.976 123.66 125.168C123.841 125.36 124.049 125.504 124.284 125.6C124.519 125.696 124.764 125.744 125.02 125.744C125.276 125.744 125.521 125.696 125.756 125.6C126.001 125.504 126.209 125.365 126.38 125.184C126.561 124.992 126.705 124.757 126.812 124.48C126.919 124.203 126.972 123.888 126.972 123.536ZM131.687 116.16H134.423V120.272C134.701 119.888 135.074 119.579 135.543 119.344C136.013 119.099 136.557 118.976 137.175 118.976C137.687 118.976 138.151 119.061 138.567 119.232C138.983 119.403 139.335 119.653 139.623 119.984C139.922 120.304 140.151 120.704 140.311 121.184C140.482 121.653 140.567 122.187 140.567 122.784V128H137.847V123.152C137.847 122.544 137.693 122.08 137.383 121.76C137.074 121.429 136.658 121.264 136.135 121.264C135.613 121.264 135.197 121.429 134.887 121.76C134.578 122.08 134.423 122.544 134.423 123.152V128H131.687V116.16ZM146.341 131.776C145.957 131.776 145.637 131.653 145.381 131.408C145.135 131.163 145.013 130.864 145.013 130.512C145.013 130.171 145.135 129.877 145.381 129.632C145.637 129.397 145.957 129.28 146.341 129.28C146.735 129.28 147.055 129.397 147.301 129.632C147.557 129.877 147.685 130.171 147.685 130.512C147.685 130.864 147.557 131.163 147.301 131.408C147.055 131.653 146.735 131.776 146.341 131.776ZM146.405 121.136C145.957 121.136 145.573 121.269 145.253 121.536C144.943 121.792 144.746 122.171 144.661 122.672H148.085C148.085 122.181 147.919 121.803 147.589 121.536C147.258 121.269 146.863 121.136 146.405 121.136ZM150.677 125.04C150.57 125.477 150.394 125.883 150.149 126.256C149.903 126.629 149.594 126.955 149.221 127.232C148.858 127.509 148.442 127.728 147.973 127.888C147.503 128.048 146.991 128.128 146.437 128.128C145.775 128.128 145.167 128.021 144.613 127.808C144.069 127.595 143.594 127.291 143.189 126.896C142.794 126.501 142.485 126.021 142.261 125.456C142.037 124.88 141.925 124.24 141.925 123.536C141.925 122.832 142.031 122.197 142.245 121.632C142.469 121.056 142.778 120.571 143.173 120.176C143.578 119.781 144.058 119.477 144.613 119.264C145.167 119.051 145.775 118.944 146.437 118.944C147.087 118.944 147.685 119.051 148.229 119.264C148.773 119.467 149.242 119.76 149.637 120.144C150.031 120.528 150.335 120.997 150.549 121.552C150.773 122.096 150.885 122.709 150.885 123.392C150.885 123.659 150.869 123.925 150.837 124.192H144.645C144.698 124.779 144.879 125.211 145.189 125.488C145.509 125.765 145.893 125.904 146.341 125.904C146.725 125.904 147.029 125.824 147.253 125.664C147.477 125.493 147.647 125.285 147.765 125.04H150.677ZM148.901 117.12L148.053 118.288L146.421 117.312L144.789 118.288L143.941 117.12L146.421 115.52L148.901 117.12Z" fill="#115264"/>
<defs>
<radialGradient id="paint0_radial_188_4434" cx="0" cy="0" r="1" gradientUnits="userSpaceOnUse" gradientTransform="translate(99.9675 53.1589) rotate(-141.162) scale(43.4177 54.3949)">
<stop offset="0.688777" stop-color="#4CD2D5"/>
<stop offset="1" stop-color="#5CF0F3"/>
</radialGradient>
</defs>
</svg>
