<svg width="81" height="80" viewBox="0 0 81 80" fill="none" xmlns="http://www.w3.org/2000/svg">
<ellipse opacity="0.2" cx="40.25" cy="71.25" rx="22.5" ry="3.75" fill="#1D2723"/>
<path d="M26.6657 55.8092C31.0573 55.8092 34.6175 52.2491 34.6175 47.8574H18.7139C18.7139 52.2491 22.274 55.8092 26.6657 55.8092Z" fill="#115264"/>
<path d="M59.3323 33.2731L57.1473 34.6043L52.7935 25.3271H56.7215C58.3581 25.3271 59.1764 25.3271 59.7874 25.6761C60.1987 25.911 60.5395 26.2519 60.7744 26.6632C61.1234 27.2742 61.1234 28.0925 61.1234 29.7291C61.1234 30.5945 61.1234 31.0272 60.9977 31.4206C60.9122 31.6884 60.7846 31.9409 60.6197 32.1686C60.3775 32.5032 60.0291 32.7598 59.3323 33.2731L59.3323 33.2731Z" fill="#115264"/>
<path d="M59.3323 30.6227L57.1473 31.9539L52.7935 22.6768H56.7215C58.3581 22.6768 59.1764 22.6768 59.7874 23.0257C60.1987 23.2606 60.5395 23.6015 60.7744 24.0128C61.1234 24.6238 61.1234 25.4421 61.1234 27.0787C61.1234 27.9441 61.1234 28.3768 60.9977 28.7702C60.9122 29.038 60.7846 29.2905 60.6197 29.5182C60.3775 29.8528 60.0291 30.1094 59.3323 30.6227L59.3323 30.6227Z" fill="#69FAFD"/>
<path d="M46.1855 20.7772C45.354 20.6913 44.278 20.6888 42.6431 20.6888H41.244C40.1461 20.6888 39.256 19.7988 39.256 18.7008C39.256 17.6029 40.1461 16.7129 41.244 16.7129H42.7409C44.2516 16.7128 45.5344 16.7128 46.5944 16.8224C47.7231 16.9391 48.7662 17.1925 49.7516 17.8015C50.737 18.4106 51.4301 19.2302 52.0393 20.1875C52.6114 21.0866 53.185 22.2339 53.8606 23.5852L62.2064 40.2769C65.4208 41.2971 67.75 44.3053 67.75 47.8575C67.75 52.2491 64.1899 55.8093 59.7982 55.8093C56.093 55.8093 52.9796 53.2751 52.0969 49.8454L17.5482 49.8455C17.3724 49.8455 17.1923 49.8443 17.0247 49.8311C14.75 49.6521 12.9434 47.8455 12.7643 45.5708C12.7498 45.3859 12.7499 45.1857 12.75 44.9928L12.75 44.8409C12.75 43.9528 12.75 43.3881 12.7889 42.8937C13.2748 36.7197 18.1786 31.8159 24.3526 31.33C24.417 31.325 24.4827 31.3205 24.5501 31.3167C24.935 31.2948 25.3772 31.2917 25.9812 31.2913L28.1288 31.2912C30.5103 31.2911 32.4962 31.2911 34.0728 31.503C35.7368 31.7268 37.2392 32.2189 38.4464 33.4262C39.6537 34.6334 40.1458 36.1358 40.3696 37.7998C40.5815 39.3763 40.5814 41.3622 40.5814 43.7437L40.5814 45.8695H52.0969C52.8078 43.1075 54.9653 40.9263 57.7136 40.1817L50.3481 25.4508C49.617 23.9885 49.1336 23.0272 48.6848 22.3219C48.2608 21.6555 47.957 21.3663 47.6613 21.1836C47.3657 21.0009 46.9712 20.8585 46.1855 20.7772Z" fill="#115264"/>
<path d="M46.1855 18.1268C45.354 18.0409 44.278 18.0384 42.6431 18.0384H41.244C40.1461 18.0384 39.256 17.1484 39.256 16.0505C39.256 14.9525 40.1461 14.0625 41.244 14.0625H42.7409C44.2516 14.0625 45.5344 14.0624 46.5944 14.172C47.7231 14.2887 48.7662 14.5421 49.7516 15.1511C50.737 15.7602 51.4301 16.5798 52.0393 17.5371C52.6114 18.4362 53.185 19.5835 53.8606 20.9349L62.2064 37.6265C65.4208 38.6467 67.75 41.6549 67.75 45.2071C67.75 49.5987 64.1899 53.1589 59.7982 53.1589C56.093 53.1589 52.9796 50.6247 52.0969 47.195L17.5482 47.1951C17.3724 47.1951 17.1923 47.1939 17.0247 47.1807C14.75 47.0017 12.9434 45.1951 12.7643 42.9204C12.7498 42.7355 12.7499 42.5353 12.75 42.3425L12.75 42.1905C12.75 41.3024 12.75 40.7377 12.7889 40.2434C13.2748 34.0693 18.1786 29.1655 24.3526 28.6796C24.417 28.6746 24.4827 28.6702 24.5501 28.6663C24.935 28.6444 25.3772 28.6413 25.9812 28.6409L28.1288 28.6408C30.5103 28.6407 32.4962 28.6407 34.0728 28.8526C35.7368 29.0764 37.2392 29.5685 38.4464 30.7758C39.6537 31.983 40.1458 33.4854 40.3696 35.1494C40.5815 36.7259 40.5814 38.7118 40.5814 41.0933L40.5814 43.2191H52.0969C52.8078 40.4571 54.9653 38.2759 57.7136 37.5313L50.3481 22.8004C49.617 21.3381 49.1336 20.3768 48.6848 19.6715C48.2608 19.0051 47.957 18.7159 47.6613 18.5332C47.3657 18.3505 46.9712 18.2081 46.1855 18.1268Z" fill="url(#paint0_radial_188_4435)"/>
<defs>
<radialGradient id="paint0_radial_188_4435" cx="0" cy="0" r="1" gradientUnits="userSpaceOnUse" gradientTransform="translate(58.9675 53.1589) rotate(-141.162) scale(43.4177 54.3949)">
<stop offset="0.688777" stop-color="#4CD2D5"/>
<stop offset="1" stop-color="#5CF0F3"/>
</radialGradient>
</defs>
</svg>
