<svg width="226" height="134" viewBox="0 0 226 134" fill="none" xmlns="http://www.w3.org/2000/svg">
<ellipse opacity="0.2" cx="113" cy="71.25" rx="22.5" ry="3.75" fill="#1D2723"/>
<path d="M99.4157 55.8097C103.807 55.8097 107.367 52.2496 107.367 47.8579H91.4639C91.4639 52.2496 95.024 55.8097 99.4157 55.8097Z" fill="#115264"/>
<path d="M132.082 33.2736L129.897 34.6047L125.543 25.3276H129.471C131.108 25.3276 131.926 25.3276 132.537 25.6766C132.949 25.9115 133.29 26.2524 133.524 26.6637C133.873 27.2746 133.873 28.0929 133.873 29.7295C133.873 30.595 133.873 31.0277 133.748 31.4211C133.662 31.6889 133.535 31.9414 133.37 32.1691C133.127 32.5037 132.779 32.7603 132.082 33.2736L132.082 33.2736Z" fill="#115264"/>
<path d="M132.082 30.6227L129.897 31.9539L125.543 22.6768H129.471C131.108 22.6768 131.926 22.6768 132.537 23.0257C132.949 23.2606 133.29 23.6015 133.524 24.0128C133.873 24.6238 133.873 25.4421 133.873 27.0787C133.873 27.9441 133.873 28.3768 133.748 28.7702C133.662 29.038 133.535 29.2905 133.37 29.5182C133.127 29.8528 132.779 30.1094 132.082 30.6227L132.082 30.6227Z" fill="#69FAFD"/>
<path d="M118.936 20.7772C118.104 20.6913 117.028 20.6888 115.393 20.6888H113.994C112.896 20.6888 112.006 19.7988 112.006 18.7008C112.006 17.6029 112.896 16.7129 113.994 16.7129H115.491C117.002 16.7128 118.284 16.7128 119.344 16.8224C120.473 16.9391 121.516 17.1925 122.502 17.8015C123.487 18.4106 124.18 19.2302 124.789 20.1875C125.361 21.0866 125.935 22.2339 126.611 23.5852L134.956 40.2769C138.171 41.2971 140.5 44.3053 140.5 47.8575C140.5 52.2491 136.94 55.8093 132.548 55.8093C128.843 55.8093 125.73 53.2751 124.847 49.8454L90.2982 49.8455C90.1224 49.8455 89.9423 49.8443 89.7747 49.8311C87.5 49.6521 85.6934 47.8455 85.5143 45.5708C85.4998 45.3859 85.4999 45.1857 85.5 44.9928L85.5 44.8409C85.5 43.9528 85.5 43.3881 85.5389 42.8937C86.0248 36.7197 90.9286 31.8159 97.1026 31.33C97.167 31.325 97.2327 31.3205 97.3001 31.3167C97.685 31.2948 98.1272 31.2917 98.7312 31.2913L100.879 31.2912C103.26 31.2911 105.246 31.2911 106.823 31.503C108.487 31.7268 109.989 32.2189 111.196 33.4262C112.404 34.6334 112.896 36.1358 113.12 37.7998C113.332 39.3763 113.331 41.3622 113.331 43.7437L113.331 45.8695H124.847C125.558 43.1075 127.715 40.9263 130.464 40.1817L123.098 25.4508C122.367 23.9885 121.884 23.0272 121.435 22.3219C121.011 21.6555 120.707 21.3663 120.411 21.1836C120.116 21.0009 119.721 20.8585 118.936 20.7772Z" fill="#115264"/>
<path d="M118.936 18.1268C118.104 18.0409 117.028 18.0384 115.393 18.0384H113.994C112.896 18.0384 112.006 17.1484 112.006 16.0505C112.006 14.9525 112.896 14.0625 113.994 14.0625H115.491C117.002 14.0625 118.284 14.0624 119.344 14.172C120.473 14.2887 121.516 14.5421 122.502 15.1511C123.487 15.7602 124.18 16.5798 124.789 17.5371C125.361 18.4362 125.935 19.5835 126.611 20.9349L134.956 37.6265C138.171 38.6467 140.5 41.6549 140.5 45.2071C140.5 49.5987 136.94 53.1589 132.548 53.1589C128.843 53.1589 125.73 50.6247 124.847 47.195L90.2982 47.1951C90.1224 47.1951 89.9423 47.1939 89.7747 47.1807C87.5 47.0017 85.6934 45.1951 85.5143 42.9204C85.4998 42.7355 85.4999 42.5353 85.5 42.3425L85.5 42.1905C85.5 41.3024 85.5 40.7377 85.5389 40.2434C86.0248 34.0693 90.9286 29.1655 97.1026 28.6796C97.167 28.6746 97.2327 28.6702 97.3001 28.6663C97.685 28.6444 98.1272 28.6413 98.7312 28.6409L100.879 28.6408C103.26 28.6407 105.246 28.6407 106.823 28.8526C108.487 29.0764 109.989 29.5685 111.196 30.7758C112.404 31.983 112.896 33.4854 113.12 35.1494C113.332 36.7259 113.331 38.7118 113.331 41.0933L113.331 43.2191H124.847C125.558 40.4571 127.715 38.2759 130.464 37.5313L123.098 22.8004C122.367 21.3381 121.884 20.3768 121.435 19.6715C121.011 19.0051 120.707 18.7159 120.411 18.5332C120.116 18.3505 119.721 18.2081 118.936 18.1268Z" fill="url(#paint0_radial_83_1649)"/>
<path d="M71.9699 95.768H80.6579V97.96H77.6819V107H74.9459V97.96H71.9699V95.768ZM82.2391 98.072H84.9751V107H82.2391V98.072ZM85.6631 95.496L82.9111 97.128L82.0311 95.784L84.7831 94.104L85.6631 95.496ZM93.3317 102.152C93.3317 101.544 93.177 101.08 92.8677 100.76C92.5584 100.429 92.1424 100.264 91.6197 100.264C91.097 100.264 90.681 100.429 90.3717 100.76C90.0624 101.08 89.9077 101.544 89.9077 102.152V107H87.1717V98.072H89.9077V99.256C90.185 98.8827 90.553 98.5787 91.0117 98.344C91.4704 98.0987 92.0037 97.976 92.6117 97.976C93.1237 97.976 93.593 98.0613 94.0197 98.232C94.4464 98.4027 94.809 98.6533 95.1077 98.984C95.4064 99.304 95.6357 99.704 95.7957 100.184C95.9664 100.653 96.0517 101.187 96.0517 101.784V107H93.3317V102.152ZM97.9529 95.16H100.689V99.272C100.966 98.888 101.34 98.5787 101.809 98.344C102.278 98.0987 102.822 97.976 103.441 97.976C103.953 97.976 104.417 98.0613 104.833 98.232C105.249 98.4027 105.601 98.6533 105.889 98.984C106.188 99.304 106.417 99.704 106.577 100.184C106.748 100.653 106.833 101.187 106.833 101.784V107H104.113V102.152C104.113 101.544 103.958 101.08 103.649 100.76C103.34 100.429 102.924 100.264 102.401 100.264C101.878 100.264 101.462 100.429 101.153 100.76C100.844 101.08 100.689 101.544 100.689 102.152V107H97.9529V95.16ZM118.285 102.152C118.285 101.544 118.13 101.08 117.821 100.76C117.511 100.429 117.095 100.264 116.573 100.264C116.05 100.264 115.634 100.429 115.325 100.76C115.015 101.08 114.861 101.544 114.861 102.152V107H112.125V98.072H114.861V99.256C115.138 98.8827 115.506 98.5787 115.965 98.344C116.423 98.0987 116.957 97.976 117.565 97.976C118.077 97.976 118.546 98.0613 118.973 98.232C119.399 98.4027 119.762 98.6533 120.061 98.984C120.359 99.304 120.589 99.704 120.749 100.184C120.919 100.653 121.005 101.187 121.005 101.784V107H118.285V102.152ZM122.362 102.52C122.362 101.816 122.463 101.181 122.666 100.616C122.869 100.051 123.146 99.5707 123.498 99.176C123.861 98.7813 124.282 98.4773 124.762 98.264C125.242 98.0507 125.754 97.944 126.298 97.944C126.97 97.944 127.535 98.0773 127.994 98.344C128.453 98.6107 128.805 98.9413 129.05 99.336V98.072H131.786V107H129.05V105.736C128.805 106.131 128.447 106.461 127.978 106.728C127.519 106.995 126.954 107.128 126.282 107.128C125.738 107.128 125.226 107.021 124.746 106.808C124.277 106.595 123.861 106.291 123.498 105.896C123.146 105.491 122.869 105.005 122.666 104.44C122.463 103.864 122.362 103.224 122.362 102.52ZM129.05 102.536C129.05 102.184 128.997 101.869 128.89 101.592C128.783 101.315 128.639 101.085 128.458 100.904C128.287 100.712 128.079 100.568 127.834 100.472C127.599 100.376 127.354 100.328 127.098 100.328C126.842 100.328 126.597 100.376 126.362 100.472C126.127 100.568 125.919 100.707 125.738 100.888C125.557 101.069 125.413 101.299 125.306 101.576C125.199 101.853 125.146 102.168 125.146 102.52C125.146 102.872 125.199 103.187 125.306 103.464C125.413 103.741 125.557 103.976 125.738 104.168C125.919 104.36 126.127 104.504 126.362 104.6C126.597 104.696 126.842 104.744 127.098 104.744C127.354 104.744 127.599 104.696 127.834 104.6C128.079 104.504 128.287 104.365 128.458 104.184C128.639 103.992 128.783 103.757 128.89 103.48C128.997 103.203 129.05 102.888 129.05 102.536ZM126.586 95.048C126.586 95.2933 126.65 95.4853 126.778 95.624C126.906 95.752 127.125 95.816 127.434 95.816C127.754 95.816 127.978 95.752 128.106 95.624C128.234 95.4853 128.298 95.2933 128.298 95.048H129.818C129.818 95.688 129.621 96.2107 129.226 96.616C128.842 97.0107 128.245 97.208 127.434 97.208C126.634 97.208 126.037 97.0107 125.642 96.616C125.258 96.2107 125.066 95.688 125.066 95.048H126.586ZM139.925 102.152C139.925 101.544 139.771 101.08 139.461 100.76C139.152 100.429 138.736 100.264 138.213 100.264C137.691 100.264 137.275 100.429 136.965 100.76C136.656 101.08 136.501 101.544 136.501 102.152V107H133.765V98.072H136.501V99.256C136.779 98.8827 137.147 98.5787 137.605 98.344C138.064 98.0987 138.597 97.976 139.205 97.976C139.717 97.976 140.187 98.0613 140.613 98.232C141.04 98.4027 141.403 98.6533 141.701 98.984C142 99.304 142.229 99.704 142.389 100.184C142.56 100.653 142.645 101.187 142.645 101.784V107H139.925V102.152ZM144.003 102.52C144.003 101.816 144.104 101.181 144.307 100.616C144.509 100.051 144.787 99.5707 145.139 99.176C145.501 98.7813 145.923 98.4773 146.403 98.264C146.883 98.0507 147.395 97.944 147.939 97.944C148.6 97.944 149.16 98.0773 149.619 98.344C150.088 98.6 150.445 98.9307 150.691 99.336V98.072H153.427V106.984C153.427 107.581 153.336 108.147 153.155 108.68C152.984 109.213 152.717 109.683 152.355 110.088C151.992 110.493 151.528 110.813 150.963 111.048C150.397 111.283 149.731 111.4 148.963 111.4C148.301 111.4 147.699 111.32 147.155 111.16C146.611 111 146.141 110.765 145.747 110.456C145.352 110.157 145.032 109.795 144.787 109.368C144.552 108.941 144.403 108.461 144.339 107.928H147.043C147.128 108.269 147.325 108.536 147.635 108.728C147.955 108.931 148.355 109.032 148.835 109.032C149.091 109.032 149.331 108.995 149.555 108.92C149.789 108.845 149.987 108.728 150.147 108.568C150.317 108.408 150.451 108.195 150.547 107.928C150.643 107.672 150.691 107.357 150.691 106.984V105.72C150.445 106.115 150.088 106.451 149.619 106.728C149.16 106.995 148.6 107.128 147.939 107.128C147.395 107.128 146.883 107.021 146.403 106.808C145.923 106.595 145.501 106.291 145.139 105.896C144.787 105.491 144.509 105.005 144.307 104.44C144.104 103.864 144.003 103.224 144.003 102.52ZM150.691 102.536C150.691 102.184 150.637 101.869 150.531 101.592C150.424 101.315 150.28 101.085 150.099 100.904C149.928 100.712 149.72 100.568 149.475 100.472C149.24 100.376 148.995 100.328 148.739 100.328C148.483 100.328 148.237 100.376 148.003 100.472C147.768 100.568 147.56 100.707 147.379 100.888C147.197 101.069 147.053 101.299 146.947 101.576C146.84 101.853 146.787 102.168 146.787 102.52C146.787 102.872 146.84 103.187 146.947 103.464C147.053 103.741 147.197 103.976 147.379 104.168C147.56 104.36 147.768 104.504 148.003 104.6C148.237 104.696 148.483 104.744 148.739 104.744C148.995 104.744 149.24 104.696 149.475 104.6C149.72 104.504 149.928 104.365 150.099 104.184C150.28 103.992 150.424 103.757 150.531 103.48C150.637 103.203 150.691 102.888 150.691 102.536ZM49.1541 116.64C50.5087 116.64 51.6447 116.965 52.5621 117.616C53.4794 118.256 54.0874 119.157 54.3861 120.32H51.3621C50.9354 119.552 50.1994 119.168 49.1541 119.168C48.7167 119.168 48.3167 119.243 47.9541 119.392C47.5914 119.541 47.2821 119.755 47.0261 120.032C46.7701 120.309 46.5727 120.645 46.4341 121.04C46.2954 121.435 46.2261 121.877 46.2261 122.368C46.2261 123.413 46.5034 124.224 47.0581 124.8C47.6127 125.376 48.3861 125.664 49.3781 125.664C50.0607 125.664 50.6314 125.493 51.0901 125.152C51.5487 124.811 51.8847 124.32 52.0981 123.68H48.6261V121.664H54.5781V124.208C54.4287 124.688 54.2047 125.163 53.9061 125.632C53.6074 126.091 53.2287 126.501 52.7701 126.864C52.3114 127.227 51.7781 127.52 51.1701 127.744C50.5727 127.968 49.9061 128.08 49.1701 128.08C48.3274 128.08 47.5541 127.941 46.8501 127.664C46.1567 127.387 45.5541 126.997 45.0421 126.496C44.5407 125.984 44.1461 125.381 43.8581 124.688C43.5807 123.984 43.4421 123.211 43.4421 122.368C43.4421 121.525 43.5807 120.757 43.8581 120.064C44.1354 119.36 44.5247 118.757 45.0261 118.256C45.5381 117.744 46.1407 117.349 46.8341 117.072C47.5381 116.784 48.3114 116.64 49.1541 116.64ZM60.2056 131.776C59.8216 131.776 59.5016 131.653 59.2456 131.408C59.0002 131.163 58.8776 130.864 58.8776 130.512C58.8776 130.171 59.0002 129.877 59.2456 129.632C59.5016 129.397 59.8216 129.28 60.2056 129.28C60.6002 129.28 60.9202 129.397 61.1656 129.632C61.4216 129.877 61.5496 130.171 61.5496 130.512C61.5496 130.864 61.4216 131.163 61.1656 131.408C60.9202 131.653 60.6002 131.776 60.2056 131.776ZM64.8296 123.536C64.8296 124.24 64.7069 124.88 64.4616 125.456C64.2269 126.021 63.8962 126.501 63.4696 126.896C63.0536 127.291 62.5576 127.595 61.9816 127.808C61.4162 128.021 60.8082 128.128 60.1576 128.128C59.4962 128.128 58.8829 128.021 58.3176 127.808C57.7629 127.595 57.2776 127.291 56.8616 126.896C56.4562 126.501 56.1362 126.021 55.9016 125.456C55.6669 124.88 55.5496 124.24 55.5496 123.536C55.5496 122.832 55.6669 122.197 55.9016 121.632C56.1469 121.056 56.4776 120.571 56.8936 120.176C57.3096 119.781 57.8002 119.477 58.3656 119.264C58.9309 119.051 59.5389 118.944 60.1896 118.944C60.8402 118.944 61.4482 119.051 62.0136 119.264C62.5789 119.477 63.0696 119.781 63.4856 120.176C63.9016 120.571 64.2269 121.056 64.4616 121.632C64.7069 122.197 64.8296 122.832 64.8296 123.536ZM58.3336 123.536C58.3336 123.909 58.3816 124.24 58.4776 124.528C58.5736 124.805 58.7016 125.035 58.8616 125.216C59.0322 125.397 59.2296 125.536 59.4536 125.632C59.6776 125.717 59.9122 125.76 60.1576 125.76C60.4029 125.76 60.6376 125.717 60.8616 125.632C61.0856 125.536 61.2829 125.397 61.4536 125.216C61.6349 125.035 61.7789 124.805 61.8856 124.528C61.9922 124.24 62.0456 123.909 62.0456 123.536C62.0456 123.152 61.9922 122.821 61.8856 122.544C61.7896 122.267 61.6509 122.037 61.4696 121.856C61.2989 121.675 61.1016 121.541 60.8776 121.456C60.6536 121.36 60.4242 121.312 60.1896 121.312C59.9442 121.312 59.7096 121.36 59.4856 121.456C59.2616 121.541 59.0642 121.675 58.8936 121.856C58.7229 122.037 58.5842 122.267 58.4776 122.544C58.3816 122.821 58.3336 123.152 58.3336 123.536ZM66.2811 119.072H69.0171V128H66.2811V119.072ZM67.6571 118.064C67.2517 118.064 66.9157 117.941 66.6491 117.696C66.3931 117.451 66.2651 117.147 66.2651 116.784C66.2651 116.421 66.3931 116.123 66.6491 115.888C66.9157 115.643 67.2517 115.52 67.6571 115.52C68.0731 115.52 68.4144 115.643 68.6811 115.888C68.9477 116.123 69.0811 116.421 69.0811 116.784C69.0811 117.147 68.9477 117.451 68.6811 117.696C68.4144 117.941 68.0731 118.064 67.6571 118.064ZM77.9584 125.52L76.5184 128H73.5584L76.5024 123.44L73.4784 119.072H76.5504L78.2624 121.536L79.7024 119.072H82.6624L79.6704 123.568L82.7424 128H79.6704L77.9584 125.52ZM87.5764 121.136C87.1284 121.136 86.7444 121.269 86.4244 121.536C86.1151 121.792 85.9178 122.171 85.8324 122.672H89.2564C89.2564 122.181 89.0911 121.803 88.7604 121.536C88.4298 121.269 88.0351 121.136 87.5764 121.136ZM91.8484 125.04C91.7418 125.477 91.5658 125.883 91.3204 126.256C91.0751 126.629 90.7658 126.955 90.3924 127.232C90.0298 127.509 89.6138 127.728 89.1444 127.888C88.6751 128.048 88.1631 128.128 87.6084 128.128C86.9471 128.128 86.3391 128.021 85.7844 127.808C85.2404 127.595 84.7658 127.291 84.3604 126.896C83.9658 126.501 83.6564 126.021 83.4324 125.456C83.2084 124.88 83.0964 124.24 83.0964 123.536C83.0964 122.832 83.2031 122.197 83.4164 121.632C83.6404 121.056 83.9498 120.571 84.3444 120.176C84.7498 119.781 85.2298 119.477 85.7844 119.264C86.3391 119.051 86.9471 118.944 87.6084 118.944C88.2591 118.944 88.8564 119.051 89.4004 119.264C89.9444 119.467 90.4138 119.76 90.8084 120.144C91.2031 120.528 91.5071 120.997 91.7204 121.552C91.9444 122.096 92.0564 122.709 92.0564 123.392C92.0564 123.659 92.0404 123.925 92.0084 124.192H85.8164C85.8698 124.779 86.0511 125.211 86.3604 125.488C86.6804 125.765 87.0644 125.904 87.5124 125.904C87.8964 125.904 88.2004 125.824 88.4244 125.664C88.6484 125.493 88.8191 125.285 88.9364 125.04H91.8484ZM96.3464 123.536C96.3464 122.832 96.4531 122.197 96.6664 121.632C96.8904 121.067 97.1998 120.587 97.5944 120.192C97.9998 119.787 98.4744 119.477 99.0184 119.264C99.5624 119.051 100.165 118.944 100.826 118.944C101.957 118.944 102.896 119.237 103.642 119.824C104.389 120.411 104.88 121.237 105.114 122.304H102.202C102.085 121.995 101.909 121.749 101.674 121.568C101.45 121.376 101.152 121.28 100.778 121.28C100.288 121.28 99.8878 121.472 99.5784 121.856C99.2798 122.229 99.1304 122.789 99.1304 123.536C99.1304 124.283 99.2798 124.848 99.5784 125.232C99.8878 125.605 100.288 125.792 100.778 125.792C101.152 125.792 101.45 125.707 101.674 125.536C101.909 125.355 102.085 125.099 102.202 124.768H105.114C104.88 125.803 104.389 126.624 103.642 127.232C102.896 127.829 101.957 128.128 100.826 128.128C100.165 128.128 99.5624 128.021 99.0184 127.808C98.4744 127.595 97.9998 127.291 97.5944 126.896C97.1998 126.501 96.8904 126.021 96.6664 125.456C96.4531 124.88 96.3464 124.24 96.3464 123.536ZM115.314 123.536C115.314 124.24 115.191 124.88 114.946 125.456C114.711 126.021 114.381 126.501 113.954 126.896C113.538 127.291 113.042 127.595 112.466 127.808C111.901 128.021 111.293 128.128 110.642 128.128C109.981 128.128 109.367 128.021 108.802 127.808C108.247 127.595 107.762 127.291 107.346 126.896C106.941 126.501 106.621 126.021 106.386 125.456C106.151 124.88 106.034 124.24 106.034 123.536C106.034 122.832 106.151 122.197 106.386 121.632C106.631 121.056 106.962 120.571 107.378 120.176C107.794 119.781 108.285 119.477 108.85 119.264C109.415 119.051 110.023 118.944 110.674 118.944C111.325 118.944 111.933 119.051 112.498 119.264C113.063 119.477 113.554 119.781 113.97 120.176C114.386 120.571 114.711 121.056 114.946 121.632C115.191 122.197 115.314 122.832 115.314 123.536ZM108.818 123.536C108.818 123.909 108.866 124.24 108.962 124.528C109.058 124.805 109.186 125.035 109.346 125.216C109.517 125.397 109.714 125.536 109.938 125.632C110.162 125.717 110.397 125.76 110.642 125.76C110.887 125.76 111.122 125.717 111.346 125.632C111.57 125.536 111.767 125.397 111.938 125.216C112.119 125.035 112.263 124.805 112.37 124.528C112.477 124.24 112.53 123.909 112.53 123.536C112.53 123.152 112.477 122.821 112.37 122.544C112.274 122.267 112.135 122.037 111.954 121.856C111.783 121.675 111.586 121.541 111.362 121.456C111.138 121.36 110.909 121.312 110.674 121.312C110.429 121.312 110.194 121.36 109.97 121.456C109.746 121.541 109.549 121.675 109.378 121.856C109.207 122.037 109.069 122.267 108.962 122.544C108.866 122.821 108.818 123.152 108.818 123.536ZM113.154 117.12L112.306 118.288L110.674 117.312L109.042 118.288L108.194 117.12L110.674 115.52L113.154 117.12ZM122.925 123.152C122.925 122.544 122.771 122.08 122.461 121.76C122.152 121.429 121.736 121.264 121.213 121.264C120.691 121.264 120.275 121.429 119.965 121.76C119.656 122.08 119.501 122.544 119.501 123.152V128H116.765V119.072H119.501V120.256C119.779 119.883 120.147 119.579 120.605 119.344C121.064 119.099 121.597 118.976 122.205 118.976C122.717 118.976 123.187 119.061 123.613 119.232C124.04 119.403 124.403 119.653 124.701 119.984C125 120.304 125.229 120.704 125.389 121.184C125.56 121.653 125.645 122.187 125.645 122.784V128H122.925V123.152ZM127.003 123.52C127.003 122.816 127.104 122.181 127.307 121.616C127.509 121.051 127.787 120.571 128.139 120.176C128.501 119.781 128.923 119.477 129.403 119.264C129.883 119.051 130.395 118.944 130.939 118.944C131.6 118.944 132.16 119.077 132.619 119.344C133.088 119.6 133.445 119.931 133.691 120.336V119.072H136.427V127.984C136.427 128.581 136.336 129.147 136.155 129.68C135.984 130.213 135.717 130.683 135.355 131.088C134.992 131.493 134.528 131.813 133.963 132.048C133.397 132.283 132.731 132.4 131.963 132.4C131.301 132.4 130.699 132.32 130.155 132.16C129.611 132 129.141 131.765 128.747 131.456C128.352 131.157 128.032 130.795 127.787 130.368C127.552 129.941 127.403 129.461 127.339 128.928H130.043C130.128 129.269 130.325 129.536 130.635 129.728C130.955 129.931 131.355 130.032 131.835 130.032C132.091 130.032 132.331 129.995 132.555 129.92C132.789 129.845 132.987 129.728 133.147 129.568C133.317 129.408 133.451 129.195 133.547 128.928C133.643 128.672 133.691 128.357 133.691 127.984V126.72C133.445 127.115 133.088 127.451 132.619 127.728C132.16 127.995 131.6 128.128 130.939 128.128C130.395 128.128 129.883 128.021 129.403 127.808C128.923 127.595 128.501 127.291 128.139 126.896C127.787 126.491 127.509 126.005 127.307 125.44C127.104 124.864 127.003 124.224 127.003 123.52ZM133.691 123.536C133.691 123.184 133.637 122.869 133.531 122.592C133.424 122.315 133.28 122.085 133.099 121.904C132.928 121.712 132.72 121.568 132.475 121.472C132.24 121.376 131.995 121.328 131.739 121.328C131.483 121.328 131.237 121.376 131.003 121.472C130.768 121.568 130.56 121.707 130.379 121.888C130.197 122.069 130.053 122.299 129.947 122.576C129.84 122.853 129.787 123.168 129.787 123.52C129.787 123.872 129.84 124.187 129.947 124.464C130.053 124.741 130.197 124.976 130.379 125.168C130.56 125.36 130.768 125.504 131.003 125.6C131.237 125.696 131.483 125.744 131.739 125.744C131.995 125.744 132.24 125.696 132.475 125.6C132.72 125.504 132.928 125.365 133.099 125.184C133.28 124.992 133.424 124.757 133.531 124.48C133.637 124.203 133.691 123.888 133.691 123.536ZM147.957 123.152C147.957 122.544 147.802 122.08 147.493 121.76C147.183 121.429 146.767 121.264 146.245 121.264C145.722 121.264 145.306 121.429 144.997 121.76C144.687 122.08 144.533 122.544 144.533 123.152V128H141.797V119.072H144.533V120.256C144.81 119.883 145.178 119.579 145.637 119.344C146.095 119.099 146.629 118.976 147.237 118.976C147.749 118.976 148.218 119.061 148.645 119.232C149.071 119.403 149.434 119.653 149.733 119.984C150.031 120.304 150.261 120.704 150.421 121.184C150.591 121.653 150.677 122.187 150.677 122.784V128H147.957V123.152ZM152.034 123.52C152.034 122.816 152.135 122.181 152.338 121.616C152.541 121.051 152.818 120.571 153.17 120.176C153.533 119.781 153.954 119.477 154.434 119.264C154.914 119.051 155.426 118.944 155.97 118.944C156.631 118.944 157.191 119.077 157.65 119.344C158.119 119.6 158.477 119.931 158.722 120.336V119.072H161.458V127.984C161.458 128.581 161.367 129.147 161.186 129.68C161.015 130.213 160.749 130.683 160.386 131.088C160.023 131.493 159.559 131.813 158.994 132.048C158.429 132.283 157.762 132.4 156.994 132.4C156.333 132.4 155.73 132.32 155.186 132.16C154.642 132 154.173 131.765 153.778 131.456C153.383 131.157 153.063 130.795 152.818 130.368C152.583 129.941 152.434 129.461 152.37 128.928H155.074C155.159 129.269 155.357 129.536 155.666 129.728C155.986 129.931 156.386 130.032 156.866 130.032C157.122 130.032 157.362 129.995 157.586 129.92C157.821 129.845 158.018 129.728 158.178 129.568C158.349 129.408 158.482 129.195 158.578 128.928C158.674 128.672 158.722 128.357 158.722 127.984V126.72C158.477 127.115 158.119 127.451 157.65 127.728C157.191 127.995 156.631 128.128 155.97 128.128C155.426 128.128 154.914 128.021 154.434 127.808C153.954 127.595 153.533 127.291 153.17 126.896C152.818 126.491 152.541 126.005 152.338 125.44C152.135 124.864 152.034 124.224 152.034 123.52ZM158.722 123.536C158.722 123.184 158.669 122.869 158.562 122.592C158.455 122.315 158.311 122.085 158.13 121.904C157.959 121.712 157.751 121.568 157.506 121.472C157.271 121.376 157.026 121.328 156.77 121.328C156.514 121.328 156.269 121.376 156.034 121.472C155.799 121.568 155.591 121.707 155.41 121.888C155.229 122.069 155.085 122.299 154.978 122.576C154.871 122.853 154.818 123.168 154.818 123.52C154.818 123.872 154.871 124.187 154.978 124.464C155.085 124.741 155.229 124.976 155.41 125.168C155.591 125.36 155.799 125.504 156.034 125.6C156.269 125.696 156.514 125.744 156.77 125.744C157.026 125.744 157.271 125.696 157.506 125.6C157.751 125.504 157.959 125.365 158.13 125.184C158.311 124.992 158.455 124.757 158.562 124.48C158.669 124.203 158.722 123.888 158.722 123.536ZM163.437 116.16H166.173V120.272C166.451 119.888 166.824 119.579 167.293 119.344C167.763 119.099 168.307 118.976 168.925 118.976C169.437 118.976 169.901 119.061 170.317 119.232C170.733 119.403 171.085 119.653 171.373 119.984C171.672 120.304 171.901 120.704 172.061 121.184C172.232 121.653 172.317 122.187 172.317 122.784V128H169.597V123.152C169.597 122.544 169.443 122.08 169.133 121.76C168.824 121.429 168.408 121.264 167.885 121.264C167.363 121.264 166.947 121.429 166.637 121.76C166.328 122.08 166.173 122.544 166.173 123.152V128H163.437V116.16ZM178.091 131.776C177.707 131.776 177.387 131.653 177.131 131.408C176.885 131.163 176.763 130.864 176.763 130.512C176.763 130.171 176.885 129.877 177.131 129.632C177.387 129.397 177.707 129.28 178.091 129.28C178.485 129.28 178.805 129.397 179.051 129.632C179.307 129.877 179.435 130.171 179.435 130.512C179.435 130.864 179.307 131.163 179.051 131.408C178.805 131.653 178.485 131.776 178.091 131.776ZM178.155 121.136C177.707 121.136 177.323 121.269 177.003 121.536C176.693 121.792 176.496 122.171 176.411 122.672H179.835C179.835 122.181 179.669 121.803 179.339 121.536C179.008 121.269 178.613 121.136 178.155 121.136ZM182.427 125.04C182.32 125.477 182.144 125.883 181.899 126.256C181.653 126.629 181.344 126.955 180.971 127.232C180.608 127.509 180.192 127.728 179.723 127.888C179.253 128.048 178.741 128.128 178.187 128.128C177.525 128.128 176.917 128.021 176.363 127.808C175.819 127.595 175.344 127.291 174.939 126.896C174.544 126.501 174.235 126.021 174.011 125.456C173.787 124.88 173.675 124.24 173.675 123.536C173.675 122.832 173.781 122.197 173.995 121.632C174.219 121.056 174.528 120.571 174.923 120.176C175.328 119.781 175.808 119.477 176.363 119.264C176.917 119.051 177.525 118.944 178.187 118.944C178.837 118.944 179.435 119.051 179.979 119.264C180.523 119.467 180.992 119.76 181.387 120.144C181.781 120.528 182.085 120.997 182.299 121.552C182.523 122.096 182.635 122.709 182.635 123.392C182.635 123.659 182.619 123.925 182.587 124.192H176.395C176.448 124.779 176.629 125.211 176.939 125.488C177.259 125.765 177.643 125.904 178.091 125.904C178.475 125.904 178.779 125.824 179.003 125.664C179.227 125.493 179.397 125.285 179.515 125.04H182.427ZM180.651 117.12L179.803 118.288L178.171 117.312L176.539 118.288L175.691 117.12L178.171 115.52L180.651 117.12Z" fill="#115264"/>
<defs>
<radialGradient id="paint0_radial_83_1649" cx="0" cy="0" r="1" gradientUnits="userSpaceOnUse" gradientTransform="translate(131.718 53.1589) rotate(-141.162) scale(43.4177 54.3949)">
<stop offset="0.688777" stop-color="#4CD2D5"/>
<stop offset="1" stop-color="#5CF0F3"/>
</radialGradient>
</defs>
</svg>
