<svg width="226" height="134" viewBox="0 0 226 134" fill="none" xmlns="http://www.w3.org/2000/svg">
<path d="M104.056 51.5451C108.445 53.8484 110.639 55 113 55V30L89.595 17.6816C89.5606 17.737 89.5267 17.7929 89.4935 17.8494C88 20.3857 88 23.5417 88 29.8538V30.1463C88 36.4584 88 39.6144 89.4935 42.1507C90.987 44.687 93.6766 46.0984 99.0557 48.9212L104.056 51.5451Z" fill="#08B0B8"/>
<path d="M126.943 11.0788L121.943 8.45492C117.554 6.15164 115.36 5 112.999 5C110.639 5 108.444 6.15164 104.055 8.45491L99.0549 11.0788C93.7955 13.8388 91.1073 15.2495 89.5942 17.6816L112.999 30L136.404 17.6816C134.891 15.2495 132.203 13.8388 126.943 11.0788Z" fill="url(#paint0_diamond_83_1646)"/>
<path d="M136.507 17.8494C136.473 17.7929 136.439 17.737 136.405 17.6816L113 30V55C115.361 55 117.555 53.8484 121.944 51.5451L126.944 48.9212C132.323 46.0984 135.013 44.687 136.507 42.1507C138 39.6144 138 36.4584 138 30.1463V29.8538C138 23.5417 138 20.3857 136.507 17.8494Z" fill="#4CD2D5"/>
<path d="M98 11.7099C98.0381 11.7347 98.0773 11.7582 98.1176 11.7805L122.8 25.4017V33.0448C122.8 34.0804 123.639 34.9198 124.675 34.9198C125.71 34.9198 126.55 34.0804 126.55 33.0448V23.188L101.973 9.625L98.2297 11.5894C98.1526 11.6299 98.076 11.67 98 11.7099Z" fill="#115264"/>
<path d="M98.8252 11.1992C98.8632 11.2239 98.9025 11.2475 98.9428 11.2698L123.625 24.8909V32.5341C123.625 33.5696 124.464 34.4091 125.5 34.4091C126.535 34.4091 127.375 33.5696 127.375 32.5341V22.6773L102.798 9.11426L99.0549 11.0786C98.9778 11.1191 98.9012 11.1593 98.8252 11.1992Z" fill="white"/>
<ellipse opacity="0.2" cx="113" cy="71.25" rx="22.5" ry="3.75" fill="#1D2723"/>
<path d="M71.9699 95.768H80.6579V97.96H77.6819V107H74.9459V97.96H71.9699V95.768ZM82.2391 98.072H84.9751V107H82.2391V98.072ZM85.6631 95.496L82.9111 97.128L82.0311 95.784L84.7831 94.104L85.6631 95.496ZM93.3317 102.152C93.3317 101.544 93.177 101.08 92.8677 100.76C92.5584 100.429 92.1424 100.264 91.6197 100.264C91.097 100.264 90.681 100.429 90.3717 100.76C90.0624 101.08 89.9077 101.544 89.9077 102.152V107H87.1717V98.072H89.9077V99.256C90.185 98.8827 90.553 98.5787 91.0117 98.344C91.4704 98.0987 92.0037 97.976 92.6117 97.976C93.1237 97.976 93.593 98.0613 94.0197 98.232C94.4464 98.4027 94.809 98.6533 95.1077 98.984C95.4064 99.304 95.6357 99.704 95.7957 100.184C95.9664 100.653 96.0517 101.187 96.0517 101.784V107H93.3317V102.152ZM97.9529 95.16H100.689V99.272C100.966 98.888 101.34 98.5787 101.809 98.344C102.278 98.0987 102.822 97.976 103.441 97.976C103.953 97.976 104.417 98.0613 104.833 98.232C105.249 98.4027 105.601 98.6533 105.889 98.984C106.188 99.304 106.417 99.704 106.577 100.184C106.748 100.653 106.833 101.187 106.833 101.784V107H104.113V102.152C104.113 101.544 103.958 101.08 103.649 100.76C103.34 100.429 102.924 100.264 102.401 100.264C101.878 100.264 101.462 100.429 101.153 100.76C100.844 101.08 100.689 101.544 100.689 102.152V107H97.9529V95.16ZM118.285 102.152C118.285 101.544 118.13 101.08 117.821 100.76C117.511 100.429 117.095 100.264 116.573 100.264C116.05 100.264 115.634 100.429 115.325 100.76C115.015 101.08 114.861 101.544 114.861 102.152V107H112.125V98.072H114.861V99.256C115.138 98.8827 115.506 98.5787 115.965 98.344C116.423 98.0987 116.957 97.976 117.565 97.976C118.077 97.976 118.546 98.0613 118.973 98.232C119.399 98.4027 119.762 98.6533 120.061 98.984C120.359 99.304 120.589 99.704 120.749 100.184C120.919 100.653 121.005 101.187 121.005 101.784V107H118.285V102.152ZM122.362 102.52C122.362 101.816 122.463 101.181 122.666 100.616C122.869 100.051 123.146 99.5707 123.498 99.176C123.861 98.7813 124.282 98.4773 124.762 98.264C125.242 98.0507 125.754 97.944 126.298 97.944C126.97 97.944 127.535 98.0773 127.994 98.344C128.453 98.6107 128.805 98.9413 129.05 99.336V98.072H131.786V107H129.05V105.736C128.805 106.131 128.447 106.461 127.978 106.728C127.519 106.995 126.954 107.128 126.282 107.128C125.738 107.128 125.226 107.021 124.746 106.808C124.277 106.595 123.861 106.291 123.498 105.896C123.146 105.491 122.869 105.005 122.666 104.44C122.463 103.864 122.362 103.224 122.362 102.52ZM129.05 102.536C129.05 102.184 128.997 101.869 128.89 101.592C128.783 101.315 128.639 101.085 128.458 100.904C128.287 100.712 128.079 100.568 127.834 100.472C127.599 100.376 127.354 100.328 127.098 100.328C126.842 100.328 126.597 100.376 126.362 100.472C126.127 100.568 125.919 100.707 125.738 100.888C125.557 101.069 125.413 101.299 125.306 101.576C125.199 101.853 125.146 102.168 125.146 102.52C125.146 102.872 125.199 103.187 125.306 103.464C125.413 103.741 125.557 103.976 125.738 104.168C125.919 104.36 126.127 104.504 126.362 104.6C126.597 104.696 126.842 104.744 127.098 104.744C127.354 104.744 127.599 104.696 127.834 104.6C128.079 104.504 128.287 104.365 128.458 104.184C128.639 103.992 128.783 103.757 128.89 103.48C128.997 103.203 129.05 102.888 129.05 102.536ZM126.586 95.048C126.586 95.2933 126.65 95.4853 126.778 95.624C126.906 95.752 127.125 95.816 127.434 95.816C127.754 95.816 127.978 95.752 128.106 95.624C128.234 95.4853 128.298 95.2933 128.298 95.048H129.818C129.818 95.688 129.621 96.2107 129.226 96.616C128.842 97.0107 128.245 97.208 127.434 97.208C126.634 97.208 126.037 97.0107 125.642 96.616C125.258 96.2107 125.066 95.688 125.066 95.048H126.586ZM139.925 102.152C139.925 101.544 139.771 101.08 139.461 100.76C139.152 100.429 138.736 100.264 138.213 100.264C137.691 100.264 137.275 100.429 136.965 100.76C136.656 101.08 136.501 101.544 136.501 102.152V107H133.765V98.072H136.501V99.256C136.779 98.8827 137.147 98.5787 137.605 98.344C138.064 98.0987 138.597 97.976 139.205 97.976C139.717 97.976 140.187 98.0613 140.613 98.232C141.04 98.4027 141.403 98.6533 141.701 98.984C142 99.304 142.229 99.704 142.389 100.184C142.56 100.653 142.645 101.187 142.645 101.784V107H139.925V102.152ZM144.003 102.52C144.003 101.816 144.104 101.181 144.307 100.616C144.509 100.051 144.787 99.5707 145.139 99.176C145.501 98.7813 145.923 98.4773 146.403 98.264C146.883 98.0507 147.395 97.944 147.939 97.944C148.6 97.944 149.16 98.0773 149.619 98.344C150.088 98.6 150.445 98.9307 150.691 99.336V98.072H153.427V106.984C153.427 107.581 153.336 108.147 153.155 108.68C152.984 109.213 152.717 109.683 152.355 110.088C151.992 110.493 151.528 110.813 150.963 111.048C150.397 111.283 149.731 111.4 148.963 111.4C148.301 111.4 147.699 111.32 147.155 111.16C146.611 111 146.141 110.765 145.747 110.456C145.352 110.157 145.032 109.795 144.787 109.368C144.552 108.941 144.403 108.461 144.339 107.928H147.043C147.128 108.269 147.325 108.536 147.635 108.728C147.955 108.931 148.355 109.032 148.835 109.032C149.091 109.032 149.331 108.995 149.555 108.92C149.789 108.845 149.987 108.728 150.147 108.568C150.317 108.408 150.451 108.195 150.547 107.928C150.643 107.672 150.691 107.357 150.691 106.984V105.72C150.445 106.115 150.088 106.451 149.619 106.728C149.16 106.995 148.6 107.128 147.939 107.128C147.395 107.128 146.883 107.021 146.403 106.808C145.923 106.595 145.501 106.291 145.139 105.896C144.787 105.491 144.509 105.005 144.307 104.44C144.104 103.864 144.003 103.224 144.003 102.52ZM150.691 102.536C150.691 102.184 150.637 101.869 150.531 101.592C150.424 101.315 150.28 101.085 150.099 100.904C149.928 100.712 149.72 100.568 149.475 100.472C149.24 100.376 148.995 100.328 148.739 100.328C148.483 100.328 148.237 100.376 148.003 100.472C147.768 100.568 147.56 100.707 147.379 100.888C147.197 101.069 147.053 101.299 146.947 101.576C146.84 101.853 146.787 102.168 146.787 102.52C146.787 102.872 146.84 103.187 146.947 103.464C147.053 103.741 147.197 103.976 147.379 104.168C147.56 104.36 147.768 104.504 148.003 104.6C148.237 104.696 148.483 104.744 148.739 104.744C148.995 104.744 149.24 104.696 149.475 104.6C149.72 104.504 149.928 104.365 150.099 104.184C150.28 103.992 150.424 103.757 150.531 103.48C150.637 103.203 150.691 102.888 150.691 102.536ZM76.9275 116.64C78.2822 116.64 79.4182 116.965 80.3355 117.616C81.2528 118.256 81.8608 119.157 82.1595 120.32H79.1355C78.7088 119.552 77.9728 119.168 76.9275 119.168C76.4902 119.168 76.0902 119.243 75.7275 119.392C75.3648 119.541 75.0555 119.755 74.7995 120.032C74.5435 120.309 74.3462 120.645 74.2075 121.04C74.0688 121.435 73.9995 121.877 73.9995 122.368C73.9995 123.413 74.2768 124.224 74.8315 124.8C75.3862 125.376 76.1595 125.664 77.1515 125.664C77.8342 125.664 78.4048 125.493 78.8635 125.152C79.3222 124.811 79.6582 124.32 79.8715 123.68H76.3995V121.664H82.3515V124.208C82.2022 124.688 81.9782 125.163 81.6795 125.632C81.3808 126.091 81.0022 126.501 80.5435 126.864C80.0848 127.227 79.5515 127.52 78.9435 127.744C78.3462 127.968 77.6795 128.08 76.9435 128.08C76.1008 128.08 75.3275 127.941 74.6235 127.664C73.9302 127.387 73.3275 126.997 72.8155 126.496C72.3142 125.984 71.9195 125.381 71.6315 124.688C71.3542 123.984 71.2155 123.211 71.2155 122.368C71.2155 121.525 71.3542 120.757 71.6315 120.064C71.9088 119.36 72.2982 118.757 72.7995 118.256C73.3115 117.744 73.9142 117.349 74.6075 117.072C75.3115 116.784 76.0848 116.64 76.9275 116.64ZM83.867 119.072H86.603V128H83.867V119.072ZM85.243 118.064C84.8377 118.064 84.5017 117.941 84.235 117.696C83.979 117.451 83.851 117.147 83.851 116.784C83.851 116.421 83.979 116.123 84.235 115.888C84.5017 115.643 84.8377 115.52 85.243 115.52C85.659 115.52 86.0003 115.643 86.267 115.888C86.5337 116.123 86.667 116.421 86.667 116.784C86.667 117.147 86.5337 117.451 86.267 117.696C86.0003 117.941 85.659 118.064 85.243 118.064ZM88.0418 123.52C88.0418 122.816 88.1431 122.181 88.3458 121.616C88.5484 121.051 88.8258 120.571 89.1778 120.176C89.5404 119.781 89.9618 119.477 90.4418 119.264C90.9218 119.051 91.4338 118.944 91.9778 118.944C92.6498 118.944 93.2151 119.077 93.6738 119.344C94.1324 119.611 94.4844 119.941 94.7298 120.336V119.072H97.4658V128H94.7298V126.736C94.4844 127.131 94.1271 127.461 93.6578 127.728C93.1991 127.995 92.6338 128.128 91.9618 128.128C91.4178 128.128 90.9058 128.021 90.4258 127.808C89.9564 127.595 89.5404 127.291 89.1778 126.896C88.8258 126.491 88.5484 126.005 88.3458 125.44C88.1431 124.864 88.0418 124.224 88.0418 123.52ZM94.7298 123.536C94.7298 123.184 94.6764 122.869 94.5698 122.592C94.4631 122.315 94.3191 122.085 94.1378 121.904C93.9671 121.712 93.7591 121.568 93.5138 121.472C93.2791 121.376 93.0338 121.328 92.7778 121.328C92.5218 121.328 92.2764 121.376 92.0418 121.472C91.8071 121.568 91.5991 121.707 91.4178 121.888C91.2364 122.069 91.0924 122.299 90.9858 122.576C90.8791 122.853 90.8258 123.168 90.8258 123.52C90.8258 123.872 90.8791 124.187 90.9858 124.464C91.0924 124.741 91.2364 124.976 91.4178 125.168C91.5991 125.36 91.8071 125.504 92.0418 125.6C92.2764 125.696 92.5218 125.744 92.7778 125.744C93.0338 125.744 93.2791 125.696 93.5138 125.6C93.7591 125.504 93.9671 125.365 94.1378 125.184C94.3191 124.992 94.4631 124.757 94.5698 124.48C94.6764 124.203 94.7298 123.888 94.7298 123.536ZM108.181 123.536C108.181 124.24 108.058 124.88 107.813 125.456C107.578 126.021 107.248 126.501 106.821 126.896C106.405 127.291 105.909 127.595 105.333 127.808C104.768 128.021 104.16 128.128 103.509 128.128C102.848 128.128 102.234 128.021 101.669 127.808C101.114 127.595 100.629 127.291 100.213 126.896C99.8078 126.501 99.4878 126.021 99.2531 125.456C99.0185 124.88 98.9011 124.24 98.9011 123.536C98.9011 122.832 99.0185 122.197 99.2531 121.632C99.4985 121.056 99.8291 120.571 100.245 120.176C100.661 119.781 101.152 119.477 101.717 119.264C102.282 119.051 102.89 118.944 103.541 118.944C104.192 118.944 104.8 119.051 105.365 119.264C105.93 119.477 106.421 119.781 106.837 120.176C107.253 120.571 107.578 121.056 107.813 121.632C108.058 122.197 108.181 122.832 108.181 123.536ZM101.685 123.536C101.685 123.909 101.733 124.24 101.829 124.528C101.925 124.805 102.053 125.035 102.213 125.216C102.384 125.397 102.581 125.536 102.805 125.632C103.029 125.717 103.264 125.76 103.509 125.76C103.754 125.76 103.989 125.717 104.213 125.632C104.437 125.536 104.634 125.397 104.805 125.216C104.986 125.035 105.13 124.805 105.237 124.528C105.344 124.24 105.397 123.909 105.397 123.536C105.397 123.152 105.344 122.821 105.237 122.544C105.141 122.267 105.002 122.037 104.821 121.856C104.65 121.675 104.453 121.541 104.229 121.456C104.005 121.36 103.776 121.312 103.541 121.312C103.296 121.312 103.061 121.36 102.837 121.456C102.613 121.541 102.416 121.675 102.245 121.856C102.074 122.037 101.936 122.267 101.829 122.544C101.733 122.821 101.685 123.152 101.685 123.536ZM113.023 116.16H115.759V120.272C116.037 119.888 116.41 119.579 116.879 119.344C117.349 119.099 117.893 118.976 118.511 118.976C119.023 118.976 119.487 119.061 119.903 119.232C120.319 119.403 120.671 119.653 120.959 119.984C121.258 120.304 121.487 120.704 121.647 121.184C121.818 121.653 121.903 122.187 121.903 122.784V128H119.183V123.152C119.183 122.544 119.029 122.08 118.719 121.76C118.41 121.429 117.994 121.264 117.471 121.264C116.949 121.264 116.533 121.429 116.223 121.76C115.914 122.08 115.759 122.544 115.759 123.152V128H113.023V116.16ZM123.261 123.52C123.261 122.816 123.362 122.181 123.565 121.616C123.767 121.051 124.045 120.571 124.397 120.176C124.759 119.781 125.181 119.477 125.661 119.264C126.141 119.051 126.653 118.944 127.197 118.944C127.869 118.944 128.434 119.077 128.893 119.344C129.351 119.611 129.703 119.941 129.949 120.336V119.072H132.685V128H129.949V126.736C129.703 127.131 129.346 127.461 128.877 127.728C128.418 127.995 127.853 128.128 127.181 128.128C126.637 128.128 126.125 128.021 125.645 127.808C125.175 127.595 124.759 127.291 124.397 126.896C124.045 126.491 123.767 126.005 123.565 125.44C123.362 124.864 123.261 124.224 123.261 123.52ZM129.949 123.536C129.949 123.184 129.895 122.869 129.789 122.592C129.682 122.315 129.538 122.085 129.357 121.904C129.186 121.712 128.978 121.568 128.733 121.472C128.498 121.376 128.253 121.328 127.997 121.328C127.741 121.328 127.495 121.376 127.261 121.472C127.026 121.568 126.818 121.707 126.637 121.888C126.455 122.069 126.311 122.299 126.205 122.576C126.098 122.853 126.045 123.168 126.045 123.52C126.045 123.872 126.098 124.187 126.205 124.464C126.311 124.741 126.455 124.976 126.637 125.168C126.818 125.36 127.026 125.504 127.261 125.6C127.495 125.696 127.741 125.744 127.997 125.744C128.253 125.744 128.498 125.696 128.733 125.6C128.978 125.504 129.186 125.365 129.357 125.184C129.538 124.992 129.682 124.757 129.789 124.48C129.895 124.203 129.949 123.888 129.949 123.536ZM126.909 115.104L129.661 116.784L128.781 118.128L126.029 116.496L126.909 115.104ZM140.824 123.152C140.824 122.544 140.669 122.08 140.36 121.76C140.051 121.429 139.635 121.264 139.112 121.264C138.589 121.264 138.173 121.429 137.864 121.76C137.555 122.08 137.4 122.544 137.4 123.152V128H134.664V119.072H137.4V120.256C137.677 119.883 138.045 119.579 138.504 119.344C138.963 119.099 139.496 118.976 140.104 118.976C140.616 118.976 141.085 119.061 141.512 119.232C141.939 119.403 142.301 119.653 142.6 119.984C142.899 120.304 143.128 120.704 143.288 121.184C143.459 121.653 143.544 122.187 143.544 122.784V128H140.824V123.152ZM144.901 123.52C144.901 122.816 145.002 122.181 145.205 121.616C145.408 121.051 145.685 120.571 146.037 120.176C146.4 119.781 146.821 119.477 147.301 119.264C147.781 119.051 148.293 118.944 148.837 118.944C149.498 118.944 150.058 119.077 150.517 119.344C150.986 119.6 151.344 119.931 151.589 120.336V119.072H154.325V127.984C154.325 128.581 154.234 129.147 154.053 129.68C153.882 130.213 153.616 130.683 153.253 131.088C152.89 131.493 152.426 131.813 151.861 132.048C151.296 132.283 150.629 132.4 149.861 132.4C149.2 132.4 148.597 132.32 148.053 132.16C147.509 132 147.04 131.765 146.645 131.456C146.25 131.157 145.93 130.795 145.685 130.368C145.45 129.941 145.301 129.461 145.237 128.928H147.941C148.026 129.269 148.224 129.536 148.533 129.728C148.853 129.931 149.253 130.032 149.733 130.032C149.989 130.032 150.229 129.995 150.453 129.92C150.688 129.845 150.885 129.728 151.045 129.568C151.216 129.408 151.349 129.195 151.445 128.928C151.541 128.672 151.589 128.357 151.589 127.984V126.72C151.344 127.115 150.986 127.451 150.517 127.728C150.058 127.995 149.498 128.128 148.837 128.128C148.293 128.128 147.781 128.021 147.301 127.808C146.821 127.595 146.4 127.291 146.037 126.896C145.685 126.491 145.408 126.005 145.205 125.44C145.002 124.864 144.901 124.224 144.901 123.52ZM151.589 123.536C151.589 123.184 151.536 122.869 151.429 122.592C151.322 122.315 151.178 122.085 150.997 121.904C150.826 121.712 150.618 121.568 150.373 121.472C150.138 121.376 149.893 121.328 149.637 121.328C149.381 121.328 149.136 121.376 148.901 121.472C148.666 121.568 148.458 121.707 148.277 121.888C148.096 122.069 147.952 122.299 147.845 122.576C147.738 122.853 147.685 123.168 147.685 123.52C147.685 123.872 147.738 124.187 147.845 124.464C147.952 124.741 148.096 124.976 148.277 125.168C148.458 125.36 148.666 125.504 148.901 125.6C149.136 125.696 149.381 125.744 149.637 125.744C149.893 125.744 150.138 125.696 150.373 125.6C150.618 125.504 150.826 125.365 150.997 125.184C151.178 124.992 151.322 124.757 151.429 124.48C151.536 124.203 151.589 123.888 151.589 123.536Z" fill="#115264"/>
<defs>
<radialGradient id="paint0_diamond_83_1646" cx="0" cy="0" r="1" gradientUnits="userSpaceOnUse" gradientTransform="translate(112.999 28.6277) rotate(-90) scale(23.6277 39.3989)">
<stop offset="0.675571" stop-color="#52DFE2"/>
<stop offset="1" stop-color="#68FAFD"/>
</radialGradient>
</defs>
</svg>
