<svg width="162" height="134" viewBox="0 0 162 134" fill="none" xmlns="http://www.w3.org/2000/svg">
<path d="M71.8057 51.5451C76.1948 53.8484 78.3893 55 80.75 55V30L57.345 17.6816C57.3106 17.737 57.2767 17.7929 57.2435 17.8494C55.75 20.3857 55.75 23.5417 55.75 29.8538V30.1463C55.75 36.4584 55.75 39.6144 57.2435 42.1507C58.737 44.687 61.4266 46.0984 66.8057 48.9212L71.8057 51.5451Z" fill="#08B0B8"/>
<path d="M94.6935 11.0788L89.6935 8.45492C85.3044 6.15164 83.1099 5 80.7492 5C78.3885 5 76.194 6.15164 71.8049 8.45491L66.8049 11.0788C61.5455 13.8388 58.8573 15.2495 57.3442 17.6816L80.7492 30L104.154 17.6816C102.641 15.2495 99.9529 13.8388 94.6935 11.0788Z" fill="url(#paint0_diamond_188_4431)"/>
<path d="M104.257 17.8494C104.223 17.7929 104.189 17.737 104.155 17.6816L80.75 30V55C83.1107 55 85.3052 53.8484 89.6943 51.5451L94.6943 48.9212C100.073 46.0984 102.763 44.687 104.257 42.1507C105.75 39.6144 105.75 36.4584 105.75 30.1463V29.8538C105.75 23.5417 105.75 20.3857 104.257 17.8494Z" fill="#4CD2D5"/>
<path d="M65.75 11.7099C65.7881 11.7347 65.8273 11.7582 65.8676 11.7805L90.5498 25.4017V33.0448C90.5498 34.0804 91.3892 34.9198 92.4248 34.9198C93.4603 34.9198 94.2998 34.0804 94.2998 33.0448V23.188L69.723 9.625L65.9797 11.5894C65.9026 11.6299 65.826 11.67 65.75 11.7099Z" fill="#115264"/>
<path d="M66.5752 11.1992C66.6132 11.2239 66.6525 11.2475 66.6928 11.2698L91.375 24.8909V32.5341C91.375 33.5696 92.2144 34.4091 93.25 34.4091C94.2855 34.4091 95.125 33.5696 95.125 32.5341V22.6773L70.5482 9.11426L66.8049 11.0786C66.7278 11.1191 66.6512 11.1593 66.5752 11.1992Z" fill="white"/>
<ellipse opacity="0.2" cx="80.75" cy="71.25" rx="22.5" ry="3.75" fill="#1D2723"/>
<path d="M39.7199 95.768H48.4079V97.96H45.4319V107H42.6959V97.96H39.7199V95.768ZM49.9891 98.072H52.7251V107H49.9891V98.072ZM53.4131 95.496L50.6611 97.128L49.7811 95.784L52.5331 94.104L53.4131 95.496ZM61.0817 102.152C61.0817 101.544 60.927 101.08 60.6177 100.76C60.3084 100.429 59.8924 100.264 59.3697 100.264C58.847 100.264 58.431 100.429 58.1217 100.76C57.8124 101.08 57.6577 101.544 57.6577 102.152V107H54.9217V98.072H57.6577V99.256C57.935 98.8827 58.303 98.5787 58.7617 98.344C59.2204 98.0987 59.7537 97.976 60.3617 97.976C60.8737 97.976 61.343 98.0613 61.7697 98.232C62.1964 98.4027 62.559 98.6533 62.8577 98.984C63.1564 99.304 63.3857 99.704 63.5457 100.184C63.7164 100.653 63.8017 101.187 63.8017 101.784V107H61.0817V102.152ZM65.7029 95.16H68.4389V99.272C68.7163 98.888 69.0896 98.5787 69.5589 98.344C70.0283 98.0987 70.5723 97.976 71.1909 97.976C71.7029 97.976 72.1669 98.0613 72.5829 98.232C72.9989 98.4027 73.3509 98.6533 73.6389 98.984C73.9376 99.304 74.1669 99.704 74.3269 100.184C74.4976 100.653 74.5829 101.187 74.5829 101.784V107H71.8629V102.152C71.8629 101.544 71.7083 101.08 71.3989 100.76C71.0896 100.429 70.6736 100.264 70.1509 100.264C69.6283 100.264 69.2123 100.429 68.9029 100.76C68.5936 101.08 68.4389 101.544 68.4389 102.152V107H65.7029V95.16ZM86.0348 102.152C86.0348 101.544 85.8801 101.08 85.5708 100.76C85.2615 100.429 84.8455 100.264 84.3228 100.264C83.8001 100.264 83.3841 100.429 83.0748 100.76C82.7655 101.08 82.6108 101.544 82.6108 102.152V107H79.8748V98.072H82.6108V99.256C82.8881 98.8827 83.2561 98.5787 83.7148 98.344C84.1735 98.0987 84.7068 97.976 85.3148 97.976C85.8268 97.976 86.2961 98.0613 86.7228 98.232C87.1495 98.4027 87.5121 98.6533 87.8108 98.984C88.1095 99.304 88.3388 99.704 88.4988 100.184C88.6695 100.653 88.7548 101.187 88.7548 101.784V107H86.0348V102.152ZM90.1121 102.52C90.1121 101.816 90.2134 101.181 90.4161 100.616C90.6187 100.051 90.8961 99.5707 91.2481 99.176C91.6107 98.7813 92.0321 98.4773 92.5121 98.264C92.9921 98.0507 93.5041 97.944 94.0481 97.944C94.7201 97.944 95.2854 98.0773 95.7441 98.344C96.2027 98.6107 96.5547 98.9413 96.8001 99.336V98.072H99.5361V107H96.8001V105.736C96.5547 106.131 96.1974 106.461 95.7281 106.728C95.2694 106.995 94.7041 107.128 94.0321 107.128C93.4881 107.128 92.9761 107.021 92.4961 106.808C92.0267 106.595 91.6107 106.291 91.2481 105.896C90.8961 105.491 90.6187 105.005 90.4161 104.44C90.2134 103.864 90.1121 103.224 90.1121 102.52ZM96.8001 102.536C96.8001 102.184 96.7467 101.869 96.6401 101.592C96.5334 101.315 96.3894 101.085 96.2081 100.904C96.0374 100.712 95.8294 100.568 95.5841 100.472C95.3494 100.376 95.1041 100.328 94.8481 100.328C94.5921 100.328 94.3467 100.376 94.1121 100.472C93.8774 100.568 93.6694 100.707 93.4881 100.888C93.3067 101.069 93.1627 101.299 93.0561 101.576C92.9494 101.853 92.8961 102.168 92.8961 102.52C92.8961 102.872 92.9494 103.187 93.0561 103.464C93.1627 103.741 93.3067 103.976 93.4881 104.168C93.6694 104.36 93.8774 104.504 94.1121 104.6C94.3467 104.696 94.5921 104.744 94.8481 104.744C95.1041 104.744 95.3494 104.696 95.5841 104.6C95.8294 104.504 96.0374 104.365 96.2081 104.184C96.3894 103.992 96.5334 103.757 96.6401 103.48C96.7467 103.203 96.8001 102.888 96.8001 102.536ZM94.3361 95.048C94.3361 95.2933 94.4001 95.4853 94.5281 95.624C94.6561 95.752 94.8747 95.816 95.1841 95.816C95.5041 95.816 95.7281 95.752 95.8561 95.624C95.9841 95.4853 96.0481 95.2933 96.0481 95.048H97.5681C97.5681 95.688 97.3707 96.2107 96.9761 96.616C96.5921 97.0107 95.9947 97.208 95.1841 97.208C94.3841 97.208 93.7867 97.0107 93.3921 96.616C93.0081 96.2107 92.8161 95.688 92.8161 95.048H94.3361ZM107.675 102.152C107.675 101.544 107.521 101.08 107.211 100.76C106.902 100.429 106.486 100.264 105.963 100.264C105.441 100.264 105.025 100.429 104.715 100.76C104.406 101.08 104.251 101.544 104.251 102.152V107H101.515V98.072H104.251V99.256C104.529 98.8827 104.897 98.5787 105.355 98.344C105.814 98.0987 106.347 97.976 106.955 97.976C107.467 97.976 107.937 98.0613 108.363 98.232C108.79 98.4027 109.153 98.6533 109.451 98.984C109.75 99.304 109.979 99.704 110.139 100.184C110.31 100.653 110.395 101.187 110.395 101.784V107H107.675V102.152ZM111.753 102.52C111.753 101.816 111.854 101.181 112.057 100.616C112.259 100.051 112.537 99.5707 112.889 99.176C113.251 98.7813 113.673 98.4773 114.153 98.264C114.633 98.0507 115.145 97.944 115.689 97.944C116.35 97.944 116.91 98.0773 117.369 98.344C117.838 98.6 118.195 98.9307 118.441 99.336V98.072H121.177V106.984C121.177 107.581 121.086 108.147 120.905 108.68C120.734 109.213 120.467 109.683 120.105 110.088C119.742 110.493 119.278 110.813 118.713 111.048C118.147 111.283 117.481 111.4 116.713 111.4C116.051 111.4 115.449 111.32 114.905 111.16C114.361 111 113.891 110.765 113.497 110.456C113.102 110.157 112.782 109.795 112.537 109.368C112.302 108.941 112.153 108.461 112.089 107.928H114.793C114.878 108.269 115.075 108.536 115.385 108.728C115.705 108.931 116.105 109.032 116.585 109.032C116.841 109.032 117.081 108.995 117.305 108.92C117.539 108.845 117.737 108.728 117.897 108.568C118.067 108.408 118.201 108.195 118.297 107.928C118.393 107.672 118.441 107.357 118.441 106.984V105.72C118.195 106.115 117.838 106.451 117.369 106.728C116.91 106.995 116.35 107.128 115.689 107.128C115.145 107.128 114.633 107.021 114.153 106.808C113.673 106.595 113.251 106.291 112.889 105.896C112.537 105.491 112.259 105.005 112.057 104.44C111.854 103.864 111.753 103.224 111.753 102.52ZM118.441 102.536C118.441 102.184 118.387 101.869 118.281 101.592C118.174 101.315 118.03 101.085 117.849 100.904C117.678 100.712 117.47 100.568 117.225 100.472C116.99 100.376 116.745 100.328 116.489 100.328C116.233 100.328 115.987 100.376 115.753 100.472C115.518 100.568 115.31 100.707 115.129 100.888C114.947 101.069 114.803 101.299 114.697 101.576C114.59 101.853 114.537 102.168 114.537 102.52C114.537 102.872 114.59 103.187 114.697 103.464C114.803 103.741 114.947 103.976 115.129 104.168C115.31 104.36 115.518 104.504 115.753 104.6C115.987 104.696 116.233 104.744 116.489 104.744C116.745 104.744 116.99 104.696 117.225 104.6C117.47 104.504 117.678 104.365 117.849 104.184C118.03 103.992 118.174 103.757 118.281 103.48C118.387 103.203 118.441 102.888 118.441 102.536ZM44.6775 116.64C46.0322 116.64 47.1682 116.965 48.0855 117.616C49.0028 118.256 49.6108 119.157 49.9095 120.32H46.8855C46.4588 119.552 45.7228 119.168 44.6775 119.168C44.2402 119.168 43.8402 119.243 43.4775 119.392C43.1148 119.541 42.8055 119.755 42.5495 120.032C42.2935 120.309 42.0962 120.645 41.9575 121.04C41.8188 121.435 41.7495 121.877 41.7495 122.368C41.7495 123.413 42.0268 124.224 42.5815 124.8C43.1362 125.376 43.9095 125.664 44.9015 125.664C45.5842 125.664 46.1548 125.493 46.6135 125.152C47.0722 124.811 47.4082 124.32 47.6215 123.68H44.1495V121.664H50.1015V124.208C49.9522 124.688 49.7282 125.163 49.4295 125.632C49.1308 126.091 48.7522 126.501 48.2935 126.864C47.8348 127.227 47.3015 127.52 46.6935 127.744C46.0962 127.968 45.4295 128.08 44.6935 128.08C43.8508 128.08 43.0775 127.941 42.3735 127.664C41.6802 127.387 41.0775 126.997 40.5655 126.496C40.0642 125.984 39.6695 125.381 39.3815 124.688C39.1042 123.984 38.9655 123.211 38.9655 122.368C38.9655 121.525 39.1042 120.757 39.3815 120.064C39.6588 119.36 40.0482 118.757 40.5495 118.256C41.0615 117.744 41.6642 117.349 42.3575 117.072C43.0615 116.784 43.8348 116.64 44.6775 116.64ZM51.617 119.072H54.353V128H51.617V119.072ZM52.993 118.064C52.5877 118.064 52.2517 117.941 51.985 117.696C51.729 117.451 51.601 117.147 51.601 116.784C51.601 116.421 51.729 116.123 51.985 115.888C52.2517 115.643 52.5877 115.52 52.993 115.52C53.409 115.52 53.7503 115.643 54.017 115.888C54.2837 116.123 54.417 116.421 54.417 116.784C54.417 117.147 54.2837 117.451 54.017 117.696C53.7503 117.941 53.409 118.064 52.993 118.064ZM55.7918 123.52C55.7918 122.816 55.8931 122.181 56.0958 121.616C56.2984 121.051 56.5758 120.571 56.9278 120.176C57.2904 119.781 57.7118 119.477 58.1918 119.264C58.6718 119.051 59.1838 118.944 59.7278 118.944C60.3998 118.944 60.9651 119.077 61.4238 119.344C61.8824 119.611 62.2344 119.941 62.4798 120.336V119.072H65.2158V128H62.4798V126.736C62.2344 127.131 61.8771 127.461 61.4078 127.728C60.9491 127.995 60.3838 128.128 59.7118 128.128C59.1678 128.128 58.6558 128.021 58.1758 127.808C57.7064 127.595 57.2904 127.291 56.9278 126.896C56.5758 126.491 56.2984 126.005 56.0958 125.44C55.8931 124.864 55.7918 124.224 55.7918 123.52ZM62.4798 123.536C62.4798 123.184 62.4264 122.869 62.3198 122.592C62.2131 122.315 62.0691 122.085 61.8878 121.904C61.7171 121.712 61.5091 121.568 61.2638 121.472C61.0291 121.376 60.7838 121.328 60.5278 121.328C60.2718 121.328 60.0264 121.376 59.7918 121.472C59.5571 121.568 59.3491 121.707 59.1678 121.888C58.9864 122.069 58.8424 122.299 58.7358 122.576C58.6291 122.853 58.5758 123.168 58.5758 123.52C58.5758 123.872 58.6291 124.187 58.7358 124.464C58.8424 124.741 58.9864 124.976 59.1678 125.168C59.3491 125.36 59.5571 125.504 59.7918 125.6C60.0264 125.696 60.2718 125.744 60.5278 125.744C60.7838 125.744 61.0291 125.696 61.2638 125.6C61.5091 125.504 61.7171 125.365 61.8878 125.184C62.0691 124.992 62.2131 124.757 62.3198 124.48C62.4264 124.203 62.4798 123.888 62.4798 123.536ZM75.9311 123.536C75.9311 124.24 75.8085 124.88 75.5631 125.456C75.3285 126.021 74.9978 126.501 74.5711 126.896C74.1551 127.291 73.6591 127.595 73.0831 127.808C72.5178 128.021 71.9098 128.128 71.2591 128.128C70.5978 128.128 69.9845 128.021 69.4191 127.808C68.8645 127.595 68.3791 127.291 67.9631 126.896C67.5578 126.501 67.2378 126.021 67.0031 125.456C66.7685 124.88 66.6511 124.24 66.6511 123.536C66.6511 122.832 66.7685 122.197 67.0031 121.632C67.2485 121.056 67.5791 120.571 67.9951 120.176C68.4111 119.781 68.9018 119.477 69.4671 119.264C70.0325 119.051 70.6405 118.944 71.2911 118.944C71.9418 118.944 72.5498 119.051 73.1151 119.264C73.6805 119.477 74.1711 119.781 74.5871 120.176C75.0031 120.571 75.3285 121.056 75.5631 121.632C75.8085 122.197 75.9311 122.832 75.9311 123.536ZM69.4351 123.536C69.4351 123.909 69.4831 124.24 69.5791 124.528C69.6751 124.805 69.8031 125.035 69.9631 125.216C70.1338 125.397 70.3311 125.536 70.5551 125.632C70.7791 125.717 71.0138 125.76 71.2591 125.76C71.5045 125.76 71.7391 125.717 71.9631 125.632C72.1871 125.536 72.3845 125.397 72.5551 125.216C72.7365 125.035 72.8805 124.805 72.9871 124.528C73.0938 124.24 73.1471 123.909 73.1471 123.536C73.1471 123.152 73.0938 122.821 72.9871 122.544C72.8911 122.267 72.7525 122.037 72.5711 121.856C72.4005 121.675 72.2031 121.541 71.9791 121.456C71.7551 121.36 71.5258 121.312 71.2911 121.312C71.0458 121.312 70.8111 121.36 70.5871 121.456C70.3631 121.541 70.1658 121.675 69.9951 121.856C69.8245 122.037 69.6858 122.267 69.5791 122.544C69.4831 122.821 69.4351 123.152 69.4351 123.536ZM80.7733 116.16H83.5093V120.272C83.7866 119.888 84.1599 119.579 84.6293 119.344C85.0986 119.099 85.6426 118.976 86.2613 118.976C86.7733 118.976 87.2373 119.061 87.6533 119.232C88.0693 119.403 88.4213 119.653 88.7093 119.984C89.0079 120.304 89.2373 120.704 89.3973 121.184C89.5679 121.653 89.6533 122.187 89.6533 122.784V128H86.9333V123.152C86.9333 122.544 86.7786 122.08 86.4693 121.76C86.1599 121.429 85.7439 121.264 85.2213 121.264C84.6986 121.264 84.2826 121.429 83.9733 121.76C83.6639 122.08 83.5093 122.544 83.5093 123.152V128H80.7733V116.16ZM91.0105 123.52C91.0105 122.816 91.1118 122.181 91.3145 121.616C91.5172 121.051 91.7945 120.571 92.1465 120.176C92.5092 119.781 92.9305 119.477 93.4105 119.264C93.8905 119.051 94.4025 118.944 94.9465 118.944C95.6185 118.944 96.1838 119.077 96.6425 119.344C97.1012 119.611 97.4532 119.941 97.6985 120.336V119.072H100.435V128H97.6985V126.736C97.4532 127.131 97.0958 127.461 96.6265 127.728C96.1678 127.995 95.6025 128.128 94.9305 128.128C94.3865 128.128 93.8745 128.021 93.3945 127.808C92.9252 127.595 92.5092 127.291 92.1465 126.896C91.7945 126.491 91.5172 126.005 91.3145 125.44C91.1118 124.864 91.0105 124.224 91.0105 123.52ZM97.6985 123.536C97.6985 123.184 97.6452 122.869 97.5385 122.592C97.4318 122.315 97.2878 122.085 97.1065 121.904C96.9358 121.712 96.7278 121.568 96.4825 121.472C96.2478 121.376 96.0025 121.328 95.7465 121.328C95.4905 121.328 95.2452 121.376 95.0105 121.472C94.7758 121.568 94.5678 121.707 94.3865 121.888C94.2052 122.069 94.0612 122.299 93.9545 122.576C93.8478 122.853 93.7945 123.168 93.7945 123.52C93.7945 123.872 93.8478 124.187 93.9545 124.464C94.0612 124.741 94.2052 124.976 94.3865 125.168C94.5678 125.36 94.7758 125.504 95.0105 125.6C95.2452 125.696 95.4905 125.744 95.7465 125.744C96.0025 125.744 96.2478 125.696 96.4825 125.6C96.7278 125.504 96.9358 125.365 97.1065 125.184C97.2878 124.992 97.4318 124.757 97.5385 124.48C97.6452 124.203 97.6985 123.888 97.6985 123.536ZM94.6585 115.104L97.4105 116.784L96.5305 118.128L93.7785 116.496L94.6585 115.104ZM108.574 123.152C108.574 122.544 108.419 122.08 108.11 121.76C107.801 121.429 107.385 121.264 106.862 121.264C106.339 121.264 105.923 121.429 105.614 121.76C105.305 122.08 105.15 122.544 105.15 123.152V128H102.414V119.072H105.15V120.256C105.427 119.883 105.795 119.579 106.254 119.344C106.713 119.099 107.246 118.976 107.854 118.976C108.366 118.976 108.835 119.061 109.262 119.232C109.689 119.403 110.051 119.653 110.35 119.984C110.649 120.304 110.878 120.704 111.038 121.184C111.209 121.653 111.294 122.187 111.294 122.784V128H108.574V123.152ZM112.651 123.52C112.651 122.816 112.752 122.181 112.955 121.616C113.158 121.051 113.435 120.571 113.787 120.176C114.15 119.781 114.571 119.477 115.051 119.264C115.531 119.051 116.043 118.944 116.587 118.944C117.248 118.944 117.808 119.077 118.267 119.344C118.736 119.6 119.094 119.931 119.339 120.336V119.072H122.075V127.984C122.075 128.581 121.984 129.147 121.803 129.68C121.632 130.213 121.366 130.683 121.003 131.088C120.64 131.493 120.176 131.813 119.611 132.048C119.046 132.283 118.379 132.4 117.611 132.4C116.95 132.4 116.347 132.32 115.803 132.16C115.259 132 114.79 131.765 114.395 131.456C114 131.157 113.68 130.795 113.435 130.368C113.2 129.941 113.051 129.461 112.987 128.928H115.691C115.776 129.269 115.974 129.536 116.283 129.728C116.603 129.931 117.003 130.032 117.483 130.032C117.739 130.032 117.979 129.995 118.203 129.92C118.438 129.845 118.635 129.728 118.795 129.568C118.966 129.408 119.099 129.195 119.195 128.928C119.291 128.672 119.339 128.357 119.339 127.984V126.72C119.094 127.115 118.736 127.451 118.267 127.728C117.808 127.995 117.248 128.128 116.587 128.128C116.043 128.128 115.531 128.021 115.051 127.808C114.571 127.595 114.15 127.291 113.787 126.896C113.435 126.491 113.158 126.005 112.955 125.44C112.752 124.864 112.651 124.224 112.651 123.52ZM119.339 123.536C119.339 123.184 119.286 122.869 119.179 122.592C119.072 122.315 118.928 122.085 118.747 121.904C118.576 121.712 118.368 121.568 118.123 121.472C117.888 121.376 117.643 121.328 117.387 121.328C117.131 121.328 116.886 121.376 116.651 121.472C116.416 121.568 116.208 121.707 116.027 121.888C115.846 122.069 115.702 122.299 115.595 122.576C115.488 122.853 115.435 123.168 115.435 123.52C115.435 123.872 115.488 124.187 115.595 124.464C115.702 124.741 115.846 124.976 116.027 125.168C116.208 125.36 116.416 125.504 116.651 125.6C116.886 125.696 117.131 125.744 117.387 125.744C117.643 125.744 117.888 125.696 118.123 125.6C118.368 125.504 118.576 125.365 118.747 125.184C118.928 124.992 119.072 124.757 119.179 124.48C119.286 124.203 119.339 123.888 119.339 123.536Z" fill="#115264"/>
<defs>
<radialGradient id="paint0_diamond_188_4431" cx="0" cy="0" r="1" gradientUnits="userSpaceOnUse" gradientTransform="translate(80.7492 28.6277) rotate(-90) scale(23.6277 39.3989)">
<stop offset="0.675571" stop-color="#52DFE2"/>
<stop offset="1" stop-color="#68FAFD"/>
</radialGradient>
</defs>
</svg>
