<svg width="81" height="80" viewBox="0 0 81 80" fill="none" xmlns="http://www.w3.org/2000/svg">
<path d="M31.8057 51.5451C36.1948 53.8484 38.3893 55 40.75 55V30L17.345 17.6816C17.3106 17.737 17.2767 17.7929 17.2435 17.8494C15.75 20.3857 15.75 23.5417 15.75 29.8538V30.1463C15.75 36.4584 15.75 39.6144 17.2435 42.1507C18.737 44.687 21.4266 46.0984 26.8057 48.9212L31.8057 51.5451Z" fill="#08B0B8"/>
<path d="M54.6935 11.0788L49.6935 8.45492C45.3044 6.15164 43.1099 5 40.7492 5C38.3885 5 36.194 6.15164 31.8049 8.45491L26.8049 11.0788C21.5455 13.8388 18.8573 15.2495 17.3442 17.6816L40.7492 30L64.1542 17.6816C62.6411 15.2495 59.9529 13.8388 54.6935 11.0788Z" fill="url(#paint0_diamond_188_4432)"/>
<path d="M64.2565 17.8494C64.2233 17.7929 64.1894 17.737 64.155 17.6816L40.75 30V55C43.1107 55 45.3052 53.8484 49.6943 51.5451L54.6943 48.9212C60.0734 46.0984 62.763 44.687 64.2565 42.1507C65.75 39.6144 65.75 36.4584 65.75 30.1463V29.8538C65.75 23.5417 65.75 20.3857 64.2565 17.8494Z" fill="#4CD2D5"/>
<path d="M25.75 11.7099C25.7881 11.7347 25.8273 11.7582 25.8676 11.7805L50.5498 25.4017V33.0448C50.5498 34.0804 51.3892 34.9198 52.4248 34.9198C53.4603 34.9198 54.2998 34.0804 54.2998 33.0448V23.188L29.723 9.625L25.9797 11.5894C25.9026 11.6299 25.826 11.67 25.75 11.7099Z" fill="#115264"/>
<path d="M26.5752 11.1992C26.6132 11.2239 26.6525 11.2475 26.6928 11.2698L51.375 24.8909V32.5341C51.375 33.5696 52.2144 34.4091 53.25 34.4091C54.2855 34.4091 55.125 33.5696 55.125 32.5341V22.6773L30.5482 9.11426L26.8049 11.0786C26.7278 11.1191 26.6512 11.1593 26.5752 11.1992Z" fill="white"/>
<ellipse opacity="0.2" cx="40.75" cy="71.25" rx="22.5" ry="3.75" fill="#1D2723"/>
<defs>
<radialGradient id="paint0_diamond_188_4432" cx="0" cy="0" r="1" gradientUnits="userSpaceOnUse" gradientTransform="translate(40.7492 28.6277) rotate(-90) scale(23.6277 39.3989)">
<stop offset="0.675571" stop-color="#52DFE2"/>
<stop offset="1" stop-color="#68FAFD"/>
</radialGradient>
</defs>
</svg>
