<svg width="81" height="80" viewBox="0 0 81 80" fill="none" xmlns="http://www.w3.org/2000/svg">
<path d="M40.8277 30C40.8504 29.9651 40.872 29.9292 40.8924 29.8922L53.3784 7.2669L60.3847 7.2669C61.3339 7.2669 62.1034 6.49739 62.1034 5.54815C62.1034 4.59891 61.3339 3.8294 60.3847 3.8294L51.3493 3.8294L38.9165 26.3581L40.7172 29.7894C40.7543 29.8601 40.7911 29.9303 40.8277 30Z" fill="#115264"/>
<path d="M40.0992 28.6709C40.1219 28.636 40.1434 28.6001 40.1639 28.5631L52.6499 5.9378L59.6561 5.93779C60.6054 5.93779 61.3749 5.16828 61.3749 4.21904C61.3749 3.26981 60.6054 2.5003 59.6561 2.5003L50.6207 2.5003L38.188 25.029L39.9887 28.4603C40.0258 28.531 40.0626 28.6012 40.0992 28.6709Z" fill="white"/>
<path d="M43.2701 13.7969H55.2647C59.1804 13.7969 61.1383 13.7969 62.6782 14.7436C62.9439 14.9069 63.1972 15.0895 63.4363 15.2898C64.8217 16.4508 65.4414 18.308 66.6808 22.0222L66.7572 22.2511C67.4364 24.2864 67.7759 25.3041 67.4172 26.0736C67.304 26.3164 67.146 26.5357 66.9514 26.7199C66.3351 27.3038 65.2623 27.3038 63.1166 27.3038L62.2085 33.5054H36.326L35.4181 27.3038C33.2725 27.3038 32.1997 27.3038 31.5834 26.7199C31.3889 26.5357 31.2309 26.3164 31.1177 26.0736C30.7589 25.3041 31.0985 24.2864 31.7777 22.2511L31.854 22.0224C33.0934 18.308 33.7131 16.4509 35.0986 15.2898C35.3376 15.0895 35.591 14.9069 35.8567 14.7436C37.3966 13.7969 39.3544 13.7969 43.2701 13.7969Z" fill="#115264"/>
<path d="M51.4895 56.4098H47.0451C43.5323 56.4098 41.776 56.4098 40.5758 55.3725C39.3757 54.3353 39.1212 52.5975 38.6124 49.1218L38.3536 47.3546H60.1809L59.9222 49.1218C59.4133 52.5975 59.1589 54.3353 57.9588 55.3725C56.7586 56.4098 55.0023 56.4098 51.4895 56.4098Z" fill="#115264"/>
<path d="M43.2701 11.667H55.2647C59.1804 11.667 61.1383 11.667 62.6782 12.6137C62.9439 12.777 63.1972 12.9596 63.4363 13.1599C64.8217 14.321 65.4414 16.1781 66.6808 19.8924L66.7572 20.1212C67.4364 22.1565 67.7759 23.1742 67.4172 23.9437C67.304 24.1865 67.146 24.4058 66.9514 24.5901C66.3351 25.1739 65.2623 25.1739 63.1166 25.1739L62.2085 31.3755H36.326L35.4181 25.1739C33.2725 25.1739 32.1997 25.1739 31.5834 24.5901C31.3889 24.4058 31.2309 24.1865 31.1177 23.9437C30.7589 23.1742 31.0985 22.1565 31.7777 20.1212L31.854 19.8925C33.0934 16.1781 33.7131 14.321 35.0986 13.1599C35.3376 12.9596 35.591 12.777 35.8567 12.6137C37.3966 11.667 39.3544 11.667 43.2701 11.667Z" fill="url(#paint0_radial_188_4439)"/>
<path d="M51.4895 54.2799H47.0451C43.5323 54.2799 41.776 54.2799 40.5758 53.2427C39.3757 52.2054 39.1212 50.4676 38.6124 46.9919L38.3536 45.2247H60.1809L59.9222 46.9919C59.4133 50.4676 59.1589 52.2054 57.9588 53.2427C56.7586 54.2799 55.0023 54.2799 51.4895 54.2799Z" fill="url(#paint1_radial_188_4439)"/>
<path d="M60.6488 44.1594H37.8857L36.7939 36.7021H61.7406L60.6488 44.1594Z" fill="#115264"/>
<path d="M60.6488 42.0285H37.8857L36.7939 34.5713H61.7406L60.6488 42.0285Z" fill="#E1F9FA"/>
<mask id="mask0_188_4439" style="mask-type:alpha" maskUnits="userSpaceOnUse" x="13" y="18" width="27" height="40">
<path fill-rule="evenodd" clip-rule="evenodd" d="M36.5711 52.9483L32.2478 29.3035L27.2168 29.3035C26.5213 29.3035 26.0383 28.6112 26.2782 27.9585L28.5764 21.7056H39.1539V54.5886H38.5385C37.5727 54.5886 36.7449 53.8984 36.5711 52.9483ZM39.1539 21.7056H39.167V57.5001H13.9375V21.7056H28.5764L29.9301 18.0225H39.1539V21.7056Z" fill="#D9D9D9"/>
</mask>
<g mask="url(#mask0_188_4439)">
<path d="M42.9662 44.8719C43.796 44.0442 44.3156 43.5576 45.449 43.5576C46.4488 43.5576 47.3571 43.9571 48.1117 44.4786C46.3649 51.9094 39.6931 57.4413 31.7292 57.4413C24.1019 57.4413 17.6597 52.3671 15.5942 45.4102C16.9829 46.1721 18.7725 46.9234 20.5075 46.9234C21.8768 46.9234 23.2586 46.4577 24.4207 45.9174C25.3164 45.501 26.1416 45.0115 26.814 44.571C27.9708 46.0056 29.7428 46.9234 31.7292 46.9234C32.9943 46.9234 34.1724 46.5511 35.1601 45.9102C36.1258 46.4765 37.3229 46.9234 38.7006 46.9234C40.9106 46.9234 42.0766 45.7597 42.9306 44.9074L42.9662 44.8719Z" fill="#B57337"/>
<path d="M27.1865 38.4808C27.1865 36.3896 28.8818 34.6943 30.973 34.6943C33.0642 34.6943 34.7594 36.3896 34.7594 38.4808C34.7594 40.572 33.0642 42.2673 30.973 42.2673C28.8818 42.2673 27.1865 40.572 27.1865 38.4808Z" fill="#1DAFB3"/>
<path fill-rule="evenodd" clip-rule="evenodd" d="M30.9728 32.1703C27.4874 32.1703 24.662 34.9957 24.662 38.4811C24.662 39.0704 24.7428 39.6408 24.8939 40.182C24.2566 40.6114 23.4555 41.0991 22.6 41.4969C21.5836 41.9695 20.5905 42.2675 19.751 42.2675C18.4723 42.2675 16.9002 41.5831 15.5224 40.7625C15.0177 40.4618 14.5673 40.1602 14.2032 39.902C14.164 39.4335 14.144 38.9596 14.144 38.4811C14.144 33.4292 16.37 28.8973 19.8947 25.8126C19.9221 25.8464 19.9516 25.8791 19.9831 25.9106L21.6659 27.5934C22.1588 28.0863 22.958 28.0863 23.4509 27.5934C23.9438 27.1005 23.9438 26.3014 23.4509 25.8085L21.9289 24.2865C24.5409 22.6188 27.644 21.6523 30.9728 21.6523C36.0246 21.6523 40.5566 23.8783 43.6412 27.403C43.6074 27.4304 43.5747 27.4599 43.5433 27.4914L41.8604 29.1742C41.3675 29.6671 41.3675 30.4663 41.8604 30.9592C42.3533 31.4521 43.1525 31.4521 43.6454 30.9592L45.1673 29.4372C46.835 32.0492 47.8015 35.1523 47.8015 38.4811C47.8015 38.8767 47.7878 39.2691 47.761 39.6579C46.8806 39.2155 45.8493 38.9018 44.6926 38.9018C42.4825 38.9018 41.3166 40.0654 40.4625 40.9178L40.427 40.9532C39.5972 41.781 39.0776 42.2675 37.9442 42.2675C37.3545 42.2675 36.7949 42.1295 36.2752 41.9045C36.9132 40.9184 37.2835 39.743 37.2835 38.4811C37.2835 34.9957 34.4581 32.1703 30.9728 32.1703ZM38.4616 25.6912C39.0192 26.1095 39.1322 26.9006 38.714 27.4583L36.1897 30.824C35.7714 31.3817 34.9803 31.4947 34.4227 31.0764C33.865 30.6582 33.752 29.8671 34.1702 29.3094L36.6945 25.9437C37.1128 25.386 37.9039 25.273 38.4616 25.6912ZM28.3974 24.1256C27.9045 24.6185 27.9045 25.4177 28.3974 25.9106L30.0803 27.5934C30.5732 28.0863 31.3723 28.0863 31.8652 27.5934C32.3582 27.1005 32.3582 26.3014 31.8652 25.8085L30.1824 24.1256C29.6895 23.6327 28.8903 23.6327 28.3974 24.1256ZM24.9305 31.0094C25.1109 31.6827 25.803 32.0822 26.4763 31.9018L28.7751 31.2859C29.4484 31.1054 29.848 30.4134 29.6676 29.74C29.4872 29.0667 28.7951 28.6671 28.1218 28.8476L25.8229 29.4635C25.1496 29.6439 24.7501 30.336 24.9305 31.0094ZM38.9689 37.031C39.6652 36.9983 40.2031 36.4073 40.1704 35.711L40.0586 33.3337C40.0259 32.6374 39.4349 32.0994 38.7386 32.1321C38.0423 32.1649 37.5044 32.7559 37.5371 33.4522L37.6488 35.8295C37.6816 36.5258 38.2726 37.0637 38.9689 37.031ZM42.6541 37.7304C43.1148 38.2535 43.9123 38.3041 44.4355 37.8434L46.4105 36.2056C46.9336 35.7449 46.9842 34.9474 46.5235 34.4242C46.0628 33.9011 45.2652 33.8505 44.7421 34.3112L42.7671 35.949C42.244 36.4097 42.1934 37.2072 42.6541 37.7304ZM20.702 30.3589C20.0674 30.6474 19.7868 31.3957 20.0752 32.0302L21.0601 34.1968C21.3486 34.8314 22.0968 35.112 22.7314 34.8236C23.366 34.5351 23.6466 33.7868 23.3581 33.1522L22.3733 30.9856C22.0848 30.3511 21.3365 30.0705 20.702 30.3589ZM22.4626 36.6214C23.0251 37.0331 23.1474 37.8228 22.7357 38.3853L21.3301 40.3059C20.9184 40.8684 20.1287 40.9906 19.5662 40.579C19.0037 40.1673 18.8814 39.3775 19.2931 38.815L20.6987 36.8945C21.1104 36.332 21.9001 36.2097 22.4626 36.6214ZM16.7733 32.0674C16.0773 32.1061 15.5445 32.7018 15.5833 33.3978L15.7156 35.774C15.7544 36.47 16.3501 37.0028 17.046 36.964C17.742 36.9253 18.2748 36.3296 18.236 35.6336L18.1037 33.2574C18.0649 32.5614 17.4693 32.0286 16.7733 32.0674Z" fill="#4CD2D5"/>
<path d="M42.2098 42.7401C43.0396 41.9123 43.5593 41.4258 44.6926 41.4258C45.6925 41.4258 46.6008 41.8253 47.3554 42.3468C45.6085 49.7776 38.9367 55.3095 30.9729 55.3095C23.3455 55.3095 16.9034 50.2353 14.8379 43.2784C16.2266 44.0403 18.0162 44.7915 19.7511 44.7915C21.1204 44.7915 22.5022 44.3259 23.6644 43.7856C24.56 43.3691 25.3853 42.8797 26.0576 42.4392C27.2144 43.8738 28.9865 44.7915 30.9729 44.7915C32.2379 44.7915 33.4161 44.4193 34.4037 43.7783C35.3695 44.3447 36.5666 44.7915 37.9442 44.7915C40.1543 44.7915 41.3202 43.6279 42.1743 42.7755L42.2098 42.7401Z" fill="#EDAC70"/>
</g>
<ellipse opacity="0.2" cx="40.75" cy="71.25" rx="22.5" ry="3.75" fill="#1D2723"/>
<defs>
<radialGradient id="paint0_radial_188_4439" cx="0" cy="0" r="1" gradientUnits="userSpaceOnUse" gradientTransform="translate(49.2674 51.9407) rotate(-90) scale(40.2737 30.7966)">
<stop offset="0.741078" stop-color="#4CD2D5"/>
<stop offset="1" stop-color="#5CF0F3"/>
</radialGradient>
<radialGradient id="paint1_radial_188_4439" cx="0" cy="0" r="1" gradientUnits="userSpaceOnUse" gradientTransform="translate(49.2674 51.9407) rotate(-90) scale(40.2737 30.7966)">
<stop offset="0.741078" stop-color="#4CD2D5"/>
<stop offset="1" stop-color="#5CF0F3"/>
</radialGradient>
</defs>
</svg>
