<svg width="162" height="134" viewBox="0 0 162 134" fill="none" xmlns="http://www.w3.org/2000/svg">
<path d="M80.8277 30C80.8504 29.9651 80.872 29.9292 80.8924 29.8922L93.3784 7.2669L100.385 7.2669C101.334 7.2669 102.103 6.49739 102.103 5.54815C102.103 4.59891 101.334 3.8294 100.385 3.8294L91.3493 3.8294L78.9165 26.3581L80.7172 29.7894C80.7543 29.8601 80.7911 29.9303 80.8277 30Z" fill="#115264"/>
<path d="M80.0992 28.6709C80.1219 28.636 80.1434 28.6001 80.1639 28.5631L92.6499 5.9378L99.6561 5.93779C100.605 5.93779 101.375 5.16828 101.375 4.21904C101.375 3.26981 100.605 2.5003 99.6561 2.5003L90.6207 2.5003L78.188 25.029L79.9887 28.4603C80.0258 28.531 80.0626 28.6012 80.0992 28.6709Z" fill="white"/>
<path d="M83.2701 13.7969H95.2647C99.1804 13.7969 101.138 13.7969 102.678 14.7436C102.944 14.9069 103.197 15.0895 103.436 15.2898C104.822 16.4508 105.441 18.308 106.681 22.0222L106.757 22.2511C107.436 24.2864 107.776 25.3041 107.417 26.0736C107.304 26.3164 107.146 26.5357 106.951 26.7199C106.335 27.3038 105.262 27.3038 103.117 27.3038L102.209 33.5054H76.326L75.4181 27.3038C73.2725 27.3038 72.1997 27.3038 71.5834 26.7199C71.3889 26.5357 71.2309 26.3164 71.1177 26.0736C70.7589 25.3041 71.0985 24.2864 71.7777 22.2511L71.854 22.0224C73.0934 18.308 73.7131 16.4509 75.0986 15.2898C75.3376 15.0895 75.591 14.9069 75.8567 14.7436C77.3966 13.7969 79.3544 13.7969 83.2701 13.7969Z" fill="#115264"/>
<path d="M91.4895 56.4098H87.0451C83.5323 56.4098 81.776 56.4098 80.5758 55.3725C79.3757 54.3353 79.1212 52.5975 78.6124 49.1218L78.3536 47.3546H100.181L99.9222 49.1218C99.4133 52.5975 99.1589 54.3353 97.9588 55.3725C96.7586 56.4098 95.0023 56.4098 91.4895 56.4098Z" fill="#115264"/>
<path d="M83.2701 11.667H95.2647C99.1804 11.667 101.138 11.667 102.678 12.6137C102.944 12.777 103.197 12.9596 103.436 13.1599C104.822 14.321 105.441 16.1781 106.681 19.8924L106.757 20.1212C107.436 22.1565 107.776 23.1742 107.417 23.9437C107.304 24.1865 107.146 24.4058 106.951 24.5901C106.335 25.1739 105.262 25.1739 103.117 25.1739L102.209 31.3755H76.326L75.4181 25.1739C73.2725 25.1739 72.1997 25.1739 71.5834 24.5901C71.3889 24.4058 71.2309 24.1865 71.1177 23.9437C70.7589 23.1742 71.0985 22.1565 71.7777 20.1212L71.854 19.8925C73.0934 16.1781 73.7131 14.321 75.0986 13.1599C75.3376 12.9596 75.591 12.777 75.8567 12.6137C77.3966 11.667 79.3544 11.667 83.2701 11.667Z" fill="url(#paint0_radial_188_4438)"/>
<path d="M91.4895 54.2799H87.0451C83.5323 54.2799 81.776 54.2799 80.5758 53.2427C79.3757 52.2054 79.1212 50.4676 78.6124 46.9919L78.3536 45.2247H100.181L99.9222 46.9919C99.4133 50.4676 99.1589 52.2054 97.9588 53.2427C96.7586 54.2799 95.0023 54.2799 91.4895 54.2799Z" fill="url(#paint1_radial_188_4438)"/>
<path d="M100.649 44.1594H77.8857L76.7939 36.7021H101.741L100.649 44.1594Z" fill="#115264"/>
<path d="M100.649 42.0285H77.8857L76.7939 34.5713H101.741L100.649 42.0285Z" fill="#E1F9FA"/>
<mask id="mask0_188_4438" style="mask-type:alpha" maskUnits="userSpaceOnUse" x="53" y="18" width="27" height="40">
<path fill-rule="evenodd" clip-rule="evenodd" d="M76.5711 52.9483L72.2478 29.3035L67.2168 29.3035C66.5213 29.3035 66.0383 28.6112 66.2782 27.9585L68.5764 21.7056H79.1539V54.5886H78.5385C77.5727 54.5886 76.7449 53.8984 76.5711 52.9483ZM79.1539 21.7056H79.167V57.5001H53.9375V21.7056H68.5764L69.9301 18.0225H79.1539V21.7056Z" fill="#D9D9D9"/>
</mask>
<g mask="url(#mask0_188_4438)">
<path d="M82.9662 44.8719C83.796 44.0442 84.3156 43.5576 85.449 43.5576C86.4488 43.5576 87.3571 43.9571 88.1117 44.4786C86.3649 51.9094 79.6931 57.4413 71.7292 57.4413C64.1019 57.4413 57.6597 52.3671 55.5942 45.4102C56.9829 46.1721 58.7725 46.9234 60.5075 46.9234C61.8768 46.9234 63.2586 46.4577 64.4207 45.9174C65.3164 45.501 66.1416 45.0115 66.814 44.571C67.9708 46.0056 69.7428 46.9234 71.7292 46.9234C72.9943 46.9234 74.1724 46.5511 75.1601 45.9102C76.1258 46.4765 77.3229 46.9234 78.7006 46.9234C80.9106 46.9234 82.0766 45.7597 82.9306 44.9074L82.9662 44.8719Z" fill="#B57337"/>
<path d="M67.1865 38.4808C67.1865 36.3896 68.8818 34.6943 70.973 34.6943C73.0642 34.6943 74.7594 36.3896 74.7594 38.4808C74.7594 40.572 73.0642 42.2673 70.973 42.2673C68.8818 42.2673 67.1865 40.572 67.1865 38.4808Z" fill="#1DAFB3"/>
<path fill-rule="evenodd" clip-rule="evenodd" d="M70.9728 32.1703C67.4874 32.1703 64.662 34.9957 64.662 38.4811C64.662 39.0704 64.7428 39.6408 64.8939 40.182C64.2566 40.6114 63.4555 41.0991 62.6 41.4969C61.5836 41.9695 60.5905 42.2675 59.751 42.2675C58.4723 42.2675 56.9002 41.5831 55.5224 40.7625C55.0177 40.4618 54.5673 40.1602 54.2032 39.902C54.164 39.4335 54.144 38.9596 54.144 38.4811C54.144 33.4292 56.37 28.8973 59.8947 25.8126C59.9221 25.8464 59.9516 25.8791 59.9831 25.9106L61.6659 27.5934C62.1588 28.0863 62.958 28.0863 63.4509 27.5934C63.9438 27.1005 63.9438 26.3014 63.4509 25.8085L61.9289 24.2865C64.5409 22.6188 67.644 21.6523 70.9728 21.6523C76.0246 21.6523 80.5566 23.8783 83.6412 27.403C83.6074 27.4304 83.5747 27.4599 83.5433 27.4914L81.8604 29.1742C81.3675 29.6671 81.3675 30.4663 81.8604 30.9592C82.3533 31.4521 83.1525 31.4521 83.6454 30.9592L85.1673 29.4372C86.835 32.0492 87.8015 35.1523 87.8015 38.4811C87.8015 38.8767 87.7878 39.2691 87.761 39.6579C86.8806 39.2155 85.8493 38.9018 84.6926 38.9018C82.4825 38.9018 81.3166 40.0654 80.4625 40.9178L80.427 40.9532C79.5972 41.781 79.0776 42.2675 77.9442 42.2675C77.3545 42.2675 76.7949 42.1295 76.2752 41.9045C76.9132 40.9184 77.2835 39.743 77.2835 38.4811C77.2835 34.9957 74.4581 32.1703 70.9728 32.1703ZM78.4616 25.6912C79.0192 26.1095 79.1322 26.9006 78.714 27.4583L76.1897 30.824C75.7714 31.3817 74.9803 31.4947 74.4227 31.0764C73.865 30.6582 73.752 29.8671 74.1702 29.3094L76.6945 25.9437C77.1128 25.386 77.9039 25.273 78.4616 25.6912ZM68.3974 24.1256C67.9045 24.6185 67.9045 25.4177 68.3974 25.9106L70.0803 27.5934C70.5732 28.0863 71.3723 28.0863 71.8652 27.5934C72.3582 27.1005 72.3582 26.3014 71.8652 25.8085L70.1824 24.1256C69.6895 23.6327 68.8903 23.6327 68.3974 24.1256ZM64.9305 31.0094C65.1109 31.6827 65.803 32.0822 66.4763 31.9018L68.7751 31.2859C69.4484 31.1054 69.848 30.4134 69.6676 29.74C69.4872 29.0667 68.7951 28.6671 68.1218 28.8476L65.8229 29.4635C65.1496 29.6439 64.7501 30.336 64.9305 31.0094ZM78.9689 37.031C79.6652 36.9983 80.2031 36.4073 80.1704 35.711L80.0586 33.3337C80.0259 32.6374 79.4349 32.0994 78.7386 32.1321C78.0423 32.1649 77.5044 32.7559 77.5371 33.4522L77.6488 35.8295C77.6816 36.5258 78.2726 37.0637 78.9689 37.031ZM82.6541 37.7304C83.1148 38.2535 83.9123 38.3041 84.4355 37.8434L86.4105 36.2056C86.9336 35.7449 86.9842 34.9474 86.5235 34.4242C86.0628 33.9011 85.2652 33.8505 84.7421 34.3112L82.7671 35.949C82.244 36.4097 82.1934 37.2072 82.6541 37.7304ZM60.702 30.3589C60.0674 30.6474 59.7868 31.3957 60.0752 32.0302L61.0601 34.1968C61.3486 34.8314 62.0968 35.112 62.7314 34.8236C63.366 34.5351 63.6466 33.7868 63.3581 33.1522L62.3733 30.9856C62.0848 30.3511 61.3365 30.0705 60.702 30.3589ZM62.4626 36.6214C63.0251 37.0331 63.1474 37.8228 62.7357 38.3853L61.3301 40.3059C60.9184 40.8684 60.1287 40.9906 59.5662 40.579C59.0037 40.1673 58.8814 39.3775 59.2931 38.815L60.6987 36.8945C61.1104 36.332 61.9001 36.2097 62.4626 36.6214ZM56.7733 32.0674C56.0773 32.1061 55.5445 32.7018 55.5833 33.3978L55.7156 35.774C55.7544 36.47 56.3501 37.0028 57.046 36.964C57.742 36.9253 58.2748 36.3296 58.236 35.6336L58.1037 33.2574C58.0649 32.5614 57.4693 32.0286 56.7733 32.0674Z" fill="#4CD2D5"/>
<path d="M82.2098 42.7401C83.0396 41.9123 83.5593 41.4258 84.6926 41.4258C85.6925 41.4258 86.6008 41.8253 87.3554 42.3468C85.6085 49.7776 78.9367 55.3095 70.9729 55.3095C63.3455 55.3095 56.9034 50.2353 54.8379 43.2784C56.2266 44.0403 58.0162 44.7915 59.7511 44.7915C61.1204 44.7915 62.5022 44.3259 63.6644 43.7856C64.56 43.3691 65.3853 42.8797 66.0576 42.4392C67.2144 43.8738 68.9865 44.7915 70.9729 44.7915C72.2379 44.7915 73.4161 44.4193 74.4037 43.7783C75.3695 44.3447 76.5666 44.7915 77.9442 44.7915C80.1543 44.7915 81.3202 43.6279 82.1743 42.7755L82.2098 42.7401Z" fill="#EDAC70"/>
</g>
<ellipse opacity="0.2" cx="80.75" cy="71.25" rx="22.5" ry="3.75" fill="#1D2723"/>
<path d="M39.7199 95.768H48.4079V97.96H45.4319V107H42.6959V97.96H39.7199V95.768ZM49.9891 98.072H52.7251V107H49.9891V98.072ZM53.4131 95.496L50.6611 97.128L49.7811 95.784L52.5331 94.104L53.4131 95.496ZM61.0817 102.152C61.0817 101.544 60.927 101.08 60.6177 100.76C60.3084 100.429 59.8924 100.264 59.3697 100.264C58.847 100.264 58.431 100.429 58.1217 100.76C57.8124 101.08 57.6577 101.544 57.6577 102.152V107H54.9217V98.072H57.6577V99.256C57.935 98.8827 58.303 98.5787 58.7617 98.344C59.2204 98.0987 59.7537 97.976 60.3617 97.976C60.8737 97.976 61.343 98.0613 61.7697 98.232C62.1964 98.4027 62.559 98.6533 62.8577 98.984C63.1564 99.304 63.3857 99.704 63.5457 100.184C63.7164 100.653 63.8017 101.187 63.8017 101.784V107H61.0817V102.152ZM65.7029 95.16H68.4389V99.272C68.7163 98.888 69.0896 98.5787 69.5589 98.344C70.0283 98.0987 70.5723 97.976 71.1909 97.976C71.7029 97.976 72.1669 98.0613 72.5829 98.232C72.9989 98.4027 73.3509 98.6533 73.6389 98.984C73.9376 99.304 74.1669 99.704 74.3269 100.184C74.4976 100.653 74.5829 101.187 74.5829 101.784V107H71.8629V102.152C71.8629 101.544 71.7083 101.08 71.3989 100.76C71.0896 100.429 70.6736 100.264 70.1509 100.264C69.6283 100.264 69.2123 100.429 68.9029 100.76C68.5936 101.08 68.4389 101.544 68.4389 102.152V107H65.7029V95.16ZM86.0348 102.152C86.0348 101.544 85.8801 101.08 85.5708 100.76C85.2615 100.429 84.8455 100.264 84.3228 100.264C83.8001 100.264 83.3841 100.429 83.0748 100.76C82.7655 101.08 82.6108 101.544 82.6108 102.152V107H79.8748V98.072H82.6108V99.256C82.8881 98.8827 83.2561 98.5787 83.7148 98.344C84.1735 98.0987 84.7068 97.976 85.3148 97.976C85.8268 97.976 86.2961 98.0613 86.7228 98.232C87.1495 98.4027 87.5121 98.6533 87.8108 98.984C88.1095 99.304 88.3388 99.704 88.4988 100.184C88.6695 100.653 88.7548 101.187 88.7548 101.784V107H86.0348V102.152ZM90.1121 102.52C90.1121 101.816 90.2134 101.181 90.4161 100.616C90.6187 100.051 90.8961 99.5707 91.2481 99.176C91.6107 98.7813 92.0321 98.4773 92.5121 98.264C92.9921 98.0507 93.5041 97.944 94.0481 97.944C94.7201 97.944 95.2854 98.0773 95.7441 98.344C96.2027 98.6107 96.5547 98.9413 96.8001 99.336V98.072H99.5361V107H96.8001V105.736C96.5547 106.131 96.1974 106.461 95.7281 106.728C95.2694 106.995 94.7041 107.128 94.0321 107.128C93.4881 107.128 92.9761 107.021 92.4961 106.808C92.0267 106.595 91.6107 106.291 91.2481 105.896C90.8961 105.491 90.6187 105.005 90.4161 104.44C90.2134 103.864 90.1121 103.224 90.1121 102.52ZM96.8001 102.536C96.8001 102.184 96.7467 101.869 96.6401 101.592C96.5334 101.315 96.3894 101.085 96.2081 100.904C96.0374 100.712 95.8294 100.568 95.5841 100.472C95.3494 100.376 95.1041 100.328 94.8481 100.328C94.5921 100.328 94.3467 100.376 94.1121 100.472C93.8774 100.568 93.6694 100.707 93.4881 100.888C93.3067 101.069 93.1627 101.299 93.0561 101.576C92.9494 101.853 92.8961 102.168 92.8961 102.52C92.8961 102.872 92.9494 103.187 93.0561 103.464C93.1627 103.741 93.3067 103.976 93.4881 104.168C93.6694 104.36 93.8774 104.504 94.1121 104.6C94.3467 104.696 94.5921 104.744 94.8481 104.744C95.1041 104.744 95.3494 104.696 95.5841 104.6C95.8294 104.504 96.0374 104.365 96.2081 104.184C96.3894 103.992 96.5334 103.757 96.6401 103.48C96.7467 103.203 96.8001 102.888 96.8001 102.536ZM94.3361 95.048C94.3361 95.2933 94.4001 95.4853 94.5281 95.624C94.6561 95.752 94.8747 95.816 95.1841 95.816C95.5041 95.816 95.7281 95.752 95.8561 95.624C95.9841 95.4853 96.0481 95.2933 96.0481 95.048H97.5681C97.5681 95.688 97.3707 96.2107 96.9761 96.616C96.5921 97.0107 95.9947 97.208 95.1841 97.208C94.3841 97.208 93.7867 97.0107 93.3921 96.616C93.0081 96.2107 92.8161 95.688 92.8161 95.048H94.3361ZM107.675 102.152C107.675 101.544 107.521 101.08 107.211 100.76C106.902 100.429 106.486 100.264 105.963 100.264C105.441 100.264 105.025 100.429 104.715 100.76C104.406 101.08 104.251 101.544 104.251 102.152V107H101.515V98.072H104.251V99.256C104.529 98.8827 104.897 98.5787 105.355 98.344C105.814 98.0987 106.347 97.976 106.955 97.976C107.467 97.976 107.937 98.0613 108.363 98.232C108.79 98.4027 109.153 98.6533 109.451 98.984C109.75 99.304 109.979 99.704 110.139 100.184C110.31 100.653 110.395 101.187 110.395 101.784V107H107.675V102.152ZM111.753 102.52C111.753 101.816 111.854 101.181 112.057 100.616C112.259 100.051 112.537 99.5707 112.889 99.176C113.251 98.7813 113.673 98.4773 114.153 98.264C114.633 98.0507 115.145 97.944 115.689 97.944C116.35 97.944 116.91 98.0773 117.369 98.344C117.838 98.6 118.195 98.9307 118.441 99.336V98.072H121.177V106.984C121.177 107.581 121.086 108.147 120.905 108.68C120.734 109.213 120.467 109.683 120.105 110.088C119.742 110.493 119.278 110.813 118.713 111.048C118.147 111.283 117.481 111.4 116.713 111.4C116.051 111.4 115.449 111.32 114.905 111.16C114.361 111 113.891 110.765 113.497 110.456C113.102 110.157 112.782 109.795 112.537 109.368C112.302 108.941 112.153 108.461 112.089 107.928H114.793C114.878 108.269 115.075 108.536 115.385 108.728C115.705 108.931 116.105 109.032 116.585 109.032C116.841 109.032 117.081 108.995 117.305 108.92C117.539 108.845 117.737 108.728 117.897 108.568C118.067 108.408 118.201 108.195 118.297 107.928C118.393 107.672 118.441 107.357 118.441 106.984V105.72C118.195 106.115 117.838 106.451 117.369 106.728C116.91 106.995 116.35 107.128 115.689 107.128C115.145 107.128 114.633 107.021 114.153 106.808C113.673 106.595 113.251 106.291 112.889 105.896C112.537 105.491 112.259 105.005 112.057 104.44C111.854 103.864 111.753 103.224 111.753 102.52ZM118.441 102.536C118.441 102.184 118.387 101.869 118.281 101.592C118.174 101.315 118.03 101.085 117.849 100.904C117.678 100.712 117.47 100.568 117.225 100.472C116.99 100.376 116.745 100.328 116.489 100.328C116.233 100.328 115.987 100.376 115.753 100.472C115.518 100.568 115.31 100.707 115.129 100.888C114.947 101.069 114.803 101.299 114.697 101.576C114.59 101.853 114.537 102.168 114.537 102.52C114.537 102.872 114.59 103.187 114.697 103.464C114.803 103.741 114.947 103.976 115.129 104.168C115.31 104.36 115.518 104.504 115.753 104.6C115.987 104.696 116.233 104.744 116.489 104.744C116.745 104.744 116.99 104.696 117.225 104.6C117.47 104.504 117.678 104.365 117.849 104.184C118.03 103.992 118.174 103.757 118.281 103.48C118.387 103.203 118.441 102.888 118.441 102.536ZM43.1697 116.64C44.5244 116.64 45.6604 116.965 46.5777 117.616C47.495 118.256 48.103 119.157 48.4017 120.32H45.3777C44.951 119.552 44.215 119.168 43.1697 119.168C42.7324 119.168 42.3324 119.243 41.9697 119.392C41.607 119.541 41.2977 119.755 41.0417 120.032C40.7857 120.309 40.5884 120.645 40.4497 121.04C40.311 121.435 40.2417 121.877 40.2417 122.368C40.2417 123.413 40.519 124.224 41.0737 124.8C41.6284 125.376 42.4017 125.664 43.3937 125.664C44.0764 125.664 44.647 125.493 45.1057 125.152C45.5644 124.811 45.9004 124.32 46.1137 123.68H42.6417V121.664H48.5937V124.208C48.4444 124.688 48.2204 125.163 47.9217 125.632C47.623 126.091 47.2444 126.501 46.7857 126.864C46.327 127.227 45.7937 127.52 45.1857 127.744C44.5884 127.968 43.9217 128.08 43.1857 128.08C42.343 128.08 41.5697 127.941 40.8657 127.664C40.1724 127.387 39.5697 126.997 39.0577 126.496C38.5564 125.984 38.1617 125.381 37.8737 124.688C37.5964 123.984 37.4577 123.211 37.4577 122.368C37.4577 121.525 37.5964 120.757 37.8737 120.064C38.151 119.36 38.5404 118.757 39.0417 118.256C39.5537 117.744 40.1564 117.349 40.8497 117.072C41.5537 116.784 42.327 116.64 43.1697 116.64ZM50.1092 119.072H52.8452V128H50.1092V119.072ZM51.4852 118.064C51.0799 118.064 50.7439 117.941 50.4772 117.696C50.2212 117.451 50.0932 117.147 50.0932 116.784C50.0932 116.421 50.2212 116.123 50.4772 115.888C50.7439 115.643 51.0799 115.52 51.4852 115.52C51.9012 115.52 52.2425 115.643 52.5092 115.888C52.7759 116.123 52.9092 116.421 52.9092 116.784C52.9092 117.147 52.7759 117.451 52.5092 117.696C52.2425 117.941 51.9012 118.064 51.4852 118.064ZM54.2839 123.52C54.2839 122.816 54.3853 122.181 54.5879 121.616C54.7906 121.051 55.0679 120.571 55.4199 120.176C55.7826 119.781 56.2039 119.477 56.6839 119.264C57.1639 119.051 57.6759 118.944 58.2199 118.944C58.8919 118.944 59.4573 119.077 59.9159 119.344C60.3746 119.611 60.7266 119.941 60.9719 120.336V119.072H63.7079V128H60.9719V126.736C60.7266 127.131 60.3693 127.461 59.8999 127.728C59.4413 127.995 58.8759 128.128 58.2039 128.128C57.6599 128.128 57.1479 128.021 56.6679 127.808C56.1986 127.595 55.7826 127.291 55.4199 126.896C55.0679 126.491 54.7906 126.005 54.5879 125.44C54.3853 124.864 54.2839 124.224 54.2839 123.52ZM60.9719 123.536C60.9719 123.184 60.9186 122.869 60.8119 122.592C60.7053 122.315 60.5613 122.085 60.3799 121.904C60.2093 121.712 60.0013 121.568 59.7559 121.472C59.5213 121.376 59.2759 121.328 59.0199 121.328C58.7639 121.328 58.5186 121.376 58.2839 121.472C58.0493 121.568 57.8413 121.707 57.6599 121.888C57.4786 122.069 57.3346 122.299 57.2279 122.576C57.1213 122.853 57.0679 123.168 57.0679 123.52C57.0679 123.872 57.1213 124.187 57.2279 124.464C57.3346 124.741 57.4786 124.976 57.6599 125.168C57.8413 125.36 58.0493 125.504 58.2839 125.6C58.5186 125.696 58.7639 125.744 59.0199 125.744C59.2759 125.744 59.5213 125.696 59.7559 125.6C60.0013 125.504 60.2093 125.365 60.3799 125.184C60.5613 124.992 60.7053 124.757 60.8119 124.48C60.9186 124.203 60.9719 123.888 60.9719 123.536ZM74.4233 123.536C74.4233 124.24 74.3006 124.88 74.0553 125.456C73.8206 126.021 73.49 126.501 73.0633 126.896C72.6473 127.291 72.1513 127.595 71.5753 127.808C71.01 128.021 70.402 128.128 69.7513 128.128C69.09 128.128 68.4766 128.021 67.9113 127.808C67.3566 127.595 66.8713 127.291 66.4553 126.896C66.05 126.501 65.73 126.021 65.4953 125.456C65.2606 124.88 65.1433 124.24 65.1433 123.536C65.1433 122.832 65.2606 122.197 65.4953 121.632C65.7406 121.056 66.0713 120.571 66.4873 120.176C66.9033 119.781 67.394 119.477 67.9593 119.264C68.5246 119.051 69.1326 118.944 69.7833 118.944C70.434 118.944 71.042 119.051 71.6073 119.264C72.1726 119.477 72.6633 119.781 73.0793 120.176C73.4953 120.571 73.8206 121.056 74.0553 121.632C74.3006 122.197 74.4233 122.832 74.4233 123.536ZM67.9273 123.536C67.9273 123.909 67.9753 124.24 68.0713 124.528C68.1673 124.805 68.2953 125.035 68.4553 125.216C68.626 125.397 68.8233 125.536 69.0473 125.632C69.2713 125.717 69.506 125.76 69.7513 125.76C69.9966 125.76 70.2313 125.717 70.4553 125.632C70.6793 125.536 70.8766 125.397 71.0473 125.216C71.2286 125.035 71.3726 124.805 71.4793 124.528C71.586 124.24 71.6393 123.909 71.6393 123.536C71.6393 123.152 71.586 122.821 71.4793 122.544C71.3833 122.267 71.2446 122.037 71.0633 121.856C70.8926 121.675 70.6953 121.541 70.4713 121.456C70.2473 121.36 70.018 121.312 69.7833 121.312C69.538 121.312 69.3033 121.36 69.0793 121.456C68.8553 121.541 68.658 121.675 68.4873 121.856C68.3166 122.037 68.178 122.267 68.0713 122.544C67.9753 122.821 67.9273 123.152 67.9273 123.536ZM78.7214 123.52C78.7214 122.816 78.8228 122.181 79.0254 121.616C79.2281 121.051 79.5054 120.571 79.8574 120.176C80.2201 119.781 80.6414 119.477 81.1214 119.264C81.6014 119.051 82.1134 118.944 82.6574 118.944C83.2548 118.944 83.7934 119.072 84.2734 119.328C84.7534 119.573 85.1321 119.899 85.4094 120.304V118.464H83.3294V116.864H85.4094V116.16H88.1454V116.864H88.9774V118.464H88.1454V128H85.4094V126.72C85.1641 127.125 84.8068 127.461 84.3374 127.728C83.8788 127.995 83.3188 128.128 82.6574 128.128C82.1134 128.128 81.6014 128.021 81.1214 127.808C80.6414 127.595 80.2201 127.291 79.8574 126.896C79.5054 126.491 79.2281 126.005 79.0254 125.44C78.8228 124.864 78.7214 124.224 78.7214 123.52ZM85.4094 123.536C85.4094 123.184 85.3561 122.869 85.2494 122.592C85.1428 122.315 84.9988 122.085 84.8174 121.904C84.6468 121.712 84.4388 121.568 84.1934 121.472C83.9588 121.376 83.7134 121.328 83.4574 121.328C83.2014 121.328 82.9561 121.376 82.7214 121.472C82.4868 121.568 82.2788 121.707 82.0974 121.888C81.9161 122.069 81.7721 122.299 81.6654 122.576C81.5588 122.853 81.5054 123.168 81.5054 123.52C81.5054 123.872 81.5588 124.187 81.6654 124.464C81.7721 124.741 81.9161 124.976 82.0974 125.168C82.2788 125.36 82.4868 125.504 82.7214 125.6C82.9561 125.696 83.2014 125.744 83.4574 125.744C83.7134 125.744 83.9588 125.696 84.1934 125.6C84.4388 125.504 84.6468 125.365 84.8174 125.184C84.9988 124.992 85.1428 124.757 85.2494 124.48C85.3561 124.203 85.4094 123.888 85.4094 123.536ZM96.0556 113.616L97.7036 115.52L96.6156 116.352L94.8076 114.672L96.0556 113.616ZM99.0796 123.536C99.0796 124.24 98.9569 124.88 98.7116 125.456C98.4769 126.021 98.1462 126.501 97.7196 126.896C97.3036 127.291 96.8076 127.595 96.2316 127.808C95.6662 128.021 95.0582 128.128 94.4076 128.128C93.7462 128.128 93.1329 128.021 92.5676 127.808C92.0129 127.595 91.5276 127.291 91.1116 126.896C90.7062 126.501 90.3862 126.021 90.1516 125.456C89.9169 124.88 89.7996 124.24 89.7996 123.536C89.7996 122.832 89.9169 122.197 90.1516 121.632C90.3969 121.056 90.7276 120.571 91.1436 120.176C91.5596 119.781 92.0502 119.477 92.6156 119.264C93.1809 119.051 93.7889 118.944 94.4396 118.944C95.0902 118.944 95.6982 119.051 96.2636 119.264C96.8289 119.477 97.3196 119.781 97.7356 120.176C98.1516 120.571 98.4769 121.056 98.7116 121.632C98.9569 122.197 99.0796 122.832 99.0796 123.536ZM92.5836 123.536C92.5836 123.909 92.6316 124.24 92.7276 124.528C92.8236 124.805 92.9516 125.035 93.1116 125.216C93.2822 125.397 93.4796 125.536 93.7036 125.632C93.9276 125.717 94.1622 125.76 94.4076 125.76C94.6529 125.76 94.8876 125.717 95.1116 125.632C95.3356 125.536 95.5329 125.397 95.7036 125.216C95.8849 125.035 96.0289 124.805 96.1356 124.528C96.2422 124.24 96.2956 123.909 96.2956 123.536C96.2956 123.152 96.2422 122.821 96.1356 122.544C96.0396 122.267 95.9009 122.037 95.7196 121.856C95.5489 121.675 95.3516 121.541 95.1276 121.456C94.9036 121.36 94.6742 121.312 94.4396 121.312C94.1942 121.312 93.9596 121.36 93.7356 121.456C93.5116 121.541 93.3142 121.675 93.1436 121.856C92.9729 122.037 92.8342 122.267 92.7276 122.544C92.6316 122.821 92.5836 123.152 92.5836 123.536ZM96.9196 117.12L96.0716 118.288L94.4396 117.312L92.8076 118.288L91.9596 117.12L94.4396 115.52L96.9196 117.12ZM103.378 123.52C103.378 122.816 103.479 122.181 103.682 121.616C103.884 121.051 104.162 120.571 104.514 120.176C104.876 119.781 105.298 119.477 105.778 119.264C106.258 119.051 106.77 118.944 107.314 118.944C107.986 118.944 108.551 119.077 109.01 119.344C109.468 119.611 109.82 119.941 110.066 120.336V119.072H112.802V128H110.066V126.736C109.82 127.131 109.463 127.461 108.994 127.728C108.535 127.995 107.97 128.128 107.298 128.128C106.754 128.128 106.242 128.021 105.762 127.808C105.292 127.595 104.876 127.291 104.514 126.896C104.162 126.491 103.884 126.005 103.682 125.44C103.479 124.864 103.378 124.224 103.378 123.52ZM110.066 123.536C110.066 123.184 110.012 122.869 109.906 122.592C109.799 122.315 109.655 122.085 109.474 121.904C109.303 121.712 109.095 121.568 108.85 121.472C108.615 121.376 108.37 121.328 108.114 121.328C107.858 121.328 107.612 121.376 107.378 121.472C107.143 121.568 106.935 121.707 106.754 121.888C106.572 122.069 106.428 122.299 106.322 122.576C106.215 122.853 106.162 123.168 106.162 123.52C106.162 123.872 106.215 124.187 106.322 124.464C106.428 124.741 106.572 124.976 106.754 125.168C106.935 125.36 107.143 125.504 107.378 125.6C107.612 125.696 107.858 125.744 108.114 125.744C108.37 125.744 108.615 125.696 108.85 125.6C109.095 125.504 109.303 125.365 109.474 125.184C109.655 124.992 109.799 124.757 109.906 124.48C110.012 124.203 110.066 123.888 110.066 123.536ZM107.602 116.048C107.602 116.293 107.666 116.485 107.794 116.624C107.922 116.752 108.14 116.816 108.45 116.816C108.77 116.816 108.994 116.752 109.122 116.624C109.25 116.485 109.314 116.293 109.314 116.048H110.834C110.834 116.688 110.636 117.211 110.242 117.616C109.858 118.011 109.26 118.208 108.45 118.208C107.65 118.208 107.052 118.011 106.658 117.616C106.274 117.211 106.082 116.688 106.082 116.048H107.602ZM120.941 123.152C120.941 122.544 120.786 122.08 120.477 121.76C120.168 121.429 119.752 121.264 119.229 121.264C118.706 121.264 118.29 121.429 117.981 121.76C117.672 122.08 117.517 122.544 117.517 123.152V128H114.781V119.072H117.517V120.256C117.794 119.883 118.162 119.579 118.621 119.344C119.08 119.099 119.613 118.976 120.221 118.976C120.733 118.976 121.202 119.061 121.629 119.232C122.056 119.403 122.418 119.653 122.717 119.984C123.016 120.304 123.245 120.704 123.405 121.184C123.576 121.653 123.661 122.187 123.661 122.784V128H120.941V123.152Z" fill="#115264"/>
<defs>
<radialGradient id="paint0_radial_188_4438" cx="0" cy="0" r="1" gradientUnits="userSpaceOnUse" gradientTransform="translate(89.2674 51.9407) rotate(-90) scale(40.2737 30.7966)">
<stop offset="0.741078" stop-color="#4CD2D5"/>
<stop offset="1" stop-color="#5CF0F3"/>
</radialGradient>
<radialGradient id="paint1_radial_188_4438" cx="0" cy="0" r="1" gradientUnits="userSpaceOnUse" gradientTransform="translate(89.2674 51.9407) rotate(-90) scale(40.2737 30.7966)">
<stop offset="0.741078" stop-color="#4CD2D5"/>
<stop offset="1" stop-color="#5CF0F3"/>
</radialGradient>
</defs>
</svg>
