<svg width="226" height="134" viewBox="0 0 226 134" fill="none" xmlns="http://www.w3.org/2000/svg">
<path d="M113.078 30C113.1 29.9651 113.122 29.9292 113.142 29.8922L125.628 7.2669L132.635 7.2669C133.584 7.2669 134.353 6.49739 134.353 5.54815C134.353 4.59891 133.584 3.8294 132.635 3.8294L123.599 3.8294L111.167 26.3581L112.967 29.7894C113.004 29.8601 113.041 29.9303 113.078 30Z" fill="#115264"/>
<path d="M112.349 28.6709C112.372 28.636 112.393 28.6001 112.414 28.5631L124.9 5.9378L131.906 5.93779C132.855 5.93779 133.625 5.16828 133.625 4.21904C133.625 3.26981 132.855 2.5003 131.906 2.5003L122.871 2.5003L110.438 25.029L112.239 28.4603C112.276 28.531 112.313 28.6012 112.349 28.6709Z" fill="white"/>
<path d="M115.52 13.7969H127.515C131.43 13.7969 133.388 13.7969 134.928 14.7436C135.194 14.9069 135.447 15.0895 135.686 15.2898C137.072 16.4508 137.691 18.308 138.931 22.0222L139.007 22.2511C139.686 24.2864 140.026 25.3041 139.667 26.0736C139.554 26.3164 139.396 26.5357 139.201 26.7199C138.585 27.3038 137.512 27.3038 135.367 27.3038L134.459 33.5054H108.576L107.668 27.3038C105.523 27.3038 104.45 27.3038 103.833 26.7199C103.639 26.5357 103.481 26.3164 103.368 26.0736C103.009 25.3041 103.348 24.2864 104.028 22.2511L104.104 22.0224C105.343 18.308 105.963 16.4509 107.349 15.2898C107.588 15.0895 107.841 14.9069 108.107 14.7436C109.647 13.7969 111.604 13.7969 115.52 13.7969Z" fill="#115264"/>
<path d="M123.74 56.4098H119.295C115.782 56.4098 114.026 56.4098 112.826 55.3725C111.626 54.3353 111.371 52.5975 110.862 49.1218L110.604 47.3546H132.431L132.172 49.1218C131.663 52.5975 131.409 54.3353 130.209 55.3725C129.009 56.4098 127.252 56.4098 123.74 56.4098Z" fill="#115264"/>
<path d="M115.52 11.667H127.515C131.43 11.667 133.388 11.667 134.928 12.6137C135.194 12.777 135.447 12.9596 135.686 13.1599C137.072 14.321 137.691 16.1781 138.931 19.8924L139.007 20.1212C139.686 22.1565 140.026 23.1742 139.667 23.9437C139.554 24.1865 139.396 24.4058 139.201 24.5901C138.585 25.1739 137.512 25.1739 135.367 25.1739L134.459 31.3755H108.576L107.668 25.1739C105.523 25.1739 104.45 25.1739 103.833 24.5901C103.639 24.4058 103.481 24.1865 103.368 23.9437C103.009 23.1742 103.348 22.1565 104.028 20.1212L104.104 19.8925C105.343 16.1781 105.963 14.321 107.349 13.1599C107.588 12.9596 107.841 12.777 108.107 12.6137C109.647 11.667 111.604 11.667 115.52 11.667Z" fill="url(#paint0_radial_83_1744)"/>
<path d="M123.74 54.2799H119.295C115.782 54.2799 114.026 54.2799 112.826 53.2427C111.626 52.2054 111.371 50.4676 110.862 46.9919L110.604 45.2247H132.431L132.172 46.9919C131.663 50.4676 131.409 52.2054 130.209 53.2427C129.009 54.2799 127.252 54.2799 123.74 54.2799Z" fill="url(#paint1_radial_83_1744)"/>
<path d="M132.899 44.1594H110.136L109.044 36.7021H133.991L132.899 44.1594Z" fill="#115264"/>
<path d="M132.899 42.0285H110.136L109.044 34.5713H133.991L132.899 42.0285Z" fill="#E1F9FA"/>
<mask id="mask0_83_1744" style="mask-type:alpha" maskUnits="userSpaceOnUse" x="86" y="18" width="26" height="40">
<path fill-rule="evenodd" clip-rule="evenodd" d="M108.821 52.9483L104.498 29.3035L99.4668 29.3035C98.7713 29.3035 98.2883 28.6112 98.5282 27.9585L100.826 21.7056H111.404V54.5886H110.789C109.823 54.5886 108.995 53.8984 108.821 52.9483ZM111.404 21.7056H111.417V57.5001H86.1875V21.7056H100.826L102.18 18.0225H111.404V21.7056Z" fill="#D9D9D9"/>
</mask>
<g mask="url(#mask0_83_1744)">
<path d="M115.216 44.8719C116.046 44.0442 116.566 43.5576 117.699 43.5576C118.699 43.5576 119.607 43.9571 120.362 44.4786C118.615 51.9094 111.943 57.4413 103.979 57.4413C96.3519 57.4413 89.9097 52.3671 87.8442 45.4102C89.2329 46.1721 91.0225 46.9234 92.7575 46.9234C94.1268 46.9234 95.5086 46.4577 96.6707 45.9174C97.5664 45.501 98.3916 45.0115 99.064 44.571C100.221 46.0056 101.993 46.9234 103.979 46.9234C105.244 46.9234 106.422 46.5511 107.41 45.9102C108.376 46.4765 109.573 46.9234 110.951 46.9234C113.161 46.9234 114.327 45.7597 115.181 44.9074L115.216 44.8719Z" fill="#B57337"/>
<path d="M99.4365 38.4808C99.4365 36.3896 101.132 34.6943 103.223 34.6943C105.314 34.6943 107.009 36.3896 107.009 38.4808C107.009 40.572 105.314 42.2673 103.223 42.2673C101.132 42.2673 99.4365 40.572 99.4365 38.4808Z" fill="#1DAFB3"/>
<path fill-rule="evenodd" clip-rule="evenodd" d="M103.223 32.1703C99.7374 32.1703 96.912 34.9957 96.912 38.4811C96.912 39.0704 96.9928 39.6408 97.1439 40.182C96.5066 40.6114 95.7055 41.0991 94.85 41.4969C93.8336 41.9695 92.8405 42.2675 92.001 42.2675C90.7223 42.2675 89.1502 41.5831 87.7724 40.7625C87.2677 40.4618 86.8173 40.1602 86.4532 39.902C86.414 39.4335 86.394 38.9596 86.394 38.4811C86.394 33.4292 88.62 28.8973 92.1447 25.8126C92.1721 25.8464 92.2016 25.8791 92.2331 25.9106L93.9159 27.5934C94.4088 28.0863 95.208 28.0863 95.7009 27.5934C96.1938 27.1005 96.1938 26.3014 95.7009 25.8085L94.1789 24.2865C96.7909 22.6188 99.894 21.6523 103.223 21.6523C108.275 21.6523 112.807 23.8783 115.891 27.403C115.857 27.4304 115.825 27.4599 115.793 27.4914L114.11 29.1742C113.617 29.6671 113.617 30.4663 114.11 30.9592C114.603 31.4521 115.402 31.4521 115.895 30.9592L117.417 29.4372C119.085 32.0492 120.051 35.1523 120.051 38.4811C120.051 38.8767 120.038 39.2691 120.011 39.6579C119.131 39.2155 118.099 38.9018 116.943 38.9018C114.733 38.9018 113.567 40.0654 112.713 40.9178L112.677 40.9532C111.847 41.781 111.328 42.2675 110.194 42.2675C109.605 42.2675 109.045 42.1295 108.525 41.9045C109.163 40.9184 109.534 39.743 109.534 38.4811C109.534 34.9957 106.708 32.1703 103.223 32.1703ZM110.712 25.6912C111.269 26.1095 111.382 26.9006 110.964 27.4583L108.44 30.824C108.021 31.3817 107.23 31.4947 106.673 31.0764C106.115 30.6582 106.002 29.8671 106.42 29.3094L108.945 25.9437C109.363 25.386 110.154 25.273 110.712 25.6912ZM100.647 24.1256C100.155 24.6185 100.155 25.4177 100.647 25.9106L102.33 27.5934C102.823 28.0863 103.622 28.0863 104.115 27.5934C104.608 27.1005 104.608 26.3014 104.115 25.8085L102.432 24.1256C101.939 23.6327 101.14 23.6327 100.647 24.1256ZM97.1805 31.0094C97.3609 31.6827 98.053 32.0822 98.7263 31.9018L101.025 31.2859C101.698 31.1054 102.098 30.4134 101.918 29.74C101.737 29.0667 101.045 28.6671 100.372 28.8476L98.0729 29.4635C97.3996 29.6439 97.0001 30.336 97.1805 31.0094ZM111.219 37.031C111.915 36.9983 112.453 36.4073 112.42 35.711L112.309 33.3337C112.276 32.6374 111.685 32.0994 110.989 32.1321C110.292 32.1649 109.754 32.7559 109.787 33.4522L109.899 35.8295C109.932 36.5258 110.523 37.0637 111.219 37.031ZM114.904 37.7304C115.365 38.2535 116.162 38.3041 116.685 37.8434L118.66 36.2056C119.184 35.7449 119.234 34.9474 118.773 34.4242C118.313 33.9011 117.515 33.8505 116.992 34.3112L115.017 35.949C114.494 36.4097 114.443 37.2072 114.904 37.7304ZM92.952 30.3589C92.3174 30.6474 92.0368 31.3957 92.3252 32.0302L93.3101 34.1968C93.5986 34.8314 94.3468 35.112 94.9814 34.8236C95.616 34.5351 95.8966 33.7868 95.6081 33.1522L94.6233 30.9856C94.3348 30.3511 93.5865 30.0705 92.952 30.3589ZM94.7126 36.6214C95.2751 37.0331 95.3974 37.8228 94.9857 38.3853L93.5801 40.3059C93.1684 40.8684 92.3787 40.9906 91.8162 40.579C91.2537 40.1673 91.1314 39.3775 91.5431 38.815L92.9487 36.8945C93.3604 36.332 94.1501 36.2097 94.7126 36.6214ZM89.0233 32.0674C88.3273 32.1061 87.7945 32.7018 87.8333 33.3978L87.9656 35.774C88.0044 36.47 88.6001 37.0028 89.296 36.964C89.992 36.9253 90.5248 36.3296 90.486 35.6336L90.3537 33.2574C90.3149 32.5614 89.7193 32.0286 89.0233 32.0674Z" fill="#4CD2D5"/>
<path d="M114.46 42.7401C115.29 41.9123 115.809 41.4258 116.943 41.4258C117.942 41.4258 118.851 41.8253 119.605 42.3468C117.859 49.7776 111.187 55.3095 103.223 55.3095C95.5955 55.3095 89.1534 50.2353 87.0879 43.2784C88.4766 44.0403 90.2662 44.7915 92.0011 44.7915C93.3704 44.7915 94.7522 44.3259 95.9144 43.7856C96.81 43.3691 97.6353 42.8797 98.3076 42.4392C99.4644 43.8738 101.236 44.7915 103.223 44.7915C104.488 44.7915 105.666 44.4193 106.654 43.7783C107.619 44.3447 108.817 44.7915 110.194 44.7915C112.404 44.7915 113.57 43.6279 114.424 42.7755L114.46 42.7401Z" fill="#EDAC70"/>
</g>
<ellipse opacity="0.2" cx="113" cy="71.25" rx="22.5" ry="3.75" fill="#1D2723"/>
<path d="M71.9699 95.768H80.6579V97.96H77.6819V107H74.9459V97.96H71.9699V95.768ZM82.2391 98.072H84.9751V107H82.2391V98.072ZM85.6631 95.496L82.9111 97.128L82.0311 95.784L84.7831 94.104L85.6631 95.496ZM93.3317 102.152C93.3317 101.544 93.177 101.08 92.8677 100.76C92.5584 100.429 92.1424 100.264 91.6197 100.264C91.097 100.264 90.681 100.429 90.3717 100.76C90.0624 101.08 89.9077 101.544 89.9077 102.152V107H87.1717V98.072H89.9077V99.256C90.185 98.8827 90.553 98.5787 91.0117 98.344C91.4704 98.0987 92.0037 97.976 92.6117 97.976C93.1237 97.976 93.593 98.0613 94.0197 98.232C94.4464 98.4027 94.809 98.6533 95.1077 98.984C95.4064 99.304 95.6357 99.704 95.7957 100.184C95.9664 100.653 96.0517 101.187 96.0517 101.784V107H93.3317V102.152ZM97.9529 95.16H100.689V99.272C100.966 98.888 101.34 98.5787 101.809 98.344C102.278 98.0987 102.822 97.976 103.441 97.976C103.953 97.976 104.417 98.0613 104.833 98.232C105.249 98.4027 105.601 98.6533 105.889 98.984C106.188 99.304 106.417 99.704 106.577 100.184C106.748 100.653 106.833 101.187 106.833 101.784V107H104.113V102.152C104.113 101.544 103.958 101.08 103.649 100.76C103.34 100.429 102.924 100.264 102.401 100.264C101.878 100.264 101.462 100.429 101.153 100.76C100.844 101.08 100.689 101.544 100.689 102.152V107H97.9529V95.16ZM118.285 102.152C118.285 101.544 118.13 101.08 117.821 100.76C117.511 100.429 117.095 100.264 116.573 100.264C116.05 100.264 115.634 100.429 115.325 100.76C115.015 101.08 114.861 101.544 114.861 102.152V107H112.125V98.072H114.861V99.256C115.138 98.8827 115.506 98.5787 115.965 98.344C116.423 98.0987 116.957 97.976 117.565 97.976C118.077 97.976 118.546 98.0613 118.973 98.232C119.399 98.4027 119.762 98.6533 120.061 98.984C120.359 99.304 120.589 99.704 120.749 100.184C120.919 100.653 121.005 101.187 121.005 101.784V107H118.285V102.152ZM122.362 102.52C122.362 101.816 122.463 101.181 122.666 100.616C122.869 100.051 123.146 99.5707 123.498 99.176C123.861 98.7813 124.282 98.4773 124.762 98.264C125.242 98.0507 125.754 97.944 126.298 97.944C126.97 97.944 127.535 98.0773 127.994 98.344C128.453 98.6107 128.805 98.9413 129.05 99.336V98.072H131.786V107H129.05V105.736C128.805 106.131 128.447 106.461 127.978 106.728C127.519 106.995 126.954 107.128 126.282 107.128C125.738 107.128 125.226 107.021 124.746 106.808C124.277 106.595 123.861 106.291 123.498 105.896C123.146 105.491 122.869 105.005 122.666 104.44C122.463 103.864 122.362 103.224 122.362 102.52ZM129.05 102.536C129.05 102.184 128.997 101.869 128.89 101.592C128.783 101.315 128.639 101.085 128.458 100.904C128.287 100.712 128.079 100.568 127.834 100.472C127.599 100.376 127.354 100.328 127.098 100.328C126.842 100.328 126.597 100.376 126.362 100.472C126.127 100.568 125.919 100.707 125.738 100.888C125.557 101.069 125.413 101.299 125.306 101.576C125.199 101.853 125.146 102.168 125.146 102.52C125.146 102.872 125.199 103.187 125.306 103.464C125.413 103.741 125.557 103.976 125.738 104.168C125.919 104.36 126.127 104.504 126.362 104.6C126.597 104.696 126.842 104.744 127.098 104.744C127.354 104.744 127.599 104.696 127.834 104.6C128.079 104.504 128.287 104.365 128.458 104.184C128.639 103.992 128.783 103.757 128.89 103.48C128.997 103.203 129.05 102.888 129.05 102.536ZM126.586 95.048C126.586 95.2933 126.65 95.4853 126.778 95.624C126.906 95.752 127.125 95.816 127.434 95.816C127.754 95.816 127.978 95.752 128.106 95.624C128.234 95.4853 128.298 95.2933 128.298 95.048H129.818C129.818 95.688 129.621 96.2107 129.226 96.616C128.842 97.0107 128.245 97.208 127.434 97.208C126.634 97.208 126.037 97.0107 125.642 96.616C125.258 96.2107 125.066 95.688 125.066 95.048H126.586ZM139.925 102.152C139.925 101.544 139.771 101.08 139.461 100.76C139.152 100.429 138.736 100.264 138.213 100.264C137.691 100.264 137.275 100.429 136.965 100.76C136.656 101.08 136.501 101.544 136.501 102.152V107H133.765V98.072H136.501V99.256C136.779 98.8827 137.147 98.5787 137.605 98.344C138.064 98.0987 138.597 97.976 139.205 97.976C139.717 97.976 140.187 98.0613 140.613 98.232C141.04 98.4027 141.403 98.6533 141.701 98.984C142 99.304 142.229 99.704 142.389 100.184C142.56 100.653 142.645 101.187 142.645 101.784V107H139.925V102.152ZM144.003 102.52C144.003 101.816 144.104 101.181 144.307 100.616C144.509 100.051 144.787 99.5707 145.139 99.176C145.501 98.7813 145.923 98.4773 146.403 98.264C146.883 98.0507 147.395 97.944 147.939 97.944C148.6 97.944 149.16 98.0773 149.619 98.344C150.088 98.6 150.445 98.9307 150.691 99.336V98.072H153.427V106.984C153.427 107.581 153.336 108.147 153.155 108.68C152.984 109.213 152.717 109.683 152.355 110.088C151.992 110.493 151.528 110.813 150.963 111.048C150.397 111.283 149.731 111.4 148.963 111.4C148.301 111.4 147.699 111.32 147.155 111.16C146.611 111 146.141 110.765 145.747 110.456C145.352 110.157 145.032 109.795 144.787 109.368C144.552 108.941 144.403 108.461 144.339 107.928H147.043C147.128 108.269 147.325 108.536 147.635 108.728C147.955 108.931 148.355 109.032 148.835 109.032C149.091 109.032 149.331 108.995 149.555 108.92C149.789 108.845 149.987 108.728 150.147 108.568C150.317 108.408 150.451 108.195 150.547 107.928C150.643 107.672 150.691 107.357 150.691 106.984V105.72C150.445 106.115 150.088 106.451 149.619 106.728C149.16 106.995 148.6 107.128 147.939 107.128C147.395 107.128 146.883 107.021 146.403 106.808C145.923 106.595 145.501 106.291 145.139 105.896C144.787 105.491 144.509 105.005 144.307 104.44C144.104 103.864 144.003 103.224 144.003 102.52ZM150.691 102.536C150.691 102.184 150.637 101.869 150.531 101.592C150.424 101.315 150.28 101.085 150.099 100.904C149.928 100.712 149.72 100.568 149.475 100.472C149.24 100.376 148.995 100.328 148.739 100.328C148.483 100.328 148.237 100.376 148.003 100.472C147.768 100.568 147.56 100.707 147.379 100.888C147.197 101.069 147.053 101.299 146.947 101.576C146.84 101.853 146.787 102.168 146.787 102.52C146.787 102.872 146.84 103.187 146.947 103.464C147.053 103.741 147.197 103.976 147.379 104.168C147.56 104.36 147.768 104.504 148.003 104.6C148.237 104.696 148.483 104.744 148.739 104.744C148.995 104.744 149.24 104.696 149.475 104.6C149.72 104.504 149.928 104.365 150.099 104.184C150.28 103.992 150.424 103.757 150.531 103.48C150.637 103.203 150.691 102.888 150.691 102.536ZM75.4197 116.64C76.7744 116.64 77.9104 116.965 78.8277 117.616C79.745 118.256 80.353 119.157 80.6517 120.32H77.6277C77.201 119.552 76.465 119.168 75.4197 119.168C74.9824 119.168 74.5824 119.243 74.2197 119.392C73.857 119.541 73.5477 119.755 73.2917 120.032C73.0357 120.309 72.8384 120.645 72.6997 121.04C72.561 121.435 72.4917 121.877 72.4917 122.368C72.4917 123.413 72.769 124.224 73.3237 124.8C73.8784 125.376 74.6517 125.664 75.6437 125.664C76.3264 125.664 76.897 125.493 77.3557 125.152C77.8144 124.811 78.1504 124.32 78.3637 123.68H74.8917V121.664H80.8437V124.208C80.6944 124.688 80.4704 125.163 80.1717 125.632C79.873 126.091 79.4944 126.501 79.0357 126.864C78.577 127.227 78.0437 127.52 77.4357 127.744C76.8384 127.968 76.1717 128.08 75.4357 128.08C74.593 128.08 73.8197 127.941 73.1157 127.664C72.4224 127.387 71.8197 126.997 71.3077 126.496C70.8064 125.984 70.4117 125.381 70.1237 124.688C69.8464 123.984 69.7077 123.211 69.7077 122.368C69.7077 121.525 69.8464 120.757 70.1237 120.064C70.401 119.36 70.7904 118.757 71.2917 118.256C71.8037 117.744 72.4064 117.349 73.0997 117.072C73.8037 116.784 74.577 116.64 75.4197 116.64ZM82.3592 119.072H85.0952V128H82.3592V119.072ZM83.7352 118.064C83.3299 118.064 82.9939 117.941 82.7272 117.696C82.4712 117.451 82.3432 117.147 82.3432 116.784C82.3432 116.421 82.4712 116.123 82.7272 115.888C82.9939 115.643 83.3299 115.52 83.7352 115.52C84.1512 115.52 84.4925 115.643 84.7592 115.888C85.0259 116.123 85.1592 116.421 85.1592 116.784C85.1592 117.147 85.0259 117.451 84.7592 117.696C84.4925 117.941 84.1512 118.064 83.7352 118.064ZM86.5339 123.52C86.5339 122.816 86.6353 122.181 86.8379 121.616C87.0406 121.051 87.3179 120.571 87.6699 120.176C88.0326 119.781 88.4539 119.477 88.9339 119.264C89.4139 119.051 89.9259 118.944 90.4699 118.944C91.1419 118.944 91.7073 119.077 92.1659 119.344C92.6246 119.611 92.9766 119.941 93.2219 120.336V119.072H95.9579V128H93.2219V126.736C92.9766 127.131 92.6193 127.461 92.1499 127.728C91.6913 127.995 91.1259 128.128 90.4539 128.128C89.9099 128.128 89.3979 128.021 88.9179 127.808C88.4486 127.595 88.0326 127.291 87.6699 126.896C87.3179 126.491 87.0406 126.005 86.8379 125.44C86.6353 124.864 86.5339 124.224 86.5339 123.52ZM93.2219 123.536C93.2219 123.184 93.1686 122.869 93.0619 122.592C92.9553 122.315 92.8113 122.085 92.6299 121.904C92.4593 121.712 92.2513 121.568 92.0059 121.472C91.7713 121.376 91.5259 121.328 91.2699 121.328C91.0139 121.328 90.7686 121.376 90.5339 121.472C90.2993 121.568 90.0913 121.707 89.9099 121.888C89.7286 122.069 89.5846 122.299 89.4779 122.576C89.3713 122.853 89.3179 123.168 89.3179 123.52C89.3179 123.872 89.3713 124.187 89.4779 124.464C89.5846 124.741 89.7286 124.976 89.9099 125.168C90.0913 125.36 90.2993 125.504 90.5339 125.6C90.7686 125.696 91.0139 125.744 91.2699 125.744C91.5259 125.744 91.7713 125.696 92.0059 125.6C92.2513 125.504 92.4593 125.365 92.6299 125.184C92.8113 124.992 92.9553 124.757 93.0619 124.48C93.1686 124.203 93.2219 123.888 93.2219 123.536ZM106.673 123.536C106.673 124.24 106.551 124.88 106.305 125.456C106.071 126.021 105.74 126.501 105.313 126.896C104.897 127.291 104.401 127.595 103.825 127.808C103.26 128.021 102.652 128.128 102.001 128.128C101.34 128.128 100.727 128.021 100.161 127.808C99.6066 127.595 99.1213 127.291 98.7053 126.896C98.3 126.501 97.98 126.021 97.7453 125.456C97.5106 124.88 97.3933 124.24 97.3933 123.536C97.3933 122.832 97.5106 122.197 97.7453 121.632C97.9906 121.056 98.3213 120.571 98.7373 120.176C99.1533 119.781 99.644 119.477 100.209 119.264C100.775 119.051 101.383 118.944 102.033 118.944C102.684 118.944 103.292 119.051 103.857 119.264C104.423 119.477 104.913 119.781 105.329 120.176C105.745 120.571 106.071 121.056 106.305 121.632C106.551 122.197 106.673 122.832 106.673 123.536ZM100.177 123.536C100.177 123.909 100.225 124.24 100.321 124.528C100.417 124.805 100.545 125.035 100.705 125.216C100.876 125.397 101.073 125.536 101.297 125.632C101.521 125.717 101.756 125.76 102.001 125.76C102.247 125.76 102.481 125.717 102.705 125.632C102.929 125.536 103.127 125.397 103.297 125.216C103.479 125.035 103.623 124.805 103.729 124.528C103.836 124.24 103.889 123.909 103.889 123.536C103.889 123.152 103.836 122.821 103.729 122.544C103.633 122.267 103.495 122.037 103.313 121.856C103.143 121.675 102.945 121.541 102.721 121.456C102.497 121.36 102.268 121.312 102.033 121.312C101.788 121.312 101.553 121.36 101.329 121.456C101.105 121.541 100.908 121.675 100.737 121.856C100.567 122.037 100.428 122.267 100.321 122.544C100.225 122.821 100.177 123.152 100.177 123.536ZM110.971 123.52C110.971 122.816 111.073 122.181 111.275 121.616C111.478 121.051 111.755 120.571 112.107 120.176C112.47 119.781 112.891 119.477 113.371 119.264C113.851 119.051 114.363 118.944 114.907 118.944C115.505 118.944 116.043 119.072 116.523 119.328C117.003 119.573 117.382 119.899 117.659 120.304V118.464H115.579V116.864H117.659V116.16H120.395V116.864H121.227V118.464H120.395V128H117.659V126.72C117.414 127.125 117.057 127.461 116.587 127.728C116.129 127.995 115.569 128.128 114.907 128.128C114.363 128.128 113.851 128.021 113.371 127.808C112.891 127.595 112.47 127.291 112.107 126.896C111.755 126.491 111.478 126.005 111.275 125.44C111.073 124.864 110.971 124.224 110.971 123.52ZM117.659 123.536C117.659 123.184 117.606 122.869 117.499 122.592C117.393 122.315 117.249 122.085 117.067 121.904C116.897 121.712 116.689 121.568 116.443 121.472C116.209 121.376 115.963 121.328 115.707 121.328C115.451 121.328 115.206 121.376 114.971 121.472C114.737 121.568 114.529 121.707 114.347 121.888C114.166 122.069 114.022 122.299 113.915 122.576C113.809 122.853 113.755 123.168 113.755 123.52C113.755 123.872 113.809 124.187 113.915 124.464C114.022 124.741 114.166 124.976 114.347 125.168C114.529 125.36 114.737 125.504 114.971 125.6C115.206 125.696 115.451 125.744 115.707 125.744C115.963 125.744 116.209 125.696 116.443 125.6C116.689 125.504 116.897 125.365 117.067 125.184C117.249 124.992 117.393 124.757 117.499 124.48C117.606 124.203 117.659 123.888 117.659 123.536ZM128.306 113.616L129.954 115.52L128.866 116.352L127.058 114.672L128.306 113.616ZM131.33 123.536C131.33 124.24 131.207 124.88 130.962 125.456C130.727 126.021 130.396 126.501 129.97 126.896C129.554 127.291 129.058 127.595 128.482 127.808C127.916 128.021 127.308 128.128 126.658 128.128C125.996 128.128 125.383 128.021 124.818 127.808C124.263 127.595 123.778 127.291 123.362 126.896C122.956 126.501 122.636 126.021 122.402 125.456C122.167 124.88 122.05 124.24 122.05 123.536C122.05 122.832 122.167 122.197 122.402 121.632C122.647 121.056 122.978 120.571 123.394 120.176C123.81 119.781 124.3 119.477 124.866 119.264C125.431 119.051 126.039 118.944 126.69 118.944C127.34 118.944 127.948 119.051 128.514 119.264C129.079 119.477 129.57 119.781 129.986 120.176C130.402 120.571 130.727 121.056 130.962 121.632C131.207 122.197 131.33 122.832 131.33 123.536ZM124.834 123.536C124.834 123.909 124.882 124.24 124.978 124.528C125.074 124.805 125.202 125.035 125.362 125.216C125.532 125.397 125.73 125.536 125.954 125.632C126.178 125.717 126.412 125.76 126.658 125.76C126.903 125.76 127.138 125.717 127.362 125.632C127.586 125.536 127.783 125.397 127.954 125.216C128.135 125.035 128.279 124.805 128.386 124.528C128.492 124.24 128.546 123.909 128.546 123.536C128.546 123.152 128.492 122.821 128.386 122.544C128.29 122.267 128.151 122.037 127.97 121.856C127.799 121.675 127.602 121.541 127.378 121.456C127.154 121.36 126.924 121.312 126.69 121.312C126.444 121.312 126.21 121.36 125.986 121.456C125.762 121.541 125.564 121.675 125.394 121.856C125.223 122.037 125.084 122.267 124.978 122.544C124.882 122.821 124.834 123.152 124.834 123.536ZM129.17 117.12L128.322 118.288L126.69 117.312L125.058 118.288L124.21 117.12L126.69 115.52L129.17 117.12ZM135.628 123.52C135.628 122.816 135.729 122.181 135.932 121.616C136.134 121.051 136.412 120.571 136.764 120.176C137.126 119.781 137.548 119.477 138.028 119.264C138.508 119.051 139.02 118.944 139.564 118.944C140.236 118.944 140.801 119.077 141.26 119.344C141.718 119.611 142.07 119.941 142.316 120.336V119.072H145.052V128H142.316V126.736C142.07 127.131 141.713 127.461 141.244 127.728C140.785 127.995 140.22 128.128 139.548 128.128C139.004 128.128 138.492 128.021 138.012 127.808C137.542 127.595 137.126 127.291 136.764 126.896C136.412 126.491 136.134 126.005 135.932 125.44C135.729 124.864 135.628 124.224 135.628 123.52ZM142.316 123.536C142.316 123.184 142.262 122.869 142.156 122.592C142.049 122.315 141.905 122.085 141.724 121.904C141.553 121.712 141.345 121.568 141.1 121.472C140.865 121.376 140.62 121.328 140.364 121.328C140.108 121.328 139.862 121.376 139.628 121.472C139.393 121.568 139.185 121.707 139.004 121.888C138.822 122.069 138.678 122.299 138.572 122.576C138.465 122.853 138.412 123.168 138.412 123.52C138.412 123.872 138.465 124.187 138.572 124.464C138.678 124.741 138.822 124.976 139.004 125.168C139.185 125.36 139.393 125.504 139.628 125.6C139.862 125.696 140.108 125.744 140.364 125.744C140.62 125.744 140.865 125.696 141.1 125.6C141.345 125.504 141.553 125.365 141.724 125.184C141.905 124.992 142.049 124.757 142.156 124.48C142.262 124.203 142.316 123.888 142.316 123.536ZM139.852 116.048C139.852 116.293 139.916 116.485 140.044 116.624C140.172 116.752 140.39 116.816 140.7 116.816C141.02 116.816 141.244 116.752 141.372 116.624C141.5 116.485 141.564 116.293 141.564 116.048H143.084C143.084 116.688 142.886 117.211 142.492 117.616C142.108 118.011 141.51 118.208 140.7 118.208C139.9 118.208 139.302 118.011 138.908 117.616C138.524 117.211 138.332 116.688 138.332 116.048H139.852ZM153.191 123.152C153.191 122.544 153.036 122.08 152.727 121.76C152.418 121.429 152.002 121.264 151.479 121.264C150.956 121.264 150.54 121.429 150.231 121.76C149.922 122.08 149.767 122.544 149.767 123.152V128H147.031V119.072H149.767V120.256C150.044 119.883 150.412 119.579 150.871 119.344C151.33 119.099 151.863 118.976 152.471 118.976C152.983 118.976 153.452 119.061 153.879 119.232C154.306 119.403 154.668 119.653 154.967 119.984C155.266 120.304 155.495 120.704 155.655 121.184C155.826 121.653 155.911 122.187 155.911 122.784V128H153.191V123.152Z" fill="#115264"/>
<defs>
<radialGradient id="paint0_radial_83_1744" cx="0" cy="0" r="1" gradientUnits="userSpaceOnUse" gradientTransform="translate(121.517 51.9407) rotate(-90) scale(40.2737 30.7966)">
<stop offset="0.741078" stop-color="#4CD2D5"/>
<stop offset="1" stop-color="#5CF0F3"/>
</radialGradient>
<radialGradient id="paint1_radial_83_1744" cx="0" cy="0" r="1" gradientUnits="userSpaceOnUse" gradientTransform="translate(121.517 51.9407) rotate(-90) scale(40.2737 30.7966)">
<stop offset="0.741078" stop-color="#4CD2D5"/>
<stop offset="1" stop-color="#5CF0F3"/>
</radialGradient>
</defs>
</svg>
