<svg width="258" height="92" viewBox="0 0 258 92" fill="none" xmlns="http://www.w3.org/2000/svg">
<g filter="url(#filter0_d_301_8039)">
<rect x="6" width="80" height="80" rx="20" fill="white"/>
</g>
<rect x="6" width="80" height="80" rx="20" fill="white"/>
<path d="M30.5493 14.6747L31.8181 13.6653C32.1405 13.4085 32.453 13.2846 32.7556 13.2934C32.9004 13.2951 33.0429 13.33 33.1722 13.3952C33.3016 13.4605 33.4142 13.5545 33.5017 13.67C33.7798 14.02 33.7631 14.4163 33.4517 14.859C33.561 14.7932 33.6815 14.7482 33.8071 14.7262C33.9228 14.7047 34.0415 14.7047 34.1571 14.7262C34.2719 14.7487 34.3817 14.7916 34.4813 14.8528C34.5858 14.9158 34.6779 14.9974 34.7532 15.0934C34.8471 15.2045 34.9137 15.3362 34.9475 15.4777C34.9813 15.6192 34.9814 15.7667 34.9478 15.9083C34.8832 16.2067 34.6923 16.482 34.3751 16.734L33.0345 17.7997L30.5493 14.6747ZM32.2118 15.4692L32.7806 15.0168C32.9077 14.9279 32.9975 14.7952 33.0329 14.6442C33.0437 14.5746 33.0389 14.5034 33.0189 14.4359C32.9989 14.3684 32.9642 14.3061 32.9173 14.2536C32.8759 14.1952 32.8222 14.1466 32.7599 14.1112C32.6977 14.0758 32.6285 14.0546 32.5571 14.0489C32.402 14.0468 32.2516 14.1025 32.1353 14.2051L31.5665 14.6583L32.2118 15.4692ZM33.9212 16.3122C34.0504 16.2201 34.1397 16.0825 34.1712 15.927C34.1815 15.8528 34.1756 15.7771 34.1539 15.7054C34.1322 15.6336 34.0952 15.5675 34.0454 15.5114C34.0013 15.4499 33.9443 15.3986 33.8785 15.3611C33.8127 15.3236 33.7396 15.3008 33.6642 15.2942C33.5043 15.289 33.3484 15.3449 33.2282 15.4504L32.5962 15.9536L33.2845 16.8184L33.9212 16.3122Z" fill="#4CD2D5"/>
<path d="M35.7979 15.5947L34.0596 11.9947L34.8697 11.6041L37.3127 13.7135L37.1807 10.4893L37.9854 10.0986L39.7236 13.6986L39.001 14.0471L37.9033 11.7736L38.0213 14.5213L37.5002 14.7729L35.4322 12.976L36.526 15.2416L35.7979 15.5947Z" fill="#4CD2D5"/>
<path d="M39.4971 9.64435L40.8252 9.3545C41.1069 9.29038 41.3973 9.27323 41.6846 9.30372C41.9477 9.33001 42.2026 9.40977 42.4338 9.5381C42.6603 9.66797 42.8562 9.84517 43.008 10.0576C43.3378 10.5444 43.4679 11.1393 43.3713 11.7193C43.3215 11.9731 43.2173 12.213 43.0658 12.4225C42.9091 12.6348 42.7105 12.8127 42.4822 12.9451C42.2324 13.0927 41.96 13.1983 41.676 13.2576L40.3479 13.5475L39.4971 9.64435ZM41.0088 12.7787L41.5455 12.6615C41.9596 12.5709 42.2533 12.3808 42.4268 12.0912C42.6002 11.8016 42.6411 11.4477 42.5494 11.0295C42.4583 10.6128 42.2736 10.3081 41.9955 10.1154C41.7174 9.92273 41.3713 9.87247 40.9572 9.96466L40.4197 10.0818L41.0088 12.7787Z" fill="#4CD2D5"/>
<path d="M45.9781 9.85811C45.9869 9.68767 46.033 9.52124 46.1133 9.37061C46.1893 9.23008 46.2962 9.10857 46.4258 9.01514C46.566 8.91637 46.7234 8.84457 46.8899 8.80342C47.0775 8.75708 47.2713 8.74074 47.4641 8.75498C47.8797 8.78155 48.2055 8.89639 48.4438 9.09873C48.682 9.30108 48.7984 9.59873 48.7969 9.98858L47.9164 9.93155C47.9169 9.79259 47.8637 9.6588 47.768 9.55811C47.6658 9.45978 47.5301 9.40393 47.3883 9.40186C47.2477 9.38695 47.1062 9.42148 46.9883 9.49951C46.9356 9.53722 46.8926 9.58677 46.8626 9.64417C46.8326 9.70158 46.8165 9.76522 46.8156 9.82998C46.8003 9.95296 46.8321 10.0772 46.9047 10.1776C46.9799 10.2689 47.0773 10.3394 47.1875 10.3823C47.3499 10.451 47.5166 10.5087 47.6867 10.555C47.8699 10.6054 48.0464 10.6775 48.2125 10.7698C48.3717 10.8576 48.5089 10.9802 48.6141 11.1284C48.7182 11.2769 48.7625 11.4808 48.7469 11.7401C48.737 11.9008 48.6923 12.0575 48.6158 12.1991C48.5393 12.3408 48.4329 12.4641 48.3039 12.5605C48.0289 12.7802 47.6745 12.8761 47.2406 12.848C47.0396 12.8369 46.8411 12.798 46.6508 12.7323C46.4877 12.6766 46.3374 12.589 46.2086 12.4745C46.0903 12.3663 45.9979 12.2328 45.9383 12.0839C45.8755 11.9259 45.8501 11.7556 45.8641 11.5862L46.7234 11.6409C46.7313 11.9935 46.9201 12.1818 47.2899 12.2058C47.4469 12.2244 47.6053 12.1834 47.7336 12.0909C47.7904 12.0481 47.8355 11.9917 47.8649 11.9269C47.8952 11.8622 47.9122 11.792 47.9149 11.7206C47.9174 11.6486 47.9035 11.577 47.8742 11.5112C47.8426 11.4404 47.7931 11.379 47.7305 11.3331C47.5804 11.2254 47.4128 11.1445 47.2352 11.094C47.0399 11.0362 46.8445 10.9675 46.6399 10.8894C46.4426 10.8145 46.2708 10.685 46.1445 10.5159C46.011 10.3242 45.9518 10.0903 45.9781 9.85811Z" fill="#4CD2D5"/>
<path d="M51.0719 9.31328L50.6437 10.9242L52.3047 11.3656L52.7328 9.75469L53.5141 9.96172L52.4844 13.8289L51.7031 13.6211L52.143 11.9664L50.482 11.525L50.043 13.1805L49.2617 12.9734L50.2875 9.10938L51.0719 9.31328Z" fill="#4CD2D5"/>
<path d="M53.8375 12.1617C53.9636 11.9117 54.139 11.6897 54.3532 11.5094C54.5527 11.3397 54.7843 11.2118 55.0342 11.1335C55.2841 11.0551 55.5472 11.0278 55.8079 11.0531C56.3654 11.1095 56.8809 11.3753 57.25 11.7969C57.4192 11.9953 57.5467 12.2256 57.625 12.4742C57.7014 12.7236 57.728 12.9857 57.7032 13.2453C57.6788 13.5229 57.5991 13.7928 57.4688 14.0391C57.3425 14.2885 57.1684 14.5107 56.9563 14.693C56.7572 14.8627 56.5268 14.9919 56.2782 15.0734C56.0289 15.1532 55.7661 15.1819 55.5055 15.1578C54.9451 15.0991 54.4275 14.831 54.0563 14.407C53.8862 14.2084 53.7579 13.9775 53.6789 13.7281C53.6025 13.4776 53.576 13.2146 53.6008 12.9539C53.6269 12.6769 53.7073 12.4077 53.8375 12.1617ZM54.5657 12.5383C54.4839 12.6932 54.4284 12.8605 54.4016 13.0336C54.3769 13.1941 54.3843 13.358 54.4235 13.5156C54.4629 13.6716 54.5365 13.8168 54.6391 13.9406C54.8719 14.212 55.2011 14.3823 55.5571 14.4156C55.7167 14.4273 55.8769 14.403 56.0258 14.3445C56.1761 14.2839 56.3133 14.1948 56.4297 14.082C56.5567 13.9607 56.6624 13.8189 56.7422 13.6625C56.8254 13.5071 56.8812 13.3385 56.9071 13.1641C56.9309 13.0059 56.9237 12.8445 56.886 12.6891C56.8462 12.5355 56.7737 12.3924 56.6735 12.2695C56.5601 12.1325 56.419 12.0209 56.2594 11.9422C56.1038 11.8585 55.9325 11.808 55.7563 11.7938C55.5971 11.7827 55.4374 11.8053 55.2875 11.8602C55.1375 11.9176 55.0004 12.0045 54.8844 12.1156C54.755 12.2374 54.6472 12.3803 54.5657 12.5383Z" fill="#4CD2D5"/>
<path d="M60.5454 13.9461C60.9152 14.243 61.1217 14.5555 61.1649 14.8836C61.1913 15.0363 61.1851 15.1928 61.1467 15.3429C61.1084 15.4931 61.0387 15.6334 60.9423 15.7547C60.753 15.9929 60.4843 16.1552 60.1853 16.2117C60.0046 16.2437 59.8186 16.2275 59.6462 16.1648C59.4245 16.0871 59.2186 15.9702 59.0384 15.8195L58.5204 15.4031L57.5228 16.6437L56.8931 16.1375L59.3985 13.0234L60.5454 13.9461ZM59.4259 15.3383C59.5868 15.468 59.7384 15.525 59.8868 15.5102C60.041 15.4801 60.1797 15.3965 60.2782 15.2742C60.3767 15.1518 60.4287 14.9985 60.4251 14.8414C60.4071 14.6945 60.3188 14.557 60.1579 14.4281L59.6399 14.0117L58.9079 14.9219L59.4259 15.3383Z" fill="#4CD2D5"/>
<path d="M46.0056 63.6719C37.2204 63.6719 30.0962 56.5477 30.0962 47.7625V39.1258L55.5313 48.382C55.4667 49.4561 55.2169 50.511 54.7931 51.5C53.9475 53.4897 52.4515 55.1333 50.5499 56.1619C48.6484 57.1904 46.454 57.543 44.326 57.1618C42.198 56.7806 40.2624 55.6883 38.8362 54.0636C37.4099 52.4389 36.5775 50.3782 36.4751 48.2188L39.8712 49.4531C40.2181 50.7125 40.9441 51.8347 41.9508 52.6672C42.9575 53.4997 44.196 54.0022 45.4981 54.1064C46.8003 54.2107 48.103 53.9117 49.2293 53.25C50.3556 52.5883 51.251 51.596 51.7938 50.4078L33.2782 43.6719V47.7672C33.2782 54.7828 38.9892 60.4945 46.0056 60.4945C53.022 60.4945 58.7345 54.7805 58.7345 47.7648V46.1242L30.0962 35.7031V31.8547C30.0962 23.0664 37.2204 15.9453 46.0056 15.9453C54.7907 15.9453 61.9149 23.0664 61.9149 31.8547V40.4906L36.4821 31.2313C36.5487 30.1595 36.7984 29.107 37.2204 28.1195C38.0664 26.1308 39.5622 24.4879 41.4632 23.4598C43.3641 22.4317 45.5578 22.0791 47.6852 22.4597C49.8126 22.8403 51.7479 23.9316 53.1745 25.5551C54.6011 27.1786 55.4345 29.2382 55.5384 31.3969L52.1399 30.1625C51.7935 28.9028 51.0675 27.7803 50.0607 26.9477C49.054 26.115 47.8152 25.6126 46.5129 25.5086C45.2106 25.4047 43.9078 25.7043 42.7817 26.3667C41.6556 27.0291 40.7608 28.0222 40.2188 29.2109L58.7345 35.9469V31.8547C58.7345 24.8359 53.0267 19.1273 46.0071 19.1273C38.9876 19.1273 33.2782 24.8359 33.2782 31.8547V33.4742L61.9149 43.8953V47.7648C61.9149 56.5625 54.7813 63.6719 46.0056 63.6719Z" fill="#4CD2D5"/>
<path d="M27.4939 54.7661C27.652 54.7009 27.8224 54.6716 27.9932 54.6802C28.1531 54.6891 28.3089 54.7345 28.4486 54.813C28.5978 54.8982 28.7302 55.0099 28.8393 55.1427C28.9617 55.2923 29.0593 55.4605 29.1283 55.6411C29.2814 56.0281 29.3171 56.3724 29.2353 56.6739C29.1572 56.9747 28.9361 57.2083 28.5822 57.3724L28.2572 56.5528C28.3829 56.4934 28.4812 56.3884 28.5322 56.2591C28.5787 56.1245 28.5723 55.9773 28.5143 55.8474C28.4679 55.7137 28.3761 55.6006 28.2549 55.5278C28.1985 55.4961 28.1354 55.4782 28.0708 55.4755C28.0062 55.4728 27.9418 55.4854 27.883 55.5122C27.7652 55.5508 27.6663 55.6326 27.6064 55.7411C27.5563 55.8481 27.5343 55.9662 27.5424 56.0841C27.5493 56.2604 27.5683 56.4361 27.5994 56.6099C27.6319 56.7968 27.6422 56.9869 27.6299 57.1763C27.6174 57.3582 27.564 57.535 27.4736 57.6934C27.3846 57.8497 27.2189 57.9786 26.9775 58.0739C26.828 58.1337 26.6672 58.1602 26.5064 58.1516C26.3456 58.143 26.1886 58.0994 26.0463 58.0239C25.7307 57.8677 25.4926 57.5882 25.3322 57.1856C25.2564 56.9991 25.207 56.803 25.1853 56.6028C25.1653 56.4315 25.1804 56.2579 25.2299 56.0927C25.2763 55.9401 25.3564 55.8 25.4643 55.6825C25.5808 55.5583 25.7243 55.4626 25.8838 55.4028L26.1963 56.2013C25.8807 56.3575 25.7911 56.6086 25.9275 56.9544C25.9779 57.1044 26.0827 57.2302 26.2213 57.3067C26.2841 57.3398 26.3542 57.3565 26.4252 57.3552C26.4965 57.3548 26.5671 57.3405 26.633 57.313C26.6992 57.2844 26.758 57.2412 26.8049 57.1864C26.8555 57.1275 26.89 57.0564 26.9049 56.9802C26.9384 56.7996 26.94 56.6145 26.9096 56.4333C26.8791 56.2317 26.8557 56.0231 26.8408 55.8083C26.8239 55.5978 26.8675 55.3869 26.9666 55.2005C27.0827 54.9955 27.2706 54.8408 27.4939 54.7661Z" fill="#D86221"/>
<path d="M26.2939 59.3617L30.4346 58.3906L30.9502 59.1953L28.3346 62.5445L27.8736 61.8258L28.3666 61.2008L27.5268 59.8883L26.7541 60.0781L26.2939 59.3617ZM28.7744 60.6969L29.8682 59.3156L28.1588 59.7375L28.7744 60.6969Z" fill="#D86221"/>
<path d="M31.9485 60.5771L32.4907 61.1756L29.9845 63.449L30.8438 64.3998L30.3892 64.8115L28.9829 63.2623L31.9485 60.5771Z" fill="#D86221"/>
<path d="M35.3751 63.8059L34.9845 64.2824L33.8274 63.327L33.1603 64.1348L34.1845 64.9809L33.7938 65.4582L32.7618 64.6098L32.0587 65.4621L33.2157 66.4184L32.8251 66.8949L31.0454 65.4246L33.5985 62.334L35.3751 63.8059Z" fill="#D86221"/>
<path d="M35.1837 65.0971C35.2668 64.9481 35.3815 64.8191 35.5196 64.719C35.6511 64.6269 35.8018 64.5657 35.9603 64.5401C36.1298 64.5135 36.3028 64.5188 36.4704 64.5557C36.6593 64.5966 36.8405 64.6672 37.0071 64.7651C37.3675 64.9734 37.6095 65.2208 37.7329 65.5073C37.8563 65.7937 37.8303 66.1114 37.6548 66.4604L36.8899 66.0205C36.9514 65.896 36.9631 65.7527 36.9228 65.6198C36.8758 65.485 36.7791 65.3732 36.6524 65.3073C36.533 65.2319 36.391 65.2004 36.2509 65.2182C36.1868 65.2289 36.1262 65.2544 36.0737 65.2926C36.0212 65.3309 35.9784 65.3808 35.9485 65.4385C35.881 65.5421 35.8551 65.6674 35.8759 65.7893C35.9024 65.9057 35.9583 66.0133 36.0384 66.1018C36.1539 66.2352 36.2781 66.3607 36.4103 66.4776C36.5525 66.6037 36.6792 66.7464 36.7876 66.9026C36.8915 67.0517 36.9604 67.2224 36.9892 67.4018C37.0181 67.5815 36.9673 67.7838 36.8384 68.0088C36.7582 68.1482 36.6487 68.2685 36.5174 68.3615C36.3862 68.4544 36.2363 68.5178 36.0782 68.5471C35.7345 68.6232 35.3741 68.5523 34.997 68.3346C34.8215 68.2364 34.6607 68.1138 34.5196 67.9705C34.398 67.8486 34.3018 67.7035 34.2368 67.544C34.1778 67.3952 34.1533 67.2349 34.1649 67.0752C34.1795 66.9052 34.233 66.7408 34.3212 66.5948L35.0657 67.0237C34.9173 67.3435 35.0035 67.5955 35.3243 67.7799C35.457 67.8664 35.6174 67.8996 35.7735 67.8729C35.8433 67.8596 35.9085 67.8289 35.9634 67.7838C36.0192 67.7394 36.0654 67.6841 36.0993 67.6213C36.1334 67.5578 36.1524 67.4872 36.1548 67.4151C36.1581 67.3378 36.1412 67.2611 36.1056 67.1924C36.0184 67.0294 35.9037 66.8827 35.7665 66.7588C35.6173 66.6205 35.4696 66.4713 35.3228 66.3127C35.1791 66.1583 35.0824 65.9662 35.0438 65.7588C35.0077 65.5286 35.0575 65.2931 35.1837 65.0971Z" fill="#D86221"/>
<path d="M39.8129 67.4067C39.8526 67.2407 39.9289 67.0856 40.0363 66.9528C40.1381 66.8286 40.2669 66.7292 40.4129 66.6622C40.5691 66.5918 40.7371 66.551 40.9082 66.5419C41.1013 66.5311 41.2949 66.5512 41.4816 66.6013C41.8837 66.7054 42.1829 66.8791 42.3793 67.1224C42.5757 67.3656 42.6358 67.6781 42.5598 68.0599L41.7035 67.8419C41.7287 67.705 41.7008 67.5636 41.6254 67.4466C41.544 67.3298 41.421 67.2484 41.2816 67.2192C41.1467 67.1778 41.0015 67.1853 40.8715 67.2403C40.8121 67.2671 40.76 67.3075 40.7192 67.3583C40.6785 67.4091 40.6504 67.4688 40.6371 67.5325C40.5989 67.6503 40.607 67.7783 40.6598 67.8903C40.7164 67.9941 40.7987 68.0815 40.8988 68.1442C41.0455 68.2424 41.1987 68.3304 41.3574 68.4075C41.5278 68.491 41.6875 68.5946 41.8332 68.7161C41.9769 68.8303 42.0928 68.9756 42.1723 69.1411C42.2504 69.3067 42.2504 69.5146 42.1879 69.7661C42.1483 69.9222 42.0751 70.0678 41.9735 70.1927C41.8719 70.3176 41.7443 70.4189 41.5996 70.4896C41.2871 70.6541 40.921 70.682 40.5012 70.5731C40.3058 70.5249 40.1181 70.4497 39.9434 70.3497C39.7936 70.2642 39.6624 70.1498 39.5574 70.013C39.4616 69.8854 39.3954 69.7381 39.3637 69.5817C39.3321 69.4144 39.3391 69.2421 39.384 69.0778L40.2121 69.2974C40.1543 69.6458 40.3043 69.8653 40.6629 69.9583C40.8136 70.0059 40.9767 69.9953 41.1199 69.9286C41.1824 69.8964 41.236 69.8495 41.2762 69.7919C41.3182 69.7341 41.3483 69.6685 41.3645 69.5989C41.3808 69.5288 41.3808 69.4558 41.3645 69.3856C41.3468 69.3099 41.3096 69.2402 41.2566 69.1833C41.1297 69.0493 40.9803 68.9385 40.8152 68.856C40.634 68.7622 40.4517 68.658 40.2684 68.5435C40.0885 68.4333 39.944 68.2738 39.852 68.0841C39.7561 67.8708 39.7422 67.6296 39.8129 67.4067Z" fill="#D86221"/>
<path d="M43.0314 69.1007C43.0422 68.8213 43.1089 68.5469 43.2275 68.2937C43.3382 68.0564 43.4954 67.8438 43.6899 67.6685C43.8844 67.4933 44.1121 67.3589 44.3595 67.2733C44.8904 67.0923 45.4704 67.1203 45.9814 67.3515C46.2186 67.4612 46.4312 67.6177 46.6064 67.8116C46.7801 68.0064 46.9143 68.2329 47.0017 68.4788C47.1822 69.0117 47.1543 69.5931 46.9236 70.1062C46.8132 70.3423 46.6577 70.5547 46.4658 70.7312C46.2726 70.9075 46.0456 71.0427 45.7986 71.1288C45.2647 71.3094 44.6823 71.2815 44.1681 71.0507C43.9309 70.941 43.7183 70.7845 43.5431 70.5905C43.3686 70.3954 43.2345 70.1675 43.1486 69.9202C43.0562 69.6574 43.0164 69.3789 43.0314 69.1007ZM43.8494 69.1405C43.8392 69.3155 43.8588 69.4909 43.9072 69.6593C43.9512 69.8155 44.0261 69.9614 44.1275 70.0882C44.2284 70.2132 44.3556 70.3143 44.5002 70.3843C44.8248 70.5345 45.1952 70.5527 45.533 70.4351C45.6806 70.3783 45.814 70.2897 45.9236 70.1757C46.035 70.0583 46.1223 69.9203 46.1806 69.7694C46.3074 69.4394 46.3249 69.0774 46.2306 68.7366C46.1865 68.5829 46.1127 68.4393 46.0134 68.314C45.9143 68.1903 45.7888 68.0903 45.6463 68.021C45.3216 67.8709 44.9513 67.8527 44.6134 67.9702C44.4636 68.0261 44.3274 68.1135 44.2142 68.2265C44.1016 68.3411 44.0132 68.4771 43.9541 68.6265C43.8896 68.7908 43.8536 68.9649 43.8478 69.1413L43.8494 69.1405Z" fill="#D86221"/>
<path d="M47.5625 67.1877L48.3633 67.0791L48.8125 70.4354L50.0836 70.2627L50.1664 70.8697L48.0945 71.151L47.5625 67.1877Z" fill="#D86221"/>
<path d="M50.647 69.232L49.9048 66.8883L50.6743 66.6445L51.4173 68.993C51.5001 69.2547 51.6282 69.4328 51.8017 69.5258C51.9751 69.6188 52.1923 69.6258 52.4392 69.5469C52.686 69.468 52.861 69.3391 52.9517 69.1625C53.0423 68.9859 53.0454 68.7664 52.9626 68.5039L52.2204 66.1602L52.9845 65.918L53.7274 68.2664C53.7979 68.4784 53.8258 68.7022 53.8095 68.925C53.7939 69.1275 53.7353 69.3243 53.6376 69.5023C53.5378 69.6806 53.4018 69.836 53.2384 69.9586C53.0599 70.093 52.8592 70.1951 52.6454 70.2602C52.4335 70.3304 52.2107 70.3622 51.9876 70.3539C51.7878 70.3465 51.5919 70.297 51.4126 70.2086C51.2349 70.1178 51.0788 69.9899 50.9548 69.8336C50.8152 69.6543 50.7107 69.4502 50.647 69.232Z" fill="#D86221"/>
<path d="M55.8814 64.3662L56.1752 64.9131L55.2189 65.424L56.8244 68.3982L56.1213 68.7787L54.5158 65.8053L53.5682 66.3162L53.2744 65.7693L55.8814 64.3662Z" fill="#D86221"/>
<path d="M58.5354 67.3311L56.208 64.0811L56.865 63.6123L59.1916 66.8631L58.5354 67.3311Z" fill="#D86221"/>
<path d="M58.637 64.8746C58.4395 64.6765 58.2836 64.4409 58.1785 64.1816C58.0796 63.9389 58.0306 63.6789 58.0344 63.4169C58.0381 63.1549 58.0946 62.8963 58.2003 62.6566C58.4289 62.1447 58.8432 61.7387 59.3597 61.5207C59.6011 61.422 59.8599 61.3729 60.1206 61.3761C60.3815 61.3815 60.6388 61.4372 60.8785 61.5402C61.3914 61.7701 61.7979 62.1862 62.016 62.7043C62.1158 62.9463 62.1668 63.2057 62.166 63.4675C62.164 63.729 62.109 63.9873 62.0042 64.2269C61.7753 64.7403 61.3609 65.1482 60.8441 65.3691C60.6022 65.4691 60.3425 65.5188 60.0808 65.5152C59.819 65.5103 59.5607 65.454 59.3206 65.3496C59.0635 65.2381 58.8312 65.0767 58.637 64.8746ZM59.2222 64.3011C59.3436 64.4283 59.4857 64.534 59.6425 64.6136C59.787 64.6873 59.9448 64.7314 60.1066 64.7433C60.2662 64.7542 60.4263 64.7296 60.5753 64.6714C60.7399 64.6066 60.8892 64.5082 61.0136 64.3824C61.1432 64.2604 61.2454 64.1124 61.3136 63.948C61.3744 63.7996 61.4011 63.6394 61.3917 63.4793C61.3816 63.3178 61.3399 63.1599 61.2691 63.0144C61.1929 62.8567 61.0913 62.7126 60.9683 62.5878C60.8461 62.4606 60.7032 62.3549 60.5456 62.2753C60.4031 62.2025 60.2475 62.1587 60.0878 62.1464C59.9283 62.1353 59.7683 62.1593 59.6191 62.2168C59.4533 62.2817 59.3031 62.381 59.1785 62.5082C59.0504 62.6301 58.9491 62.7772 58.8808 62.9402C58.8193 63.0886 58.7905 63.2484 58.7964 63.4089C58.804 63.5694 58.8439 63.7267 58.9136 63.8714C58.9912 64.0312 59.0956 64.1766 59.2222 64.3011Z" fill="#D86221"/>
<path d="M63.6924 62.5051L60.3291 60.3223L60.7689 59.6449L64.0791 59.6355L61.7541 58.1254L62.194 57.4473L65.5533 59.6309L65.1174 60.3129L61.8064 60.3215L64.1314 61.8309L63.6924 62.5051Z" fill="#D86221"/>
<path d="M63.4548 57.4454C63.2952 57.3853 63.1509 57.2906 63.0322 57.1681C62.9221 57.0511 62.8396 56.911 62.7908 56.7579C62.7405 56.5942 62.7209 56.4226 62.733 56.2517C62.7461 56.0588 62.7898 55.8691 62.8627 55.69C63.0158 55.303 63.2241 55.0277 63.4877 54.8642C63.7512 54.7007 64.0694 54.6798 64.4423 54.8017L64.1252 55.6251C63.9928 55.5826 63.8492 55.5921 63.7236 55.6517C63.5974 55.7178 63.5013 55.8296 63.4548 55.9642C63.397 56.0932 63.3865 56.2384 63.4252 56.3744C63.4448 56.436 63.4787 56.4923 63.524 56.5385C63.5693 56.5848 63.6248 56.6198 63.6861 56.6408C63.7984 56.6926 63.9261 56.7004 64.0439 56.6626C64.1538 56.6187 64.2508 56.5478 64.3259 56.4564C64.4415 56.323 64.5478 56.1818 64.6439 56.0337C64.7478 55.8749 64.8706 55.7293 65.0095 55.6001C65.1429 55.4748 65.3033 55.3818 65.4783 55.3283C65.6517 55.2762 65.8601 55.2965 66.1033 55.3892C66.2532 55.448 66.3885 55.5388 66.4998 55.6553C66.6112 55.7717 66.6958 55.911 66.7478 56.0634C66.8728 56.3926 66.8551 56.7592 66.6947 57.1634C66.6223 57.3513 66.5243 57.5282 66.4033 57.6892C66.3003 57.8273 66.1707 57.9434 66.022 58.0306C65.8834 58.1097 65.7289 58.1569 65.5697 58.1689C65.3999 58.1801 65.2298 58.1517 65.0728 58.0861L65.3853 57.2876C65.7228 57.3882 65.9598 57.2663 66.0962 56.922C66.1622 56.7785 66.172 56.6154 66.1236 56.465C66.1 56.398 66.0603 56.3379 66.008 56.29C65.956 56.2409 65.8946 56.2029 65.8275 56.1783C65.7595 56.1539 65.6869 56.1451 65.615 56.1525C65.5384 56.16 65.465 56.1869 65.4017 56.2306C65.253 56.34 65.1245 56.4746 65.022 56.6283C64.9064 56.7965 64.7804 56.9645 64.6439 57.1322C64.5123 57.2969 64.3364 57.4205 64.1369 57.4884C63.9121 57.5593 63.669 57.5439 63.4548 57.4454Z" fill="#D86221"/>
<path d="M122.572 31.008C122.572 30.2987 122.339 29.7573 121.872 29.384C121.424 28.992 120.799 28.796 119.996 28.796H116.524V33.136H120.052C120.855 33.136 121.471 32.9587 121.9 32.604C122.348 32.2493 122.572 31.7173 122.572 31.008ZM122.096 23.252C122.096 22.58 121.881 22.0667 121.452 21.712C121.041 21.3573 120.444 21.18 119.66 21.18H116.524V25.296H119.66C120.444 25.296 121.041 25.128 121.452 24.792C121.881 24.4373 122.096 23.924 122.096 23.252ZM127.416 31.652C127.416 33.2947 126.847 34.6013 125.708 35.572C124.588 36.524 122.983 37 120.892 37H111.736V17.344H120.584C122.6 17.344 124.168 17.8013 125.288 18.716C126.408 19.6307 126.968 20.872 126.968 22.44C126.968 23.6347 126.651 24.6147 126.016 25.38C125.381 26.1267 124.588 26.64 123.636 26.92C124.215 27.032 124.737 27.2373 125.204 27.536C125.671 27.8347 126.063 28.1987 126.38 28.628C126.716 29.0387 126.968 29.5053 127.136 30.028C127.323 30.5507 127.416 31.092 127.416 31.652ZM130.193 17.344H135.849L141.365 30.952L146.825 17.344H152.453V37H147.665V25.212L143.269 37H139.405L134.981 25.184V37H130.193V17.344ZM163.26 17.344C164.828 17.344 166.247 17.5867 167.516 18.072C168.785 18.5387 169.868 19.2013 170.764 20.06C171.66 20.9187 172.351 21.9547 172.836 23.168C173.321 24.3813 173.564 25.716 173.564 27.172C173.564 28.628 173.321 29.9627 172.836 31.176C172.351 32.3707 171.66 33.4067 170.764 34.284C169.868 35.1427 168.785 35.8147 167.516 36.3C166.247 36.7667 164.828 37 163.26 37H155.896V17.344H163.26ZM162.952 32.856C164.763 32.856 166.172 32.3613 167.18 31.372C168.188 30.3827 168.692 28.9827 168.692 27.172C168.692 25.3613 168.188 23.952 167.18 22.944C166.172 21.936 164.763 21.432 162.952 21.432H160.684V32.856H162.952ZM196.454 31.148C196.454 31.9693 196.295 32.7533 195.978 33.5C195.66 34.228 195.194 34.872 194.577 35.432C193.98 35.9733 193.234 36.4027 192.338 36.72C191.442 37.0373 190.424 37.196 189.286 37.196C188.222 37.196 187.232 37.0653 186.318 36.804C185.403 36.5427 184.6 36.16 183.91 35.656C183.219 35.1333 182.668 34.4987 182.258 33.752C181.866 32.9867 181.651 32.1093 181.614 31.12H186.71C186.784 31.8853 187.036 32.4547 187.466 32.828C187.914 33.1827 188.474 33.36 189.146 33.36C189.855 33.36 190.415 33.2013 190.826 32.884C191.236 32.548 191.442 32.0907 191.442 31.512C191.442 30.896 191.199 30.42 190.714 30.084C190.228 29.748 189.622 29.4587 188.894 29.216C188.166 28.9547 187.372 28.6933 186.514 28.432C185.674 28.1707 184.89 27.8253 184.162 27.396C183.452 26.948 182.855 26.3693 182.37 25.66C181.884 24.9507 181.651 24.0173 181.67 22.86C181.67 21.9267 181.847 21.1053 182.202 20.396C182.575 19.668 183.079 19.0613 183.714 18.576C184.348 18.072 185.104 17.6987 185.982 17.456C186.859 17.1947 187.811 17.064 188.838 17.064C189.902 17.064 190.872 17.1947 191.75 17.456C192.646 17.7173 193.411 18.1 194.046 18.604C194.699 19.108 195.203 19.724 195.558 20.452C195.931 21.18 196.146 22.0107 196.202 22.944H191.022C190.984 22.3093 190.76 21.8147 190.35 21.46C189.939 21.1053 189.407 20.9187 188.754 20.9C188.175 20.8813 187.69 21.0213 187.298 21.32C186.924 21.6187 186.738 22.076 186.738 22.692C186.738 23.252 186.971 23.7 187.438 24.036C187.923 24.372 188.53 24.6707 189.258 24.932C189.986 25.1933 190.76 25.464 191.582 25.744C192.422 26.0053 193.206 26.36 193.934 26.808C194.662 27.2373 195.259 27.7973 195.726 28.488C196.211 29.16 196.454 30.0467 196.454 31.148ZM211.636 28.908H204.188V37H199.4V17.344H204.188V25.044H211.636V17.344H216.424V37H211.636V28.908ZM239.229 27.116C239.229 28.5907 238.967 29.944 238.445 31.176C237.922 32.408 237.203 33.472 236.289 34.368C235.374 35.264 234.31 35.964 233.097 36.468C231.883 36.9533 230.577 37.196 229.177 37.196C227.777 37.196 226.461 36.9533 225.229 36.468C224.015 35.964 222.951 35.264 222.037 34.368C221.122 33.472 220.394 32.408 219.853 31.176C219.33 29.944 219.069 28.5907 219.069 27.116C219.069 25.6413 219.33 24.288 219.853 23.056C220.394 21.824 221.122 20.7693 222.037 19.892C222.951 18.996 224.015 18.3053 225.229 17.82C226.461 17.316 227.777 17.064 229.177 17.064C230.577 17.064 231.883 17.316 233.097 17.82C234.329 18.3053 235.393 18.996 236.289 19.892C237.203 20.7693 237.922 21.824 238.445 23.056C238.967 24.288 239.229 25.6413 239.229 27.116ZM223.969 27.116C223.969 27.9747 224.09 28.7587 224.333 29.468C224.575 30.1587 224.921 30.756 225.369 31.26C225.817 31.764 226.358 32.156 226.993 32.436C227.646 32.6973 228.374 32.828 229.177 32.828C229.961 32.828 230.67 32.6973 231.305 32.436C231.939 32.156 232.481 31.764 232.929 31.26C233.395 30.756 233.75 30.1587 233.993 29.468C234.235 28.7587 234.357 27.9747 234.357 27.116C234.357 26.2387 234.235 25.4547 233.993 24.764C233.75 24.0547 233.395 23.4573 232.929 22.972C232.481 22.468 231.939 22.0853 231.305 21.824C230.67 21.544 229.961 21.404 229.177 21.404C227.571 21.404 226.302 21.9173 225.369 22.944C224.435 23.9707 223.969 25.3613 223.969 27.116ZM249.284 26.136C250.236 26.136 250.927 25.9213 251.356 25.492C251.786 25.044 252 24.4373 252 23.672C252 22.9067 251.786 22.3093 251.356 21.88C250.927 21.432 250.236 21.208 249.284 21.208H246.68V26.136H249.284ZM256.872 23.672C256.872 24.4933 256.732 25.2773 256.452 26.024C256.172 26.7707 255.734 27.4427 255.136 28.04C254.558 28.6187 253.811 29.0853 252.896 29.44C251.982 29.776 250.899 29.944 249.648 29.944H246.68V37H241.892V17.344H249.648C250.843 17.344 251.888 17.5027 252.784 17.82C253.699 18.1373 254.455 18.5853 255.052 19.164C255.668 19.724 256.126 20.396 256.424 21.18C256.723 21.9453 256.872 22.776 256.872 23.672Z" fill="#4CD2D5"/>
<path d="M118.704 55.848C118.704 56.264 118.619 56.6693 118.448 57.064C118.288 57.4587 118.043 57.8107 117.712 58.12C117.392 58.4187 116.992 58.6587 116.512 58.84C116.032 59.0213 115.483 59.112 114.864 59.112C114.309 59.112 113.792 59.0373 113.312 58.888C112.832 58.7387 112.416 58.5307 112.064 58.264C111.712 57.9867 111.435 57.6507 111.232 57.256C111.029 56.8613 110.928 56.4187 110.928 55.928H112.88C112.923 56.3867 113.104 56.776 113.424 57.096C113.744 57.416 114.224 57.576 114.864 57.576C115.504 57.576 115.995 57.4267 116.336 57.128C116.688 56.8187 116.864 56.424 116.864 55.944C116.864 55.496 116.715 55.1547 116.416 54.92C116.128 54.6853 115.765 54.4987 115.328 54.36C114.891 54.2107 114.416 54.0773 113.904 53.96C113.403 53.832 112.933 53.656 112.496 53.432C112.059 53.208 111.691 52.904 111.392 52.52C111.104 52.1253 110.96 51.5867 110.96 50.904C110.96 50.4133 111.051 49.976 111.232 49.592C111.424 49.1973 111.685 48.8667 112.016 48.6C112.357 48.3227 112.763 48.1093 113.232 47.96C113.701 47.8107 114.219 47.736 114.784 47.736C115.317 47.736 115.808 47.8053 116.256 47.944C116.704 48.0827 117.093 48.28 117.424 48.536C117.755 48.792 118.016 49.1067 118.208 49.48C118.411 49.8533 118.533 50.28 118.576 50.76H116.56C116.539 50.568 116.485 50.3867 116.4 50.216C116.315 50.0453 116.192 49.8907 116.032 49.752C115.872 49.6133 115.68 49.5067 115.456 49.432C115.232 49.3467 114.976 49.2987 114.688 49.288C114.155 49.2773 113.707 49.4 113.344 49.656C112.992 49.912 112.816 50.3067 112.816 50.84C112.816 51.1493 112.901 51.4053 113.072 51.608C113.243 51.8107 113.461 51.9813 113.728 52.12C114.005 52.248 114.32 52.36 114.672 52.456C115.024 52.552 115.381 52.6533 115.744 52.76C116.117 52.8667 116.48 52.9947 116.832 53.144C117.195 53.2827 117.509 53.4693 117.776 53.704C118.053 53.9387 118.277 54.2267 118.448 54.568C118.619 54.9093 118.704 55.336 118.704 55.848ZM126.92 56.728H122.264L121.464 59H119.56L123.544 47.864H125.656L129.64 59H127.72L126.92 56.728ZM124.6 50.072L122.776 55.24H126.408L124.6 50.072ZM133.196 47.88V57.528H136.956V59H131.372V47.88H133.196ZM144.625 49.352H140.305V52.616H144.145V54.104H140.305V57.512H144.625V59H138.481V47.864H144.625V49.352ZM154.376 55.848C154.376 56.264 154.291 56.6693 154.12 57.064C153.96 57.4587 153.715 57.8107 153.384 58.12C153.064 58.4187 152.664 58.6587 152.184 58.84C151.704 59.0213 151.155 59.112 150.536 59.112C149.981 59.112 149.464 59.0373 148.984 58.888C148.504 58.7387 148.088 58.5307 147.736 58.264C147.384 57.9867 147.107 57.6507 146.904 57.256C146.701 56.8613 146.6 56.4187 146.6 55.928H148.552C148.595 56.3867 148.776 56.776 149.096 57.096C149.416 57.416 149.896 57.576 150.536 57.576C151.176 57.576 151.667 57.4267 152.008 57.128C152.36 56.8187 152.536 56.424 152.536 55.944C152.536 55.496 152.387 55.1547 152.088 54.92C151.8 54.6853 151.437 54.4987 151 54.36C150.563 54.2107 150.088 54.0773 149.576 53.96C149.075 53.832 148.605 53.656 148.168 53.432C147.731 53.208 147.363 52.904 147.064 52.52C146.776 52.1253 146.632 51.5867 146.632 50.904C146.632 50.4133 146.723 49.976 146.904 49.592C147.096 49.1973 147.357 48.8667 147.688 48.6C148.029 48.3227 148.435 48.1093 148.904 47.96C149.373 47.8107 149.891 47.736 150.456 47.736C150.989 47.736 151.48 47.8053 151.928 47.944C152.376 48.0827 152.765 48.28 153.096 48.536C153.427 48.792 153.688 49.1067 153.88 49.48C154.083 49.8533 154.205 50.28 154.248 50.76H152.232C152.211 50.568 152.157 50.3867 152.072 50.216C151.987 50.0453 151.864 49.8907 151.704 49.752C151.544 49.6133 151.352 49.5067 151.128 49.432C150.904 49.3467 150.648 49.2987 150.36 49.288C149.827 49.2773 149.379 49.4 149.016 49.656C148.664 49.912 148.488 50.3067 148.488 50.84C148.488 51.1493 148.573 51.4053 148.744 51.608C148.915 51.8107 149.133 51.9813 149.4 52.12C149.677 52.248 149.992 52.36 150.344 52.456C150.696 52.552 151.053 52.6533 151.416 52.76C151.789 52.8667 152.152 52.9947 152.504 53.144C152.867 53.2827 153.181 53.4693 153.448 53.704C153.725 53.9387 153.949 54.2267 154.12 54.568C154.291 54.9093 154.376 55.336 154.376 55.848ZM168.188 55.848C168.188 56.264 168.103 56.6693 167.932 57.064C167.772 57.4587 167.527 57.8107 167.196 58.12C166.876 58.4187 166.476 58.6587 165.996 58.84C165.516 59.0213 164.967 59.112 164.348 59.112C163.794 59.112 163.276 59.0373 162.796 58.888C162.316 58.7387 161.9 58.5307 161.548 58.264C161.196 57.9867 160.919 57.6507 160.716 57.256C160.514 56.8613 160.412 56.4187 160.412 55.928H162.364C162.407 56.3867 162.588 56.776 162.908 57.096C163.228 57.416 163.708 57.576 164.348 57.576C164.988 57.576 165.479 57.4267 165.82 57.128C166.172 56.8187 166.348 56.424 166.348 55.944C166.348 55.496 166.199 55.1547 165.9 54.92C165.612 54.6853 165.25 54.4987 164.812 54.36C164.375 54.2107 163.9 54.0773 163.388 53.96C162.887 53.832 162.418 53.656 161.98 53.432C161.543 53.208 161.175 52.904 160.876 52.52C160.588 52.1253 160.444 51.5867 160.444 50.904C160.444 50.4133 160.535 49.976 160.716 49.592C160.908 49.1973 161.17 48.8667 161.5 48.6C161.842 48.3227 162.247 48.1093 162.716 47.96C163.186 47.8107 163.703 47.736 164.268 47.736C164.802 47.736 165.292 47.8053 165.74 47.944C166.188 48.0827 166.578 48.28 166.908 48.536C167.239 48.792 167.5 49.1067 167.692 49.48C167.895 49.8533 168.018 50.28 168.06 50.76H166.044C166.023 50.568 165.97 50.3867 165.884 50.216C165.799 50.0453 165.676 49.8907 165.516 49.752C165.356 49.6133 165.164 49.5067 164.94 49.432C164.716 49.3467 164.46 49.2987 164.172 49.288C163.639 49.2773 163.191 49.4 162.828 49.656C162.476 49.912 162.3 50.3067 162.3 50.84C162.3 51.1493 162.386 51.4053 162.556 51.608C162.727 51.8107 162.946 51.9813 163.212 52.12C163.49 52.248 163.804 52.36 164.156 52.456C164.508 52.552 164.866 52.6533 165.228 52.76C165.602 52.8667 165.964 52.9947 166.316 53.144C166.679 53.2827 166.994 53.4693 167.26 53.704C167.538 53.9387 167.762 54.2267 167.932 54.568C168.103 54.9093 168.188 55.336 168.188 55.848ZM181.093 53.416C181.093 54.248 180.943 55.016 180.645 55.72C180.357 56.4133 179.957 57.016 179.445 57.528C178.933 58.0293 178.33 58.4187 177.637 58.696C176.943 58.9733 176.202 59.112 175.413 59.112C174.623 59.112 173.882 58.9733 173.189 58.696C172.506 58.4187 171.909 58.0293 171.397 57.528C170.885 57.016 170.479 56.4133 170.181 55.72C169.882 55.016 169.733 54.248 169.733 53.416C169.733 52.584 169.882 51.8213 170.181 51.128C170.479 50.4347 170.885 49.8373 171.397 49.336C171.909 48.824 172.506 48.4293 173.189 48.152C173.882 47.8747 174.623 47.736 175.413 47.736C176.202 47.736 176.943 47.8747 177.637 48.152C178.33 48.4293 178.933 48.824 179.445 49.336C179.957 49.8373 180.357 50.4347 180.645 51.128C180.943 51.8213 181.093 52.584 181.093 53.416ZM171.605 53.416C171.605 54.0453 171.701 54.616 171.893 55.128C172.085 55.6293 172.346 56.0613 172.677 56.424C173.018 56.776 173.418 57.048 173.877 57.24C174.346 57.432 174.858 57.528 175.413 57.528C175.967 57.528 176.474 57.432 176.933 57.24C177.402 57.048 177.802 56.776 178.133 56.424C178.474 56.0613 178.741 55.6293 178.933 55.128C179.125 54.616 179.221 54.0453 179.221 53.416C179.221 52.7867 179.125 52.2213 178.933 51.72C178.741 51.2187 178.474 50.792 178.133 50.44C177.802 50.088 177.402 49.816 176.933 49.624C176.474 49.432 175.967 49.336 175.413 49.336C174.858 49.336 174.346 49.432 173.877 49.624C173.418 49.816 173.018 50.088 172.677 50.44C172.346 50.792 172.085 51.2187 171.893 51.72C171.701 52.2213 171.605 52.7867 171.605 53.416ZM184.712 47.88V57.528H188.472V59H182.888V47.88H184.712ZM189.981 47.88H191.805V54.968C191.805 55.832 192.029 56.472 192.477 56.888C192.936 57.304 193.549 57.512 194.317 57.512C195.096 57.512 195.709 57.304 196.157 56.888C196.616 56.472 196.845 55.832 196.845 54.968V47.88H198.669V54.936C198.669 55.64 198.546 56.2587 198.301 56.792C198.066 57.3147 197.746 57.7467 197.341 58.088C196.946 58.4293 196.482 58.6853 195.949 58.856C195.426 59.0267 194.877 59.112 194.301 59.112C193.714 59.112 193.16 59.0267 192.637 58.856C192.114 58.6853 191.656 58.4293 191.261 58.088C190.866 57.7467 190.552 57.3147 190.317 56.792C190.093 56.2587 189.981 55.64 189.981 54.936V47.88ZM200.468 47.88H208.228V49.368H205.268V59H203.444V49.368H200.468V47.88ZM210.075 47.88H211.899V59H210.075V47.88ZM225.046 53.416C225.046 54.248 224.896 55.016 224.598 55.72C224.31 56.4133 223.91 57.016 223.398 57.528C222.886 58.0293 222.283 58.4187 221.59 58.696C220.896 58.9733 220.155 59.112 219.366 59.112C218.576 59.112 217.835 58.9733 217.142 58.696C216.459 58.4187 215.862 58.0293 215.35 57.528C214.838 57.016 214.432 56.4133 214.134 55.72C213.835 55.016 213.686 54.248 213.686 53.416C213.686 52.584 213.835 51.8213 214.134 51.128C214.432 50.4347 214.838 49.8373 215.35 49.336C215.862 48.824 216.459 48.4293 217.142 48.152C217.835 47.8747 218.576 47.736 219.366 47.736C220.155 47.736 220.896 47.8747 221.59 48.152C222.283 48.4293 222.886 48.824 223.398 49.336C223.91 49.8373 224.31 50.4347 224.598 51.128C224.896 51.8213 225.046 52.584 225.046 53.416ZM215.558 53.416C215.558 54.0453 215.654 54.616 215.846 55.128C216.038 55.6293 216.299 56.0613 216.63 56.424C216.971 56.776 217.371 57.048 217.83 57.24C218.299 57.432 218.811 57.528 219.366 57.528C219.92 57.528 220.427 57.432 220.886 57.24C221.355 57.048 221.755 56.776 222.086 56.424C222.427 56.0613 222.694 55.6293 222.886 55.128C223.078 54.616 223.174 54.0453 223.174 53.416C223.174 52.7867 223.078 52.2213 222.886 51.72C222.694 51.2187 222.427 50.792 222.086 50.44C221.755 50.088 221.355 49.816 220.886 49.624C220.427 49.432 219.92 49.336 219.366 49.336C218.811 49.336 218.299 49.432 217.83 49.624C217.371 49.816 216.971 50.088 216.63 50.44C216.299 50.792 216.038 51.2187 215.846 51.72C215.654 52.2213 215.558 52.7867 215.558 53.416ZM235.977 47.864V59H234.153L228.665 50.696V59H226.841V47.864H228.665L234.153 56.152V47.864H235.977ZM245.876 55.848C245.876 56.264 245.791 56.6693 245.62 57.064C245.46 57.4587 245.215 57.8107 244.884 58.12C244.564 58.4187 244.164 58.6587 243.684 58.84C243.204 59.0213 242.655 59.112 242.036 59.112C241.481 59.112 240.964 59.0373 240.484 58.888C240.004 58.7387 239.588 58.5307 239.236 58.264C238.884 57.9867 238.607 57.6507 238.404 57.256C238.201 56.8613 238.1 56.4187 238.1 55.928H240.052C240.095 56.3867 240.276 56.776 240.596 57.096C240.916 57.416 241.396 57.576 242.036 57.576C242.676 57.576 243.167 57.4267 243.508 57.128C243.86 56.8187 244.036 56.424 244.036 55.944C244.036 55.496 243.887 55.1547 243.588 54.92C243.3 54.6853 242.937 54.4987 242.5 54.36C242.063 54.2107 241.588 54.0773 241.076 53.96C240.575 53.832 240.105 53.656 239.668 53.432C239.231 53.208 238.863 52.904 238.564 52.52C238.276 52.1253 238.132 51.5867 238.132 50.904C238.132 50.4133 238.223 49.976 238.404 49.592C238.596 49.1973 238.857 48.8667 239.188 48.6C239.529 48.3227 239.935 48.1093 240.404 47.96C240.873 47.8107 241.391 47.736 241.956 47.736C242.489 47.736 242.98 47.8053 243.428 47.944C243.876 48.0827 244.265 48.28 244.596 48.536C244.927 48.792 245.188 49.1067 245.38 49.48C245.583 49.8533 245.705 50.28 245.748 50.76H243.732C243.711 50.568 243.657 50.3867 243.572 50.216C243.487 50.0453 243.364 49.8907 243.204 49.752C243.044 49.6133 242.852 49.5067 242.628 49.432C242.404 49.3467 242.148 49.2987 241.86 49.288C241.327 49.2773 240.879 49.4 240.516 49.656C240.164 49.912 239.988 50.3067 239.988 50.84C239.988 51.1493 240.073 51.4053 240.244 51.608C240.415 51.8107 240.633 51.9813 240.9 52.12C241.177 52.248 241.492 52.36 241.844 52.456C242.196 52.552 242.553 52.6533 242.916 52.76C243.289 52.8667 243.652 52.9947 244.004 53.144C244.367 53.2827 244.681 53.4693 244.948 53.704C245.225 53.9387 245.449 54.2267 245.62 54.568C245.791 54.9093 245.876 55.336 245.876 55.848Z" fill="url(#paint0_linear_301_8039)"/>
<defs>
<filter id="filter0_d_301_8039" x="0" y="0" width="92" height="92" filterUnits="userSpaceOnUse" color-interpolation-filters="sRGB">
<feFlood flood-opacity="0" result="BackgroundImageFix"/>
<feColorMatrix in="SourceAlpha" type="matrix" values="0 0 0 0 0 0 0 0 0 0 0 0 0 0 0 0 0 0 127 0" result="hardAlpha"/>
<feMorphology radius="8" operator="erode" in="SourceAlpha" result="effect1_dropShadow_301_8039"/>
<feOffset dy="6"/>
<feGaussianBlur stdDeviation="7"/>
<feComposite in2="hardAlpha" operator="out"/>
<feColorMatrix type="matrix" values="0 0 0 0 0 0 0 0 0 0 0 0 0 0 0 0 0 0 0.35 0"/>
<feBlend mode="normal" in2="BackgroundImageFix" result="effect1_dropShadow_301_8039"/>
<feBlend mode="normal" in="SourceGraphic" in2="effect1_dropShadow_301_8039" result="shape"/>
</filter>
<linearGradient id="paint0_linear_301_8039" x1="247" y1="44" x2="225.124" y2="105.771" gradientUnits="userSpaceOnUse">
<stop stop-color="#FB9A65"/>
<stop offset="1" stop-color="#E1631E"/>
</linearGradient>
</defs>
</svg>
