<svg width="1024" height="1024" viewBox="0 0 1024 1024" fill="none" xmlns="http://www.w3.org/2000/svg">
<rect width="1024" height="1024" fill="white"/>
<path d="M314.23 187.83L330.47 174.91C334.597 171.623 338.597 170.037 342.47 170.15C344.324 170.172 346.148 170.618 347.803 171.453C349.459 172.289 350.901 173.492 352.02 174.97C355.58 179.45 355.367 184.523 351.38 190.19C352.779 189.348 354.321 188.771 355.93 188.49C357.411 188.215 358.929 188.215 360.41 188.49C361.879 188.778 363.284 189.327 364.56 190.11C365.897 190.917 367.076 191.961 368.04 193.19C369.242 194.612 370.094 196.297 370.526 198.109C370.959 199.92 370.96 201.808 370.53 203.62C369.703 207.44 367.26 210.963 363.2 214.19L346.04 227.83L314.23 187.83ZM335.51 198L342.79 192.21C344.417 191.072 345.567 189.373 346.02 187.44C346.158 186.549 346.097 185.638 345.841 184.774C345.585 183.909 345.141 183.112 344.54 182.44C344.01 181.693 343.323 181.07 342.526 180.618C341.73 180.165 340.843 179.893 339.93 179.82C337.944 179.793 336.019 180.506 334.53 181.82L327.25 187.62L335.51 198ZM357.39 208.79C359.044 207.612 360.187 205.85 360.59 203.86C360.722 202.91 360.646 201.942 360.368 201.023C360.09 200.105 359.617 199.258 358.98 198.54C358.415 197.753 357.686 197.096 356.844 196.617C356.002 196.137 355.066 195.845 354.1 195.76C352.053 195.694 350.058 196.409 348.52 197.76L340.43 204.2L349.24 215.27L357.39 208.79Z" fill="#4CD2D5"/>
<path d="M381.41 199.61L359.16 153.53L369.53 148.53L400.8 175.53L399.11 134.26L409.41 129.26L431.66 175.34L422.41 179.8L408.36 150.7L409.87 185.87L403.2 189.09L376.73 166.09L390.73 195.09L381.41 199.61Z" fill="#4CD2D5"/>
<path d="M428.76 123.44L445.76 119.73C449.366 118.909 453.083 118.69 456.76 119.08C460.128 119.417 463.391 120.437 466.35 122.08C469.25 123.742 471.757 126.011 473.7 128.73C477.922 134.961 479.586 142.576 478.35 150C477.713 153.248 476.379 156.318 474.44 159C472.434 161.718 469.892 163.995 466.97 165.69C463.772 167.58 460.286 168.931 456.65 169.69L439.65 173.4L428.76 123.44ZM448.11 163.56L454.98 162.06C460.28 160.9 464.04 158.467 466.26 154.76C468.48 151.053 469.003 146.523 467.83 141.17C466.663 135.837 464.3 131.937 460.74 129.47C457.18 127.003 452.75 126.36 447.45 127.54L440.57 129.04L448.11 163.56Z" fill="#4CD2D5"/>
<path d="M511.72 126.18C511.832 123.998 512.423 121.868 513.45 119.94C514.423 118.141 515.791 116.586 517.45 115.39C519.245 114.126 521.259 113.207 523.39 112.68C525.792 112.087 528.273 111.878 530.74 112.06C536.06 112.4 540.23 113.87 543.28 116.46C546.33 119.05 547.82 122.86 547.8 127.85L536.53 127.12C536.536 125.341 535.856 123.629 534.63 122.34C533.322 121.081 531.585 120.367 529.77 120.34C527.97 120.149 526.16 120.591 524.65 121.59C523.976 122.073 523.425 122.707 523.041 123.442C522.657 124.176 522.451 124.991 522.44 125.82C522.243 127.394 522.651 128.984 523.58 130.27C524.543 131.438 525.789 132.34 527.2 132.89C529.278 133.769 531.413 134.508 533.59 135.1C535.935 135.746 538.194 136.669 540.32 137.85C542.357 138.973 544.114 140.542 545.46 142.44C546.793 144.34 547.36 146.95 547.16 150.27C547.034 152.327 546.462 154.332 545.482 156.145C544.503 157.958 543.141 159.537 541.49 160.77C537.97 163.583 533.433 164.81 527.88 164.45C525.307 164.308 522.766 163.81 520.33 162.97C518.243 162.257 516.319 161.135 514.67 159.67C513.155 158.285 511.973 156.576 511.21 154.67C510.406 152.648 510.081 150.468 510.26 148.3L521.26 149C521.36 153.513 523.777 155.923 528.51 156.23C530.521 156.468 532.547 155.943 534.19 154.76C534.917 154.212 535.494 153.49 535.87 152.66C536.258 151.832 536.476 150.934 536.51 150.02C536.542 149.099 536.364 148.182 535.99 147.34C535.585 146.433 534.951 145.647 534.15 145.06C532.229 143.681 530.084 142.646 527.81 142C525.31 141.26 522.81 140.38 520.19 139.38C517.665 138.422 515.466 136.764 513.85 134.6C512.14 132.145 511.383 129.152 511.72 126.18Z" fill="#4CD2D5"/>
<path d="M576.92 119.2L571.44 139.82L592.7 145.47L598.18 124.85L608.18 127.5L595 177L585 174.34L590.63 153.16L569.37 147.51L563.75 168.7L553.75 166.05L566.88 116.59L576.92 119.2Z" fill="#4CD2D5"/>
<path d="M612.32 155.67C613.933 152.469 616.178 149.629 618.92 147.32C621.474 145.148 624.438 143.511 627.637 142.508C630.835 141.505 634.203 141.155 637.54 141.48C644.677 142.201 651.274 145.603 656 151C658.165 153.539 659.797 156.488 660.8 159.67C661.778 162.863 662.117 166.216 661.8 169.54C661.488 173.093 660.468 176.548 658.8 179.7C657.184 182.893 654.955 185.737 652.24 188.07C649.691 190.243 646.743 191.897 643.56 192.94C640.369 193.961 637.006 194.328 633.67 194.02C626.497 193.269 619.872 189.836 615.12 184.41C612.943 181.867 611.3 178.912 610.29 175.72C609.312 172.514 608.972 169.147 609.29 165.81C609.624 162.264 610.653 158.818 612.32 155.67ZM621.64 160.49C620.593 162.472 619.884 164.615 619.54 166.83C619.224 168.885 619.319 170.982 619.82 173C620.324 174.996 621.267 176.855 622.58 178.44C625.56 181.913 629.773 184.093 634.33 184.52C636.373 184.67 638.423 184.359 640.33 183.61C642.254 182.834 644.01 181.693 645.5 180.25C647.126 178.698 648.478 176.882 649.5 174.88C650.565 172.891 651.279 170.732 651.61 168.5C651.914 166.475 651.823 164.41 651.34 162.42C650.831 160.455 649.903 158.623 648.62 157.05C647.168 155.296 645.362 153.868 643.32 152.86C641.328 151.789 639.135 151.142 636.88 150.96C634.842 150.818 632.798 151.108 630.88 151.81C628.959 152.545 627.205 153.657 625.72 155.08C624.063 156.639 622.683 158.468 621.64 160.49Z" fill="#4CD2D5"/>
<path d="M698.18 178.51C702.913 182.31 705.557 186.31 706.11 190.51C706.448 192.464 706.368 194.468 705.877 196.39C705.386 198.311 704.494 200.107 703.26 201.66C700.837 204.71 697.397 206.786 693.57 207.51C691.257 207.919 688.877 207.712 686.67 206.91C683.833 205.915 681.197 204.418 678.89 202.49L672.26 197.16L659.49 213.04L651.43 206.56L683.5 166.7L698.18 178.51ZM683.85 196.33C685.91 197.99 687.85 198.72 689.75 198.53C691.724 198.146 693.498 197.076 694.759 195.509C696.02 193.943 696.686 191.98 696.64 189.97C696.41 188.09 695.28 186.33 693.22 184.68L686.59 179.35L677.22 191L683.85 196.33Z" fill="#4CD2D5"/>
<path d="M512.07 815C399.62 815 308.43 723.81 308.43 611.36V500.81L634 619.29C633.172 633.038 629.975 646.54 624.55 659.2C613.726 684.668 594.577 705.706 570.238 718.872C545.898 732.037 517.81 736.55 490.572 731.671C463.333 726.792 438.558 712.81 420.302 692.014C402.046 671.218 391.39 644.841 390.08 617.2L433.55 633C437.99 649.121 447.284 663.484 460.169 674.14C473.055 684.796 488.907 691.228 505.575 692.562C522.242 693.897 538.917 690.07 553.333 681.6C567.75 673.13 579.211 660.429 586.16 645.22L349.16 559V611.42C349.16 701.22 422.26 774.33 512.07 774.33C601.88 774.33 675 701.19 675 611.39V590.39L308.43 457V407.74C308.43 295.25 399.62 204.1 512.07 204.1C624.52 204.1 715.71 295.25 715.71 407.74V518.28L390.17 399.76C391.022 386.041 394.218 372.569 399.62 359.93C410.448 334.474 429.594 313.446 453.927 300.285C478.26 287.125 506.338 282.612 533.569 287.484C560.8 292.356 585.572 306.325 603.832 327.106C622.092 347.886 632.76 374.249 634.09 401.88L590.59 386.08C586.155 369.956 576.863 355.588 563.976 344.93C551.09 334.273 535.234 327.841 518.564 326.511C501.894 325.18 485.219 329.015 470.804 337.493C456.39 345.972 444.936 358.684 438 373.9L675 460.12V407.74C675 317.9 601.94 244.83 512.09 244.83C422.24 244.83 349.16 317.9 349.16 407.74V428.47L715.71 561.86V611.39C715.71 724 624.4 815 512.07 815Z" fill="#4CD2D5"/>
<path d="M275.12 701C277.143 700.166 279.325 699.79 281.51 699.9C283.558 700.014 285.552 700.596 287.34 701.6C289.25 702.69 290.944 704.12 292.34 705.82C293.907 707.735 295.156 709.889 296.04 712.2C298 717.153 298.457 721.56 297.41 725.42C296.41 729.27 293.58 732.26 289.05 734.36L284.89 723.87C286.499 723.11 287.757 721.765 288.41 720.11C289.005 718.388 288.923 716.504 288.18 714.84C287.587 713.13 286.412 711.682 284.86 710.75C284.138 710.344 283.331 710.115 282.504 710.08C281.677 710.045 280.853 710.206 280.1 710.55C278.592 711.043 277.327 712.091 276.56 713.48C275.919 714.85 275.637 716.361 275.74 717.87C275.828 720.127 276.072 722.376 276.47 724.6C276.886 726.993 277.017 729.426 276.86 731.85C276.701 734.179 276.017 736.442 274.86 738.47C273.72 740.47 271.6 742.12 268.51 743.34C266.596 744.106 264.538 744.445 262.479 744.334C260.421 744.224 258.411 743.666 256.59 742.7C252.55 740.7 249.503 737.123 247.45 731.97C246.479 729.583 245.847 727.072 245.57 724.51C245.313 722.317 245.507 720.095 246.14 717.98C246.734 716.027 247.76 714.233 249.14 712.73C250.631 711.14 252.469 709.915 254.51 709.15L258.51 719.37C254.47 721.37 253.323 724.583 255.07 729.01C255.715 730.931 257.057 732.54 258.83 733.52C259.634 733.944 260.532 734.157 261.44 734.14C262.353 734.135 263.257 733.952 264.1 733.6C264.947 733.235 265.7 732.681 266.3 731.98C266.949 731.226 267.39 730.316 267.58 729.34C268.009 727.028 268.03 724.659 267.64 722.34C267.25 719.76 266.95 717.09 266.76 714.34C266.543 711.646 267.102 708.947 268.37 706.56C269.856 703.937 272.261 701.956 275.12 701Z" fill="#D86221"/>
<path d="M259.76 759.83L312.76 747.4L319.36 757.7L285.88 800.57L279.98 791.37L286.29 783.37L275.54 766.57L265.65 769L259.76 759.83ZM291.51 776.92L305.51 759.24L283.63 764.64L291.51 776.92Z" fill="#D86221"/>
<path d="M332.14 775.38L339.08 783.04L307 812.14L318 824.31L312.18 829.58L294.18 809.75L332.14 775.38Z" fill="#D86221"/>
<path d="M376 816.71L371 822.81L356.19 810.58L347.65 820.92L360.76 831.75L355.76 837.86L342.55 827L333.55 837.91L348.36 850.15L343.36 856.25L320.58 837.43L353.26 797.87L376 816.71Z" fill="#D86221"/>
<path d="M373.55 833.24C374.614 831.333 376.081 829.681 377.85 828.4C379.533 827.221 381.461 826.438 383.49 826.11C385.66 825.77 387.875 825.838 390.02 826.31C392.438 826.833 394.757 827.738 396.89 828.99C401.503 831.657 404.6 834.823 406.18 838.49C407.76 842.157 407.427 846.223 405.18 850.69L395.39 845.06C396.176 843.465 396.327 841.631 395.81 839.93C395.209 838.204 393.971 836.774 392.35 835.93C390.821 834.965 389.004 834.562 387.21 834.79C386.39 834.927 385.614 835.253 384.942 835.743C384.27 836.232 383.722 836.872 383.34 837.61C382.476 838.936 382.144 840.54 382.41 842.1C382.749 843.589 383.466 844.967 384.49 846.1C385.968 847.807 387.558 849.414 389.25 850.91C391.071 852.524 392.693 854.35 394.08 856.35C395.41 858.259 396.291 860.443 396.66 862.74C397.03 865.04 396.38 867.63 394.73 870.51C393.704 872.294 392.302 873.834 390.622 875.024C388.942 876.214 387.024 877.024 385 877.4C380.6 878.373 375.987 877.467 371.16 874.68C368.913 873.423 366.856 871.854 365.05 870.02C363.493 868.459 362.262 866.602 361.43 864.56C360.675 862.655 360.36 860.604 360.51 858.56C360.697 856.384 361.381 854.28 362.51 852.41L372.04 857.9C370.14 861.993 371.243 865.22 375.35 867.58C377.049 868.687 379.102 869.111 381.1 868.77C381.993 868.599 382.828 868.207 383.53 867.63C384.244 867.061 384.836 866.353 385.27 865.55C385.707 864.736 385.95 863.833 385.98 862.91C386.023 861.921 385.806 860.939 385.35 860.06C384.234 857.974 382.766 856.096 381.01 854.51C379.1 852.74 377.21 850.83 375.33 848.8C373.491 846.823 372.253 844.364 371.76 841.71C371.297 838.763 371.935 835.748 373.55 833.24Z" fill="#D86221"/>
<path d="M432.8 862.8C433.308 860.674 434.286 858.689 435.66 856.99C436.963 855.4 438.611 854.127 440.48 853.27C442.48 852.369 444.63 851.847 446.82 851.73C449.292 851.592 451.769 851.849 454.16 852.49C459.307 853.823 463.137 856.047 465.65 859.16C468.163 862.273 468.933 866.273 467.96 871.16L457 868.37C457.323 866.618 456.965 864.808 456 863.31C454.958 861.815 453.384 860.774 451.6 860.4C449.873 859.87 448.014 859.965 446.35 860.67C445.59 861.012 444.922 861.53 444.401 862.18C443.88 862.83 443.52 863.594 443.35 864.41C442.86 865.918 442.964 867.556 443.64 868.99C444.365 870.318 445.418 871.437 446.7 872.24C448.577 873.497 450.538 874.623 452.57 875.61C454.751 876.678 456.795 878.004 458.66 879.56C460.499 881.022 461.983 882.882 463 885C464 887.12 464 889.78 463.2 893C462.693 894.998 461.756 896.861 460.456 898.46C459.156 900.059 457.522 901.356 455.67 902.26C451.67 904.367 446.983 904.723 441.61 903.33C439.109 902.712 436.706 901.749 434.47 900.47C432.553 899.376 430.874 897.911 429.53 896.16C428.303 894.527 427.456 892.641 427.05 890.64C426.646 888.498 426.735 886.292 427.31 884.19L437.91 887C437.17 891.46 439.09 894.27 443.68 895.46C445.609 896.069 447.696 895.934 449.53 895.08C450.329 894.668 451.016 894.068 451.53 893.33C452.069 892.591 452.453 891.751 452.66 890.86C452.87 889.962 452.87 889.028 452.66 888.13C452.434 887.161 451.958 886.268 451.28 885.54C449.655 883.825 447.743 882.407 445.63 881.35C443.31 880.15 440.977 878.817 438.63 877.35C436.328 875.939 434.479 873.899 433.3 871.47C432.073 868.74 431.895 865.653 432.8 862.8Z" fill="#D86221"/>
<path d="M474 884.48C474.139 880.904 474.992 877.391 476.51 874.15C477.927 871.113 479.939 868.392 482.429 866.148C484.918 863.905 487.833 862.185 491 861.09C497.796 858.773 505.219 859.131 511.76 862.09C514.796 863.495 517.517 865.498 519.76 867.98C521.983 870.473 523.702 873.373 524.82 876.52C527.13 883.34 526.773 890.782 523.82 897.35C522.407 900.373 520.416 903.091 517.96 905.35C515.487 907.607 512.582 909.338 509.42 910.44C502.586 912.752 495.131 912.394 488.55 909.44C485.513 908.037 482.792 906.033 480.55 903.55C478.316 901.052 476.6 898.136 475.5 894.97C474.317 891.605 473.808 888.041 474 884.48ZM484.47 884.99C484.34 887.229 484.59 889.474 485.21 891.63C485.774 893.63 486.733 895.497 488.03 897.12C489.321 898.72 490.95 900.014 492.8 900.91C496.956 902.833 501.696 903.066 506.02 901.56C507.91 900.833 509.617 899.7 511.02 898.24C512.446 896.738 513.563 894.971 514.31 893.04C515.932 888.815 516.157 884.182 514.95 879.82C514.385 877.852 513.441 876.015 512.17 874.41C510.9 872.827 509.295 871.547 507.47 870.66C503.314 868.739 498.574 868.506 494.25 870.01C492.332 870.725 490.589 871.844 489.14 873.29C487.699 874.757 486.566 876.498 485.81 878.41C484.984 880.513 484.524 882.742 484.45 885L484.47 884.99Z" fill="#D86221"/>
<path d="M532 860L542.25 858.61L548 901.57L564.27 899.36L565.33 907.13L538.81 910.73L532 860Z" fill="#D86221"/>
<path d="M571.48 886.16L561.98 856.16L571.83 853.04L581.34 883.1C582.4 886.45 584.04 888.73 586.26 889.92C588.48 891.11 591.26 891.2 594.42 890.19C597.58 889.18 599.82 887.53 600.98 885.27C602.14 883.01 602.18 880.2 601.12 876.84L591.62 846.84L601.4 843.74L610.91 873.8C611.812 876.513 612.169 879.378 611.96 882.23C611.76 884.822 611.01 887.341 609.76 889.62C608.483 891.902 606.742 893.891 604.65 895.46C602.365 897.181 599.796 898.487 597.06 899.32C594.347 900.219 591.496 900.626 588.64 900.52C586.083 900.426 583.575 899.792 581.28 898.66C579.005 897.498 577.007 895.861 575.42 893.86C573.633 891.565 572.296 888.952 571.48 886.16Z" fill="#D86221"/>
<path d="M638.48 823.88L642.24 830.88L630 837.42L650.55 875.49L641.55 880.36L621 842.3L608.87 848.84L605.11 841.84L638.48 823.88Z" fill="#D86221"/>
<path d="M672.45 861.83L642.66 820.23L651.07 814.23L680.85 855.84L672.45 861.83Z" fill="#D86221"/>
<path d="M673.75 830.39C671.221 827.855 669.225 824.839 667.88 821.52C666.615 818.414 665.988 815.085 666.036 811.732C666.084 808.378 666.806 805.069 668.16 802C671.085 795.448 676.389 790.251 683 787.46C686.09 786.197 689.402 785.568 692.74 785.61C696.078 785.679 699.372 786.392 702.44 787.71C709.006 790.653 714.209 795.978 717 802.61C718.278 805.708 718.93 809.029 718.92 812.38C718.895 815.727 718.191 819.033 716.85 822.1C713.92 828.671 708.616 833.893 702 836.72C698.904 838 695.58 838.637 692.23 838.59C688.879 838.527 685.573 837.807 682.5 836.47C679.209 835.043 676.235 832.977 673.75 830.39ZM681.24 823.05C682.794 824.678 684.613 826.03 686.62 827.05C688.47 827.993 690.489 828.557 692.56 828.71C694.603 828.849 696.652 828.535 698.56 827.79C700.667 826.96 702.578 825.7 704.17 824.09C705.829 822.529 707.137 820.634 708.01 818.53C708.789 816.63 709.131 814.58 709.01 812.53C708.88 810.463 708.347 808.442 707.44 806.58C706.465 804.561 705.164 802.716 703.59 801.12C702.026 799.491 700.196 798.138 698.18 797.12C696.355 796.188 694.363 795.627 692.32 795.47C690.278 795.328 688.23 795.635 686.32 796.37C684.198 797.201 682.276 798.473 680.68 800.1C679.041 801.66 677.744 803.543 676.87 805.63C676.083 807.529 675.714 809.576 675.79 811.63C675.888 813.684 676.398 815.697 677.29 817.55C678.283 819.595 679.619 821.455 681.24 823.05Z" fill="#D86221"/>
<path d="M738.46 800.06L695.41 772.12L701.04 763.45L743.41 763.33L713.65 744L719.28 735.32L762.28 763.27L756.7 772L714.32 772.11L744.08 791.43L738.46 800.06Z" fill="#D86221"/>
<path d="M735.42 735.3C733.377 734.531 731.529 733.318 730.01 731.75C728.601 730.253 727.545 728.459 726.92 726.5C726.276 724.404 726.025 722.207 726.18 720.02C726.348 717.55 726.908 715.123 727.84 712.83C729.8 707.877 732.467 704.353 735.84 702.26C739.213 700.167 743.287 699.9 748.06 701.46L744 712C742.306 711.456 740.468 711.577 738.86 712.34C737.245 713.186 736.015 714.617 735.42 716.34C734.68 717.991 734.545 719.85 735.04 721.59C735.292 722.38 735.725 723.099 736.305 723.691C736.885 724.284 737.596 724.732 738.38 725C739.818 725.664 741.452 725.764 742.96 725.28C744.366 724.718 745.608 723.81 746.57 722.64C748.05 720.932 749.409 719.125 750.64 717.23C751.97 715.197 753.541 713.334 755.32 711.68C757.027 710.076 759.08 708.885 761.32 708.2C763.54 707.533 766.207 707.793 769.32 708.98C771.239 709.733 772.971 710.895 774.396 712.386C775.821 713.876 776.904 715.659 777.57 717.61C779.17 721.823 778.943 726.517 776.89 731.69C775.964 734.095 774.708 736.36 773.16 738.42C771.842 740.188 770.183 741.674 768.28 742.79C766.505 743.802 764.527 744.407 762.49 744.56C760.317 744.703 758.139 744.341 756.13 743.5L760.13 733.28C764.45 734.567 767.483 733.007 769.23 728.6C770.075 726.762 770.2 724.675 769.58 722.75C769.278 721.893 768.77 721.124 768.1 720.51C767.435 719.882 766.649 719.395 765.79 719.08C764.919 718.768 763.99 718.655 763.07 718.75C762.09 718.847 761.151 719.191 760.34 719.75C758.436 721.151 756.791 722.873 755.48 724.84C754 726.993 752.387 729.143 750.64 731.29C748.956 733.398 746.704 734.98 744.15 735.85C741.273 736.757 738.161 736.561 735.42 735.3Z" fill="#D86221"/>
</svg>
