<svg width="80" height="80" viewBox="0 0 80 80" fill="none" xmlns="http://www.w3.org/2000/svg">
<path fill-rule="evenodd" clip-rule="evenodd" d="M52.375 11.4375C53.307 11.4375 54.0625 12.193 54.0625 13.125V18.1875H59.125C60.057 18.1875 60.8125 18.943 60.8125 19.875C60.8125 20.807 60.057 21.5625 59.125 21.5625H54.0625V26.625C54.0625 27.557 53.307 28.3125 52.375 28.3125C51.443 28.3125 50.6875 27.557 50.6875 26.625V21.5625H45.625C44.693 21.5625 43.9375 20.807 43.9375 19.875C43.9375 18.943 44.693 18.1875 45.625 18.1875H50.6875V13.125C50.6875 12.193 51.443 11.4375 52.375 11.4375Z" fill="#115264"/>
<path fill-rule="evenodd" clip-rule="evenodd" d="M52.375 9.1875C53.307 9.1875 54.0625 9.94302 54.0625 10.875V15.9375H59.125C60.057 15.9375 60.8125 16.693 60.8125 17.625C60.8125 18.557 60.057 19.3125 59.125 19.3125H54.0625V24.375C54.0625 25.307 53.307 26.0625 52.375 26.0625C51.443 26.0625 50.6875 25.307 50.6875 24.375V19.3125H45.625C44.693 19.3125 43.9375 18.557 43.9375 17.625C43.9375 16.693 44.693 15.9375 45.625 15.9375H50.6875V10.875C50.6875 9.94302 51.443 9.1875 52.375 9.1875Z" fill="url(#paint0_radial_301_2111)"/>
<path d="M17.5 19.875C17.5 15.102 17.5 12.7155 18.9828 11.2328C20.4655 9.75 22.852 9.75 27.625 9.75C32.398 9.75 34.7845 9.75 36.2672 11.2328C37.75 12.7155 37.75 15.102 37.75 19.875C37.75 24.648 37.75 27.0345 36.2672 28.5172C34.7845 30 32.398 30 27.625 30C22.852 30 20.4655 30 18.9828 28.5172C17.5 27.0345 17.5 24.648 17.5 19.875Z" fill="#115264"/>
<path d="M17.5 17.625C17.5 12.852 17.5 10.4655 18.9828 8.98277C20.4655 7.5 22.852 7.5 27.625 7.5C32.398 7.5 34.7845 7.5 36.2672 8.98277C37.75 10.4655 37.75 12.852 37.75 17.625C37.75 22.398 37.75 24.7845 36.2672 26.2672C34.7845 27.75 32.398 27.75 27.625 27.75C22.852 27.75 20.4655 27.75 18.9828 26.2672C17.5 24.7845 17.5 22.398 17.5 17.625Z" fill="url(#paint1_radial_301_2111)"/>
<path d="M42.25 46.125C42.25 41.352 42.25 38.9655 43.7328 37.4828C45.2155 36 47.602 36 52.375 36C57.148 36 59.5345 36 61.0172 37.4828C62.5 38.9655 62.5 41.352 62.5 46.125C62.5 50.898 62.5 53.2845 61.0172 54.7672C59.5345 56.25 57.148 56.25 52.375 56.25C47.602 56.25 45.2155 56.25 43.7328 54.7672C42.25 53.2845 42.25 50.898 42.25 46.125Z" fill="#115264"/>
<path d="M42.25 43.875C42.25 39.102 42.25 36.7155 43.7328 35.2328C45.2155 33.75 47.602 33.75 52.375 33.75C57.148 33.75 59.5345 33.75 61.0172 35.2328C62.5 36.7155 62.5 39.102 62.5 43.875C62.5 48.648 62.5 51.0345 61.0172 52.5172C59.5345 54 57.148 54 52.375 54C47.602 54 45.2155 54 43.7328 52.5172C42.25 51.0345 42.25 48.648 42.25 43.875Z" fill="url(#paint2_radial_301_2111)"/>
<path d="M17.5 46.125C17.5 41.352 17.5 38.9655 18.9828 37.4828C20.4655 36 22.852 36 27.625 36C32.398 36 34.7845 36 36.2672 37.4828C37.75 38.9655 37.75 41.352 37.75 46.125C37.75 50.898 37.75 53.2845 36.2672 54.7672C34.7845 56.25 32.398 56.25 27.625 56.25C22.852 56.25 20.4655 56.25 18.9828 54.7672C17.5 53.2845 17.5 50.898 17.5 46.125Z" fill="#115264"/>
<path d="M17.5 43.875C17.5 39.102 17.5 36.7155 18.9828 35.2328C20.4655 33.75 22.852 33.75 27.625 33.75C32.398 33.75 34.7845 33.75 36.2672 35.2328C37.75 36.7155 37.75 39.102 37.75 43.875C37.75 48.648 37.75 51.0345 36.2672 52.5172C34.7845 54 32.398 54 27.625 54C22.852 54 20.4655 54 18.9828 52.5172C17.5 51.0345 17.5 48.648 17.5 43.875Z" fill="url(#paint3_radial_301_2111)"/>
<ellipse opacity="0.2" cx="40" cy="71.25" rx="22.5" ry="3.75" fill="#1D2723"/>
<defs>
<radialGradient id="paint0_radial_301_2111" cx="0" cy="0" r="1" gradientUnits="userSpaceOnUse" gradientTransform="translate(52.375 25.1362) rotate(-90) scale(15.9487 14.2033)">
<stop offset="0.741078" stop-color="#4CD2D5"/>
<stop offset="1" stop-color="#5CF0F3"/>
</radialGradient>
<radialGradient id="paint1_radial_301_2111" cx="0" cy="0" r="1" gradientUnits="userSpaceOnUse" gradientTransform="translate(27.625 26.6384) rotate(-90) scale(19.1384 17.044)">
<stop offset="0.741078" stop-color="#4CD2D5"/>
<stop offset="1" stop-color="#5CF0F3"/>
</radialGradient>
<radialGradient id="paint2_radial_301_2111" cx="0" cy="0" r="1" gradientUnits="userSpaceOnUse" gradientTransform="translate(52.375 52.8884) rotate(-90) scale(19.1384 17.044)">
<stop offset="0.741078" stop-color="#4CD2D5"/>
<stop offset="1" stop-color="#5CF0F3"/>
</radialGradient>
<radialGradient id="paint3_radial_301_2111" cx="0" cy="0" r="1" gradientUnits="userSpaceOnUse" gradientTransform="translate(27.625 52.8884) rotate(-90) scale(19.1384 17.044)">
<stop offset="0.741078" stop-color="#4CD2D5"/>
<stop offset="1" stop-color="#5CF0F3"/>
</radialGradient>
</defs>
</svg>
