<svg width="1024" height="800" viewBox="0 0 1024 800" fill="none" xmlns="http://www.w3.org/2000/svg">
<g clip-path="url(#clip0_301_7058)">
<path fill-rule="evenodd" clip-rule="evenodd" d="M-150.216 338.024C-82.0214 321.359 -121.761 189.218 -64.5611 148.518C-22.6081 118.666 64.7063 122.938 86.5091 169.583C116.072 232.832 62.1196 304.952 39.4186 370.974C29.0758 401.055 -27.0685 424.033 -10.2667 451.042C27.375 511.553 158.057 499.654 163.659 570.697C168.011 625.881 51.3278 563.241 0.266674 584.618C-29.2268 596.966 -26.948 645.56 -54.3827 661.982C-82.3475 678.72 -124.768 695.128 -150.101 674.623C-182.255 648.597 -149.42 579.323 -184.192 556.914C-221.052 533.16 -271.516 581.972 -313.502 569.32C-364.976 553.809 -458.161 530.474 -444.341 478.521C-427.385 414.777 -292.557 456.705 -267.334 395.758C-242.371 335.436 -393.691 243.503 -335.136 214.638C-267.827 181.458 -223.113 355.837 -150.216 338.024Z" fill="#E1F9FA"/>
<path fill-rule="evenodd" clip-rule="evenodd" d="M1288.55 319.879C1337.69 394.209 1497.65 313.026 1543.12 389.651C1577.13 446.961 1478.22 509.103 1422.88 546.231C1375.04 578.329 1292.2 537.383 1256.05 582.243C1211.11 638.001 1285.51 754.138 1224.77 792.062C1172.92 824.434 1125.02 724.536 1069.67 698.606C1031.38 680.669 986.982 682.771 949.535 663.133C909.771 642.279 870.542 617.778 845.056 580.812C818.971 542.978 779.485 490.432 803.416 451.2C835.992 397.798 951.725 432.694 971.592 373.379C992.755 310.19 887.742 260.4 889.631 193.789C891.464 129.146 917.041 31.4259 981.451 25.6518C1054.94 19.0638 1071.87 159.58 1144.78 170.916C1216.21 182.023 1289.07 29.2716 1339.27 81.2861C1396.45 140.532 1243.14 251.191 1288.55 319.879Z" fill="#E1F9FA"/>
<path d="M631.996 56.5271C579.203 14.5827 505.738 9.93753 438.432 13.9787C373.707 17.8647 312.76 42.2865 259.25 78.907C248.195 86.4731 234.104 88.0847 221.523 83.4806C200.408 75.7532 178.636 70.0727 156.1 67.3859C148.684 66.5017 140.965 65.3915 133.083 64.2576C87.2976 57.6718 35.9779 50.2897 6.14583 81.7882C-18.5294 107.842 -17.192 145.092 -15.8282 183.075C-14.9708 206.957 -14.103 231.128 -19.6835 252.989C-27.9951 285.547 -42.345 315.546 -60.7112 343.686C-71.8629 360.772 -88.0095 375.033 -103.984 389.143C-129.074 411.304 -153.739 433.09 -157.964 464.854C-164.321 512.648 -130.249 560.898 -93.8029 592.462C-73.2002 610.305 -46.1983 615.054 -18.8858 619.857C1.14423 623.38 21.3421 626.932 39.3045 635.7C56.8109 644.245 71.6235 658.337 86.2695 672.27C107.372 692.346 128.129 712.093 156.1 714.444C168.927 715.522 182.197 714.537 195.26 711.749C241.459 701.886 291.823 689.545 336.448 705.043C405.126 728.895 478.112 750.817 548.399 732.235C556.346 730.134 564.151 727.639 571.806 724.781C606.949 711.66 646.283 718.533 683.235 724.992C714.101 730.386 743.319 718.346 772.903 706.155C791.556 698.469 810.353 690.722 829.801 687.248C849.815 683.673 871.196 685.005 892.379 686.324C927.498 688.512 962.074 690.666 988.984 670.371C1013.33 652.014 1019.42 621.257 1025.63 589.943C1030.36 566.053 1035.16 541.838 1048.17 522.56C1062.9 500.743 1088.06 484.517 1112.67 468.648C1149.12 445.142 1184.36 422.418 1182.68 383.461C1181.11 347.057 1146.23 328.701 1110.2 309.737C1080.26 293.976 1049.52 277.794 1036.44 250.481C1023.3 223.058 1029.99 188.614 1036.49 155.114C1044.37 114.523 1051.98 75.317 1023.73 51.6608C990.115 23.5071 944.542 40.1146 898.498 56.8941C874.963 65.4705 851.305 74.0919 829.057 76.804C817.36 78.23 805.78 79.735 794.254 81.233C760.25 85.6526 726.713 90.0112 692.011 92.0997C673.512 93.2129 657.392 81.7609 644.71 68.2473C640.817 64.0992 636.596 60.1815 631.996 56.5271Z" fill="#4CD2D5"/>
</g>
<defs>
<clipPath id="clip0_301_7058">
<rect width="1920" height="800" fill="white" transform="translate(-448)"/>
</clipPath>
</defs>
</svg>
