<svg width="1920" height="800" viewBox="0 0 1920 800" fill="none" xmlns="http://www.w3.org/2000/svg">
<g clip-path="url(#clip0_301_6867)">
<path fill-rule="evenodd" clip-rule="evenodd" d="M297.784 338.024C365.979 321.359 326.239 189.218 383.439 148.518C425.392 118.666 512.706 122.938 534.509 169.583C564.072 232.832 510.12 304.952 487.419 370.974C477.076 401.055 420.932 424.033 437.733 451.042C475.375 511.553 606.057 499.654 611.659 570.697C616.011 625.881 499.328 563.241 448.267 584.618C418.773 596.966 421.052 645.56 393.617 661.982C365.652 678.72 323.232 695.128 297.899 674.623C265.745 648.597 298.58 579.323 263.808 556.914C226.948 533.16 176.484 581.972 134.498 569.32C83.0236 553.809 -10.1613 530.474 3.65854 478.521C20.6146 414.777 155.443 456.705 180.666 395.758C205.629 335.436 54.3093 243.503 112.864 214.638C180.173 181.458 224.887 355.837 297.784 338.024Z" fill="#E1F9FA"/>
<path fill-rule="evenodd" clip-rule="evenodd" d="M1736.55 319.879C1785.69 394.209 1945.65 313.026 1991.12 389.651C2025.13 446.961 1926.22 509.103 1870.88 546.231C1823.04 578.329 1740.2 537.383 1704.05 582.243C1659.11 638.001 1733.51 754.138 1672.77 792.062C1620.92 824.434 1573.02 724.536 1517.67 698.606C1479.38 680.669 1434.98 682.771 1397.54 663.133C1357.77 642.279 1318.54 617.778 1293.06 580.812C1266.97 542.978 1227.48 490.432 1251.42 451.2C1283.99 397.798 1399.73 432.694 1419.59 373.379C1440.76 310.19 1335.74 260.4 1337.63 193.789C1339.46 129.146 1365.04 31.4259 1429.45 25.6518C1502.94 19.0638 1519.87 159.58 1592.78 170.916C1664.21 182.023 1737.07 29.2716 1787.27 81.2861C1844.45 140.532 1691.14 251.191 1736.55 319.879Z" fill="#E1F9FA"/>
<path d="M1080 56.5271C1027.2 14.5827 953.738 9.93753 886.432 13.9787C821.707 17.8647 760.76 42.2865 707.25 78.907C696.195 86.4731 682.104 88.0847 669.523 83.4806C648.408 75.7532 626.636 70.0727 604.1 67.3859C596.684 66.5017 588.965 65.3915 581.083 64.2576C535.298 57.6718 483.978 50.2897 454.146 81.7882C429.471 107.842 430.808 145.092 432.172 183.075C433.029 206.957 433.897 231.128 428.316 252.989C420.005 285.547 405.655 315.546 387.289 343.686C376.137 360.772 359.99 375.033 344.016 389.143C318.926 411.304 294.261 433.09 290.036 464.854C283.679 512.648 317.751 560.898 354.197 592.462C374.8 610.305 401.802 615.054 429.114 619.857C449.144 623.38 469.342 626.932 487.305 635.7C504.811 644.245 519.624 658.337 534.269 672.27C555.372 692.346 576.129 712.093 604.1 714.444C616.927 715.522 630.197 714.537 643.26 711.749C689.459 701.886 739.823 689.545 784.448 705.043C853.126 728.895 926.112 750.817 996.399 732.235C1004.35 730.134 1012.15 727.639 1019.81 724.781C1054.95 711.66 1094.28 718.533 1131.24 724.992C1162.1 730.386 1191.32 718.346 1220.9 706.155C1239.56 698.469 1258.35 690.722 1277.8 687.248C1297.82 683.673 1319.2 685.005 1340.38 686.324C1375.5 688.512 1410.07 690.666 1436.98 670.371C1461.33 652.014 1467.42 621.257 1473.63 589.943C1478.36 566.053 1483.16 541.838 1496.17 522.56C1510.9 500.743 1536.06 484.517 1560.67 468.648C1597.12 445.142 1632.36 422.418 1630.68 383.461C1629.11 347.057 1594.23 328.701 1558.2 309.737C1528.26 293.976 1497.52 277.794 1484.44 250.481C1471.3 223.058 1477.99 188.614 1484.49 155.114C1492.37 114.523 1499.98 75.317 1471.73 51.6608C1438.12 23.5071 1392.54 40.1146 1346.5 56.8941C1322.96 65.4705 1299.3 74.0919 1277.06 76.804C1265.36 78.23 1253.78 79.735 1242.25 81.233C1208.25 85.6526 1174.71 90.0112 1140.01 92.0997C1121.51 93.2129 1105.39 81.7609 1092.71 68.2473C1088.82 64.0992 1084.6 60.1815 1080 56.5271Z" fill="#4CD2D5"/>
<g filter="url(#filter0_d_301_6867)">
<circle cx="307.1" cy="328.078" r="25" fill="url(#paint0_radial_301_6867)"/>
</g>
<g filter="url(#filter1_d_301_6867)">
<circle cx="1733.1" cy="305.252" r="25" fill="url(#paint1_radial_301_6867)"/>
</g>
</g>
<defs>
<filter id="filter0_d_301_6867" x="273.1" y="300.078" width="68" height="68" filterUnits="userSpaceOnUse" color-interpolation-filters="sRGB">
<feFlood flood-opacity="0" result="BackgroundImageFix"/>
<feColorMatrix in="SourceAlpha" type="matrix" values="0 0 0 0 0 0 0 0 0 0 0 0 0 0 0 0 0 0 127 0" result="hardAlpha"/>
<feMorphology radius="5" operator="erode" in="SourceAlpha" result="effect1_dropShadow_301_6867"/>
<feOffset dy="6"/>
<feGaussianBlur stdDeviation="7"/>
<feComposite in2="hardAlpha" operator="out"/>
<feColorMatrix type="matrix" values="0 0 0 0 0.0352941 0 0 0 0 0.694118 0 0 0 0 0.72549 0 0 0 0.4 0"/>
<feBlend mode="normal" in2="BackgroundImageFix" result="effect1_dropShadow_301_6867"/>
<feBlend mode="normal" in="SourceGraphic" in2="effect1_dropShadow_301_6867" result="shape"/>
</filter>
<filter id="filter1_d_301_6867" x="1699.1" y="277.252" width="68" height="68" filterUnits="userSpaceOnUse" color-interpolation-filters="sRGB">
<feFlood flood-opacity="0" result="BackgroundImageFix"/>
<feColorMatrix in="SourceAlpha" type="matrix" values="0 0 0 0 0 0 0 0 0 0 0 0 0 0 0 0 0 0 127 0" result="hardAlpha"/>
<feMorphology radius="5" operator="erode" in="SourceAlpha" result="effect1_dropShadow_301_6867"/>
<feOffset dy="6"/>
<feGaussianBlur stdDeviation="7"/>
<feComposite in2="hardAlpha" operator="out"/>
<feColorMatrix type="matrix" values="0 0 0 0 0.0352941 0 0 0 0 0.694118 0 0 0 0 0.72549 0 0 0 0.4 0"/>
<feBlend mode="normal" in2="BackgroundImageFix" result="effect1_dropShadow_301_6867"/>
<feBlend mode="normal" in="SourceGraphic" in2="effect1_dropShadow_301_6867" result="shape"/>
</filter>
<radialGradient id="paint0_radial_301_6867" cx="0" cy="0" r="1" gradientUnits="userSpaceOnUse" gradientTransform="translate(310.1 312.078) rotate(105.018) scale(42.45)">
<stop stop-color="#19E2CC"/>
<stop offset="1" stop-color="#08B0B8"/>
</radialGradient>
<radialGradient id="paint1_radial_301_6867" cx="0" cy="0" r="1" gradientUnits="userSpaceOnUse" gradientTransform="translate(1736.1 289.252) rotate(105.018) scale(42.45)">
<stop stop-color="#19E2CC"/>
<stop offset="1" stop-color="#08B0B8"/>
</radialGradient>
<clipPath id="clip0_301_6867">
<rect width="1920" height="800" fill="white"/>
</clipPath>
</defs>
</svg>
