<svg width="80" height="80" viewBox="0 0 80 80" fill="none" xmlns="http://www.w3.org/2000/svg">
<path d="M31.0557 51.5451C35.4448 53.8484 37.6393 55 40 55V30L16.595 17.6816C16.5606 17.737 16.5267 17.7929 16.4935 17.8494C15 20.3857 15 23.5417 15 29.8538V30.1463C15 36.4584 15 39.6144 16.4935 42.1507C17.987 44.687 20.6766 46.0984 26.0557 48.9212L31.0557 51.5451Z" fill="#08B0B8"/>
<path d="M53.9435 11.0788L48.9435 8.45492C44.5544 6.15164 42.3599 5 39.9992 5C37.6385 5 35.444 6.15164 31.0549 8.45491L26.0549 11.0788C20.7955 13.8388 18.1073 15.2495 16.5942 17.6816L39.9992 30L63.4042 17.6816C61.8911 15.2495 59.2029 13.8388 53.9435 11.0788Z" fill="url(#paint0_diamond_301_2091)"/>
<path d="M63.5065 17.8494C63.4733 17.7929 63.4394 17.737 63.405 17.6816L40 30V55C42.3607 55 44.5552 53.8484 48.9443 51.5451L53.9443 48.9212C59.3234 46.0984 62.013 44.687 63.5065 42.1507C65 39.6144 65 36.4584 65 30.1463V29.8538C65 23.5417 65 20.3857 63.5065 17.8494Z" fill="#4CD2D5"/>
<path d="M25 11.7099C25.0381 11.7347 25.0773 11.7582 25.1176 11.7805L49.7998 25.4017V33.0448C49.7998 34.0804 50.6392 34.9198 51.6748 34.9198C52.7103 34.9198 53.5498 34.0804 53.5498 33.0448V23.188L28.973 9.625L25.2297 11.5894C25.1526 11.6299 25.076 11.67 25 11.7099Z" fill="#115264"/>
<path d="M25.8252 11.1992C25.8632 11.2239 25.9025 11.2475 25.9428 11.2698L50.625 24.8909V32.5341C50.625 33.5696 51.4644 34.4091 52.5 34.4091C53.5355 34.4091 54.375 33.5696 54.375 32.5341V22.6773L29.7982 9.11426L26.0549 11.0786C25.9778 11.1191 25.9012 11.1593 25.8252 11.1992Z" fill="white"/>
<ellipse opacity="0.2" cx="40" cy="71.25" rx="22.5" ry="3.75" fill="#1D2723"/>
<defs>
<radialGradient id="paint0_diamond_301_2091" cx="0" cy="0" r="1" gradientUnits="userSpaceOnUse" gradientTransform="translate(39.9992 28.6277) rotate(-90) scale(23.6277 39.3989)">
<stop offset="0.675571" stop-color="#52DFE2"/>
<stop offset="1" stop-color="#68FAFD"/>
</radialGradient>
</defs>
</svg>
