<svg width="80" height="80" viewBox="0 0 80 80" fill="none" xmlns="http://www.w3.org/2000/svg">
<path d="M40.0777 30C40.1004 29.9651 40.122 29.9292 40.1424 29.8922L52.6284 7.2669L59.6347 7.2669C60.5839 7.2669 61.3534 6.49739 61.3534 5.54815C61.3534 4.59891 60.5839 3.8294 59.6347 3.8294L50.5993 3.8294L38.1665 26.3581L39.9672 29.7894C40.0043 29.8601 40.0411 29.9303 40.0777 30Z" fill="#115264"/>
<path d="M39.3492 28.6709C39.3719 28.636 39.3934 28.6001 39.4139 28.5631L51.8999 5.93779L58.9061 5.93779C59.8554 5.93779 60.6249 5.16828 60.6249 4.21904C60.6249 3.26981 59.8554 2.5003 58.9061 2.5003L49.8707 2.5003L37.438 25.029L39.2387 28.4603C39.2758 28.531 39.3126 28.6012 39.3492 28.6709Z" fill="white"/>
<path d="M42.5201 13.7969H54.5147C58.4304 13.7969 60.3883 13.7969 61.9282 14.7436C62.1939 14.9069 62.4472 15.0895 62.6863 15.2898C64.0717 16.4508 64.6914 18.308 65.9308 22.0222L66.0072 22.2511C66.6864 24.2864 67.0259 25.3041 66.6672 26.0736C66.554 26.3164 66.396 26.5357 66.2014 26.7199C65.5851 27.3038 64.5123 27.3038 62.3666 27.3038L61.4585 33.5054H35.576L34.6681 27.3038C32.5225 27.3038 31.4497 27.3038 30.8334 26.7199C30.6389 26.5357 30.4809 26.3164 30.3677 26.0736C30.0089 25.3041 30.3485 24.2864 31.0277 22.2511L31.104 22.0224C32.3434 18.308 32.9631 16.4509 34.3486 15.2898C34.5876 15.0895 34.841 14.9069 35.1067 14.7436C36.6466 13.7969 38.6044 13.7969 42.5201 13.7969Z" fill="#115264"/>
<path d="M50.7395 56.4098H46.2951C42.7823 56.4098 41.026 56.4098 39.8258 55.3725C38.6257 54.3353 38.3712 52.5975 37.8624 49.1218L37.6036 47.3546H59.4309L59.1722 49.1218C58.6633 52.5975 58.4089 54.3353 57.2088 55.3725C56.0086 56.4098 54.2523 56.4098 50.7395 56.4098Z" fill="#115264"/>
<path d="M42.5201 11.667H54.5147C58.4304 11.667 60.3883 11.667 61.9282 12.6137C62.1939 12.777 62.4472 12.9596 62.6863 13.1599C64.0717 14.321 64.6914 16.1781 65.9308 19.8924L66.0072 20.1212C66.6864 22.1565 67.0259 23.1742 66.6672 23.9437C66.554 24.1865 66.396 24.4058 66.2014 24.5901C65.5851 25.1739 64.5123 25.1739 62.3666 25.1739L61.4585 31.3755H35.576L34.6681 25.1739C32.5225 25.1739 31.4497 25.1739 30.8334 24.5901C30.6389 24.4058 30.4809 24.1865 30.3677 23.9437C30.0089 23.1742 30.3485 22.1565 31.0277 20.1212L31.104 19.8925C32.3434 16.1781 32.9631 14.321 34.3486 13.1599C34.5876 12.9596 34.841 12.777 35.1067 12.6137C36.6466 11.667 38.6044 11.667 42.5201 11.667Z" fill="url(#paint0_radial_301_1091)"/>
<path d="M50.7395 54.2799H46.2951C42.7823 54.2799 41.026 54.2799 39.8258 53.2427C38.6257 52.2054 38.3712 50.4676 37.8624 46.9919L37.6036 45.2247H59.4309L59.1722 46.9919C58.6633 50.4676 58.4089 52.2054 57.2088 53.2427C56.0086 54.2799 54.2523 54.2799 50.7395 54.2799Z" fill="url(#paint1_radial_301_1091)"/>
<path d="M59.8988 44.1594H37.1357L36.0439 36.7021H60.9906L59.8988 44.1594Z" fill="#115264"/>
<path d="M59.8988 42.0285H37.1357L36.0439 34.5713H60.9906L59.8988 42.0285Z" fill="#E1F9FA"/>
<mask id="mask0_301_1091" style="mask-type:alpha" maskUnits="userSpaceOnUse" x="13" y="18" width="26" height="40">
<path fill-rule="evenodd" clip-rule="evenodd" d="M35.8211 52.9483L31.4978 29.3035L26.4668 29.3035C25.7713 29.3035 25.2883 28.6112 25.5282 27.9585L27.8264 21.7056H38.4039V54.5886H37.7885C36.8227 54.5886 35.9949 53.8984 35.8211 52.9483ZM38.4039 21.7056H38.417V57.5001H13.1875V21.7056H27.8264L29.1801 18.0225H38.4039V21.7056Z" fill="#D9D9D9"/>
</mask>
<g mask="url(#mask0_301_1091)">
<path d="M42.2162 44.8719C43.046 44.0442 43.5656 43.5576 44.699 43.5576C45.6988 43.5576 46.6071 43.9571 47.3617 44.4786C45.6149 51.9094 38.9431 57.4413 30.9792 57.4413C23.3519 57.4413 16.9097 52.3671 14.8442 45.4102C16.2329 46.1721 18.0225 46.9234 19.7575 46.9234C21.1268 46.9234 22.5086 46.4577 23.6707 45.9174C24.5664 45.501 25.3916 45.0115 26.064 44.571C27.2208 46.0056 28.9928 46.9234 30.9792 46.9234C32.2443 46.9234 33.4224 46.5511 34.4101 45.9102C35.3758 46.4765 36.5729 46.9234 37.9506 46.9234C40.1606 46.9234 41.3266 45.7597 42.1806 44.9074L42.2162 44.8719Z" fill="#B57337"/>
<path d="M26.4365 38.4808C26.4365 36.3896 28.1318 34.6943 30.223 34.6943C32.3142 34.6943 34.0094 36.3896 34.0094 38.4808C34.0094 40.572 32.3142 42.2673 30.223 42.2673C28.1318 42.2673 26.4365 40.572 26.4365 38.4808Z" fill="#1DAFB3"/>
<path fill-rule="evenodd" clip-rule="evenodd" d="M30.2228 32.1703C26.7374 32.1703 23.912 34.9957 23.912 38.4811C23.912 39.0704 23.9928 39.6408 24.1439 40.182C23.5066 40.6114 22.7055 41.0991 21.85 41.4969C20.8336 41.9695 19.8405 42.2675 19.001 42.2675C17.7223 42.2675 16.1502 41.5831 14.7724 40.7625C14.2677 40.4618 13.8173 40.1602 13.4532 39.902C13.414 39.4335 13.394 38.9596 13.394 38.4811C13.394 33.4292 15.62 28.8973 19.1447 25.8126C19.1721 25.8464 19.2016 25.8791 19.2331 25.9106L20.9159 27.5934C21.4088 28.0863 22.208 28.0863 22.7009 27.5934C23.1938 27.1005 23.1938 26.3014 22.7009 25.8085L21.1789 24.2865C23.7909 22.6188 26.894 21.6523 30.2228 21.6523C35.2746 21.6523 39.8066 23.8783 42.8912 27.403C42.8574 27.4304 42.8247 27.4599 42.7933 27.4914L41.1104 29.1742C40.6175 29.6671 40.6175 30.4663 41.1104 30.9592C41.6033 31.4521 42.4025 31.4521 42.8954 30.9592L44.4173 29.4372C46.085 32.0492 47.0515 35.1523 47.0515 38.4811C47.0515 38.8767 47.0378 39.2691 47.011 39.6579C46.1306 39.2155 45.0993 38.9018 43.9426 38.9018C41.7326 38.9018 40.5666 40.0654 39.7125 40.9178L39.677 40.9532C38.8472 41.781 38.3276 42.2675 37.1942 42.2675C36.6045 42.2675 36.0449 42.1295 35.5252 41.9045C36.1632 40.9184 36.5335 39.743 36.5335 38.4811C36.5335 34.9957 33.7081 32.1703 30.2228 32.1703ZM37.7116 25.6912C38.2692 26.1095 38.3822 26.9006 37.964 27.4583L35.4397 30.824C35.0214 31.3817 34.2303 31.4947 33.6727 31.0764C33.115 30.6582 33.002 29.8671 33.4202 29.3094L35.9445 25.9437C36.3628 25.386 37.1539 25.273 37.7116 25.6912ZM27.6474 24.1256C27.1545 24.6185 27.1545 25.4177 27.6474 25.9106L29.3303 27.5934C29.8232 28.0863 30.6223 28.0863 31.1152 27.5934C31.6082 27.1005 31.6082 26.3014 31.1152 25.8085L29.4324 24.1256C28.9395 23.6327 28.1403 23.6327 27.6474 24.1256ZM24.1805 31.0094C24.3609 31.6827 25.053 32.0822 25.7263 31.9018L28.0251 31.2859C28.6984 31.1054 29.098 30.4134 28.9176 29.74C28.7372 29.0667 28.0451 28.6671 27.3718 28.8476L25.0729 29.4635C24.3996 29.6439 24.0001 30.336 24.1805 31.0094ZM38.2189 37.031C38.9152 36.9983 39.4531 36.4073 39.4204 35.711L39.3086 33.3337C39.2759 32.6374 38.6849 32.0994 37.9886 32.1321C37.2923 32.1649 36.7544 32.7559 36.7871 33.4522L36.8988 35.8295C36.9316 36.5258 37.5226 37.0637 38.2189 37.031ZM41.9041 37.7304C42.3648 38.2535 43.1623 38.3041 43.6855 37.8434L45.6605 36.2056C46.1836 35.7449 46.2342 34.9474 45.7735 34.4242C45.3128 33.9011 44.5152 33.8505 43.9921 34.3112L42.0171 35.949C41.494 36.4097 41.4434 37.2072 41.9041 37.7304ZM19.952 30.3589C19.3174 30.6474 19.0368 31.3957 19.3252 32.0302L20.3101 34.1968C20.5986 34.8314 21.3468 35.112 21.9814 34.8236C22.616 34.5351 22.8966 33.7868 22.6081 33.1522L21.6233 30.9856C21.3348 30.3511 20.5865 30.0705 19.952 30.3589ZM21.7126 36.6214C22.2751 37.0331 22.3974 37.8228 21.9857 38.3853L20.5801 40.3059C20.1684 40.8684 19.3787 40.9906 18.8162 40.579C18.2537 40.1673 18.1314 39.3775 18.5431 38.815L19.9487 36.8945C20.3604 36.332 21.1501 36.2097 21.7126 36.6214ZM16.0233 32.0674C15.3273 32.1061 14.7945 32.7018 14.8333 33.3978L14.9656 35.774C15.0044 36.47 15.6001 37.0028 16.296 36.964C16.992 36.9253 17.5248 36.3296 17.486 35.6336L17.3537 33.2574C17.3149 32.5614 16.7193 32.0286 16.0233 32.0674Z" fill="#4CD2D5"/>
<path d="M41.4598 42.7401C42.2896 41.9123 42.8093 41.4258 43.9426 41.4258C44.9425 41.4258 45.8508 41.8253 46.6054 42.3468C44.8585 49.7776 38.1867 55.3095 30.2229 55.3095C22.5955 55.3095 16.1534 50.2353 14.0879 43.2784C15.4766 44.0403 17.2662 44.7915 19.0011 44.7915C20.3704 44.7915 21.7522 44.3259 22.9144 43.7856C23.81 43.3691 24.6353 42.8797 25.3076 42.4392C26.4644 43.8738 28.2365 44.7915 30.2229 44.7915C31.4879 44.7915 32.6661 44.4193 33.6537 43.7783C34.6195 44.3447 35.8166 44.7915 37.1942 44.7915C39.4043 44.7915 40.5702 43.6279 41.4243 42.7755L41.4598 42.7401Z" fill="#EDAC70"/>
</g>
<ellipse opacity="0.2" cx="40" cy="71.25" rx="22.5" ry="3.75" fill="#1D2723"/>
<defs>
<radialGradient id="paint0_radial_301_1091" cx="0" cy="0" r="1" gradientUnits="userSpaceOnUse" gradientTransform="translate(48.5174 51.9407) rotate(-90) scale(40.2737 30.7966)">
<stop offset="0.741078" stop-color="#4CD2D5"/>
<stop offset="1" stop-color="#5CF0F3"/>
</radialGradient>
<radialGradient id="paint1_radial_301_1091" cx="0" cy="0" r="1" gradientUnits="userSpaceOnUse" gradientTransform="translate(48.5174 51.9407) rotate(-90) scale(40.2737 30.7966)">
<stop offset="0.741078" stop-color="#4CD2D5"/>
<stop offset="1" stop-color="#5CF0F3"/>
</radialGradient>
</defs>
</svg>
