<svg width="80" height="80" viewBox="0 0 80 80" fill="none" xmlns="http://www.w3.org/2000/svg">
<ellipse opacity="0.2" cx="40" cy="71.25" rx="22.5" ry="3.75" fill="#1D2723"/>
<path d="M26.4157 55.8092C30.8073 55.8092 34.3675 52.2491 34.3675 47.8574H18.4639C18.4639 52.2491 22.024 55.8092 26.4157 55.8092Z" fill="#115264"/>
<path d="M59.0823 33.2731L56.8973 34.6043L52.5435 25.3271H56.4715C58.1081 25.3271 58.9264 25.3271 59.5374 25.6761C59.9487 25.911 60.2895 26.2519 60.5244 26.6632C60.8734 27.2742 60.8734 28.0925 60.8734 29.7291C60.8734 30.5945 60.8734 31.0272 60.7477 31.4206C60.6622 31.6884 60.5346 31.9409 60.3697 32.1686C60.1275 32.5032 59.7791 32.7598 59.0823 33.2731L59.0823 33.2731Z" fill="#115264"/>
<path d="M59.0823 30.6227L56.8973 31.9539L52.5435 22.6768H56.4715C58.1081 22.6768 58.9264 22.6768 59.5374 23.0257C59.9487 23.2606 60.2895 23.6015 60.5244 24.0128C60.8734 24.6238 60.8734 25.4421 60.8734 27.0787C60.8734 27.9441 60.8734 28.3768 60.7477 28.7702C60.6622 29.038 60.5346 29.2905 60.3697 29.5182C60.1275 29.8528 59.7791 30.1094 59.0823 30.6227L59.0823 30.6227Z" fill="#69FAFD"/>
<path d="M45.9355 20.7772C45.104 20.6913 44.028 20.6888 42.3931 20.6888H40.994C39.8961 20.6888 39.006 19.7988 39.006 18.7008C39.006 17.6029 39.8961 16.7129 40.994 16.7129H42.4909C44.0016 16.7128 45.2844 16.7128 46.3444 16.8224C47.4731 16.9391 48.5162 17.1925 49.5016 17.8015C50.487 18.4106 51.1801 19.2302 51.7893 20.1875C52.3614 21.0866 52.935 22.2339 53.6106 23.5852L61.9564 40.2769C65.1708 41.2971 67.5 44.3053 67.5 47.8575C67.5 52.2491 63.9399 55.8093 59.5482 55.8093C55.843 55.8093 52.7296 53.2751 51.8469 49.8454L17.2982 49.8455C17.1224 49.8455 16.9423 49.8443 16.7747 49.8311C14.5 49.6521 12.6934 47.8455 12.5143 45.5708C12.4998 45.3859 12.4999 45.1857 12.5 44.9928L12.5 44.8409C12.5 43.9528 12.5 43.3881 12.5389 42.8937C13.0248 36.7197 17.9286 31.8159 24.1026 31.33C24.167 31.325 24.2327 31.3205 24.3001 31.3167C24.685 31.2948 25.1272 31.2917 25.7312 31.2913L27.8788 31.2912C30.2603 31.2911 32.2462 31.2911 33.8228 31.503C35.4868 31.7268 36.9892 32.2189 38.1964 33.4262C39.4037 34.6334 39.8958 36.1358 40.1196 37.7998C40.3315 39.3763 40.3314 41.3622 40.3314 43.7437L40.3314 45.8695H51.8469C52.5578 43.1075 54.7153 40.9263 57.4636 40.1817L50.0981 25.4508C49.367 23.9885 48.8836 23.0272 48.4348 22.3219C48.0108 21.6555 47.707 21.3663 47.4113 21.1836C47.1157 21.0009 46.7212 20.8585 45.9355 20.7772Z" fill="#115264"/>
<path d="M45.9355 18.1268C45.104 18.0409 44.028 18.0384 42.3931 18.0384H40.994C39.8961 18.0384 39.006 17.1484 39.006 16.0505C39.006 14.9525 39.8961 14.0625 40.994 14.0625H42.4909C44.0016 14.0625 45.2844 14.0624 46.3444 14.172C47.4731 14.2887 48.5162 14.5421 49.5016 15.1511C50.487 15.7602 51.1801 16.5798 51.7893 17.5371C52.3614 18.4362 52.935 19.5835 53.6106 20.9349L61.9564 37.6265C65.1708 38.6467 67.5 41.6549 67.5 45.2071C67.5 49.5987 63.9399 53.1589 59.5482 53.1589C55.843 53.1589 52.7296 50.6247 51.8469 47.195L17.2982 47.1951C17.1224 47.1951 16.9423 47.1939 16.7747 47.1807C14.5 47.0017 12.6934 45.1951 12.5143 42.9204C12.4998 42.7355 12.4999 42.5353 12.5 42.3425L12.5 42.1905C12.5 41.3024 12.5 40.7377 12.5389 40.2434C13.0248 34.0693 17.9286 29.1655 24.1026 28.6796C24.167 28.6746 24.2327 28.6702 24.3001 28.6663C24.685 28.6444 25.1272 28.6413 25.7312 28.6409L27.8788 28.6408C30.2603 28.6407 32.2462 28.6407 33.8228 28.8526C35.4868 29.0764 36.9892 29.5685 38.1964 30.7758C39.4037 31.983 39.8958 33.4854 40.1196 35.1494C40.3315 36.7259 40.3314 38.7118 40.3314 41.0933L40.3314 43.2191H51.8469C52.5578 40.4571 54.7153 38.2759 57.4636 37.5313L50.0981 22.8004C49.367 21.3381 48.8836 20.3768 48.4348 19.6715C48.0108 19.0051 47.707 18.7159 47.4113 18.5332C47.1157 18.3505 46.7212 18.2081 45.9355 18.1268Z" fill="url(#paint0_radial_301_317)"/>
<defs>
<radialGradient id="paint0_radial_301_317" cx="0" cy="0" r="1" gradientUnits="userSpaceOnUse" gradientTransform="translate(58.7175 53.1589) rotate(-141.162) scale(43.4177 54.3949)">
<stop offset="0.688777" stop-color="#4CD2D5"/>
<stop offset="1" stop-color="#5CF0F3"/>
</radialGradient>
</defs>
</svg>
